#define puppy_2_0_width 200
#define puppy_2_0_height 96
static unsigned char puppy_2_0_bits[] = {
   0x00, 0x00, 0x00, 0x00, 0x00, 0x00, 0x00, 0x18, 0x00, 0x00, 0x00, 0x00,
   0x0c, 0x00, 0x00, 0x06, 0x00, 0x00, 0x00, 0x00, 0x00, 0x00, 0x00, 0x00,
   0x00, 0x00, 0x00, 0x00, 0x00, 0x00, 0x00, 0x00, 0x05, 0x00, 0x00, 0x00,
   0x00, 0x14, 0x00, 0x00, 0x14, 0x00, 0x00, 0x00, 0x00, 0x00, 0x00, 0x00,
   0x00, 0x00, 0x00, 0x00, 0x00, 0x00, 0x00, 0x00, 0x80, 0x46, 0x10, 0x00,
   0x00, 0x00, 0x24, 0x00, 0x00, 0x6a, 0x00, 0x00, 0x00, 0x00, 0x00, 0x00,
   0x00, 0x00, 0x00, 0x00, 0x00, 0x00, 0x00, 0x00, 0x00, 0x40, 0x03, 0x00,
   0x00, 0x00, 0x00, 0x44, 0x00, 0x00, 0xd8, 0x00, 0x00, 0x00, 0x00, 0x00,
   0x00, 0x00, 0x00, 0x00, 0x00, 0x00, 0x00, 0x00, 0x00, 0x00, 0x80, 0x10,
   0x00, 0x00, 0x00, 0x00, 0x8c, 0x00, 0x00, 0x30, 0x01, 0x00, 0x00, 0x00,
   0x00, 0x00, 0x00, 0x00, 0x00, 0x00, 0x00, 0x00, 0x00, 0x00, 0x00, 0xa0,
   0x00, 0x00, 0x00, 0x00, 0x00, 0x1c, 0x01, 0x00, 0x60, 0x02, 0x00, 0x00,
   0x00, 0x00, 0x00, 0x00, 0x00, 0x00, 0x00, 0x00, 0x00, 0x00, 0x00, 0x00,
   0x60, 0x04, 0x00, 0x00, 0x00, 0x00, 0x2c, 0x06, 0x00, 0x80, 0x02, 0x00,
   0x00, 0x00, 0x00, 0x00, 0x00, 0x00, 0x00, 0x00, 0x00, 0x00, 0x00, 0x00,
   0x00, 0x30, 0x02, 0x01, 0x00, 0x00, 0x00, 0x4c, 0x0c, 0x00, 0x00, 0x07,
   0x00, 0x00, 0x00, 0x00, 0x00, 0x00, 0x00, 0x00, 0x00, 0x00, 0x00, 0x00,
   0x00, 0x00, 0x30, 0x00, 0xf0, 0x01, 0x00, 0x00, 0x8c, 0x11, 0x00, 0x00,
   0x0d, 0x00, 0x00, 0x00, 0x00, 0x00, 0x00, 0x00, 0x00, 0x00, 0x00, 0x00,
   0x00, 0x00, 0x00, 0x18, 0x01, 0xf0, 0x07, 0x00, 0x00, 0x1e, 0x26, 0x00,
   0x00, 0x12, 0x00, 0x00, 0x00, 0x00, 0x00, 0x00, 0x00, 0x00, 0x00, 0x00,
   0x00, 0x00, 0x00, 0x00, 0x9c, 0x00, 0x80, 0x1d, 0x00, 0x00, 0x1e, 0x48,
   0x00, 0x00, 0x28, 0x00, 0x00, 0x00, 0x00, 0x00, 0x00, 0x00, 0x00, 0x00,
   0x00, 0x00, 0x00, 0x00, 0x00, 0x0c, 0x00, 0x20, 0x63, 0x00, 0x00, 0x16,
   0x90, 0x00, 0x00, 0x24, 0x00, 0x00, 0x00, 0x00, 0x00, 0x00, 0x00, 0x00,
   0x00, 0x00, 0x00, 0x00, 0x00, 0x00, 0x46, 0x00, 0xe0, 0x45, 0x00, 0x08,
   0x96, 0xa0, 0x00, 0x00, 0x08, 0x00, 0x00, 0x00, 0x00, 0x00, 0x00, 0x00,
   0x00, 0x00, 0x00, 0x00, 0x00, 0x00, 0x00, 0x26, 0x00, 0x40, 0x0b, 0x01,
   0x0b, 0x96, 0xa0, 0x00, 0x00, 0x40, 0x00, 0x00, 0x00, 0x00, 0x00, 0x00,
   0x00, 0x00, 0x00, 0x00, 0x00, 0x00, 0x00, 0x00, 0x03, 0x40, 0xc0, 0x0e,
   0xc2, 0x0c, 0x9b, 0xc1, 0x01, 0x00, 0x00, 0x00, 0x00, 0x00, 0x00, 0x00,
   0x00, 0x00, 0x00, 0x00, 0x00, 0x00, 0x00, 0x00, 0x00, 0x13, 0x00, 0xc0,
   0x14, 0x3c, 0x00, 0x11, 0x41, 0x01, 0x00, 0x80, 0x00, 0x00, 0x00, 0x00,
   0x00, 0x00, 0x00, 0x00, 0x00, 0x00, 0x00, 0x00, 0x00, 0x00, 0x01, 0x00,
   0x80, 0x3c, 0x3c, 0x3b, 0x01, 0xc1, 0x00, 0x00, 0x00, 0x00, 0x00, 0x00,
   0x00, 0x00, 0x00, 0x00, 0x00, 0x00, 0x00, 0x00, 0x00, 0x00, 0xa0, 0x09,
   0x00, 0x80, 0x68, 0x1a, 0x05, 0x01, 0xc2, 0x00, 0x00, 0x00, 0x01, 0x00,
   0x00, 0x00, 0x00, 0x00, 0x00, 0x00, 0x00, 0x00, 0x00, 0x00, 0x00, 0x80,
   0x01, 0x00, 0x80, 0x41, 0x91, 0x81, 0x81, 0x04, 0x06, 0x00, 0x00, 0x00,
   0x00, 0x00, 0x00, 0x00, 0x00, 0x00, 0x00, 0x00, 0x00, 0x00, 0x00, 0x00,
   0xc0, 0x04, 0x00, 0x00, 0x91, 0x11, 0x81, 0x11, 0x42, 0x0c, 0x00, 0x00,
   0x00, 0x00, 0x00, 0x00, 0x00, 0x00, 0x00, 0x00, 0x00, 0x00, 0x00, 0x00,
   0x00, 0xe0, 0x00, 0x00, 0x00, 0x61, 0x00, 0x44, 0x41, 0x00, 0x38, 0x00,
   0x80, 0x02, 0x00, 0x00, 0x00, 0x00, 0x00, 0x00, 0x00, 0x00, 0x00, 0x00,
   0x00, 0x00, 0xa0, 0x04, 0x00, 0x00, 0x45, 0x3c, 0x22, 0x86, 0x50, 0x64,
   0x00, 0x00, 0x02, 0x00, 0x00, 0x00, 0x00, 0x00, 0x00, 0x00, 0x00, 0x00,
   0x00, 0x00, 0x00, 0x60, 0x00, 0x00, 0x00, 0x37, 0x1b, 0x88, 0x11, 0x00,
   0x60, 0x01, 0x00, 0x02, 0x00, 0x00, 0x00, 0x00, 0x00, 0x00, 0x00, 0x00,
   0x00, 0x00, 0x00, 0x00, 0xe0, 0x00, 0x00, 0x00, 0x9e, 0x0a, 0x44, 0x10,
   0x20, 0xc2, 0x02, 0x00, 0x04, 0x00, 0x00, 0x00, 0x00, 0x00, 0x00, 0x00,
   0x00, 0x00, 0x00, 0x00, 0x00, 0xa0, 0x04, 0x08, 0x00, 0x46, 0x09, 0x11,
   0x40, 0x12, 0x10, 0x0d, 0x00, 0x04, 0x00, 0x00, 0x00, 0x00, 0x00, 0x00,
   0x00, 0x00, 0x00, 0x00, 0x00, 0x00, 0xb0, 0x00, 0x00, 0x00, 0x26, 0x28,
   0x14, 0x02, 0x80, 0x00, 0x19, 0x00, 0x08, 0x00, 0x00, 0x00, 0x00, 0x00,
   0x00, 0x00, 0x00, 0x00, 0x00, 0x00, 0x00, 0x30, 0x02, 0x00, 0x00, 0x33,
   0x04, 0x50, 0x4b, 0x08, 0x24, 0x00, 0x00, 0x04, 0x00, 0x00, 0x00, 0x00,
   0x00, 0x00, 0x00, 0x00, 0x00, 0x00, 0x00, 0x00, 0x20, 0x02, 0x00, 0x00,
   0x11, 0x54, 0x0b, 0x13, 0x42, 0x00, 0x02, 0x00, 0x08, 0x00, 0x00, 0x00,
   0x00, 0x00, 0x00, 0x00, 0x00, 0x00, 0x00, 0x00, 0x00, 0x20, 0x02, 0x00,
   0x00, 0x09, 0xc4, 0x84, 0x08, 0x20, 0x00, 0x04, 0x00, 0x08, 0x00, 0x00,
   0x00, 0x00, 0x00, 0x00, 0x00, 0x00, 0x00, 0x00, 0x00, 0x00, 0x20, 0x02,
   0x00, 0x80, 0x0c, 0x66, 0x40, 0x88, 0x00, 0x80, 0x04, 0x00, 0x08, 0x00,
   0x00, 0x00, 0x00, 0x00, 0x00, 0x00, 0x00, 0x00, 0x00, 0x00, 0x00, 0x38,
   0x02, 0x00, 0x40, 0x04, 0x32, 0x22, 0x04, 0x0a, 0x28, 0x08, 0x00, 0x08,
   0x00, 0x00, 0x00, 0x00, 0x00, 0x00, 0x00, 0x00, 0x00, 0x00, 0x00, 0x00,
   0x30, 0x02, 0x00, 0x20, 0x06, 0x36, 0x10, 0x42, 0x40, 0x20, 0x18, 0x00,
   0x08, 0x00, 0x00, 0x00, 0x00, 0x00, 0x00, 0x00, 0x00, 0x00, 0x00, 0x00,
   0x00, 0x20, 0x00, 0x00, 0x90, 0x06, 0x1a, 0x00, 0x01, 0x04, 0x00, 0x18,
   0x00, 0x00, 0x00, 0x00, 0x00, 0x00, 0x00, 0x00, 0x00, 0x00, 0x00, 0x00,
   0x00, 0x00, 0x20, 0x00, 0x00, 0xd8, 0x00, 0x0a, 0x00, 0x21, 0x00, 0x88,
   0x30, 0x00, 0x08, 0x00, 0x00, 0x00, 0x00, 0x00, 0x00, 0x00, 0x00, 0x00,
   0x00, 0x00, 0x00, 0x28, 0x04, 0x00, 0xd0, 0x02, 0x04, 0x81, 0x08, 0x01,
   0x51, 0x22, 0x00, 0x00, 0x00, 0x00, 0x00, 0x00, 0x00, 0x00, 0x00, 0x00,
   0x00, 0x00, 0x00, 0x00, 0x68, 0x00, 0x00, 0x88, 0x07, 0xe5, 0x47, 0x80,
   0x00, 0x60, 0x29, 0x00, 0x0a, 0x00, 0x00, 0x00, 0x00, 0x00, 0x00, 0x00,
   0x00, 0x00, 0x00, 0x00, 0x00, 0x00, 0x08, 0x00, 0xc8, 0x07, 0xf2, 0x2f,
   0x44, 0x20, 0x21, 0x04, 0x00, 0x09, 0x00, 0x00, 0x00, 0x00, 0x00, 0x00,
   0x00, 0x00, 0x00, 0x00, 0x00, 0x00, 0x40, 0x50, 0x00, 0x48, 0x04, 0x3b,
   0x37, 0x02, 0x24, 0xa0, 0x30, 0x00, 0x08, 0x00, 0x00, 0x00, 0x00, 0x00,
   0x00, 0x00, 0x00, 0x00, 0x00, 0x00, 0x00, 0x60, 0x00, 0x00, 0x28, 0x00,
   0x38, 0x13, 0x31, 0x30, 0x04, 0x60, 0x00, 0x08, 0x00, 0x00, 0x00, 0x00,
   0x00, 0x00, 0x00, 0x00, 0x00, 0x00, 0x00, 0x00, 0x40, 0x00, 0x00, 0x78,
   0x00, 0x38, 0x7b, 0x11, 0x10, 0x15, 0xc0, 0x00, 0x08, 0x00, 0x00, 0x00,
   0x00, 0x00, 0x00, 0x00, 0x00, 0x00, 0x00, 0x00, 0x00, 0x40, 0x00, 0x38,
   0xbc, 0x00, 0xb8, 0xbf, 0x04, 0x45, 0x00, 0x08, 0x01, 0x04, 0x00, 0x00,
   0x00, 0x00, 0x00, 0x00, 0x00, 0x00, 0x00, 0x00, 0x00, 0x00, 0x40, 0x00,
   0x00, 0xdc, 0x01, 0xf0, 0xaf, 0x08, 0x48, 0x00, 0x40, 0x83, 0x08, 0x00,
   0x00, 0x00, 0x00, 0x00, 0x00, 0x00, 0x00, 0x00, 0x00, 0x00, 0x00, 0x40,
   0x00, 0x00, 0xdc, 0x01, 0xf0, 0x4f, 0x06, 0x42, 0x00, 0x80, 0x0f, 0x08,
   0x00, 0x00, 0x00, 0x00, 0x00, 0x00, 0x00, 0x00, 0x00, 0x00, 0x00, 0x00,
   0x40, 0x00, 0x01, 0xf8, 0x01, 0xe0, 0x03, 0x02, 0x01, 0x00, 0x00, 0x22,
   0x08, 0x00, 0x00, 0x00, 0x00, 0x00, 0x00, 0x00, 0x00, 0x00, 0x00, 0x00,
   0x00, 0x80, 0x00, 0x00, 0xfc, 0x01, 0xe0, 0x40, 0xa1, 0x01, 0x00, 0x00,
   0x02, 0x08, 0x00, 0x00, 0x00, 0x00, 0x00, 0x00, 0x00, 0x00, 0x00, 0x00,
   0x00, 0x00, 0x80, 0x00, 0x00, 0xf8, 0x01, 0xc0, 0x80, 0x00, 0x01, 0x00,
   0x00, 0x84, 0x04, 0x00, 0x00, 0x00, 0x00, 0x00, 0x00, 0x00, 0x00, 0x00,
   0x00, 0x00, 0x00, 0x80, 0x00, 0x00, 0xf8, 0x00, 0x00, 0xd2, 0xd0, 0x00,
   0x00, 0x80, 0x04, 0x04, 0x00, 0x00, 0x00, 0x00, 0x00, 0x00, 0x00, 0x00,
   0x00, 0x00, 0x00, 0x00, 0x00, 0x01, 0x00, 0xf0, 0x00, 0x00, 0xc0, 0x99,
   0x00, 0x00, 0x80, 0x4d, 0x04, 0x00, 0x00, 0x00, 0x00, 0x00, 0x00, 0x00,
   0x00, 0x00, 0x00, 0x00, 0x00, 0x00, 0x01, 0x00, 0x38, 0x00, 0x00, 0x40,
   0xd2, 0x00, 0x08, 0x80, 0x1c, 0x04, 0x00, 0x00, 0x00, 0x00, 0x00, 0x00,
   0x00, 0x00, 0x00, 0x00, 0x00, 0x00, 0x00, 0x02, 0x00, 0x3c, 0x00, 0x00,
   0x44, 0x50, 0x00, 0x10, 0x00, 0x11, 0x02, 0x00, 0x00, 0x00, 0x00, 0x00,
   0x00, 0x00, 0x00, 0x00, 0x00, 0x00, 0x00, 0x00, 0x01, 0x00, 0x0c, 0x00,
   0x00, 0x48, 0x04, 0x00, 0x20, 0x00, 0x81, 0x02, 0x00, 0x00, 0x00, 0x00,
   0x00, 0x00, 0x00, 0x00, 0x00, 0x00, 0x00, 0x00, 0x00, 0x02, 0x00, 0x06,
   0x00, 0x00, 0x50, 0x0c, 0x80, 0x21, 0x00, 0x42, 0x02, 0x00, 0x00, 0x00,
   0x00, 0x00, 0x00, 0x00, 0x00, 0x00, 0x00, 0x00, 0x00, 0x00, 0x02, 0x80,
   0x03, 0x00, 0x00, 0x20, 0x08, 0x00, 0x23, 0x00, 0x04, 0x00, 0x00, 0x00,
   0x00, 0x00, 0x00, 0x00, 0x00, 0x00, 0x00, 0x00, 0x00, 0x00, 0x00, 0x02,
   0xf8, 0x01, 0x00, 0x00, 0x00, 0x00, 0x00, 0x2a, 0xe0, 0x85, 0x01, 0x00,
   0x00, 0x00, 0x00, 0x00, 0x00, 0x00, 0x00, 0x00, 0x00, 0x00, 0x00, 0x00,
   0x04, 0xdc, 0x00, 0x00, 0x00, 0x00, 0x00, 0x00, 0x00, 0x20, 0x4e, 0x00,
   0x00, 0x00, 0x00, 0x00, 0x00, 0x00, 0x00, 0x00, 0x00, 0x00, 0x00, 0x00,
   0x00, 0x04, 0xcb, 0x00, 0x00, 0x00, 0x00, 0x00, 0x08, 0x04, 0x20, 0x85,
   0x00, 0x00, 0x00, 0x00, 0x00, 0x00, 0x00, 0x00, 0x00, 0x00, 0x00, 0x00,
   0x00, 0x00, 0x8c, 0xd5, 0x00, 0x00, 0x00, 0x00, 0x00, 0x10, 0x04, 0x40,
   0x90, 0x00, 0x00, 0x00, 0x00, 0x00, 0x00, 0x00, 0x00, 0x00, 0x00, 0x00,
   0x00, 0x00, 0x00, 0x88, 0xc1, 0x00, 0x00, 0x00, 0x00, 0x00, 0x30, 0x08,
   0xe0, 0x81, 0x00, 0x00, 0x00, 0x00, 0x00, 0x00, 0x00, 0x00, 0x00, 0x00,
   0x00, 0x00, 0x00, 0x00, 0x10, 0x5b, 0x00, 0x00, 0x00, 0x00, 0x00, 0x81,
   0x08, 0x60, 0x07, 0x00, 0x00, 0x00, 0x00, 0x00, 0x00, 0x00, 0x00, 0x00,
   0x00, 0x00, 0x00, 0x00, 0x00, 0x10, 0x67, 0x00, 0x20, 0x03, 0x00, 0x00,
   0x22, 0x05, 0x40, 0x17, 0x00, 0x00, 0x00, 0x00, 0x00, 0x00, 0x00, 0x00,
   0x00, 0x00, 0x00, 0x00, 0x00, 0x00, 0x20, 0x36, 0x00, 0x70, 0x00, 0x00,
   0x00, 0x24, 0x00, 0x40, 0x29, 0x00, 0x00, 0x00, 0x00, 0x00, 0x00, 0x00,
   0x00, 0x00, 0x00, 0x00, 0x00, 0x00, 0x00, 0x40, 0x3c, 0x00, 0x7e, 0x02,
   0x00, 0x40, 0x01, 0x00, 0x40, 0x25, 0x00, 0x00, 0x00, 0x00, 0x00, 0x2e,
   0x00, 0x00, 0x00, 0x00, 0x00, 0x00, 0x00, 0x00, 0x40, 0x38, 0xc0, 0x07,
   0x05, 0x00, 0x80, 0x00, 0x00, 0x40, 0x52, 0x00, 0x00, 0x00, 0x00, 0xf0,
   0xd7, 0x00, 0x00, 0x00, 0x00, 0x00, 0x00, 0x00, 0x00, 0x80, 0x30, 0x70,
   0x03, 0x06, 0x00, 0xa0, 0x00, 0x00, 0xe7, 0x92, 0x00, 0x00, 0x00, 0x00,
   0x1c, 0x08, 0x03, 0x00, 0x00, 0x00, 0x00, 0x00, 0x00, 0x00, 0x80, 0x60,
   0xfe, 0x00, 0x00, 0x00, 0x80, 0x00, 0x00, 0x3b, 0x02, 0x00, 0x00, 0x00,
   0x80, 0x03, 0x50, 0x06, 0x00, 0x00, 0x00, 0x00, 0x00, 0x00, 0x00, 0x00,
   0xc1, 0x3f, 0x00, 0x00, 0x00, 0x10, 0x00, 0x00, 0x62, 0x69, 0x00, 0x00,
   0x00, 0xc0, 0x00, 0x00, 0x0e, 0x00, 0x00, 0x00, 0x00, 0x00, 0x00, 0x00,
   0x00, 0x42, 0x3e, 0x00, 0x00, 0x00, 0x00, 0x00, 0x00, 0x12, 0x89, 0x00,
   0x00, 0x00, 0x60, 0x00, 0xc0, 0x01, 0x00, 0x00, 0x00, 0x00, 0x00, 0x00,
   0x00, 0x00, 0x16, 0x38, 0x00, 0x00, 0x00, 0x09, 0x00, 0xe0, 0x17, 0xe2,
   0x02, 0x00, 0x00, 0x30, 0x00, 0xe0, 0x00, 0x00, 0x00, 0x00, 0x00, 0x00,
   0x00, 0x00, 0x00, 0x0c, 0xf0, 0x00, 0x00, 0x10, 0x05, 0x00, 0x10, 0x6b,
   0x80, 0x07, 0x00, 0x00, 0x10, 0x00, 0x38, 0x00, 0x00, 0x00, 0x00, 0x00,
   0x00, 0x00, 0x00, 0x00, 0x18, 0x80, 0xff, 0x81, 0x98, 0x01, 0x00, 0xc4,
   0xe4, 0x81, 0x01, 0x00, 0x00, 0x18, 0x00, 0x1c, 0x00, 0x00, 0x00, 0x00,
   0x00, 0x00, 0x00, 0x00, 0x00, 0x20, 0x00, 0xe8, 0xef, 0x9a, 0x03, 0x00,
   0xb0, 0x92, 0x61, 0x07, 0x00, 0x00, 0x08, 0x00, 0x07, 0x00, 0x00, 0x00,
   0x00, 0x00, 0x00, 0x00, 0x00, 0x00, 0x40, 0x00, 0x08, 0x53, 0x58, 0x03,
   0x00, 0x3e, 0x0a, 0x47, 0x1b, 0x00, 0x00, 0x0c, 0xe0, 0x01, 0x00, 0x00,
   0x00, 0x00, 0x00, 0x00, 0x00, 0x00, 0x00, 0x40, 0x80, 0xa0, 0x1c, 0xfc,
   0x01, 0x80, 0x0f, 0x16, 0x4e, 0x26, 0x00, 0x00, 0x0c, 0x38, 0x00, 0x00,
   0x00, 0x00, 0x00, 0x00, 0x00, 0x00, 0x00, 0x00, 0x80, 0x01, 0x0a, 0x3d,
   0x6c, 0x01, 0x70, 0x06, 0x01, 0x54, 0x6c, 0x00, 0x00, 0x04, 0x38, 0x00,
   0x00, 0x00, 0x00, 0x00, 0x00, 0x00, 0x00, 0x00, 0x04, 0x00, 0x05, 0xe0,
   0x7e, 0x2a, 0x00, 0xcc, 0x81, 0x06, 0x74, 0xb8, 0x1e, 0x00, 0x02, 0x18,
   0x00, 0x00, 0x00, 0x00, 0x00, 0x00, 0x00, 0x00, 0x00, 0x02, 0x00, 0x0e,
   0xca, 0xa0, 0x20, 0x80, 0x33, 0x80, 0x01, 0x68, 0x3e, 0x1d, 0x00, 0x01,
   0x1c, 0x00, 0x00, 0x00, 0x00, 0x00, 0x00, 0x00, 0x00, 0x00, 0x02, 0x00,
   0x38, 0x8a, 0x7f, 0xa6, 0x9e, 0x0e, 0x28, 0x00, 0x42, 0xda, 0x06, 0x00,
   0x01, 0x0c, 0x00, 0x08, 0x00, 0x00, 0x00, 0x00, 0x00, 0x00, 0x00, 0x02,
   0x00, 0x70, 0x10, 0xf7, 0xb8, 0xc0, 0x01, 0x44, 0x00, 0xa8, 0x39, 0x03,
   0x80, 0x00, 0x0c, 0x00, 0x0c, 0x00, 0x00, 0x00, 0x00, 0x00, 0x00, 0x00,
   0x03, 0x00, 0xc0, 0x01, 0xa8, 0x03, 0x3a, 0x80, 0x12, 0x00, 0xe0, 0xc8,
   0x20, 0xc0, 0x00, 0x0c, 0x00, 0x07, 0x00, 0x00, 0x00, 0x00, 0x00, 0x00,
   0x00, 0x01, 0x00, 0x80, 0x55, 0x00, 0xfe, 0x17, 0x00, 0x04, 0x00, 0x30,
   0xc0, 0x00, 0x40, 0x00, 0x0a, 0x80, 0x05, 0x00, 0x00, 0x00, 0x00, 0x00,
   0x00, 0x60, 0x01, 0x00, 0xc0, 0x83, 0x05, 0x00, 0x00, 0xa8, 0x02, 0x00,
   0x10, 0x80, 0xfe, 0x22, 0x00, 0x0c, 0x70, 0x04, 0x00, 0x00, 0x00, 0x00,
   0x00, 0x00, 0x60, 0x01, 0x00, 0x20, 0x1d, 0x10, 0x00, 0x40, 0x03, 0x20,
   0x00, 0x1c, 0x00, 0xc0, 0x3c, 0x00, 0x1c, 0x0c, 0x02, 0x00, 0x00, 0x00,
   0x00, 0x00, 0x00, 0xf0, 0x01, 0x00, 0x90, 0x71, 0x02, 0x00, 0x20, 0x00,
   0x40, 0x00, 0x0c, 0x00, 0x40, 0x5f, 0x00, 0xf9, 0x06, 0x02, 0x00, 0x00,
   0x00, 0x00, 0x00, 0x00, 0x30, 0x01, 0x00, 0xe0, 0x80, 0xff, 0x0b, 0x2a,
   0x00, 0xc0, 0x18, 0x00, 0x00, 0x80, 0x0e, 0x80, 0xf3, 0x03, 0x03, 0x00,
   0x00, 0x00, 0x00, 0x00, 0x00, 0x10, 0x01, 0x00, 0x40, 0x00, 0xbc, 0xff,
   0x01, 0x00, 0x80, 0x16, 0x00, 0x00, 0x00, 0x3d, 0xf0, 0xf2, 0x01, 0x03,
   0x00, 0x00, 0x00, 0x00, 0x00, 0x00, 0x10, 0x01, 0x00, 0x20, 0x20, 0x00,
   0x24, 0x00, 0x00, 0x00, 0x3d, 0x00, 0x00, 0x00, 0x0e, 0x9c, 0xe7, 0x00,
   0x03, 0x00, 0x00, 0x00, 0x00, 0x00, 0x00, 0x18, 0x01, 0x00, 0x10, 0x14,
   0x01, 0x00, 0x00, 0x00, 0x00, 0x29, 0x00, 0x00, 0x00, 0x04, 0xf8, 0xec,
   0x81, 0x01, 0x00, 0x00, 0x00, 0x00, 0x00, 0x00, 0x10, 0x01, 0x00, 0x08,
   0x40, 0x00, 0x18, 0x00, 0x00, 0x00, 0x09, 0x00, 0x00, 0x00, 0x08, 0x78,
   0x4e, 0x81, 0x01, 0x00, 0x00, 0x00, 0x00, 0x00, 0x00, 0x0a, 0x01, 0x00,
   0x34, 0x00, 0x00, 0x10, 0x00, 0x00, 0x30, 0x12, 0x00, 0x00, 0x00, 0x08,
   0xb8, 0xcb, 0x43, 0x00, 0x00, 0x00, 0x00, 0x00, 0x00, 0x00, 0x1b, 0x01,
   0x00, 0x18, 0x20, 0x00, 0x18, 0x02, 0x00, 0x60, 0x12, 0x00, 0x00, 0x00,
   0x08, 0xb0, 0xd9, 0x63, 0x00, 0x00, 0x00, 0x00, 0x00, 0x00, 0x00, 0x0b,
   0x01, 0x00, 0x0a, 0x60, 0x01, 0x08, 0x04, 0x00, 0x60, 0x3a, 0x00, 0x00,
   0x00, 0x10, 0x70, 0x8f, 0x23, 0x00, 0x00, 0x00, 0x00, 0x00, 0x00, 0x00,
   0x0b, 0x01, 0x00, 0x2c, 0x80, 0x41, 0x08, 0x04, 0x00, 0xa0, 0x72, 0x00,
   0x00, 0x00, 0x10, 0xc0, 0x81, 0x23, 0x00, 0x00, 0x00, 0x00, 0x00, 0x00,
   0x00, 0x0f, 0x01, 0x00, 0x03, 0x40, 0x03, 0x28, 0x08, 0x00, 0x20, 0x65,
   0x00, 0x00, 0x00, 0x10, 0x60, 0x80, 0x17, 0x00, 0x00, 0x00, 0x00, 0x00,
   0x00, 0x00, 0x0f, 0x03, 0x80, 0x18, 0xc0, 0x4c, 0x90, 0x03, 0x00, 0x4c,
   0xe2, 0x00, 0x00, 0x00, 0x10, 0x00, 0x00, 0x0d, 0x00, 0x00, 0x00, 0x00,
   0x00, 0x00, 0x00, 0x07, 0x02, 0x00, 0x58, 0xc0, 0x08, 0x0c, 0x04, 0x00,
   0x48, 0x46, 0x40, 0x00, 0x00, 0x10, 0x80, 0x02, 0x07, 0x00, 0x00, 0x00,
   0x00, 0x00, 0x00, 0x00, 0x8f, 0x02, 0x00, 0x90, 0xc0, 0x1f, 0x0c, 0x06,
   0x80, 0x58, 0x80, 0xe0, 0x00, 0x00, 0xb8, 0xff, 0x0f, 0x04, 0x00, 0x00 };
