G04 #@! TF.FileFunction,Profile,NP*
%FSLAX46Y46*%
G04 Gerber Fmt 4.6, Leading zero omitted, Abs format (unit mm)*
G04 Created by KiCad (PCBNEW 4.0.2+e4-6225~38~ubuntu15.10.1-stable) date Fri 13 May 2016 03:38:29 PM MDT*
%MOMM*%
G01*
G04 APERTURE LIST*
%ADD10C,0.100000*%
%ADD11C,0.300000*%
%ADD12C,0.150000*%
G04 APERTURE END LIST*
D10*
D11*
X105945714Y-67361143D02*
X106017143Y-67432572D01*
X106088571Y-67646858D01*
X106088571Y-67789715D01*
X106017143Y-68004000D01*
X105874286Y-68146858D01*
X105731429Y-68218286D01*
X105445714Y-68289715D01*
X105231429Y-68289715D01*
X104945714Y-68218286D01*
X104802857Y-68146858D01*
X104660000Y-68004000D01*
X104588571Y-67789715D01*
X104588571Y-67646858D01*
X104660000Y-67432572D01*
X104731429Y-67361143D01*
X104588571Y-66718286D02*
X105802857Y-66718286D01*
X105945714Y-66646858D01*
X106017143Y-66575429D01*
X106088571Y-66432572D01*
X106088571Y-66146858D01*
X106017143Y-66004000D01*
X105945714Y-65932572D01*
X105802857Y-65861143D01*
X104588571Y-65861143D01*
X104588571Y-65361143D02*
X104588571Y-64504000D01*
X106088571Y-64932571D02*
X104588571Y-64932571D01*
X104588571Y-62575429D02*
X104588571Y-62289715D01*
X104660000Y-62146857D01*
X104802857Y-62004000D01*
X105088571Y-61932572D01*
X105588571Y-61932572D01*
X105874286Y-62004000D01*
X106017143Y-62146857D01*
X106088571Y-62289715D01*
X106088571Y-62575429D01*
X106017143Y-62718286D01*
X105874286Y-62861143D01*
X105588571Y-62932572D01*
X105088571Y-62932572D01*
X104802857Y-62861143D01*
X104660000Y-62718286D01*
X104588571Y-62575429D01*
X104588571Y-61289714D02*
X105802857Y-61289714D01*
X105945714Y-61218286D01*
X106017143Y-61146857D01*
X106088571Y-61004000D01*
X106088571Y-60718286D01*
X106017143Y-60575428D01*
X105945714Y-60504000D01*
X105802857Y-60432571D01*
X104588571Y-60432571D01*
X104588571Y-59932571D02*
X104588571Y-59075428D01*
X106088571Y-59503999D02*
X104588571Y-59503999D01*
D12*
X106934000Y-52324000D02*
X106934000Y-76454000D01*
X106934000Y-76454000D02*
X104140000Y-76454000D01*
X104140000Y-52324000D02*
X106934000Y-52324000D01*
X104140000Y-76454000D02*
X104140000Y-52324000D01*
X26035000Y-29845000D02*
X109855000Y-29845000D01*
X23495000Y-78105000D02*
X23495000Y-32385000D01*
X109855000Y-80645000D02*
X26035000Y-80645000D01*
X112395000Y-32385000D02*
X112395000Y-78105000D01*
X112395000Y-32385000D02*
G75*
G03X109855000Y-29845000I-2540000J0D01*
G01*
X26035000Y-29845000D02*
G75*
G03X23495000Y-32385000I0J-2540000D01*
G01*
X23495000Y-78105000D02*
G75*
G03X26035000Y-80645000I2540000J0D01*
G01*
X109855000Y-80645000D02*
G75*
G03X112395000Y-78105000I0J2540000D01*
G01*
M02*
