G04 #@! TF.FileFunction,Legend,Top*
%FSLAX46Y46*%
G04 Gerber Fmt 4.6, Leading zero omitted, Abs format (unit mm)*
G04 Created by KiCad (PCBNEW 4.0.2+e4-6225~38~ubuntu15.10.1-stable) date Sun 14 Aug 2016 02:58:43 PM MDT*
%MOMM*%
G01*
G04 APERTURE LIST*
%ADD10C,0.100000*%
%ADD11C,0.300000*%
%ADD12C,0.152400*%
%ADD13C,0.150000*%
%ADD14C,0.010000*%
%ADD15C,0.177800*%
G04 APERTURE END LIST*
D10*
D11*
X71983571Y-77529571D02*
X71983571Y-78743857D01*
X71912142Y-78886714D01*
X71840714Y-78958143D01*
X71697857Y-79029571D01*
X71483571Y-79029571D01*
X71340714Y-78958143D01*
X71983571Y-78458143D02*
X71840714Y-78529571D01*
X71555000Y-78529571D01*
X71412142Y-78458143D01*
X71340714Y-78386714D01*
X71269285Y-78243857D01*
X71269285Y-77815286D01*
X71340714Y-77672429D01*
X71412142Y-77601000D01*
X71555000Y-77529571D01*
X71840714Y-77529571D01*
X71983571Y-77601000D01*
X72697857Y-78529571D02*
X72697857Y-77529571D01*
X72697857Y-77029571D02*
X72626428Y-77101000D01*
X72697857Y-77172429D01*
X72769285Y-77101000D01*
X72697857Y-77029571D01*
X72697857Y-77172429D01*
X73197857Y-77529571D02*
X73769286Y-77529571D01*
X73412143Y-77029571D02*
X73412143Y-78315286D01*
X73483571Y-78458143D01*
X73626429Y-78529571D01*
X73769286Y-78529571D01*
X74269286Y-78529571D02*
X74269286Y-77029571D01*
X74912143Y-78529571D02*
X74912143Y-77743857D01*
X74840714Y-77601000D01*
X74697857Y-77529571D01*
X74483572Y-77529571D01*
X74340714Y-77601000D01*
X74269286Y-77672429D01*
X76269286Y-77529571D02*
X76269286Y-78529571D01*
X75626429Y-77529571D02*
X75626429Y-78315286D01*
X75697857Y-78458143D01*
X75840715Y-78529571D01*
X76055000Y-78529571D01*
X76197857Y-78458143D01*
X76269286Y-78386714D01*
X76983572Y-78529571D02*
X76983572Y-77029571D01*
X76983572Y-77601000D02*
X77126429Y-77529571D01*
X77412143Y-77529571D01*
X77555000Y-77601000D01*
X77626429Y-77672429D01*
X77697858Y-77815286D01*
X77697858Y-78243857D01*
X77626429Y-78386714D01*
X77555000Y-78458143D01*
X77412143Y-78529571D01*
X77126429Y-78529571D01*
X76983572Y-78458143D01*
X78340715Y-78386714D02*
X78412143Y-78458143D01*
X78340715Y-78529571D01*
X78269286Y-78458143D01*
X78340715Y-78386714D01*
X78340715Y-78529571D01*
X79697858Y-78458143D02*
X79555001Y-78529571D01*
X79269287Y-78529571D01*
X79126429Y-78458143D01*
X79055001Y-78386714D01*
X78983572Y-78243857D01*
X78983572Y-77815286D01*
X79055001Y-77672429D01*
X79126429Y-77601000D01*
X79269287Y-77529571D01*
X79555001Y-77529571D01*
X79697858Y-77601000D01*
X80555001Y-78529571D02*
X80412143Y-78458143D01*
X80340715Y-78386714D01*
X80269286Y-78243857D01*
X80269286Y-77815286D01*
X80340715Y-77672429D01*
X80412143Y-77601000D01*
X80555001Y-77529571D01*
X80769286Y-77529571D01*
X80912143Y-77601000D01*
X80983572Y-77672429D01*
X81055001Y-77815286D01*
X81055001Y-78243857D01*
X80983572Y-78386714D01*
X80912143Y-78458143D01*
X80769286Y-78529571D01*
X80555001Y-78529571D01*
X81697858Y-78529571D02*
X81697858Y-77529571D01*
X81697858Y-77672429D02*
X81769286Y-77601000D01*
X81912144Y-77529571D01*
X82126429Y-77529571D01*
X82269286Y-77601000D01*
X82340715Y-77743857D01*
X82340715Y-78529571D01*
X82340715Y-77743857D02*
X82412144Y-77601000D01*
X82555001Y-77529571D01*
X82769286Y-77529571D01*
X82912144Y-77601000D01*
X82983572Y-77743857D01*
X82983572Y-78529571D01*
X84769286Y-76958143D02*
X83483572Y-78886714D01*
X85269287Y-77529571D02*
X85269287Y-79029571D01*
X85269287Y-77601000D02*
X85412144Y-77529571D01*
X85697858Y-77529571D01*
X85840715Y-77601000D01*
X85912144Y-77672429D01*
X85983573Y-77815286D01*
X85983573Y-78243857D01*
X85912144Y-78386714D01*
X85840715Y-78458143D01*
X85697858Y-78529571D01*
X85412144Y-78529571D01*
X85269287Y-78458143D01*
X87269287Y-78529571D02*
X87269287Y-77743857D01*
X87197858Y-77601000D01*
X87055001Y-77529571D01*
X86769287Y-77529571D01*
X86626430Y-77601000D01*
X87269287Y-78458143D02*
X87126430Y-78529571D01*
X86769287Y-78529571D01*
X86626430Y-78458143D01*
X86555001Y-78315286D01*
X86555001Y-78172429D01*
X86626430Y-78029571D01*
X86769287Y-77958143D01*
X87126430Y-77958143D01*
X87269287Y-77886714D01*
X88626430Y-77529571D02*
X88626430Y-78529571D01*
X87983573Y-77529571D02*
X87983573Y-78315286D01*
X88055001Y-78458143D01*
X88197859Y-78529571D01*
X88412144Y-78529571D01*
X88555001Y-78458143D01*
X88626430Y-78386714D01*
X89555002Y-78529571D02*
X89412144Y-78458143D01*
X89340716Y-78315286D01*
X89340716Y-77029571D01*
X90055001Y-78458143D02*
X90197858Y-78529571D01*
X90483573Y-78529571D01*
X90626430Y-78458143D01*
X90697858Y-78315286D01*
X90697858Y-78243857D01*
X90626430Y-78101000D01*
X90483573Y-78029571D01*
X90269287Y-78029571D01*
X90126430Y-77958143D01*
X90055001Y-77815286D01*
X90055001Y-77743857D01*
X90126430Y-77601000D01*
X90269287Y-77529571D01*
X90483573Y-77529571D01*
X90626430Y-77601000D01*
X91983573Y-78458143D02*
X91840716Y-78529571D01*
X91555002Y-78529571D01*
X91412144Y-78458143D01*
X91340716Y-78386714D01*
X91269287Y-78243857D01*
X91269287Y-77815286D01*
X91340716Y-77672429D01*
X91412144Y-77601000D01*
X91555002Y-77529571D01*
X91840716Y-77529571D01*
X91983573Y-77601000D01*
X92626430Y-78529571D02*
X92626430Y-77029571D01*
X93269287Y-78529571D02*
X93269287Y-77743857D01*
X93197858Y-77601000D01*
X93055001Y-77529571D01*
X92840716Y-77529571D01*
X92697858Y-77601000D01*
X92626430Y-77672429D01*
X94197859Y-78529571D02*
X94055001Y-78458143D01*
X93983573Y-78386714D01*
X93912144Y-78243857D01*
X93912144Y-77815286D01*
X93983573Y-77672429D01*
X94055001Y-77601000D01*
X94197859Y-77529571D01*
X94412144Y-77529571D01*
X94555001Y-77601000D01*
X94626430Y-77672429D01*
X94697859Y-77815286D01*
X94697859Y-78243857D01*
X94626430Y-78386714D01*
X94555001Y-78458143D01*
X94412144Y-78529571D01*
X94197859Y-78529571D01*
X95197859Y-77529571D02*
X95483573Y-78529571D01*
X95769287Y-77815286D01*
X96055002Y-78529571D01*
X96340716Y-77529571D01*
X97983573Y-76958143D02*
X96697859Y-78886714D01*
X99055002Y-78458143D02*
X98912145Y-78529571D01*
X98626431Y-78529571D01*
X98483574Y-78458143D01*
X98412145Y-78315286D01*
X98412145Y-77743857D01*
X98483574Y-77601000D01*
X98626431Y-77529571D01*
X98912145Y-77529571D01*
X99055002Y-77601000D01*
X99126431Y-77743857D01*
X99126431Y-77886714D01*
X98412145Y-78029571D01*
X99769288Y-77529571D02*
X99769288Y-79029571D01*
X99769288Y-77601000D02*
X99912145Y-77529571D01*
X100197859Y-77529571D01*
X100340716Y-77601000D01*
X100412145Y-77672429D01*
X100483574Y-77815286D01*
X100483574Y-78243857D01*
X100412145Y-78386714D01*
X100340716Y-78458143D01*
X100197859Y-78529571D01*
X99912145Y-78529571D01*
X99769288Y-78458143D01*
X101769288Y-78529571D02*
X101769288Y-77743857D01*
X101697859Y-77601000D01*
X101555002Y-77529571D01*
X101269288Y-77529571D01*
X101126431Y-77601000D01*
X101769288Y-78458143D02*
X101626431Y-78529571D01*
X101269288Y-78529571D01*
X101126431Y-78458143D01*
X101055002Y-78315286D01*
X101055002Y-78172429D01*
X101126431Y-78029571D01*
X101269288Y-77958143D01*
X101626431Y-77958143D01*
X101769288Y-77886714D01*
X102483574Y-77529571D02*
X102483574Y-79029571D01*
X102483574Y-77601000D02*
X102626431Y-77529571D01*
X102912145Y-77529571D01*
X103055002Y-77601000D01*
X103126431Y-77672429D01*
X103197860Y-77815286D01*
X103197860Y-78243857D01*
X103126431Y-78386714D01*
X103055002Y-78458143D01*
X102912145Y-78529571D01*
X102626431Y-78529571D01*
X102483574Y-78458143D01*
X104412145Y-78458143D02*
X104269288Y-78529571D01*
X103983574Y-78529571D01*
X103840717Y-78458143D01*
X103769288Y-78315286D01*
X103769288Y-77743857D01*
X103840717Y-77601000D01*
X103983574Y-77529571D01*
X104269288Y-77529571D01*
X104412145Y-77601000D01*
X104483574Y-77743857D01*
X104483574Y-77886714D01*
X103769288Y-78029571D01*
X105126431Y-78529571D02*
X105126431Y-77529571D01*
X105126431Y-77815286D02*
X105197859Y-77672429D01*
X105269288Y-77601000D01*
X105412145Y-77529571D01*
X105555002Y-77529571D01*
X106697859Y-78458143D02*
X106555002Y-78529571D01*
X106269288Y-78529571D01*
X106126430Y-78458143D01*
X106055002Y-78386714D01*
X105983573Y-78243857D01*
X105983573Y-77815286D01*
X106055002Y-77672429D01*
X106126430Y-77601000D01*
X106269288Y-77529571D01*
X106555002Y-77529571D01*
X106697859Y-77601000D01*
X107983573Y-78529571D02*
X107983573Y-77743857D01*
X107912144Y-77601000D01*
X107769287Y-77529571D01*
X107483573Y-77529571D01*
X107340716Y-77601000D01*
X107983573Y-78458143D02*
X107840716Y-78529571D01*
X107483573Y-78529571D01*
X107340716Y-78458143D01*
X107269287Y-78315286D01*
X107269287Y-78172429D01*
X107340716Y-78029571D01*
X107483573Y-77958143D01*
X107840716Y-77958143D01*
X107983573Y-77886714D01*
X108697859Y-78529571D02*
X108697859Y-77529571D01*
X108697859Y-77815286D02*
X108769287Y-77672429D01*
X108840716Y-77601000D01*
X108983573Y-77529571D01*
X109126430Y-77529571D01*
X110269287Y-78529571D02*
X110269287Y-77029571D01*
X110269287Y-78458143D02*
X110126430Y-78529571D01*
X109840716Y-78529571D01*
X109697858Y-78458143D01*
X109626430Y-78386714D01*
X109555001Y-78243857D01*
X109555001Y-77815286D01*
X109626430Y-77672429D01*
X109697858Y-77601000D01*
X109840716Y-77529571D01*
X110126430Y-77529571D01*
X110269287Y-77601000D01*
X97604286Y-32268571D02*
X97890000Y-32268571D01*
X98032858Y-32340000D01*
X98175715Y-32482857D01*
X98247143Y-32768571D01*
X98247143Y-33268571D01*
X98175715Y-33554286D01*
X98032858Y-33697143D01*
X97890000Y-33768571D01*
X97604286Y-33768571D01*
X97461429Y-33697143D01*
X97318572Y-33554286D01*
X97247143Y-33268571D01*
X97247143Y-32768571D01*
X97318572Y-32482857D01*
X97461429Y-32340000D01*
X97604286Y-32268571D01*
X98890001Y-32768571D02*
X98890001Y-34268571D01*
X98890001Y-32840000D02*
X99032858Y-32768571D01*
X99318572Y-32768571D01*
X99461429Y-32840000D01*
X99532858Y-32911429D01*
X99604287Y-33054286D01*
X99604287Y-33482857D01*
X99532858Y-33625714D01*
X99461429Y-33697143D01*
X99318572Y-33768571D01*
X99032858Y-33768571D01*
X98890001Y-33697143D01*
X100818572Y-33697143D02*
X100675715Y-33768571D01*
X100390001Y-33768571D01*
X100247144Y-33697143D01*
X100175715Y-33554286D01*
X100175715Y-32982857D01*
X100247144Y-32840000D01*
X100390001Y-32768571D01*
X100675715Y-32768571D01*
X100818572Y-32840000D01*
X100890001Y-32982857D01*
X100890001Y-33125714D01*
X100175715Y-33268571D01*
X101532858Y-32768571D02*
X101532858Y-33768571D01*
X101532858Y-32911429D02*
X101604286Y-32840000D01*
X101747144Y-32768571D01*
X101961429Y-32768571D01*
X102104286Y-32840000D01*
X102175715Y-32982857D01*
X102175715Y-33768571D01*
X103961429Y-33697143D02*
X104175715Y-33768571D01*
X104532858Y-33768571D01*
X104675715Y-33697143D01*
X104747144Y-33625714D01*
X104818572Y-33482857D01*
X104818572Y-33340000D01*
X104747144Y-33197143D01*
X104675715Y-33125714D01*
X104532858Y-33054286D01*
X104247144Y-32982857D01*
X104104286Y-32911429D01*
X104032858Y-32840000D01*
X103961429Y-32697143D01*
X103961429Y-32554286D01*
X104032858Y-32411429D01*
X104104286Y-32340000D01*
X104247144Y-32268571D01*
X104604286Y-32268571D01*
X104818572Y-32340000D01*
X105675715Y-33768571D02*
X105532857Y-33697143D01*
X105461429Y-33625714D01*
X105390000Y-33482857D01*
X105390000Y-33054286D01*
X105461429Y-32911429D01*
X105532857Y-32840000D01*
X105675715Y-32768571D01*
X105890000Y-32768571D01*
X106032857Y-32840000D01*
X106104286Y-32911429D01*
X106175715Y-33054286D01*
X106175715Y-33482857D01*
X106104286Y-33625714D01*
X106032857Y-33697143D01*
X105890000Y-33768571D01*
X105675715Y-33768571D01*
X107461429Y-32768571D02*
X107461429Y-33768571D01*
X106818572Y-32768571D02*
X106818572Y-33554286D01*
X106890000Y-33697143D01*
X107032858Y-33768571D01*
X107247143Y-33768571D01*
X107390000Y-33697143D01*
X107461429Y-33625714D01*
X108175715Y-33768571D02*
X108175715Y-32768571D01*
X108175715Y-33054286D02*
X108247143Y-32911429D01*
X108318572Y-32840000D01*
X108461429Y-32768571D01*
X108604286Y-32768571D01*
X109747143Y-33697143D02*
X109604286Y-33768571D01*
X109318572Y-33768571D01*
X109175714Y-33697143D01*
X109104286Y-33625714D01*
X109032857Y-33482857D01*
X109032857Y-33054286D01*
X109104286Y-32911429D01*
X109175714Y-32840000D01*
X109318572Y-32768571D01*
X109604286Y-32768571D01*
X109747143Y-32840000D01*
X110961428Y-33697143D02*
X110818571Y-33768571D01*
X110532857Y-33768571D01*
X110390000Y-33697143D01*
X110318571Y-33554286D01*
X110318571Y-32982857D01*
X110390000Y-32840000D01*
X110532857Y-32768571D01*
X110818571Y-32768571D01*
X110961428Y-32840000D01*
X111032857Y-32982857D01*
X111032857Y-33125714D01*
X110318571Y-33268571D01*
X99318572Y-36168571D02*
X99318572Y-34668571D01*
X99318572Y-35382857D02*
X100175715Y-35382857D01*
X100175715Y-36168571D02*
X100175715Y-34668571D01*
X101532858Y-36168571D02*
X101532858Y-35382857D01*
X101461429Y-35240000D01*
X101318572Y-35168571D01*
X101032858Y-35168571D01*
X100890001Y-35240000D01*
X101532858Y-36097143D02*
X101390001Y-36168571D01*
X101032858Y-36168571D01*
X100890001Y-36097143D01*
X100818572Y-35954286D01*
X100818572Y-35811429D01*
X100890001Y-35668571D01*
X101032858Y-35597143D01*
X101390001Y-35597143D01*
X101532858Y-35525714D01*
X102247144Y-36168571D02*
X102247144Y-35168571D01*
X102247144Y-35454286D02*
X102318572Y-35311429D01*
X102390001Y-35240000D01*
X102532858Y-35168571D01*
X102675715Y-35168571D01*
X103818572Y-36168571D02*
X103818572Y-34668571D01*
X103818572Y-36097143D02*
X103675715Y-36168571D01*
X103390001Y-36168571D01*
X103247143Y-36097143D01*
X103175715Y-36025714D01*
X103104286Y-35882857D01*
X103104286Y-35454286D01*
X103175715Y-35311429D01*
X103247143Y-35240000D01*
X103390001Y-35168571D01*
X103675715Y-35168571D01*
X103818572Y-35240000D01*
X104390001Y-35168571D02*
X104675715Y-36168571D01*
X104961429Y-35454286D01*
X105247144Y-36168571D01*
X105532858Y-35168571D01*
X106747144Y-36168571D02*
X106747144Y-35382857D01*
X106675715Y-35240000D01*
X106532858Y-35168571D01*
X106247144Y-35168571D01*
X106104287Y-35240000D01*
X106747144Y-36097143D02*
X106604287Y-36168571D01*
X106247144Y-36168571D01*
X106104287Y-36097143D01*
X106032858Y-35954286D01*
X106032858Y-35811429D01*
X106104287Y-35668571D01*
X106247144Y-35597143D01*
X106604287Y-35597143D01*
X106747144Y-35525714D01*
X107461430Y-36168571D02*
X107461430Y-35168571D01*
X107461430Y-35454286D02*
X107532858Y-35311429D01*
X107604287Y-35240000D01*
X107747144Y-35168571D01*
X107890001Y-35168571D01*
X108961429Y-36097143D02*
X108818572Y-36168571D01*
X108532858Y-36168571D01*
X108390001Y-36097143D01*
X108318572Y-35954286D01*
X108318572Y-35382857D01*
X108390001Y-35240000D01*
X108532858Y-35168571D01*
X108818572Y-35168571D01*
X108961429Y-35240000D01*
X109032858Y-35382857D01*
X109032858Y-35525714D01*
X108318572Y-35668571D01*
D12*
X39684477Y-74373619D02*
X40313429Y-74373619D01*
X39974763Y-74760667D01*
X40119905Y-74760667D01*
X40216667Y-74809048D01*
X40265048Y-74857429D01*
X40313429Y-74954190D01*
X40313429Y-75196095D01*
X40265048Y-75292857D01*
X40216667Y-75341238D01*
X40119905Y-75389619D01*
X39829620Y-75389619D01*
X39732858Y-75341238D01*
X39684477Y-75292857D01*
X40652096Y-74712286D02*
X40894001Y-75389619D01*
X41135905Y-74712286D01*
X41426191Y-74373619D02*
X42055143Y-74373619D01*
X41716477Y-74760667D01*
X41861619Y-74760667D01*
X41958381Y-74809048D01*
X42006762Y-74857429D01*
X42055143Y-74954190D01*
X42055143Y-75196095D01*
X42006762Y-75292857D01*
X41958381Y-75341238D01*
X41861619Y-75389619D01*
X41571334Y-75389619D01*
X41474572Y-75341238D01*
X41426191Y-75292857D01*
X36164763Y-74373619D02*
X36745334Y-74373619D01*
X36455049Y-75389619D02*
X36455049Y-74373619D01*
X37471048Y-75341238D02*
X37374286Y-75389619D01*
X37180763Y-75389619D01*
X37084001Y-75341238D01*
X37035620Y-75244476D01*
X37035620Y-74857429D01*
X37084001Y-74760667D01*
X37180763Y-74712286D01*
X37374286Y-74712286D01*
X37471048Y-74760667D01*
X37519429Y-74857429D01*
X37519429Y-74954190D01*
X37035620Y-75050952D01*
X37906477Y-75341238D02*
X38003239Y-75389619D01*
X38196763Y-75389619D01*
X38293524Y-75341238D01*
X38341905Y-75244476D01*
X38341905Y-75196095D01*
X38293524Y-75099333D01*
X38196763Y-75050952D01*
X38051620Y-75050952D01*
X37954858Y-75002571D01*
X37906477Y-74905810D01*
X37906477Y-74857429D01*
X37954858Y-74760667D01*
X38051620Y-74712286D01*
X38196763Y-74712286D01*
X38293524Y-74760667D01*
X38632191Y-74712286D02*
X39019239Y-74712286D01*
X38777334Y-74373619D02*
X38777334Y-75244476D01*
X38825715Y-75341238D01*
X38922477Y-75389619D01*
X39019239Y-75389619D01*
X35511619Y-75063047D02*
X35027810Y-75401713D01*
X35511619Y-75643618D02*
X34495619Y-75643618D01*
X34495619Y-75256571D01*
X34544000Y-75159809D01*
X34592381Y-75111428D01*
X34689143Y-75063047D01*
X34834286Y-75063047D01*
X34931048Y-75111428D01*
X34979429Y-75159809D01*
X35027810Y-75256571D01*
X35027810Y-75643618D01*
X35463238Y-74675999D02*
X35511619Y-74579237D01*
X35511619Y-74385713D01*
X35463238Y-74288952D01*
X35366476Y-74240571D01*
X35318095Y-74240571D01*
X35221333Y-74288952D01*
X35172952Y-74385713D01*
X35172952Y-74530856D01*
X35124571Y-74627618D01*
X35027810Y-74675999D01*
X34979429Y-74675999D01*
X34882667Y-74627618D01*
X34834286Y-74530856D01*
X34834286Y-74385713D01*
X34882667Y-74288952D01*
X34834286Y-73950285D02*
X34834286Y-73563237D01*
X34495619Y-73805142D02*
X35366476Y-73805142D01*
X35463238Y-73756761D01*
X35511619Y-73659999D01*
X35511619Y-73563237D01*
X32971619Y-74978381D02*
X32487810Y-75317047D01*
X32971619Y-75558952D02*
X31955619Y-75558952D01*
X31955619Y-75171905D01*
X32004000Y-75075143D01*
X32052381Y-75026762D01*
X32149143Y-74978381D01*
X32294286Y-74978381D01*
X32391048Y-75026762D01*
X32439429Y-75075143D01*
X32487810Y-75171905D01*
X32487810Y-75558952D01*
X32971619Y-74639714D02*
X32294286Y-74107524D01*
X32294286Y-74639714D02*
X32971619Y-74107524D01*
X32971619Y-73285048D02*
X31955619Y-73285048D01*
X32923238Y-73285048D02*
X32971619Y-73381810D01*
X32971619Y-73575333D01*
X32923238Y-73672095D01*
X32874857Y-73720476D01*
X32778095Y-73768857D01*
X32487810Y-73768857D01*
X32391048Y-73720476D01*
X32342667Y-73672095D01*
X32294286Y-73575333D01*
X32294286Y-73381810D01*
X32342667Y-73285048D01*
X29415619Y-75583142D02*
X29415619Y-75002571D01*
X30431619Y-75292856D02*
X29415619Y-75292856D01*
X30431619Y-74760666D02*
X29754286Y-74228476D01*
X29754286Y-74760666D02*
X30431619Y-74228476D01*
X30431619Y-73406000D02*
X29415619Y-73406000D01*
X30383238Y-73406000D02*
X30431619Y-73502762D01*
X30431619Y-73696285D01*
X30383238Y-73793047D01*
X30334857Y-73841428D01*
X30238095Y-73889809D01*
X29947810Y-73889809D01*
X29851048Y-73841428D01*
X29802667Y-73793047D01*
X29754286Y-73696285D01*
X29754286Y-73502762D01*
X29802667Y-73406000D01*
X26924000Y-75075143D02*
X26875619Y-75171905D01*
X26875619Y-75317048D01*
X26924000Y-75462190D01*
X27020762Y-75558952D01*
X27117524Y-75607333D01*
X27311048Y-75655714D01*
X27456190Y-75655714D01*
X27649714Y-75607333D01*
X27746476Y-75558952D01*
X27843238Y-75462190D01*
X27891619Y-75317048D01*
X27891619Y-75220286D01*
X27843238Y-75075143D01*
X27794857Y-75026762D01*
X27456190Y-75026762D01*
X27456190Y-75220286D01*
X27214286Y-74591333D02*
X27891619Y-74591333D01*
X27311048Y-74591333D02*
X27262667Y-74542952D01*
X27214286Y-74446190D01*
X27214286Y-74301048D01*
X27262667Y-74204286D01*
X27359429Y-74155905D01*
X27891619Y-74155905D01*
X27891619Y-73236667D02*
X26875619Y-73236667D01*
X27843238Y-73236667D02*
X27891619Y-73333429D01*
X27891619Y-73526952D01*
X27843238Y-73623714D01*
X27794857Y-73672095D01*
X27698095Y-73720476D01*
X27407810Y-73720476D01*
X27311048Y-73672095D01*
X27262667Y-73623714D01*
X27214286Y-73526952D01*
X27214286Y-73333429D01*
X27262667Y-73236667D01*
D13*
X57287697Y-42164000D02*
G75*
G03X57287697Y-42164000I-11821697J0D01*
G01*
X47095210Y-62230000D02*
G75*
G03X47095210Y-62230000I-359210J0D01*
G01*
X43881000Y-55807000D02*
X39431000Y-55807000D01*
X45406000Y-62557000D02*
X39431000Y-62557000D01*
X45982000Y-75272000D02*
X46982000Y-75272000D01*
X46982000Y-73572000D02*
X45982000Y-73572000D01*
X52316000Y-63666000D02*
X51316000Y-63666000D01*
X51316000Y-65366000D02*
X52316000Y-65366000D01*
X51216000Y-60847000D02*
X52416000Y-60847000D01*
X52416000Y-62597000D02*
X51216000Y-62597000D01*
X39716000Y-73265000D02*
X38516000Y-73265000D01*
X38516000Y-71515000D02*
X39716000Y-71515000D01*
X31956000Y-62182000D02*
X31756000Y-62182000D01*
X25956000Y-62182000D02*
X26156000Y-62182000D01*
X25956000Y-56182000D02*
X26156000Y-56182000D01*
X31956000Y-56182000D02*
X31756000Y-56182000D01*
X30156000Y-56182000D02*
X27756000Y-56182000D01*
X30156000Y-62182000D02*
X27756000Y-62182000D01*
X31956000Y-62182000D02*
X31956000Y-56182000D01*
X25956000Y-56182000D02*
X25956000Y-62182000D01*
X30656000Y-59182000D02*
G75*
G03X30656000Y-59182000I-1700000J0D01*
G01*
X45982000Y-71208000D02*
X46982000Y-71208000D01*
X46982000Y-69508000D02*
X45982000Y-69508000D01*
X57920000Y-58508000D02*
X58920000Y-58508000D01*
X58920000Y-56808000D02*
X57920000Y-56808000D01*
X52570000Y-73572000D02*
X51570000Y-73572000D01*
X51570000Y-75272000D02*
X52570000Y-75272000D01*
X58936000Y-72986000D02*
X59936000Y-72986000D01*
X59936000Y-71286000D02*
X58936000Y-71286000D01*
X65524000Y-65444000D02*
X64524000Y-65444000D01*
X64524000Y-67144000D02*
X65524000Y-67144000D01*
X71112000Y-65444000D02*
X70112000Y-65444000D01*
X70112000Y-67144000D02*
X71112000Y-67144000D01*
X64524000Y-56730000D02*
X65524000Y-56730000D01*
X65524000Y-55030000D02*
X64524000Y-55030000D01*
X76700000Y-65444000D02*
X75700000Y-65444000D01*
X75700000Y-67144000D02*
X76700000Y-67144000D01*
X81288000Y-70192000D02*
X82288000Y-70192000D01*
X82288000Y-68492000D02*
X81288000Y-68492000D01*
X75700000Y-70192000D02*
X76700000Y-70192000D01*
X76700000Y-68492000D02*
X75700000Y-68492000D01*
X64524000Y-70192000D02*
X65524000Y-70192000D01*
X65524000Y-68492000D02*
X64524000Y-68492000D01*
X70112000Y-56730000D02*
X71112000Y-56730000D01*
X71112000Y-55030000D02*
X70112000Y-55030000D01*
X82288000Y-65444000D02*
X81288000Y-65444000D01*
X81288000Y-67144000D02*
X82288000Y-67144000D01*
X70112000Y-70192000D02*
X71112000Y-70192000D01*
X71112000Y-68492000D02*
X70112000Y-68492000D01*
X86876000Y-56730000D02*
X87876000Y-56730000D01*
X87876000Y-55030000D02*
X86876000Y-55030000D01*
X75700000Y-56730000D02*
X76700000Y-56730000D01*
X76700000Y-55030000D02*
X75700000Y-55030000D01*
X87876000Y-65444000D02*
X86876000Y-65444000D01*
X86876000Y-67144000D02*
X87876000Y-67144000D01*
X81288000Y-56730000D02*
X82288000Y-56730000D01*
X82288000Y-55030000D02*
X81288000Y-55030000D01*
X93210000Y-66206000D02*
X92210000Y-66206000D01*
X92210000Y-67906000D02*
X93210000Y-67906000D01*
X59944000Y-64770000D02*
X60579000Y-64770000D01*
X60579000Y-64770000D02*
X60579000Y-63754000D01*
X58801000Y-63754000D02*
X58801000Y-64770000D01*
X58801000Y-64770000D02*
X59436000Y-64770000D01*
X59944000Y-64897000D02*
X59944000Y-64770000D01*
X59436000Y-64770000D02*
X59436000Y-64897000D01*
X60579000Y-63754000D02*
X58801000Y-63754000D01*
X59436000Y-64897000D02*
X59944000Y-64897000D01*
X40132000Y-66294000D02*
X40132000Y-65659000D01*
X40132000Y-65659000D02*
X39116000Y-65659000D01*
X39116000Y-67437000D02*
X40132000Y-67437000D01*
X40132000Y-67437000D02*
X40132000Y-66802000D01*
X40259000Y-66294000D02*
X40132000Y-66294000D01*
X40132000Y-66802000D02*
X40259000Y-66802000D01*
X39116000Y-65659000D02*
X39116000Y-67437000D01*
X40259000Y-66802000D02*
X40259000Y-66294000D01*
X44704000Y-66294000D02*
X44704000Y-65659000D01*
X44704000Y-65659000D02*
X43688000Y-65659000D01*
X43688000Y-67437000D02*
X44704000Y-67437000D01*
X44704000Y-67437000D02*
X44704000Y-66802000D01*
X44831000Y-66294000D02*
X44704000Y-66294000D01*
X44704000Y-66802000D02*
X44831000Y-66802000D01*
X43688000Y-65659000D02*
X43688000Y-67437000D01*
X44831000Y-66802000D02*
X44831000Y-66294000D01*
X49276000Y-66294000D02*
X49276000Y-65659000D01*
X49276000Y-65659000D02*
X48260000Y-65659000D01*
X48260000Y-67437000D02*
X49276000Y-67437000D01*
X49276000Y-67437000D02*
X49276000Y-66802000D01*
X49403000Y-66294000D02*
X49276000Y-66294000D01*
X49276000Y-66802000D02*
X49403000Y-66802000D01*
X48260000Y-65659000D02*
X48260000Y-67437000D01*
X49403000Y-66802000D02*
X49403000Y-66294000D01*
X65973960Y-77104240D02*
X65973960Y-76469240D01*
X65973960Y-76469240D02*
X64957960Y-76469240D01*
X64957960Y-78247240D02*
X65973960Y-78247240D01*
X65973960Y-78247240D02*
X65973960Y-77612240D01*
X66100960Y-77104240D02*
X65973960Y-77104240D01*
X65973960Y-77612240D02*
X66100960Y-77612240D01*
X64957960Y-76469240D02*
X64957960Y-78247240D01*
X66100960Y-77612240D02*
X66100960Y-77104240D01*
X62484000Y-60452000D02*
X62484000Y-59817000D01*
X62484000Y-59817000D02*
X61468000Y-59817000D01*
X61468000Y-61595000D02*
X62484000Y-61595000D01*
X62484000Y-61595000D02*
X62484000Y-60960000D01*
X62611000Y-60452000D02*
X62484000Y-60452000D01*
X62484000Y-60960000D02*
X62611000Y-60960000D01*
X61468000Y-59817000D02*
X61468000Y-61595000D01*
X62611000Y-60960000D02*
X62611000Y-60452000D01*
X57150000Y-62738000D02*
X57785000Y-62738000D01*
X57785000Y-62738000D02*
X57785000Y-61722000D01*
X56007000Y-61722000D02*
X56007000Y-62738000D01*
X56007000Y-62738000D02*
X56642000Y-62738000D01*
X57150000Y-62865000D02*
X57150000Y-62738000D01*
X56642000Y-62738000D02*
X56642000Y-62865000D01*
X57785000Y-61722000D02*
X56007000Y-61722000D01*
X56642000Y-62865000D02*
X57150000Y-62865000D01*
X64770000Y-74422000D02*
X65405000Y-74422000D01*
X65405000Y-74422000D02*
X65405000Y-73406000D01*
X63627000Y-73406000D02*
X63627000Y-74422000D01*
X63627000Y-74422000D02*
X64262000Y-74422000D01*
X64770000Y-74549000D02*
X64770000Y-74422000D01*
X64262000Y-74422000D02*
X64262000Y-74549000D01*
X65405000Y-73406000D02*
X63627000Y-73406000D01*
X64262000Y-74549000D02*
X64770000Y-74549000D01*
X38516000Y-68721000D02*
X39716000Y-68721000D01*
X39716000Y-70471000D02*
X38516000Y-70471000D01*
X52670000Y-71233000D02*
X51470000Y-71233000D01*
X51470000Y-69483000D02*
X52670000Y-69483000D01*
X58836000Y-74817000D02*
X60036000Y-74817000D01*
X60036000Y-76567000D02*
X58836000Y-76567000D01*
X69709000Y-74838000D02*
X69709000Y-76038000D01*
X67959000Y-76038000D02*
X67959000Y-74838000D01*
X75600000Y-73293000D02*
X76800000Y-73293000D01*
X76800000Y-75043000D02*
X75600000Y-75043000D01*
X86776000Y-68467000D02*
X87976000Y-68467000D01*
X87976000Y-70217000D02*
X86776000Y-70217000D01*
X38862000Y-78486000D02*
X26162000Y-78486000D01*
X26162000Y-78486000D02*
X26162000Y-75946000D01*
X26162000Y-75946000D02*
X38862000Y-75946000D01*
X41682000Y-78766000D02*
X40132000Y-78766000D01*
X38862000Y-78486000D02*
X38862000Y-75946000D01*
X40132000Y-75666000D02*
X41682000Y-75666000D01*
X41682000Y-75666000D02*
X41682000Y-78766000D01*
X98954000Y-50284000D02*
X102454000Y-50284000D01*
X102454000Y-50284000D02*
X102454000Y-74184000D01*
X102454000Y-74184000D02*
X99054000Y-74184000D01*
X99054000Y-74184000D02*
X98854000Y-74184000D01*
X98854000Y-74184000D02*
X98754000Y-74184000D01*
X97554000Y-74184000D02*
X97554000Y-50984000D01*
X97554000Y-51084000D02*
X97554000Y-50284000D01*
X97554000Y-50284000D02*
X98954000Y-50284000D01*
X97554000Y-74184000D02*
X98954000Y-74184000D01*
X97165697Y-42164000D02*
G75*
G03X97165697Y-42164000I-11821697J0D01*
G01*
X69842000Y-45632000D02*
X68842000Y-45632000D01*
X68842000Y-47332000D02*
X69842000Y-47332000D01*
X59524000Y-48760000D02*
X59524000Y-47760000D01*
X57824000Y-47760000D02*
X57824000Y-48760000D01*
X72692000Y-47930000D02*
X72692000Y-48580000D01*
X71942000Y-47930000D02*
X72692000Y-47930000D01*
X67842000Y-47930000D02*
X70842000Y-47930000D01*
X70842000Y-51130000D02*
X67842000Y-51130000D01*
D14*
G36*
X107251705Y-36964421D02*
X107478109Y-37023454D01*
X107607891Y-37189253D01*
X107699227Y-37516971D01*
X107756256Y-37796706D01*
X107938849Y-38177559D01*
X108152713Y-38336456D01*
X108431135Y-38446229D01*
X108650418Y-38455901D01*
X108902617Y-38348936D01*
X109227650Y-38143362D01*
X109737854Y-37805725D01*
X110177427Y-38231775D01*
X110483387Y-38565307D01*
X110592144Y-38831025D01*
X110511739Y-39110758D01*
X110294965Y-39428156D01*
X110097229Y-39707588D01*
X110042189Y-39906821D01*
X110115093Y-40144970D01*
X110187056Y-40299390D01*
X110350148Y-40580109D01*
X110553636Y-40731723D01*
X110891654Y-40814762D01*
X111017091Y-40833125D01*
X111633000Y-40917834D01*
X111633000Y-42394165D01*
X111013416Y-42479379D01*
X110630660Y-42549585D01*
X110412501Y-42665329D01*
X110270057Y-42888407D01*
X110207089Y-43039995D01*
X110098193Y-43361567D01*
X110109692Y-43576905D01*
X110258020Y-43811527D01*
X110318042Y-43887448D01*
X110547613Y-44235820D01*
X110585214Y-44522559D01*
X110422315Y-44820045D01*
X110177427Y-45080224D01*
X109737854Y-45506274D01*
X109222699Y-45165361D01*
X108868919Y-44959794D01*
X108627066Y-44904767D01*
X108463479Y-44955067D01*
X108340775Y-45019121D01*
X108248733Y-45029204D01*
X108160409Y-44948240D01*
X108048855Y-44739156D01*
X107887127Y-44364876D01*
X107691799Y-43893306D01*
X107493401Y-43407558D01*
X107385113Y-43100495D01*
X107359680Y-42916203D01*
X107409845Y-42798769D01*
X107528352Y-42692281D01*
X107535230Y-42686806D01*
X107899551Y-42266879D01*
X108064188Y-41782971D01*
X108021711Y-41296892D01*
X107764692Y-40870452D01*
X107754759Y-40860396D01*
X107279041Y-40527916D01*
X106783265Y-40444722D01*
X106292448Y-40610132D01*
X105930195Y-40910167D01*
X105705232Y-41321503D01*
X105683307Y-41800831D01*
X105853690Y-42278963D01*
X106205649Y-42686711D01*
X106205769Y-42686806D01*
X106327204Y-42794123D01*
X106380626Y-42909850D01*
X106358778Y-43089899D01*
X106254406Y-43390183D01*
X106060253Y-43866614D01*
X106049200Y-43893306D01*
X105824186Y-44435810D01*
X105672044Y-44781815D01*
X105565749Y-44968349D01*
X105478273Y-45032444D01*
X105382592Y-45011129D01*
X105275201Y-44953826D01*
X105063480Y-44900967D01*
X104806389Y-44987816D01*
X104554928Y-45143983D01*
X104254955Y-45337814D01*
X104048912Y-45452567D01*
X104008432Y-45466000D01*
X103884496Y-45382807D01*
X103654515Y-45172325D01*
X103529913Y-45047203D01*
X103237812Y-44699965D01*
X103146169Y-44420477D01*
X103247746Y-44130275D01*
X103422957Y-43887448D01*
X103607851Y-43628552D01*
X103651831Y-43420143D01*
X103571331Y-43136704D01*
X103533910Y-43039995D01*
X103396547Y-42748577D01*
X103223400Y-42592258D01*
X102925587Y-42509238D01*
X102727583Y-42479379D01*
X102108000Y-42394165D01*
X102108000Y-40917834D01*
X102723908Y-40833125D01*
X103113932Y-40758176D01*
X103344218Y-40630861D01*
X103508899Y-40390650D01*
X103553943Y-40299390D01*
X103680451Y-40003741D01*
X103685764Y-39801488D01*
X103555127Y-39573520D01*
X103446034Y-39428156D01*
X103208031Y-39069977D01*
X103152217Y-38796802D01*
X103286631Y-38526803D01*
X103563572Y-38231775D01*
X104003145Y-37805725D01*
X104513349Y-38143362D01*
X104871657Y-38367513D01*
X105115469Y-38460372D01*
X105336840Y-38438476D01*
X105588286Y-38336456D01*
X105880435Y-38070979D01*
X105984743Y-37796706D01*
X106080170Y-37352275D01*
X106180949Y-37101135D01*
X106345256Y-36988134D01*
X106631272Y-36958118D01*
X106870499Y-36957000D01*
X107251705Y-36964421D01*
X107251705Y-36964421D01*
G37*
X107251705Y-36964421D02*
X107478109Y-37023454D01*
X107607891Y-37189253D01*
X107699227Y-37516971D01*
X107756256Y-37796706D01*
X107938849Y-38177559D01*
X108152713Y-38336456D01*
X108431135Y-38446229D01*
X108650418Y-38455901D01*
X108902617Y-38348936D01*
X109227650Y-38143362D01*
X109737854Y-37805725D01*
X110177427Y-38231775D01*
X110483387Y-38565307D01*
X110592144Y-38831025D01*
X110511739Y-39110758D01*
X110294965Y-39428156D01*
X110097229Y-39707588D01*
X110042189Y-39906821D01*
X110115093Y-40144970D01*
X110187056Y-40299390D01*
X110350148Y-40580109D01*
X110553636Y-40731723D01*
X110891654Y-40814762D01*
X111017091Y-40833125D01*
X111633000Y-40917834D01*
X111633000Y-42394165D01*
X111013416Y-42479379D01*
X110630660Y-42549585D01*
X110412501Y-42665329D01*
X110270057Y-42888407D01*
X110207089Y-43039995D01*
X110098193Y-43361567D01*
X110109692Y-43576905D01*
X110258020Y-43811527D01*
X110318042Y-43887448D01*
X110547613Y-44235820D01*
X110585214Y-44522559D01*
X110422315Y-44820045D01*
X110177427Y-45080224D01*
X109737854Y-45506274D01*
X109222699Y-45165361D01*
X108868919Y-44959794D01*
X108627066Y-44904767D01*
X108463479Y-44955067D01*
X108340775Y-45019121D01*
X108248733Y-45029204D01*
X108160409Y-44948240D01*
X108048855Y-44739156D01*
X107887127Y-44364876D01*
X107691799Y-43893306D01*
X107493401Y-43407558D01*
X107385113Y-43100495D01*
X107359680Y-42916203D01*
X107409845Y-42798769D01*
X107528352Y-42692281D01*
X107535230Y-42686806D01*
X107899551Y-42266879D01*
X108064188Y-41782971D01*
X108021711Y-41296892D01*
X107764692Y-40870452D01*
X107754759Y-40860396D01*
X107279041Y-40527916D01*
X106783265Y-40444722D01*
X106292448Y-40610132D01*
X105930195Y-40910167D01*
X105705232Y-41321503D01*
X105683307Y-41800831D01*
X105853690Y-42278963D01*
X106205649Y-42686711D01*
X106205769Y-42686806D01*
X106327204Y-42794123D01*
X106380626Y-42909850D01*
X106358778Y-43089899D01*
X106254406Y-43390183D01*
X106060253Y-43866614D01*
X106049200Y-43893306D01*
X105824186Y-44435810D01*
X105672044Y-44781815D01*
X105565749Y-44968349D01*
X105478273Y-45032444D01*
X105382592Y-45011129D01*
X105275201Y-44953826D01*
X105063480Y-44900967D01*
X104806389Y-44987816D01*
X104554928Y-45143983D01*
X104254955Y-45337814D01*
X104048912Y-45452567D01*
X104008432Y-45466000D01*
X103884496Y-45382807D01*
X103654515Y-45172325D01*
X103529913Y-45047203D01*
X103237812Y-44699965D01*
X103146169Y-44420477D01*
X103247746Y-44130275D01*
X103422957Y-43887448D01*
X103607851Y-43628552D01*
X103651831Y-43420143D01*
X103571331Y-43136704D01*
X103533910Y-43039995D01*
X103396547Y-42748577D01*
X103223400Y-42592258D01*
X102925587Y-42509238D01*
X102727583Y-42479379D01*
X102108000Y-42394165D01*
X102108000Y-40917834D01*
X102723908Y-40833125D01*
X103113932Y-40758176D01*
X103344218Y-40630861D01*
X103508899Y-40390650D01*
X103553943Y-40299390D01*
X103680451Y-40003741D01*
X103685764Y-39801488D01*
X103555127Y-39573520D01*
X103446034Y-39428156D01*
X103208031Y-39069977D01*
X103152217Y-38796802D01*
X103286631Y-38526803D01*
X103563572Y-38231775D01*
X104003145Y-37805725D01*
X104513349Y-38143362D01*
X104871657Y-38367513D01*
X105115469Y-38460372D01*
X105336840Y-38438476D01*
X105588286Y-38336456D01*
X105880435Y-38070979D01*
X105984743Y-37796706D01*
X106080170Y-37352275D01*
X106180949Y-37101135D01*
X106345256Y-36988134D01*
X106631272Y-36958118D01*
X106870499Y-36957000D01*
X107251705Y-36964421D01*
D13*
X64538000Y-47860000D02*
G75*
G03X64538000Y-47860000I-100000J0D01*
G01*
X64188000Y-48510000D02*
X64188000Y-48010000D01*
X61288000Y-48510000D02*
X64188000Y-48510000D01*
X61288000Y-48010000D02*
X61288000Y-48510000D01*
X64188000Y-48010000D02*
X61288000Y-48010000D01*
X44680286Y-42092571D02*
X44823143Y-42140190D01*
X44870762Y-42187810D01*
X44918381Y-42283048D01*
X44918381Y-42425905D01*
X44870762Y-42521143D01*
X44823143Y-42568762D01*
X44727905Y-42616381D01*
X44346952Y-42616381D01*
X44346952Y-41616381D01*
X44680286Y-41616381D01*
X44775524Y-41664000D01*
X44823143Y-41711619D01*
X44870762Y-41806857D01*
X44870762Y-41902095D01*
X44823143Y-41997333D01*
X44775524Y-42044952D01*
X44680286Y-42092571D01*
X44346952Y-42092571D01*
X45204095Y-41616381D02*
X45775524Y-41616381D01*
X45489809Y-42616381D02*
X45489809Y-41616381D01*
X46632667Y-42616381D02*
X46061238Y-42616381D01*
X46346952Y-42616381D02*
X46346952Y-41616381D01*
X46251714Y-41759238D01*
X46156476Y-41854476D01*
X46061238Y-41902095D01*
D15*
X42018856Y-40422286D02*
X41946285Y-40494857D01*
X41728571Y-40567429D01*
X41583428Y-40567429D01*
X41365713Y-40494857D01*
X41220571Y-40349714D01*
X41147999Y-40204571D01*
X41075428Y-39914286D01*
X41075428Y-39696571D01*
X41147999Y-39406286D01*
X41220571Y-39261143D01*
X41365713Y-39116000D01*
X41583428Y-39043429D01*
X41728571Y-39043429D01*
X41946285Y-39116000D01*
X42018856Y-39188571D01*
X43542856Y-40567429D02*
X43034856Y-39841714D01*
X42671999Y-40567429D02*
X42671999Y-39043429D01*
X43252571Y-39043429D01*
X43397713Y-39116000D01*
X43470285Y-39188571D01*
X43542856Y-39333714D01*
X43542856Y-39551429D01*
X43470285Y-39696571D01*
X43397713Y-39769143D01*
X43252571Y-39841714D01*
X42671999Y-39841714D01*
X44123428Y-39188571D02*
X44195999Y-39116000D01*
X44341142Y-39043429D01*
X44703999Y-39043429D01*
X44849142Y-39116000D01*
X44921713Y-39188571D01*
X44994285Y-39333714D01*
X44994285Y-39478857D01*
X44921713Y-39696571D01*
X44050856Y-40567429D01*
X44994285Y-40567429D01*
X45937714Y-39043429D02*
X46082857Y-39043429D01*
X46228000Y-39116000D01*
X46300571Y-39188571D01*
X46373142Y-39333714D01*
X46445714Y-39624000D01*
X46445714Y-39986857D01*
X46373142Y-40277143D01*
X46300571Y-40422286D01*
X46228000Y-40494857D01*
X46082857Y-40567429D01*
X45937714Y-40567429D01*
X45792571Y-40494857D01*
X45720000Y-40422286D01*
X45647428Y-40277143D01*
X45574857Y-39986857D01*
X45574857Y-39624000D01*
X45647428Y-39333714D01*
X45720000Y-39188571D01*
X45792571Y-39116000D01*
X45937714Y-39043429D01*
X47897143Y-40567429D02*
X47026286Y-40567429D01*
X47461714Y-40567429D02*
X47461714Y-39043429D01*
X47316571Y-39261143D01*
X47171429Y-39406286D01*
X47026286Y-39478857D01*
X49203429Y-39043429D02*
X48913143Y-39043429D01*
X48768000Y-39116000D01*
X48695429Y-39188571D01*
X48550286Y-39406286D01*
X48477715Y-39696571D01*
X48477715Y-40277143D01*
X48550286Y-40422286D01*
X48622858Y-40494857D01*
X48768000Y-40567429D01*
X49058286Y-40567429D01*
X49203429Y-40494857D01*
X49276000Y-40422286D01*
X49348572Y-40277143D01*
X49348572Y-39914286D01*
X49276000Y-39769143D01*
X49203429Y-39696571D01*
X49058286Y-39624000D01*
X48768000Y-39624000D01*
X48622858Y-39696571D01*
X48550286Y-39769143D01*
X48477715Y-39914286D01*
D13*
X28702095Y-38496857D02*
X30225905Y-38496857D01*
X29464000Y-39258762D02*
X29464000Y-37734952D01*
X40894095Y-62934381D02*
X40894095Y-63743905D01*
X40941714Y-63839143D01*
X40989333Y-63886762D01*
X41084571Y-63934381D01*
X41275048Y-63934381D01*
X41370286Y-63886762D01*
X41417905Y-63839143D01*
X41465524Y-63743905D01*
X41465524Y-62934381D01*
X42465524Y-63934381D02*
X41894095Y-63934381D01*
X42179809Y-63934381D02*
X42179809Y-62934381D01*
X42084571Y-63077238D01*
X41989333Y-63172476D01*
X41894095Y-63220095D01*
X33751238Y-55334381D02*
X33751238Y-54334381D01*
X34084572Y-55048667D01*
X34417905Y-54334381D01*
X34417905Y-55334381D01*
X34846476Y-55286762D02*
X34989333Y-55334381D01*
X35227429Y-55334381D01*
X35322667Y-55286762D01*
X35370286Y-55239143D01*
X35417905Y-55143905D01*
X35417905Y-55048667D01*
X35370286Y-54953429D01*
X35322667Y-54905810D01*
X35227429Y-54858190D01*
X35036952Y-54810571D01*
X34941714Y-54762952D01*
X34894095Y-54715333D01*
X34846476Y-54620095D01*
X34846476Y-54524857D01*
X34894095Y-54429619D01*
X34941714Y-54382000D01*
X35036952Y-54334381D01*
X35275048Y-54334381D01*
X35417905Y-54382000D01*
X35846476Y-55334381D02*
X35846476Y-54334381D01*
X36227429Y-54334381D01*
X36322667Y-54382000D01*
X36370286Y-54429619D01*
X36417905Y-54524857D01*
X36417905Y-54667714D01*
X36370286Y-54762952D01*
X36322667Y-54810571D01*
X36227429Y-54858190D01*
X35846476Y-54858190D01*
X37275048Y-54667714D02*
X37275048Y-55334381D01*
X37036952Y-54286762D02*
X36798857Y-55001048D01*
X37417905Y-55001048D01*
X37703619Y-54334381D02*
X38322667Y-54334381D01*
X37989333Y-54715333D01*
X38132191Y-54715333D01*
X38227429Y-54762952D01*
X38275048Y-54810571D01*
X38322667Y-54905810D01*
X38322667Y-55143905D01*
X38275048Y-55239143D01*
X38227429Y-55286762D01*
X38132191Y-55334381D01*
X37846476Y-55334381D01*
X37751238Y-55286762D01*
X37703619Y-55239143D01*
X38941714Y-54334381D02*
X39036953Y-54334381D01*
X39132191Y-54382000D01*
X39179810Y-54429619D01*
X39227429Y-54524857D01*
X39275048Y-54715333D01*
X39275048Y-54953429D01*
X39227429Y-55143905D01*
X39179810Y-55239143D01*
X39132191Y-55286762D01*
X39036953Y-55334381D01*
X38941714Y-55334381D01*
X38846476Y-55286762D01*
X38798857Y-55239143D01*
X38751238Y-55143905D01*
X38703619Y-54953429D01*
X38703619Y-54715333D01*
X38751238Y-54524857D01*
X38798857Y-54429619D01*
X38846476Y-54382000D01*
X38941714Y-54334381D01*
X40227429Y-54382000D02*
X40132191Y-54334381D01*
X39989334Y-54334381D01*
X39846476Y-54382000D01*
X39751238Y-54477238D01*
X39703619Y-54572476D01*
X39656000Y-54762952D01*
X39656000Y-54905810D01*
X39703619Y-55096286D01*
X39751238Y-55191524D01*
X39846476Y-55286762D01*
X39989334Y-55334381D01*
X40084572Y-55334381D01*
X40227429Y-55286762D01*
X40275048Y-55239143D01*
X40275048Y-54905810D01*
X40084572Y-54905810D01*
X40656000Y-54429619D02*
X40703619Y-54382000D01*
X40798857Y-54334381D01*
X41036953Y-54334381D01*
X41132191Y-54382000D01*
X41179810Y-54429619D01*
X41227429Y-54524857D01*
X41227429Y-54620095D01*
X41179810Y-54762952D01*
X40608381Y-55334381D01*
X41227429Y-55334381D01*
X42132191Y-54334381D02*
X41656000Y-54334381D01*
X41608381Y-54810571D01*
X41656000Y-54762952D01*
X41751238Y-54715333D01*
X41989334Y-54715333D01*
X42084572Y-54762952D01*
X42132191Y-54810571D01*
X42179810Y-54905810D01*
X42179810Y-55143905D01*
X42132191Y-55239143D01*
X42084572Y-55286762D01*
X41989334Y-55334381D01*
X41751238Y-55334381D01*
X41656000Y-55286762D01*
X41608381Y-55239143D01*
X43084572Y-54334381D02*
X42608381Y-54334381D01*
X42560762Y-54810571D01*
X42608381Y-54762952D01*
X42703619Y-54715333D01*
X42941715Y-54715333D01*
X43036953Y-54762952D01*
X43084572Y-54810571D01*
X43132191Y-54905810D01*
X43132191Y-55143905D01*
X43084572Y-55239143D01*
X43036953Y-55286762D01*
X42941715Y-55334381D01*
X42703619Y-55334381D01*
X42608381Y-55286762D01*
X42560762Y-55239143D01*
X43465524Y-54334381D02*
X44084572Y-54334381D01*
X43751238Y-54715333D01*
X43894096Y-54715333D01*
X43989334Y-54762952D01*
X44036953Y-54810571D01*
X44084572Y-54905810D01*
X44084572Y-55143905D01*
X44036953Y-55239143D01*
X43989334Y-55286762D01*
X43894096Y-55334381D01*
X43608381Y-55334381D01*
X43513143Y-55286762D01*
X43465524Y-55239143D01*
X44513143Y-55334381D02*
X44513143Y-54334381D01*
X44989333Y-55334381D02*
X44989333Y-54334381D01*
X45370286Y-54334381D01*
X45465524Y-54382000D01*
X45513143Y-54429619D01*
X45560762Y-54524857D01*
X45560762Y-54667714D01*
X45513143Y-54762952D01*
X45465524Y-54810571D01*
X45370286Y-54858190D01*
X44989333Y-54858190D01*
X45894095Y-54334381D02*
X46132190Y-55334381D01*
X46322667Y-54620095D01*
X46513143Y-55334381D01*
X46751238Y-54334381D01*
X47084571Y-54429619D02*
X47132190Y-54382000D01*
X47227428Y-54334381D01*
X47465524Y-54334381D01*
X47560762Y-54382000D01*
X47608381Y-54429619D01*
X47656000Y-54524857D01*
X47656000Y-54620095D01*
X47608381Y-54762952D01*
X47036952Y-55334381D01*
X47656000Y-55334381D01*
X48275047Y-54334381D02*
X48370286Y-54334381D01*
X48465524Y-54382000D01*
X48513143Y-54429619D01*
X48560762Y-54524857D01*
X48608381Y-54715333D01*
X48608381Y-54953429D01*
X48560762Y-55143905D01*
X48513143Y-55239143D01*
X48465524Y-55286762D01*
X48370286Y-55334381D01*
X48275047Y-55334381D01*
X48179809Y-55286762D01*
X48132190Y-55239143D01*
X48084571Y-55143905D01*
X48036952Y-54953429D01*
X48036952Y-54715333D01*
X48084571Y-54524857D01*
X48132190Y-54429619D01*
X48179809Y-54382000D01*
X48275047Y-54334381D01*
X49608381Y-55334381D02*
X49275047Y-54858190D01*
X49036952Y-55334381D02*
X49036952Y-54334381D01*
X49417905Y-54334381D01*
X49513143Y-54382000D01*
X49560762Y-54429619D01*
X49608381Y-54524857D01*
X49608381Y-54667714D01*
X49560762Y-54762952D01*
X49513143Y-54810571D01*
X49417905Y-54858190D01*
X49036952Y-54858190D01*
X43807143Y-76557143D02*
X43759524Y-76604762D01*
X43616667Y-76652381D01*
X43521429Y-76652381D01*
X43378571Y-76604762D01*
X43283333Y-76509524D01*
X43235714Y-76414286D01*
X43188095Y-76223810D01*
X43188095Y-76080952D01*
X43235714Y-75890476D01*
X43283333Y-75795238D01*
X43378571Y-75700000D01*
X43521429Y-75652381D01*
X43616667Y-75652381D01*
X43759524Y-75700000D01*
X43807143Y-75747619D01*
X44188095Y-75747619D02*
X44235714Y-75700000D01*
X44330952Y-75652381D01*
X44569048Y-75652381D01*
X44664286Y-75700000D01*
X44711905Y-75747619D01*
X44759524Y-75842857D01*
X44759524Y-75938095D01*
X44711905Y-76080952D01*
X44140476Y-76652381D01*
X44759524Y-76652381D01*
X45711905Y-76652381D02*
X45140476Y-76652381D01*
X45426190Y-76652381D02*
X45426190Y-75652381D01*
X45330952Y-75795238D01*
X45235714Y-75890476D01*
X45140476Y-75938095D01*
X46553619Y-75747619D02*
X46601238Y-75700000D01*
X46696476Y-75652381D01*
X46934572Y-75652381D01*
X47029810Y-75700000D01*
X47077429Y-75747619D01*
X47125048Y-75842857D01*
X47125048Y-75938095D01*
X47077429Y-76080952D01*
X46506000Y-76652381D01*
X47125048Y-76652381D01*
X47553619Y-76557143D02*
X47601238Y-76604762D01*
X47553619Y-76652381D01*
X47506000Y-76604762D01*
X47553619Y-76557143D01*
X47553619Y-76652381D01*
X47982190Y-75747619D02*
X48029809Y-75700000D01*
X48125047Y-75652381D01*
X48363143Y-75652381D01*
X48458381Y-75700000D01*
X48506000Y-75747619D01*
X48553619Y-75842857D01*
X48553619Y-75938095D01*
X48506000Y-76080952D01*
X47934571Y-76652381D01*
X48553619Y-76652381D01*
X49410762Y-75985714D02*
X49410762Y-76652381D01*
X48982190Y-75985714D02*
X48982190Y-76509524D01*
X49029809Y-76604762D01*
X49125047Y-76652381D01*
X49267905Y-76652381D01*
X49363143Y-76604762D01*
X49410762Y-76557143D01*
X51077905Y-67000381D02*
X51077905Y-66000381D01*
X51316000Y-66000381D01*
X51458858Y-66048000D01*
X51554096Y-66143238D01*
X51601715Y-66238476D01*
X51649334Y-66428952D01*
X51649334Y-66571810D01*
X51601715Y-66762286D01*
X51554096Y-66857524D01*
X51458858Y-66952762D01*
X51316000Y-67000381D01*
X51077905Y-67000381D01*
X52030286Y-66095619D02*
X52077905Y-66048000D01*
X52173143Y-66000381D01*
X52411239Y-66000381D01*
X52506477Y-66048000D01*
X52554096Y-66095619D01*
X52601715Y-66190857D01*
X52601715Y-66286095D01*
X52554096Y-66428952D01*
X51982667Y-67000381D01*
X52601715Y-67000381D01*
X53713143Y-67000381D02*
X53236952Y-67000381D01*
X53236952Y-66000381D01*
X54046476Y-66476571D02*
X54379810Y-66476571D01*
X54522667Y-67000381D02*
X54046476Y-67000381D01*
X54046476Y-66000381D01*
X54522667Y-66000381D01*
X54951238Y-67000381D02*
X54951238Y-66000381D01*
X55189333Y-66000381D01*
X55332191Y-66048000D01*
X55427429Y-66143238D01*
X55475048Y-66238476D01*
X55522667Y-66428952D01*
X55522667Y-66571810D01*
X55475048Y-66762286D01*
X55427429Y-66857524D01*
X55332191Y-66952762D01*
X55189333Y-67000381D01*
X54951238Y-67000381D01*
X48347334Y-62174381D02*
X48014000Y-61698190D01*
X47775905Y-62174381D02*
X47775905Y-61174381D01*
X48156858Y-61174381D01*
X48252096Y-61222000D01*
X48299715Y-61269619D01*
X48347334Y-61364857D01*
X48347334Y-61507714D01*
X48299715Y-61602952D01*
X48252096Y-61650571D01*
X48156858Y-61698190D01*
X47775905Y-61698190D01*
X48680667Y-61174381D02*
X49347334Y-61174381D01*
X48918762Y-62174381D01*
X48006096Y-59983714D02*
X48006096Y-60650381D01*
X47768000Y-59602762D02*
X47529905Y-60317048D01*
X48148953Y-60317048D01*
X48434667Y-59650381D02*
X49101334Y-59650381D01*
X48672762Y-60650381D01*
X49672762Y-59650381D02*
X49768001Y-59650381D01*
X49863239Y-59698000D01*
X49910858Y-59745619D01*
X49958477Y-59840857D01*
X50006096Y-60031333D01*
X50006096Y-60269429D01*
X49958477Y-60459905D01*
X49910858Y-60555143D01*
X49863239Y-60602762D01*
X49768001Y-60650381D01*
X49672762Y-60650381D01*
X49577524Y-60602762D01*
X49529905Y-60555143D01*
X49482286Y-60459905D01*
X49434667Y-60269429D01*
X49434667Y-60031333D01*
X49482286Y-59840857D01*
X49529905Y-59745619D01*
X49577524Y-59698000D01*
X49672762Y-59650381D01*
X32599334Y-72334381D02*
X32266000Y-71858190D01*
X32027905Y-72334381D02*
X32027905Y-71334381D01*
X32408858Y-71334381D01*
X32504096Y-71382000D01*
X32551715Y-71429619D01*
X32599334Y-71524857D01*
X32599334Y-71667714D01*
X32551715Y-71762952D01*
X32504096Y-71810571D01*
X32408858Y-71858190D01*
X32027905Y-71858190D01*
X33170762Y-71762952D02*
X33075524Y-71715333D01*
X33027905Y-71667714D01*
X32980286Y-71572476D01*
X32980286Y-71524857D01*
X33027905Y-71429619D01*
X33075524Y-71382000D01*
X33170762Y-71334381D01*
X33361239Y-71334381D01*
X33456477Y-71382000D01*
X33504096Y-71429619D01*
X33551715Y-71524857D01*
X33551715Y-71572476D01*
X33504096Y-71667714D01*
X33456477Y-71715333D01*
X33361239Y-71762952D01*
X33170762Y-71762952D01*
X33075524Y-71810571D01*
X33027905Y-71858190D01*
X32980286Y-71953429D01*
X32980286Y-72143905D01*
X33027905Y-72239143D01*
X33075524Y-72286762D01*
X33170762Y-72334381D01*
X33361239Y-72334381D01*
X33456477Y-72286762D01*
X33504096Y-72239143D01*
X33551715Y-72143905D01*
X33551715Y-71953429D01*
X33504096Y-71858190D01*
X33456477Y-71810571D01*
X33361239Y-71762952D01*
X34091714Y-71334381D02*
X34710762Y-71334381D01*
X34377428Y-71715333D01*
X34520286Y-71715333D01*
X34615524Y-71762952D01*
X34663143Y-71810571D01*
X34710762Y-71905810D01*
X34710762Y-72143905D01*
X34663143Y-72239143D01*
X34615524Y-72286762D01*
X34520286Y-72334381D01*
X34234571Y-72334381D01*
X34139333Y-72286762D01*
X34091714Y-72239143D01*
X35044095Y-71334381D02*
X35663143Y-71334381D01*
X35329809Y-71715333D01*
X35472667Y-71715333D01*
X35567905Y-71762952D01*
X35615524Y-71810571D01*
X35663143Y-71905810D01*
X35663143Y-72143905D01*
X35615524Y-72239143D01*
X35567905Y-72286762D01*
X35472667Y-72334381D01*
X35186952Y-72334381D01*
X35091714Y-72286762D01*
X35044095Y-72239143D01*
X36091714Y-72334381D02*
X36091714Y-71334381D01*
X36186952Y-71953429D02*
X36472667Y-72334381D01*
X36472667Y-71667714D02*
X36091714Y-72048667D01*
X27622667Y-64666762D02*
X27765524Y-64714381D01*
X28003620Y-64714381D01*
X28098858Y-64666762D01*
X28146477Y-64619143D01*
X28194096Y-64523905D01*
X28194096Y-64428667D01*
X28146477Y-64333429D01*
X28098858Y-64285810D01*
X28003620Y-64238190D01*
X27813143Y-64190571D01*
X27717905Y-64142952D01*
X27670286Y-64095333D01*
X27622667Y-64000095D01*
X27622667Y-63904857D01*
X27670286Y-63809619D01*
X27717905Y-63762000D01*
X27813143Y-63714381D01*
X28051239Y-63714381D01*
X28194096Y-63762000D01*
X28527429Y-63714381D02*
X28765524Y-64714381D01*
X28956001Y-64000095D01*
X29146477Y-64714381D01*
X29384572Y-63714381D01*
X30289334Y-64714381D02*
X29717905Y-64714381D01*
X30003619Y-64714381D02*
X30003619Y-63714381D01*
X29908381Y-63857238D01*
X29813143Y-63952476D01*
X29717905Y-64000095D01*
X25694095Y-54252762D02*
X25836952Y-54300381D01*
X26075048Y-54300381D01*
X26170286Y-54252762D01*
X26217905Y-54205143D01*
X26265524Y-54109905D01*
X26265524Y-54014667D01*
X26217905Y-53919429D01*
X26170286Y-53871810D01*
X26075048Y-53824190D01*
X25884571Y-53776571D01*
X25789333Y-53728952D01*
X25741714Y-53681333D01*
X25694095Y-53586095D01*
X25694095Y-53490857D01*
X25741714Y-53395619D01*
X25789333Y-53348000D01*
X25884571Y-53300381D01*
X26122667Y-53300381D01*
X26265524Y-53348000D01*
X26598857Y-53300381D02*
X26836952Y-54300381D01*
X27027429Y-53586095D01*
X27217905Y-54300381D01*
X27456000Y-53300381D01*
X27598857Y-54395619D02*
X28360762Y-54395619D01*
X28598857Y-54300381D02*
X28598857Y-53300381D01*
X28979810Y-53300381D01*
X29075048Y-53348000D01*
X29122667Y-53395619D01*
X29170286Y-53490857D01*
X29170286Y-53633714D01*
X29122667Y-53728952D01*
X29075048Y-53776571D01*
X28979810Y-53824190D01*
X28598857Y-53824190D01*
X29598857Y-53300381D02*
X29598857Y-54109905D01*
X29646476Y-54205143D01*
X29694095Y-54252762D01*
X29789333Y-54300381D01*
X29979810Y-54300381D01*
X30075048Y-54252762D01*
X30122667Y-54205143D01*
X30170286Y-54109905D01*
X30170286Y-53300381D01*
X30598857Y-54252762D02*
X30741714Y-54300381D01*
X30979810Y-54300381D01*
X31075048Y-54252762D01*
X31122667Y-54205143D01*
X31170286Y-54109905D01*
X31170286Y-54014667D01*
X31122667Y-53919429D01*
X31075048Y-53871810D01*
X30979810Y-53824190D01*
X30789333Y-53776571D01*
X30694095Y-53728952D01*
X30646476Y-53681333D01*
X30598857Y-53586095D01*
X30598857Y-53490857D01*
X30646476Y-53395619D01*
X30694095Y-53348000D01*
X30789333Y-53300381D01*
X31027429Y-53300381D01*
X31170286Y-53348000D01*
X31598857Y-54300381D02*
X31598857Y-53300381D01*
X31598857Y-53776571D02*
X32170286Y-53776571D01*
X32170286Y-54300381D02*
X32170286Y-53300381D01*
X45045334Y-72493143D02*
X44997715Y-72540762D01*
X44854858Y-72588381D01*
X44759620Y-72588381D01*
X44616762Y-72540762D01*
X44521524Y-72445524D01*
X44473905Y-72350286D01*
X44426286Y-72159810D01*
X44426286Y-72016952D01*
X44473905Y-71826476D01*
X44521524Y-71731238D01*
X44616762Y-71636000D01*
X44759620Y-71588381D01*
X44854858Y-71588381D01*
X44997715Y-71636000D01*
X45045334Y-71683619D01*
X45997715Y-72588381D02*
X45426286Y-72588381D01*
X45712000Y-72588381D02*
X45712000Y-71588381D01*
X45616762Y-71731238D01*
X45521524Y-71826476D01*
X45426286Y-71874095D01*
X44759714Y-68032381D02*
X44854953Y-68032381D01*
X44950191Y-68080000D01*
X44997810Y-68127619D01*
X45045429Y-68222857D01*
X45093048Y-68413333D01*
X45093048Y-68651429D01*
X45045429Y-68841905D01*
X44997810Y-68937143D01*
X44950191Y-68984762D01*
X44854953Y-69032381D01*
X44759714Y-69032381D01*
X44664476Y-68984762D01*
X44616857Y-68937143D01*
X44569238Y-68841905D01*
X44521619Y-68651429D01*
X44521619Y-68413333D01*
X44569238Y-68222857D01*
X44616857Y-68127619D01*
X44664476Y-68080000D01*
X44759714Y-68032381D01*
X45521619Y-68937143D02*
X45569238Y-68984762D01*
X45521619Y-69032381D01*
X45474000Y-68984762D01*
X45521619Y-68937143D01*
X45521619Y-69032381D01*
X46521619Y-69032381D02*
X45950190Y-69032381D01*
X46235904Y-69032381D02*
X46235904Y-68032381D01*
X46140666Y-68175238D01*
X46045428Y-68270476D01*
X45950190Y-68318095D01*
X47378762Y-68365714D02*
X47378762Y-69032381D01*
X46950190Y-68365714D02*
X46950190Y-68889524D01*
X46997809Y-68984762D01*
X47093047Y-69032381D01*
X47235905Y-69032381D01*
X47331143Y-68984762D01*
X47378762Y-68937143D01*
X58253334Y-56491143D02*
X58205715Y-56538762D01*
X58062858Y-56586381D01*
X57967620Y-56586381D01*
X57824762Y-56538762D01*
X57729524Y-56443524D01*
X57681905Y-56348286D01*
X57634286Y-56157810D01*
X57634286Y-56014952D01*
X57681905Y-55824476D01*
X57729524Y-55729238D01*
X57824762Y-55634000D01*
X57967620Y-55586381D01*
X58062858Y-55586381D01*
X58205715Y-55634000D01*
X58253334Y-55681619D01*
X58634286Y-55681619D02*
X58681905Y-55634000D01*
X58777143Y-55586381D01*
X59015239Y-55586381D01*
X59110477Y-55634000D01*
X59158096Y-55681619D01*
X59205715Y-55776857D01*
X59205715Y-55872095D01*
X59158096Y-56014952D01*
X58586667Y-56586381D01*
X59205715Y-56586381D01*
X57205714Y-54062381D02*
X57300953Y-54062381D01*
X57396191Y-54110000D01*
X57443810Y-54157619D01*
X57491429Y-54252857D01*
X57539048Y-54443333D01*
X57539048Y-54681429D01*
X57491429Y-54871905D01*
X57443810Y-54967143D01*
X57396191Y-55014762D01*
X57300953Y-55062381D01*
X57205714Y-55062381D01*
X57110476Y-55014762D01*
X57062857Y-54967143D01*
X57015238Y-54871905D01*
X56967619Y-54681429D01*
X56967619Y-54443333D01*
X57015238Y-54252857D01*
X57062857Y-54157619D01*
X57110476Y-54110000D01*
X57205714Y-54062381D01*
X57967619Y-54967143D02*
X58015238Y-55014762D01*
X57967619Y-55062381D01*
X57920000Y-55014762D01*
X57967619Y-54967143D01*
X57967619Y-55062381D01*
X58967619Y-55062381D02*
X58396190Y-55062381D01*
X58681904Y-55062381D02*
X58681904Y-54062381D01*
X58586666Y-54205238D01*
X58491428Y-54300476D01*
X58396190Y-54348095D01*
X59824762Y-54395714D02*
X59824762Y-55062381D01*
X59396190Y-54395714D02*
X59396190Y-54919524D01*
X59443809Y-55014762D01*
X59539047Y-55062381D01*
X59681905Y-55062381D01*
X59777143Y-55014762D01*
X59824762Y-54967143D01*
X50633334Y-76557143D02*
X50585715Y-76604762D01*
X50442858Y-76652381D01*
X50347620Y-76652381D01*
X50204762Y-76604762D01*
X50109524Y-76509524D01*
X50061905Y-76414286D01*
X50014286Y-76223810D01*
X50014286Y-76080952D01*
X50061905Y-75890476D01*
X50109524Y-75795238D01*
X50204762Y-75700000D01*
X50347620Y-75652381D01*
X50442858Y-75652381D01*
X50585715Y-75700000D01*
X50633334Y-75747619D01*
X50966667Y-75652381D02*
X51585715Y-75652381D01*
X51252381Y-76033333D01*
X51395239Y-76033333D01*
X51490477Y-76080952D01*
X51538096Y-76128571D01*
X51585715Y-76223810D01*
X51585715Y-76461905D01*
X51538096Y-76557143D01*
X51490477Y-76604762D01*
X51395239Y-76652381D01*
X51109524Y-76652381D01*
X51014286Y-76604762D01*
X50966667Y-76557143D01*
X52649619Y-75747619D02*
X52697238Y-75700000D01*
X52792476Y-75652381D01*
X53030572Y-75652381D01*
X53125810Y-75700000D01*
X53173429Y-75747619D01*
X53221048Y-75842857D01*
X53221048Y-75938095D01*
X53173429Y-76080952D01*
X52602000Y-76652381D01*
X53221048Y-76652381D01*
X53649619Y-76557143D02*
X53697238Y-76604762D01*
X53649619Y-76652381D01*
X53602000Y-76604762D01*
X53649619Y-76557143D01*
X53649619Y-76652381D01*
X54078190Y-75747619D02*
X54125809Y-75700000D01*
X54221047Y-75652381D01*
X54459143Y-75652381D01*
X54554381Y-75700000D01*
X54602000Y-75747619D01*
X54649619Y-75842857D01*
X54649619Y-75938095D01*
X54602000Y-76080952D01*
X54030571Y-76652381D01*
X54649619Y-76652381D01*
X55506762Y-75985714D02*
X55506762Y-76652381D01*
X55078190Y-75985714D02*
X55078190Y-76509524D01*
X55125809Y-76604762D01*
X55221047Y-76652381D01*
X55363905Y-76652381D01*
X55459143Y-76604762D01*
X55506762Y-76557143D01*
X59269334Y-70969143D02*
X59221715Y-71016762D01*
X59078858Y-71064381D01*
X58983620Y-71064381D01*
X58840762Y-71016762D01*
X58745524Y-70921524D01*
X58697905Y-70826286D01*
X58650286Y-70635810D01*
X58650286Y-70492952D01*
X58697905Y-70302476D01*
X58745524Y-70207238D01*
X58840762Y-70112000D01*
X58983620Y-70064381D01*
X59078858Y-70064381D01*
X59221715Y-70112000D01*
X59269334Y-70159619D01*
X60126477Y-70397714D02*
X60126477Y-71064381D01*
X59888381Y-70016762D02*
X59650286Y-70731048D01*
X60269334Y-70731048D01*
X58745619Y-68889619D02*
X58793238Y-68842000D01*
X58888476Y-68794381D01*
X59126572Y-68794381D01*
X59221810Y-68842000D01*
X59269429Y-68889619D01*
X59317048Y-68984857D01*
X59317048Y-69080095D01*
X59269429Y-69222952D01*
X58698000Y-69794381D01*
X59317048Y-69794381D01*
X59745619Y-69699143D02*
X59793238Y-69746762D01*
X59745619Y-69794381D01*
X59698000Y-69746762D01*
X59745619Y-69699143D01*
X59745619Y-69794381D01*
X60174190Y-68889619D02*
X60221809Y-68842000D01*
X60317047Y-68794381D01*
X60555143Y-68794381D01*
X60650381Y-68842000D01*
X60698000Y-68889619D01*
X60745619Y-68984857D01*
X60745619Y-69080095D01*
X60698000Y-69222952D01*
X60126571Y-69794381D01*
X60745619Y-69794381D01*
X61602762Y-69127714D02*
X61602762Y-69794381D01*
X61174190Y-69127714D02*
X61174190Y-69651524D01*
X61221809Y-69746762D01*
X61317047Y-69794381D01*
X61459905Y-69794381D01*
X61555143Y-69746762D01*
X61602762Y-69699143D01*
X64857334Y-64551143D02*
X64809715Y-64598762D01*
X64666858Y-64646381D01*
X64571620Y-64646381D01*
X64428762Y-64598762D01*
X64333524Y-64503524D01*
X64285905Y-64408286D01*
X64238286Y-64217810D01*
X64238286Y-64074952D01*
X64285905Y-63884476D01*
X64333524Y-63789238D01*
X64428762Y-63694000D01*
X64571620Y-63646381D01*
X64666858Y-63646381D01*
X64809715Y-63694000D01*
X64857334Y-63741619D01*
X65762096Y-63646381D02*
X65285905Y-63646381D01*
X65238286Y-64122571D01*
X65285905Y-64074952D01*
X65381143Y-64027333D01*
X65619239Y-64027333D01*
X65714477Y-64074952D01*
X65762096Y-64122571D01*
X65809715Y-64217810D01*
X65809715Y-64455905D01*
X65762096Y-64551143D01*
X65714477Y-64598762D01*
X65619239Y-64646381D01*
X65381143Y-64646381D01*
X65285905Y-64598762D01*
X65238286Y-64551143D01*
X63571619Y-62285619D02*
X63619238Y-62238000D01*
X63714476Y-62190381D01*
X63952572Y-62190381D01*
X64047810Y-62238000D01*
X64095429Y-62285619D01*
X64143048Y-62380857D01*
X64143048Y-62476095D01*
X64095429Y-62618952D01*
X63524000Y-63190381D01*
X64143048Y-63190381D01*
X64571619Y-63095143D02*
X64619238Y-63142762D01*
X64571619Y-63190381D01*
X64524000Y-63142762D01*
X64571619Y-63095143D01*
X64571619Y-63190381D01*
X65000190Y-62285619D02*
X65047809Y-62238000D01*
X65143047Y-62190381D01*
X65381143Y-62190381D01*
X65476381Y-62238000D01*
X65524000Y-62285619D01*
X65571619Y-62380857D01*
X65571619Y-62476095D01*
X65524000Y-62618952D01*
X64952571Y-63190381D01*
X65571619Y-63190381D01*
X66428762Y-62523714D02*
X66428762Y-63190381D01*
X66000190Y-62523714D02*
X66000190Y-63047524D01*
X66047809Y-63142762D01*
X66143047Y-63190381D01*
X66285905Y-63190381D01*
X66381143Y-63142762D01*
X66428762Y-63095143D01*
X70445334Y-64551143D02*
X70397715Y-64598762D01*
X70254858Y-64646381D01*
X70159620Y-64646381D01*
X70016762Y-64598762D01*
X69921524Y-64503524D01*
X69873905Y-64408286D01*
X69826286Y-64217810D01*
X69826286Y-64074952D01*
X69873905Y-63884476D01*
X69921524Y-63789238D01*
X70016762Y-63694000D01*
X70159620Y-63646381D01*
X70254858Y-63646381D01*
X70397715Y-63694000D01*
X70445334Y-63741619D01*
X71302477Y-63646381D02*
X71112000Y-63646381D01*
X71016762Y-63694000D01*
X70969143Y-63741619D01*
X70873905Y-63884476D01*
X70826286Y-64074952D01*
X70826286Y-64455905D01*
X70873905Y-64551143D01*
X70921524Y-64598762D01*
X71016762Y-64646381D01*
X71207239Y-64646381D01*
X71302477Y-64598762D01*
X71350096Y-64551143D01*
X71397715Y-64455905D01*
X71397715Y-64217810D01*
X71350096Y-64122571D01*
X71302477Y-64074952D01*
X71207239Y-64027333D01*
X71016762Y-64027333D01*
X70921524Y-64074952D01*
X70873905Y-64122571D01*
X70826286Y-64217810D01*
X69159619Y-62285619D02*
X69207238Y-62238000D01*
X69302476Y-62190381D01*
X69540572Y-62190381D01*
X69635810Y-62238000D01*
X69683429Y-62285619D01*
X69731048Y-62380857D01*
X69731048Y-62476095D01*
X69683429Y-62618952D01*
X69112000Y-63190381D01*
X69731048Y-63190381D01*
X70159619Y-63095143D02*
X70207238Y-63142762D01*
X70159619Y-63190381D01*
X70112000Y-63142762D01*
X70159619Y-63095143D01*
X70159619Y-63190381D01*
X70588190Y-62285619D02*
X70635809Y-62238000D01*
X70731047Y-62190381D01*
X70969143Y-62190381D01*
X71064381Y-62238000D01*
X71112000Y-62285619D01*
X71159619Y-62380857D01*
X71159619Y-62476095D01*
X71112000Y-62618952D01*
X70540571Y-63190381D01*
X71159619Y-63190381D01*
X72016762Y-62523714D02*
X72016762Y-63190381D01*
X71588190Y-62523714D02*
X71588190Y-63047524D01*
X71635809Y-63142762D01*
X71731047Y-63190381D01*
X71873905Y-63190381D01*
X71969143Y-63142762D01*
X72016762Y-63095143D01*
X64857334Y-58337143D02*
X64809715Y-58384762D01*
X64666858Y-58432381D01*
X64571620Y-58432381D01*
X64428762Y-58384762D01*
X64333524Y-58289524D01*
X64285905Y-58194286D01*
X64238286Y-58003810D01*
X64238286Y-57860952D01*
X64285905Y-57670476D01*
X64333524Y-57575238D01*
X64428762Y-57480000D01*
X64571620Y-57432381D01*
X64666858Y-57432381D01*
X64809715Y-57480000D01*
X64857334Y-57527619D01*
X65190667Y-57432381D02*
X65857334Y-57432381D01*
X65428762Y-58432381D01*
X63571619Y-53327619D02*
X63619238Y-53280000D01*
X63714476Y-53232381D01*
X63952572Y-53232381D01*
X64047810Y-53280000D01*
X64095429Y-53327619D01*
X64143048Y-53422857D01*
X64143048Y-53518095D01*
X64095429Y-53660952D01*
X63524000Y-54232381D01*
X64143048Y-54232381D01*
X64571619Y-54137143D02*
X64619238Y-54184762D01*
X64571619Y-54232381D01*
X64524000Y-54184762D01*
X64571619Y-54137143D01*
X64571619Y-54232381D01*
X65000190Y-53327619D02*
X65047809Y-53280000D01*
X65143047Y-53232381D01*
X65381143Y-53232381D01*
X65476381Y-53280000D01*
X65524000Y-53327619D01*
X65571619Y-53422857D01*
X65571619Y-53518095D01*
X65524000Y-53660952D01*
X64952571Y-54232381D01*
X65571619Y-54232381D01*
X66428762Y-53565714D02*
X66428762Y-54232381D01*
X66000190Y-53565714D02*
X66000190Y-54089524D01*
X66047809Y-54184762D01*
X66143047Y-54232381D01*
X66285905Y-54232381D01*
X66381143Y-54184762D01*
X66428762Y-54137143D01*
X76033334Y-64551143D02*
X75985715Y-64598762D01*
X75842858Y-64646381D01*
X75747620Y-64646381D01*
X75604762Y-64598762D01*
X75509524Y-64503524D01*
X75461905Y-64408286D01*
X75414286Y-64217810D01*
X75414286Y-64074952D01*
X75461905Y-63884476D01*
X75509524Y-63789238D01*
X75604762Y-63694000D01*
X75747620Y-63646381D01*
X75842858Y-63646381D01*
X75985715Y-63694000D01*
X76033334Y-63741619D01*
X76604762Y-64074952D02*
X76509524Y-64027333D01*
X76461905Y-63979714D01*
X76414286Y-63884476D01*
X76414286Y-63836857D01*
X76461905Y-63741619D01*
X76509524Y-63694000D01*
X76604762Y-63646381D01*
X76795239Y-63646381D01*
X76890477Y-63694000D01*
X76938096Y-63741619D01*
X76985715Y-63836857D01*
X76985715Y-63884476D01*
X76938096Y-63979714D01*
X76890477Y-64027333D01*
X76795239Y-64074952D01*
X76604762Y-64074952D01*
X76509524Y-64122571D01*
X76461905Y-64170190D01*
X76414286Y-64265429D01*
X76414286Y-64455905D01*
X76461905Y-64551143D01*
X76509524Y-64598762D01*
X76604762Y-64646381D01*
X76795239Y-64646381D01*
X76890477Y-64598762D01*
X76938096Y-64551143D01*
X76985715Y-64455905D01*
X76985715Y-64265429D01*
X76938096Y-64170190D01*
X76890477Y-64122571D01*
X76795239Y-64074952D01*
X74747619Y-62285619D02*
X74795238Y-62238000D01*
X74890476Y-62190381D01*
X75128572Y-62190381D01*
X75223810Y-62238000D01*
X75271429Y-62285619D01*
X75319048Y-62380857D01*
X75319048Y-62476095D01*
X75271429Y-62618952D01*
X74700000Y-63190381D01*
X75319048Y-63190381D01*
X75747619Y-63095143D02*
X75795238Y-63142762D01*
X75747619Y-63190381D01*
X75700000Y-63142762D01*
X75747619Y-63095143D01*
X75747619Y-63190381D01*
X76176190Y-62285619D02*
X76223809Y-62238000D01*
X76319047Y-62190381D01*
X76557143Y-62190381D01*
X76652381Y-62238000D01*
X76700000Y-62285619D01*
X76747619Y-62380857D01*
X76747619Y-62476095D01*
X76700000Y-62618952D01*
X76128571Y-63190381D01*
X76747619Y-63190381D01*
X77604762Y-62523714D02*
X77604762Y-63190381D01*
X77176190Y-62523714D02*
X77176190Y-63047524D01*
X77223809Y-63142762D01*
X77319047Y-63190381D01*
X77461905Y-63190381D01*
X77557143Y-63142762D01*
X77604762Y-63095143D01*
X80351334Y-71477143D02*
X80303715Y-71524762D01*
X80160858Y-71572381D01*
X80065620Y-71572381D01*
X79922762Y-71524762D01*
X79827524Y-71429524D01*
X79779905Y-71334286D01*
X79732286Y-71143810D01*
X79732286Y-71000952D01*
X79779905Y-70810476D01*
X79827524Y-70715238D01*
X79922762Y-70620000D01*
X80065620Y-70572381D01*
X80160858Y-70572381D01*
X80303715Y-70620000D01*
X80351334Y-70667619D01*
X80827524Y-71572381D02*
X81018000Y-71572381D01*
X81113239Y-71524762D01*
X81160858Y-71477143D01*
X81256096Y-71334286D01*
X81303715Y-71143810D01*
X81303715Y-70762857D01*
X81256096Y-70667619D01*
X81208477Y-70620000D01*
X81113239Y-70572381D01*
X80922762Y-70572381D01*
X80827524Y-70620000D01*
X80779905Y-70667619D01*
X80732286Y-70762857D01*
X80732286Y-71000952D01*
X80779905Y-71096190D01*
X80827524Y-71143810D01*
X80922762Y-71191429D01*
X81113239Y-71191429D01*
X81208477Y-71143810D01*
X81256096Y-71096190D01*
X81303715Y-71000952D01*
X82891334Y-71572381D02*
X82319905Y-71572381D01*
X82605619Y-71572381D02*
X82605619Y-70572381D01*
X82510381Y-70715238D01*
X82415143Y-70810476D01*
X82319905Y-70858095D01*
X83748477Y-70905714D02*
X83748477Y-71572381D01*
X83319905Y-70905714D02*
X83319905Y-71429524D01*
X83367524Y-71524762D01*
X83462762Y-71572381D01*
X83605620Y-71572381D01*
X83700858Y-71524762D01*
X83748477Y-71477143D01*
X75557143Y-71477143D02*
X75509524Y-71524762D01*
X75366667Y-71572381D01*
X75271429Y-71572381D01*
X75128571Y-71524762D01*
X75033333Y-71429524D01*
X74985714Y-71334286D01*
X74938095Y-71143810D01*
X74938095Y-71000952D01*
X74985714Y-70810476D01*
X75033333Y-70715238D01*
X75128571Y-70620000D01*
X75271429Y-70572381D01*
X75366667Y-70572381D01*
X75509524Y-70620000D01*
X75557143Y-70667619D01*
X76509524Y-71572381D02*
X75938095Y-71572381D01*
X76223809Y-71572381D02*
X76223809Y-70572381D01*
X76128571Y-70715238D01*
X76033333Y-70810476D01*
X75938095Y-70858095D01*
X77128571Y-70572381D02*
X77223810Y-70572381D01*
X77319048Y-70620000D01*
X77366667Y-70667619D01*
X77414286Y-70762857D01*
X77461905Y-70953333D01*
X77461905Y-71191429D01*
X77414286Y-71381905D01*
X77366667Y-71477143D01*
X77319048Y-71524762D01*
X77223810Y-71572381D01*
X77128571Y-71572381D01*
X77033333Y-71524762D01*
X76985714Y-71477143D01*
X76938095Y-71381905D01*
X76890476Y-71191429D01*
X76890476Y-70953333D01*
X76938095Y-70762857D01*
X76985714Y-70667619D01*
X77033333Y-70620000D01*
X77128571Y-70572381D01*
X74747619Y-67365619D02*
X74795238Y-67318000D01*
X74890476Y-67270381D01*
X75128572Y-67270381D01*
X75223810Y-67318000D01*
X75271429Y-67365619D01*
X75319048Y-67460857D01*
X75319048Y-67556095D01*
X75271429Y-67698952D01*
X74700000Y-68270381D01*
X75319048Y-68270381D01*
X75747619Y-68175143D02*
X75795238Y-68222762D01*
X75747619Y-68270381D01*
X75700000Y-68222762D01*
X75747619Y-68175143D01*
X75747619Y-68270381D01*
X76176190Y-67365619D02*
X76223809Y-67318000D01*
X76319047Y-67270381D01*
X76557143Y-67270381D01*
X76652381Y-67318000D01*
X76700000Y-67365619D01*
X76747619Y-67460857D01*
X76747619Y-67556095D01*
X76700000Y-67698952D01*
X76128571Y-68270381D01*
X76747619Y-68270381D01*
X77604762Y-67603714D02*
X77604762Y-68270381D01*
X77176190Y-67603714D02*
X77176190Y-68127524D01*
X77223809Y-68222762D01*
X77319047Y-68270381D01*
X77461905Y-68270381D01*
X77557143Y-68222762D01*
X77604762Y-68175143D01*
X64381143Y-71477143D02*
X64333524Y-71524762D01*
X64190667Y-71572381D01*
X64095429Y-71572381D01*
X63952571Y-71524762D01*
X63857333Y-71429524D01*
X63809714Y-71334286D01*
X63762095Y-71143810D01*
X63762095Y-71000952D01*
X63809714Y-70810476D01*
X63857333Y-70715238D01*
X63952571Y-70620000D01*
X64095429Y-70572381D01*
X64190667Y-70572381D01*
X64333524Y-70620000D01*
X64381143Y-70667619D01*
X65333524Y-71572381D02*
X64762095Y-71572381D01*
X65047809Y-71572381D02*
X65047809Y-70572381D01*
X64952571Y-70715238D01*
X64857333Y-70810476D01*
X64762095Y-70858095D01*
X66285905Y-71572381D02*
X65714476Y-71572381D01*
X66000190Y-71572381D02*
X66000190Y-70572381D01*
X65904952Y-70715238D01*
X65809714Y-70810476D01*
X65714476Y-70858095D01*
X63571619Y-67365619D02*
X63619238Y-67318000D01*
X63714476Y-67270381D01*
X63952572Y-67270381D01*
X64047810Y-67318000D01*
X64095429Y-67365619D01*
X64143048Y-67460857D01*
X64143048Y-67556095D01*
X64095429Y-67698952D01*
X63524000Y-68270381D01*
X64143048Y-68270381D01*
X64571619Y-68175143D02*
X64619238Y-68222762D01*
X64571619Y-68270381D01*
X64524000Y-68222762D01*
X64571619Y-68175143D01*
X64571619Y-68270381D01*
X65000190Y-67365619D02*
X65047809Y-67318000D01*
X65143047Y-67270381D01*
X65381143Y-67270381D01*
X65476381Y-67318000D01*
X65524000Y-67365619D01*
X65571619Y-67460857D01*
X65571619Y-67556095D01*
X65524000Y-67698952D01*
X64952571Y-68270381D01*
X65571619Y-68270381D01*
X66428762Y-67603714D02*
X66428762Y-68270381D01*
X66000190Y-67603714D02*
X66000190Y-68127524D01*
X66047809Y-68222762D01*
X66143047Y-68270381D01*
X66285905Y-68270381D01*
X66381143Y-68222762D01*
X66428762Y-68175143D01*
X69969143Y-58337143D02*
X69921524Y-58384762D01*
X69778667Y-58432381D01*
X69683429Y-58432381D01*
X69540571Y-58384762D01*
X69445333Y-58289524D01*
X69397714Y-58194286D01*
X69350095Y-58003810D01*
X69350095Y-57860952D01*
X69397714Y-57670476D01*
X69445333Y-57575238D01*
X69540571Y-57480000D01*
X69683429Y-57432381D01*
X69778667Y-57432381D01*
X69921524Y-57480000D01*
X69969143Y-57527619D01*
X70921524Y-58432381D02*
X70350095Y-58432381D01*
X70635809Y-58432381D02*
X70635809Y-57432381D01*
X70540571Y-57575238D01*
X70445333Y-57670476D01*
X70350095Y-57718095D01*
X71302476Y-57527619D02*
X71350095Y-57480000D01*
X71445333Y-57432381D01*
X71683429Y-57432381D01*
X71778667Y-57480000D01*
X71826286Y-57527619D01*
X71873905Y-57622857D01*
X71873905Y-57718095D01*
X71826286Y-57860952D01*
X71254857Y-58432381D01*
X71873905Y-58432381D01*
X69159619Y-53327619D02*
X69207238Y-53280000D01*
X69302476Y-53232381D01*
X69540572Y-53232381D01*
X69635810Y-53280000D01*
X69683429Y-53327619D01*
X69731048Y-53422857D01*
X69731048Y-53518095D01*
X69683429Y-53660952D01*
X69112000Y-54232381D01*
X69731048Y-54232381D01*
X70159619Y-54137143D02*
X70207238Y-54184762D01*
X70159619Y-54232381D01*
X70112000Y-54184762D01*
X70159619Y-54137143D01*
X70159619Y-54232381D01*
X70588190Y-53327619D02*
X70635809Y-53280000D01*
X70731047Y-53232381D01*
X70969143Y-53232381D01*
X71064381Y-53280000D01*
X71112000Y-53327619D01*
X71159619Y-53422857D01*
X71159619Y-53518095D01*
X71112000Y-53660952D01*
X70540571Y-54232381D01*
X71159619Y-54232381D01*
X72016762Y-53565714D02*
X72016762Y-54232381D01*
X71588190Y-53565714D02*
X71588190Y-54089524D01*
X71635809Y-54184762D01*
X71731047Y-54232381D01*
X71873905Y-54232381D01*
X71969143Y-54184762D01*
X72016762Y-54137143D01*
X81145143Y-64551143D02*
X81097524Y-64598762D01*
X80954667Y-64646381D01*
X80859429Y-64646381D01*
X80716571Y-64598762D01*
X80621333Y-64503524D01*
X80573714Y-64408286D01*
X80526095Y-64217810D01*
X80526095Y-64074952D01*
X80573714Y-63884476D01*
X80621333Y-63789238D01*
X80716571Y-63694000D01*
X80859429Y-63646381D01*
X80954667Y-63646381D01*
X81097524Y-63694000D01*
X81145143Y-63741619D01*
X82097524Y-64646381D02*
X81526095Y-64646381D01*
X81811809Y-64646381D02*
X81811809Y-63646381D01*
X81716571Y-63789238D01*
X81621333Y-63884476D01*
X81526095Y-63932095D01*
X82430857Y-63646381D02*
X83049905Y-63646381D01*
X82716571Y-64027333D01*
X82859429Y-64027333D01*
X82954667Y-64074952D01*
X83002286Y-64122571D01*
X83049905Y-64217810D01*
X83049905Y-64455905D01*
X83002286Y-64551143D01*
X82954667Y-64598762D01*
X82859429Y-64646381D01*
X82573714Y-64646381D01*
X82478476Y-64598762D01*
X82430857Y-64551143D01*
X80335619Y-62285619D02*
X80383238Y-62238000D01*
X80478476Y-62190381D01*
X80716572Y-62190381D01*
X80811810Y-62238000D01*
X80859429Y-62285619D01*
X80907048Y-62380857D01*
X80907048Y-62476095D01*
X80859429Y-62618952D01*
X80288000Y-63190381D01*
X80907048Y-63190381D01*
X81335619Y-63095143D02*
X81383238Y-63142762D01*
X81335619Y-63190381D01*
X81288000Y-63142762D01*
X81335619Y-63095143D01*
X81335619Y-63190381D01*
X81764190Y-62285619D02*
X81811809Y-62238000D01*
X81907047Y-62190381D01*
X82145143Y-62190381D01*
X82240381Y-62238000D01*
X82288000Y-62285619D01*
X82335619Y-62380857D01*
X82335619Y-62476095D01*
X82288000Y-62618952D01*
X81716571Y-63190381D01*
X82335619Y-63190381D01*
X83192762Y-62523714D02*
X83192762Y-63190381D01*
X82764190Y-62523714D02*
X82764190Y-63047524D01*
X82811809Y-63142762D01*
X82907047Y-63190381D01*
X83049905Y-63190381D01*
X83145143Y-63142762D01*
X83192762Y-63095143D01*
X69969143Y-71477143D02*
X69921524Y-71524762D01*
X69778667Y-71572381D01*
X69683429Y-71572381D01*
X69540571Y-71524762D01*
X69445333Y-71429524D01*
X69397714Y-71334286D01*
X69350095Y-71143810D01*
X69350095Y-71000952D01*
X69397714Y-70810476D01*
X69445333Y-70715238D01*
X69540571Y-70620000D01*
X69683429Y-70572381D01*
X69778667Y-70572381D01*
X69921524Y-70620000D01*
X69969143Y-70667619D01*
X70921524Y-71572381D02*
X70350095Y-71572381D01*
X70635809Y-71572381D02*
X70635809Y-70572381D01*
X70540571Y-70715238D01*
X70445333Y-70810476D01*
X70350095Y-70858095D01*
X71778667Y-70905714D02*
X71778667Y-71572381D01*
X71540571Y-70524762D02*
X71302476Y-71239048D01*
X71921524Y-71239048D01*
X69159619Y-67365619D02*
X69207238Y-67318000D01*
X69302476Y-67270381D01*
X69540572Y-67270381D01*
X69635810Y-67318000D01*
X69683429Y-67365619D01*
X69731048Y-67460857D01*
X69731048Y-67556095D01*
X69683429Y-67698952D01*
X69112000Y-68270381D01*
X69731048Y-68270381D01*
X70159619Y-68175143D02*
X70207238Y-68222762D01*
X70159619Y-68270381D01*
X70112000Y-68222762D01*
X70159619Y-68175143D01*
X70159619Y-68270381D01*
X70588190Y-67365619D02*
X70635809Y-67318000D01*
X70731047Y-67270381D01*
X70969143Y-67270381D01*
X71064381Y-67318000D01*
X71112000Y-67365619D01*
X71159619Y-67460857D01*
X71159619Y-67556095D01*
X71112000Y-67698952D01*
X70540571Y-68270381D01*
X71159619Y-68270381D01*
X72016762Y-67603714D02*
X72016762Y-68270381D01*
X71588190Y-67603714D02*
X71588190Y-68127524D01*
X71635809Y-68222762D01*
X71731047Y-68270381D01*
X71873905Y-68270381D01*
X71969143Y-68222762D01*
X72016762Y-68175143D01*
X86733143Y-58337143D02*
X86685524Y-58384762D01*
X86542667Y-58432381D01*
X86447429Y-58432381D01*
X86304571Y-58384762D01*
X86209333Y-58289524D01*
X86161714Y-58194286D01*
X86114095Y-58003810D01*
X86114095Y-57860952D01*
X86161714Y-57670476D01*
X86209333Y-57575238D01*
X86304571Y-57480000D01*
X86447429Y-57432381D01*
X86542667Y-57432381D01*
X86685524Y-57480000D01*
X86733143Y-57527619D01*
X87685524Y-58432381D02*
X87114095Y-58432381D01*
X87399809Y-58432381D02*
X87399809Y-57432381D01*
X87304571Y-57575238D01*
X87209333Y-57670476D01*
X87114095Y-57718095D01*
X88590286Y-57432381D02*
X88114095Y-57432381D01*
X88066476Y-57908571D01*
X88114095Y-57860952D01*
X88209333Y-57813333D01*
X88447429Y-57813333D01*
X88542667Y-57860952D01*
X88590286Y-57908571D01*
X88637905Y-58003810D01*
X88637905Y-58241905D01*
X88590286Y-58337143D01*
X88542667Y-58384762D01*
X88447429Y-58432381D01*
X88209333Y-58432381D01*
X88114095Y-58384762D01*
X88066476Y-58337143D01*
X85923619Y-53327619D02*
X85971238Y-53280000D01*
X86066476Y-53232381D01*
X86304572Y-53232381D01*
X86399810Y-53280000D01*
X86447429Y-53327619D01*
X86495048Y-53422857D01*
X86495048Y-53518095D01*
X86447429Y-53660952D01*
X85876000Y-54232381D01*
X86495048Y-54232381D01*
X86923619Y-54137143D02*
X86971238Y-54184762D01*
X86923619Y-54232381D01*
X86876000Y-54184762D01*
X86923619Y-54137143D01*
X86923619Y-54232381D01*
X87352190Y-53327619D02*
X87399809Y-53280000D01*
X87495047Y-53232381D01*
X87733143Y-53232381D01*
X87828381Y-53280000D01*
X87876000Y-53327619D01*
X87923619Y-53422857D01*
X87923619Y-53518095D01*
X87876000Y-53660952D01*
X87304571Y-54232381D01*
X87923619Y-54232381D01*
X88780762Y-53565714D02*
X88780762Y-54232381D01*
X88352190Y-53565714D02*
X88352190Y-54089524D01*
X88399809Y-54184762D01*
X88495047Y-54232381D01*
X88637905Y-54232381D01*
X88733143Y-54184762D01*
X88780762Y-54137143D01*
X75557143Y-58337143D02*
X75509524Y-58384762D01*
X75366667Y-58432381D01*
X75271429Y-58432381D01*
X75128571Y-58384762D01*
X75033333Y-58289524D01*
X74985714Y-58194286D01*
X74938095Y-58003810D01*
X74938095Y-57860952D01*
X74985714Y-57670476D01*
X75033333Y-57575238D01*
X75128571Y-57480000D01*
X75271429Y-57432381D01*
X75366667Y-57432381D01*
X75509524Y-57480000D01*
X75557143Y-57527619D01*
X76509524Y-58432381D02*
X75938095Y-58432381D01*
X76223809Y-58432381D02*
X76223809Y-57432381D01*
X76128571Y-57575238D01*
X76033333Y-57670476D01*
X75938095Y-57718095D01*
X77366667Y-57432381D02*
X77176190Y-57432381D01*
X77080952Y-57480000D01*
X77033333Y-57527619D01*
X76938095Y-57670476D01*
X76890476Y-57860952D01*
X76890476Y-58241905D01*
X76938095Y-58337143D01*
X76985714Y-58384762D01*
X77080952Y-58432381D01*
X77271429Y-58432381D01*
X77366667Y-58384762D01*
X77414286Y-58337143D01*
X77461905Y-58241905D01*
X77461905Y-58003810D01*
X77414286Y-57908571D01*
X77366667Y-57860952D01*
X77271429Y-57813333D01*
X77080952Y-57813333D01*
X76985714Y-57860952D01*
X76938095Y-57908571D01*
X76890476Y-58003810D01*
X74747619Y-53327619D02*
X74795238Y-53280000D01*
X74890476Y-53232381D01*
X75128572Y-53232381D01*
X75223810Y-53280000D01*
X75271429Y-53327619D01*
X75319048Y-53422857D01*
X75319048Y-53518095D01*
X75271429Y-53660952D01*
X74700000Y-54232381D01*
X75319048Y-54232381D01*
X75747619Y-54137143D02*
X75795238Y-54184762D01*
X75747619Y-54232381D01*
X75700000Y-54184762D01*
X75747619Y-54137143D01*
X75747619Y-54232381D01*
X76176190Y-53327619D02*
X76223809Y-53280000D01*
X76319047Y-53232381D01*
X76557143Y-53232381D01*
X76652381Y-53280000D01*
X76700000Y-53327619D01*
X76747619Y-53422857D01*
X76747619Y-53518095D01*
X76700000Y-53660952D01*
X76128571Y-54232381D01*
X76747619Y-54232381D01*
X77604762Y-53565714D02*
X77604762Y-54232381D01*
X77176190Y-53565714D02*
X77176190Y-54089524D01*
X77223809Y-54184762D01*
X77319047Y-54232381D01*
X77461905Y-54232381D01*
X77557143Y-54184762D01*
X77604762Y-54137143D01*
X86733143Y-64551143D02*
X86685524Y-64598762D01*
X86542667Y-64646381D01*
X86447429Y-64646381D01*
X86304571Y-64598762D01*
X86209333Y-64503524D01*
X86161714Y-64408286D01*
X86114095Y-64217810D01*
X86114095Y-64074952D01*
X86161714Y-63884476D01*
X86209333Y-63789238D01*
X86304571Y-63694000D01*
X86447429Y-63646381D01*
X86542667Y-63646381D01*
X86685524Y-63694000D01*
X86733143Y-63741619D01*
X87685524Y-64646381D02*
X87114095Y-64646381D01*
X87399809Y-64646381D02*
X87399809Y-63646381D01*
X87304571Y-63789238D01*
X87209333Y-63884476D01*
X87114095Y-63932095D01*
X88018857Y-63646381D02*
X88685524Y-63646381D01*
X88256952Y-64646381D01*
X85923619Y-62285619D02*
X85971238Y-62238000D01*
X86066476Y-62190381D01*
X86304572Y-62190381D01*
X86399810Y-62238000D01*
X86447429Y-62285619D01*
X86495048Y-62380857D01*
X86495048Y-62476095D01*
X86447429Y-62618952D01*
X85876000Y-63190381D01*
X86495048Y-63190381D01*
X86923619Y-63095143D02*
X86971238Y-63142762D01*
X86923619Y-63190381D01*
X86876000Y-63142762D01*
X86923619Y-63095143D01*
X86923619Y-63190381D01*
X87352190Y-62285619D02*
X87399809Y-62238000D01*
X87495047Y-62190381D01*
X87733143Y-62190381D01*
X87828381Y-62238000D01*
X87876000Y-62285619D01*
X87923619Y-62380857D01*
X87923619Y-62476095D01*
X87876000Y-62618952D01*
X87304571Y-63190381D01*
X87923619Y-63190381D01*
X88780762Y-62523714D02*
X88780762Y-63190381D01*
X88352190Y-62523714D02*
X88352190Y-63047524D01*
X88399809Y-63142762D01*
X88495047Y-63190381D01*
X88637905Y-63190381D01*
X88733143Y-63142762D01*
X88780762Y-63095143D01*
X81145143Y-58337143D02*
X81097524Y-58384762D01*
X80954667Y-58432381D01*
X80859429Y-58432381D01*
X80716571Y-58384762D01*
X80621333Y-58289524D01*
X80573714Y-58194286D01*
X80526095Y-58003810D01*
X80526095Y-57860952D01*
X80573714Y-57670476D01*
X80621333Y-57575238D01*
X80716571Y-57480000D01*
X80859429Y-57432381D01*
X80954667Y-57432381D01*
X81097524Y-57480000D01*
X81145143Y-57527619D01*
X82097524Y-58432381D02*
X81526095Y-58432381D01*
X81811809Y-58432381D02*
X81811809Y-57432381D01*
X81716571Y-57575238D01*
X81621333Y-57670476D01*
X81526095Y-57718095D01*
X82668952Y-57860952D02*
X82573714Y-57813333D01*
X82526095Y-57765714D01*
X82478476Y-57670476D01*
X82478476Y-57622857D01*
X82526095Y-57527619D01*
X82573714Y-57480000D01*
X82668952Y-57432381D01*
X82859429Y-57432381D01*
X82954667Y-57480000D01*
X83002286Y-57527619D01*
X83049905Y-57622857D01*
X83049905Y-57670476D01*
X83002286Y-57765714D01*
X82954667Y-57813333D01*
X82859429Y-57860952D01*
X82668952Y-57860952D01*
X82573714Y-57908571D01*
X82526095Y-57956190D01*
X82478476Y-58051429D01*
X82478476Y-58241905D01*
X82526095Y-58337143D01*
X82573714Y-58384762D01*
X82668952Y-58432381D01*
X82859429Y-58432381D01*
X82954667Y-58384762D01*
X83002286Y-58337143D01*
X83049905Y-58241905D01*
X83049905Y-58051429D01*
X83002286Y-57956190D01*
X82954667Y-57908571D01*
X82859429Y-57860952D01*
X80335619Y-53327619D02*
X80383238Y-53280000D01*
X80478476Y-53232381D01*
X80716572Y-53232381D01*
X80811810Y-53280000D01*
X80859429Y-53327619D01*
X80907048Y-53422857D01*
X80907048Y-53518095D01*
X80859429Y-53660952D01*
X80288000Y-54232381D01*
X80907048Y-54232381D01*
X81335619Y-54137143D02*
X81383238Y-54184762D01*
X81335619Y-54232381D01*
X81288000Y-54184762D01*
X81335619Y-54137143D01*
X81335619Y-54232381D01*
X81764190Y-53327619D02*
X81811809Y-53280000D01*
X81907047Y-53232381D01*
X82145143Y-53232381D01*
X82240381Y-53280000D01*
X82288000Y-53327619D01*
X82335619Y-53422857D01*
X82335619Y-53518095D01*
X82288000Y-53660952D01*
X81716571Y-54232381D01*
X82335619Y-54232381D01*
X83192762Y-53565714D02*
X83192762Y-54232381D01*
X82764190Y-53565714D02*
X82764190Y-54089524D01*
X82811809Y-54184762D01*
X82907047Y-54232381D01*
X83049905Y-54232381D01*
X83145143Y-54184762D01*
X83192762Y-54137143D01*
X92067143Y-65313143D02*
X92019524Y-65360762D01*
X91876667Y-65408381D01*
X91781429Y-65408381D01*
X91638571Y-65360762D01*
X91543333Y-65265524D01*
X91495714Y-65170286D01*
X91448095Y-64979810D01*
X91448095Y-64836952D01*
X91495714Y-64646476D01*
X91543333Y-64551238D01*
X91638571Y-64456000D01*
X91781429Y-64408381D01*
X91876667Y-64408381D01*
X92019524Y-64456000D01*
X92067143Y-64503619D01*
X93019524Y-65408381D02*
X92448095Y-65408381D01*
X92733809Y-65408381D02*
X92733809Y-64408381D01*
X92638571Y-64551238D01*
X92543333Y-64646476D01*
X92448095Y-64694095D01*
X93495714Y-65408381D02*
X93686190Y-65408381D01*
X93781429Y-65360762D01*
X93829048Y-65313143D01*
X93924286Y-65170286D01*
X93971905Y-64979810D01*
X93971905Y-64598857D01*
X93924286Y-64503619D01*
X93876667Y-64456000D01*
X93781429Y-64408381D01*
X93590952Y-64408381D01*
X93495714Y-64456000D01*
X93448095Y-64503619D01*
X93400476Y-64598857D01*
X93400476Y-64836952D01*
X93448095Y-64932190D01*
X93495714Y-64979810D01*
X93590952Y-65027429D01*
X93781429Y-65027429D01*
X93876667Y-64979810D01*
X93924286Y-64932190D01*
X93971905Y-64836952D01*
X91257619Y-63047619D02*
X91305238Y-63000000D01*
X91400476Y-62952381D01*
X91638572Y-62952381D01*
X91733810Y-63000000D01*
X91781429Y-63047619D01*
X91829048Y-63142857D01*
X91829048Y-63238095D01*
X91781429Y-63380952D01*
X91210000Y-63952381D01*
X91829048Y-63952381D01*
X92257619Y-63857143D02*
X92305238Y-63904762D01*
X92257619Y-63952381D01*
X92210000Y-63904762D01*
X92257619Y-63857143D01*
X92257619Y-63952381D01*
X92686190Y-63047619D02*
X92733809Y-63000000D01*
X92829047Y-62952381D01*
X93067143Y-62952381D01*
X93162381Y-63000000D01*
X93210000Y-63047619D01*
X93257619Y-63142857D01*
X93257619Y-63238095D01*
X93210000Y-63380952D01*
X92638571Y-63952381D01*
X93257619Y-63952381D01*
X94114762Y-63285714D02*
X94114762Y-63952381D01*
X93686190Y-63285714D02*
X93686190Y-63809524D01*
X93733809Y-63904762D01*
X93829047Y-63952381D01*
X93971905Y-63952381D01*
X94067143Y-63904762D01*
X94114762Y-63857143D01*
X61237905Y-64714381D02*
X61237905Y-63714381D01*
X61476000Y-63714381D01*
X61618858Y-63762000D01*
X61714096Y-63857238D01*
X61761715Y-63952476D01*
X61809334Y-64142952D01*
X61809334Y-64285810D01*
X61761715Y-64476286D01*
X61714096Y-64571524D01*
X61618858Y-64666762D01*
X61476000Y-64714381D01*
X61237905Y-64714381D01*
X62761715Y-64714381D02*
X62190286Y-64714381D01*
X62476000Y-64714381D02*
X62476000Y-63714381D01*
X62380762Y-63857238D01*
X62285524Y-63952476D01*
X62190286Y-64000095D01*
X56697905Y-66730571D02*
X56840762Y-66778190D01*
X56888381Y-66825810D01*
X56936000Y-66921048D01*
X56936000Y-67063905D01*
X56888381Y-67159143D01*
X56840762Y-67206762D01*
X56745524Y-67254381D01*
X56364571Y-67254381D01*
X56364571Y-66254381D01*
X56697905Y-66254381D01*
X56793143Y-66302000D01*
X56840762Y-66349619D01*
X56888381Y-66444857D01*
X56888381Y-66540095D01*
X56840762Y-66635333D01*
X56793143Y-66682952D01*
X56697905Y-66730571D01*
X56364571Y-66730571D01*
X57316952Y-66968667D02*
X57793143Y-66968667D01*
X57221714Y-67254381D02*
X57555047Y-66254381D01*
X57888381Y-67254381D01*
X58078857Y-66254381D02*
X58650286Y-66254381D01*
X58364571Y-67254381D02*
X58364571Y-66254381D01*
X59459810Y-66254381D02*
X58983619Y-66254381D01*
X58936000Y-66730571D01*
X58983619Y-66682952D01*
X59078857Y-66635333D01*
X59316953Y-66635333D01*
X59412191Y-66682952D01*
X59459810Y-66730571D01*
X59507429Y-66825810D01*
X59507429Y-67063905D01*
X59459810Y-67159143D01*
X59412191Y-67206762D01*
X59316953Y-67254381D01*
X59078857Y-67254381D01*
X58983619Y-67206762D01*
X58936000Y-67159143D01*
X60364572Y-66587714D02*
X60364572Y-67254381D01*
X60126476Y-66206762D02*
X59888381Y-66921048D01*
X60507429Y-66921048D01*
X60840762Y-67206762D02*
X60983619Y-67254381D01*
X61221715Y-67254381D01*
X61316953Y-67206762D01*
X61364572Y-67159143D01*
X61412191Y-67063905D01*
X61412191Y-66968667D01*
X61364572Y-66873429D01*
X61316953Y-66825810D01*
X61221715Y-66778190D01*
X61031238Y-66730571D01*
X60936000Y-66682952D01*
X60888381Y-66635333D01*
X60840762Y-66540095D01*
X60840762Y-66444857D01*
X60888381Y-66349619D01*
X60936000Y-66302000D01*
X61031238Y-66254381D01*
X61269334Y-66254381D01*
X61412191Y-66302000D01*
X61745524Y-66254381D02*
X61983619Y-67254381D01*
X62174096Y-66540095D01*
X62364572Y-67254381D01*
X62602667Y-66254381D01*
X38004762Y-65317619D02*
X37909524Y-65270000D01*
X37814286Y-65174762D01*
X37671429Y-65031905D01*
X37576190Y-64984286D01*
X37480952Y-64984286D01*
X37528571Y-65222381D02*
X37433333Y-65174762D01*
X37338095Y-65079524D01*
X37290476Y-64889048D01*
X37290476Y-64555714D01*
X37338095Y-64365238D01*
X37433333Y-64270000D01*
X37528571Y-64222381D01*
X37719048Y-64222381D01*
X37814286Y-64270000D01*
X37909524Y-64365238D01*
X37957143Y-64555714D01*
X37957143Y-64889048D01*
X37909524Y-65079524D01*
X37814286Y-65174762D01*
X37719048Y-65222381D01*
X37528571Y-65222381D01*
X38909524Y-65222381D02*
X38338095Y-65222381D01*
X38623809Y-65222381D02*
X38623809Y-64222381D01*
X38528571Y-64365238D01*
X38433333Y-64460476D01*
X38338095Y-64508095D01*
X29996286Y-66603619D02*
X30043905Y-66556000D01*
X30139143Y-66508381D01*
X30377239Y-66508381D01*
X30472477Y-66556000D01*
X30520096Y-66603619D01*
X30567715Y-66698857D01*
X30567715Y-66794095D01*
X30520096Y-66936952D01*
X29948667Y-67508381D01*
X30567715Y-67508381D01*
X30996286Y-67508381D02*
X30996286Y-66508381D01*
X31567715Y-67508381D01*
X31567715Y-66508381D01*
X31948667Y-66508381D02*
X32615334Y-66508381D01*
X32186762Y-67508381D01*
X33186762Y-66508381D02*
X33282001Y-66508381D01*
X33377239Y-66556000D01*
X33424858Y-66603619D01*
X33472477Y-66698857D01*
X33520096Y-66889333D01*
X33520096Y-67127429D01*
X33472477Y-67317905D01*
X33424858Y-67413143D01*
X33377239Y-67460762D01*
X33282001Y-67508381D01*
X33186762Y-67508381D01*
X33091524Y-67460762D01*
X33043905Y-67413143D01*
X32996286Y-67317905D01*
X32948667Y-67127429D01*
X32948667Y-66889333D01*
X32996286Y-66698857D01*
X33043905Y-66603619D01*
X33091524Y-66556000D01*
X33186762Y-66508381D01*
X34139143Y-66508381D02*
X34234382Y-66508381D01*
X34329620Y-66556000D01*
X34377239Y-66603619D01*
X34424858Y-66698857D01*
X34472477Y-66889333D01*
X34472477Y-67127429D01*
X34424858Y-67317905D01*
X34377239Y-67413143D01*
X34329620Y-67460762D01*
X34234382Y-67508381D01*
X34139143Y-67508381D01*
X34043905Y-67460762D01*
X33996286Y-67413143D01*
X33948667Y-67317905D01*
X33901048Y-67127429D01*
X33901048Y-66889333D01*
X33948667Y-66698857D01*
X33996286Y-66603619D01*
X34043905Y-66556000D01*
X34139143Y-66508381D01*
X34853429Y-66603619D02*
X34901048Y-66556000D01*
X34996286Y-66508381D01*
X35234382Y-66508381D01*
X35329620Y-66556000D01*
X35377239Y-66603619D01*
X35424858Y-66698857D01*
X35424858Y-66794095D01*
X35377239Y-66936952D01*
X34805810Y-67508381D01*
X35424858Y-67508381D01*
X35853429Y-67508381D02*
X35853429Y-66508381D01*
X36424858Y-67508381D02*
X35996286Y-66936952D01*
X36424858Y-66508381D02*
X35853429Y-67079810D01*
X36758191Y-66508381D02*
X36996286Y-67508381D01*
X37186763Y-66794095D01*
X37377239Y-67508381D01*
X37615334Y-66508381D01*
X42457619Y-67659238D02*
X42410000Y-67754476D01*
X42314762Y-67849714D01*
X42171905Y-67992571D01*
X42124286Y-68087810D01*
X42124286Y-68183048D01*
X42362381Y-68135429D02*
X42314762Y-68230667D01*
X42219524Y-68325905D01*
X42029048Y-68373524D01*
X41695714Y-68373524D01*
X41505238Y-68325905D01*
X41410000Y-68230667D01*
X41362381Y-68135429D01*
X41362381Y-67944952D01*
X41410000Y-67849714D01*
X41505238Y-67754476D01*
X41695714Y-67706857D01*
X42029048Y-67706857D01*
X42219524Y-67754476D01*
X42314762Y-67849714D01*
X42362381Y-67944952D01*
X42362381Y-68135429D01*
X41457619Y-67325905D02*
X41410000Y-67278286D01*
X41362381Y-67183048D01*
X41362381Y-66944952D01*
X41410000Y-66849714D01*
X41457619Y-66802095D01*
X41552857Y-66754476D01*
X41648095Y-66754476D01*
X41790952Y-66802095D01*
X42362381Y-67373524D01*
X42362381Y-66754476D01*
X43108571Y-73016761D02*
X43156190Y-72873904D01*
X43203810Y-72826285D01*
X43299048Y-72778666D01*
X43441905Y-72778666D01*
X43537143Y-72826285D01*
X43584762Y-72873904D01*
X43632381Y-72969142D01*
X43632381Y-73350095D01*
X42632381Y-73350095D01*
X42632381Y-73016761D01*
X42680000Y-72921523D01*
X42727619Y-72873904D01*
X42822857Y-72826285D01*
X42918095Y-72826285D01*
X43013333Y-72873904D01*
X43060952Y-72921523D01*
X43108571Y-73016761D01*
X43108571Y-73350095D01*
X43584762Y-72397714D02*
X43632381Y-72254857D01*
X43632381Y-72016761D01*
X43584762Y-71921523D01*
X43537143Y-71873904D01*
X43441905Y-71826285D01*
X43346667Y-71826285D01*
X43251429Y-71873904D01*
X43203810Y-71921523D01*
X43156190Y-72016761D01*
X43108571Y-72207238D01*
X43060952Y-72302476D01*
X43013333Y-72350095D01*
X42918095Y-72397714D01*
X42822857Y-72397714D01*
X42727619Y-72350095D01*
X42680000Y-72302476D01*
X42632381Y-72207238D01*
X42632381Y-71969142D01*
X42680000Y-71826285D01*
X43584762Y-71445333D02*
X43632381Y-71302476D01*
X43632381Y-71064380D01*
X43584762Y-70969142D01*
X43537143Y-70921523D01*
X43441905Y-70873904D01*
X43346667Y-70873904D01*
X43251429Y-70921523D01*
X43203810Y-70969142D01*
X43156190Y-71064380D01*
X43108571Y-71254857D01*
X43060952Y-71350095D01*
X43013333Y-71397714D01*
X42918095Y-71445333D01*
X42822857Y-71445333D01*
X42727619Y-71397714D01*
X42680000Y-71350095D01*
X42632381Y-71254857D01*
X42632381Y-71016761D01*
X42680000Y-70873904D01*
X43060952Y-70302476D02*
X43013333Y-70397714D01*
X42965714Y-70445333D01*
X42870476Y-70492952D01*
X42822857Y-70492952D01*
X42727619Y-70445333D01*
X42680000Y-70397714D01*
X42632381Y-70302476D01*
X42632381Y-70111999D01*
X42680000Y-70016761D01*
X42727619Y-69969142D01*
X42822857Y-69921523D01*
X42870476Y-69921523D01*
X42965714Y-69969142D01*
X43013333Y-70016761D01*
X43060952Y-70111999D01*
X43060952Y-70302476D01*
X43108571Y-70397714D01*
X43156190Y-70445333D01*
X43251429Y-70492952D01*
X43441905Y-70492952D01*
X43537143Y-70445333D01*
X43584762Y-70397714D01*
X43632381Y-70302476D01*
X43632381Y-70111999D01*
X43584762Y-70016761D01*
X43537143Y-69969142D01*
X43441905Y-69921523D01*
X43251429Y-69921523D01*
X43156190Y-69969142D01*
X43108571Y-70016761D01*
X43060952Y-70111999D01*
X42965714Y-69064380D02*
X43632381Y-69064380D01*
X42584762Y-69302476D02*
X43299048Y-69540571D01*
X43299048Y-68921523D01*
X42632381Y-68635809D02*
X43632381Y-68397714D01*
X42918095Y-68207237D01*
X43632381Y-68016761D01*
X42632381Y-67778666D01*
X49180762Y-68873619D02*
X49085524Y-68826000D01*
X48990286Y-68730762D01*
X48847429Y-68587905D01*
X48752190Y-68540286D01*
X48656952Y-68540286D01*
X48704571Y-68778381D02*
X48609333Y-68730762D01*
X48514095Y-68635524D01*
X48466476Y-68445048D01*
X48466476Y-68111714D01*
X48514095Y-67921238D01*
X48609333Y-67826000D01*
X48704571Y-67778381D01*
X48895048Y-67778381D01*
X48990286Y-67826000D01*
X49085524Y-67921238D01*
X49133143Y-68111714D01*
X49133143Y-68445048D01*
X49085524Y-68635524D01*
X48990286Y-68730762D01*
X48895048Y-68778381D01*
X48704571Y-68778381D01*
X49466476Y-67778381D02*
X50085524Y-67778381D01*
X49752190Y-68159333D01*
X49895048Y-68159333D01*
X49990286Y-68206952D01*
X50037905Y-68254571D01*
X50085524Y-68349810D01*
X50085524Y-68587905D01*
X50037905Y-68683143D01*
X49990286Y-68730762D01*
X49895048Y-68778381D01*
X49609333Y-68778381D01*
X49514095Y-68730762D01*
X49466476Y-68683143D01*
X44077239Y-64698571D02*
X44220096Y-64746190D01*
X44267715Y-64793810D01*
X44315334Y-64889048D01*
X44315334Y-65031905D01*
X44267715Y-65127143D01*
X44220096Y-65174762D01*
X44124858Y-65222381D01*
X43743905Y-65222381D01*
X43743905Y-64222381D01*
X44077239Y-64222381D01*
X44172477Y-64270000D01*
X44220096Y-64317619D01*
X44267715Y-64412857D01*
X44267715Y-64508095D01*
X44220096Y-64603333D01*
X44172477Y-64650952D01*
X44077239Y-64698571D01*
X43743905Y-64698571D01*
X44696286Y-65174762D02*
X44839143Y-65222381D01*
X45077239Y-65222381D01*
X45172477Y-65174762D01*
X45220096Y-65127143D01*
X45267715Y-65031905D01*
X45267715Y-64936667D01*
X45220096Y-64841429D01*
X45172477Y-64793810D01*
X45077239Y-64746190D01*
X44886762Y-64698571D01*
X44791524Y-64650952D01*
X44743905Y-64603333D01*
X44696286Y-64508095D01*
X44696286Y-64412857D01*
X44743905Y-64317619D01*
X44791524Y-64270000D01*
X44886762Y-64222381D01*
X45124858Y-64222381D01*
X45267715Y-64270000D01*
X45648667Y-65174762D02*
X45791524Y-65222381D01*
X46029620Y-65222381D01*
X46124858Y-65174762D01*
X46172477Y-65127143D01*
X46220096Y-65031905D01*
X46220096Y-64936667D01*
X46172477Y-64841429D01*
X46124858Y-64793810D01*
X46029620Y-64746190D01*
X45839143Y-64698571D01*
X45743905Y-64650952D01*
X45696286Y-64603333D01*
X45648667Y-64508095D01*
X45648667Y-64412857D01*
X45696286Y-64317619D01*
X45743905Y-64270000D01*
X45839143Y-64222381D01*
X46077239Y-64222381D01*
X46220096Y-64270000D01*
X46791524Y-64650952D02*
X46696286Y-64603333D01*
X46648667Y-64555714D01*
X46601048Y-64460476D01*
X46601048Y-64412857D01*
X46648667Y-64317619D01*
X46696286Y-64270000D01*
X46791524Y-64222381D01*
X46982001Y-64222381D01*
X47077239Y-64270000D01*
X47124858Y-64317619D01*
X47172477Y-64412857D01*
X47172477Y-64460476D01*
X47124858Y-64555714D01*
X47077239Y-64603333D01*
X46982001Y-64650952D01*
X46791524Y-64650952D01*
X46696286Y-64698571D01*
X46648667Y-64746190D01*
X46601048Y-64841429D01*
X46601048Y-65031905D01*
X46648667Y-65127143D01*
X46696286Y-65174762D01*
X46791524Y-65222381D01*
X46982001Y-65222381D01*
X47077239Y-65174762D01*
X47124858Y-65127143D01*
X47172477Y-65031905D01*
X47172477Y-64841429D01*
X47124858Y-64746190D01*
X47077239Y-64698571D01*
X46982001Y-64650952D01*
X48029620Y-64555714D02*
X48029620Y-65222381D01*
X47791524Y-64174762D02*
X47553429Y-64889048D01*
X48172477Y-64889048D01*
X48458191Y-64222381D02*
X48696286Y-65222381D01*
X48886763Y-64508095D01*
X49077239Y-65222381D01*
X49315334Y-64222381D01*
X65624722Y-76127859D02*
X65529484Y-76080240D01*
X65434246Y-75985002D01*
X65291389Y-75842145D01*
X65196150Y-75794526D01*
X65100912Y-75794526D01*
X65148531Y-76032621D02*
X65053293Y-75985002D01*
X64958055Y-75889764D01*
X64910436Y-75699288D01*
X64910436Y-75365954D01*
X64958055Y-75175478D01*
X65053293Y-75080240D01*
X65148531Y-75032621D01*
X65339008Y-75032621D01*
X65434246Y-75080240D01*
X65529484Y-75175478D01*
X65577103Y-75365954D01*
X65577103Y-75699288D01*
X65529484Y-75889764D01*
X65434246Y-75985002D01*
X65339008Y-76032621D01*
X65148531Y-76032621D01*
X66434246Y-75365954D02*
X66434246Y-76032621D01*
X66196150Y-74985002D02*
X65958055Y-75699288D01*
X66577103Y-75699288D01*
X58301239Y-78668571D02*
X58444096Y-78716190D01*
X58491715Y-78763810D01*
X58539334Y-78859048D01*
X58539334Y-79001905D01*
X58491715Y-79097143D01*
X58444096Y-79144762D01*
X58348858Y-79192381D01*
X57967905Y-79192381D01*
X57967905Y-78192381D01*
X58301239Y-78192381D01*
X58396477Y-78240000D01*
X58444096Y-78287619D01*
X58491715Y-78382857D01*
X58491715Y-78478095D01*
X58444096Y-78573333D01*
X58396477Y-78620952D01*
X58301239Y-78668571D01*
X57967905Y-78668571D01*
X58920286Y-79144762D02*
X59063143Y-79192381D01*
X59301239Y-79192381D01*
X59396477Y-79144762D01*
X59444096Y-79097143D01*
X59491715Y-79001905D01*
X59491715Y-78906667D01*
X59444096Y-78811429D01*
X59396477Y-78763810D01*
X59301239Y-78716190D01*
X59110762Y-78668571D01*
X59015524Y-78620952D01*
X58967905Y-78573333D01*
X58920286Y-78478095D01*
X58920286Y-78382857D01*
X58967905Y-78287619D01*
X59015524Y-78240000D01*
X59110762Y-78192381D01*
X59348858Y-78192381D01*
X59491715Y-78240000D01*
X59872667Y-79144762D02*
X60015524Y-79192381D01*
X60253620Y-79192381D01*
X60348858Y-79144762D01*
X60396477Y-79097143D01*
X60444096Y-79001905D01*
X60444096Y-78906667D01*
X60396477Y-78811429D01*
X60348858Y-78763810D01*
X60253620Y-78716190D01*
X60063143Y-78668571D01*
X59967905Y-78620952D01*
X59920286Y-78573333D01*
X59872667Y-78478095D01*
X59872667Y-78382857D01*
X59920286Y-78287619D01*
X59967905Y-78240000D01*
X60063143Y-78192381D01*
X60301239Y-78192381D01*
X60444096Y-78240000D01*
X61015524Y-78620952D02*
X60920286Y-78573333D01*
X60872667Y-78525714D01*
X60825048Y-78430476D01*
X60825048Y-78382857D01*
X60872667Y-78287619D01*
X60920286Y-78240000D01*
X61015524Y-78192381D01*
X61206001Y-78192381D01*
X61301239Y-78240000D01*
X61348858Y-78287619D01*
X61396477Y-78382857D01*
X61396477Y-78430476D01*
X61348858Y-78525714D01*
X61301239Y-78573333D01*
X61206001Y-78620952D01*
X61015524Y-78620952D01*
X60920286Y-78668571D01*
X60872667Y-78716190D01*
X60825048Y-78811429D01*
X60825048Y-79001905D01*
X60872667Y-79097143D01*
X60920286Y-79144762D01*
X61015524Y-79192381D01*
X61206001Y-79192381D01*
X61301239Y-79144762D01*
X61348858Y-79097143D01*
X61396477Y-79001905D01*
X61396477Y-78811429D01*
X61348858Y-78716190D01*
X61301239Y-78668571D01*
X61206001Y-78620952D01*
X62253620Y-78525714D02*
X62253620Y-79192381D01*
X62015524Y-78144762D02*
X61777429Y-78859048D01*
X62396477Y-78859048D01*
X62682191Y-78192381D02*
X62920286Y-79192381D01*
X63110763Y-78478095D01*
X63301239Y-79192381D01*
X63539334Y-78192381D01*
X61880762Y-59221619D02*
X61785524Y-59174000D01*
X61690286Y-59078762D01*
X61547429Y-58935905D01*
X61452190Y-58888286D01*
X61356952Y-58888286D01*
X61404571Y-59126381D02*
X61309333Y-59078762D01*
X61214095Y-58983524D01*
X61166476Y-58793048D01*
X61166476Y-58459714D01*
X61214095Y-58269238D01*
X61309333Y-58174000D01*
X61404571Y-58126381D01*
X61595048Y-58126381D01*
X61690286Y-58174000D01*
X61785524Y-58269238D01*
X61833143Y-58459714D01*
X61833143Y-58793048D01*
X61785524Y-58983524D01*
X61690286Y-59078762D01*
X61595048Y-59126381D01*
X61404571Y-59126381D01*
X62737905Y-58126381D02*
X62261714Y-58126381D01*
X62214095Y-58602571D01*
X62261714Y-58554952D01*
X62356952Y-58507333D01*
X62595048Y-58507333D01*
X62690286Y-58554952D01*
X62737905Y-58602571D01*
X62785524Y-58697810D01*
X62785524Y-58935905D01*
X62737905Y-59031143D01*
X62690286Y-59078762D01*
X62595048Y-59126381D01*
X62356952Y-59126381D01*
X62261714Y-59078762D01*
X62214095Y-59031143D01*
X64032286Y-60253619D02*
X64079905Y-60206000D01*
X64175143Y-60158381D01*
X64413239Y-60158381D01*
X64508477Y-60206000D01*
X64556096Y-60253619D01*
X64603715Y-60348857D01*
X64603715Y-60444095D01*
X64556096Y-60586952D01*
X63984667Y-61158381D01*
X64603715Y-61158381D01*
X65032286Y-61158381D02*
X65032286Y-60158381D01*
X65603715Y-61158381D01*
X65603715Y-60158381D01*
X65984667Y-60158381D02*
X66651334Y-60158381D01*
X66222762Y-61158381D01*
X67222762Y-60158381D02*
X67318001Y-60158381D01*
X67413239Y-60206000D01*
X67460858Y-60253619D01*
X67508477Y-60348857D01*
X67556096Y-60539333D01*
X67556096Y-60777429D01*
X67508477Y-60967905D01*
X67460858Y-61063143D01*
X67413239Y-61110762D01*
X67318001Y-61158381D01*
X67222762Y-61158381D01*
X67127524Y-61110762D01*
X67079905Y-61063143D01*
X67032286Y-60967905D01*
X66984667Y-60777429D01*
X66984667Y-60539333D01*
X67032286Y-60348857D01*
X67079905Y-60253619D01*
X67127524Y-60206000D01*
X67222762Y-60158381D01*
X68175143Y-60158381D02*
X68270382Y-60158381D01*
X68365620Y-60206000D01*
X68413239Y-60253619D01*
X68460858Y-60348857D01*
X68508477Y-60539333D01*
X68508477Y-60777429D01*
X68460858Y-60967905D01*
X68413239Y-61063143D01*
X68365620Y-61110762D01*
X68270382Y-61158381D01*
X68175143Y-61158381D01*
X68079905Y-61110762D01*
X68032286Y-61063143D01*
X67984667Y-60967905D01*
X67937048Y-60777429D01*
X67937048Y-60539333D01*
X67984667Y-60348857D01*
X68032286Y-60253619D01*
X68079905Y-60206000D01*
X68175143Y-60158381D01*
X68889429Y-60253619D02*
X68937048Y-60206000D01*
X69032286Y-60158381D01*
X69270382Y-60158381D01*
X69365620Y-60206000D01*
X69413239Y-60253619D01*
X69460858Y-60348857D01*
X69460858Y-60444095D01*
X69413239Y-60586952D01*
X68841810Y-61158381D01*
X69460858Y-61158381D01*
X69889429Y-61158381D02*
X69889429Y-60158381D01*
X70460858Y-61158381D02*
X70032286Y-60586952D01*
X70460858Y-60158381D02*
X69889429Y-60729810D01*
X70794191Y-60158381D02*
X71032286Y-61158381D01*
X71222763Y-60444095D01*
X71413239Y-61158381D01*
X71651334Y-60158381D01*
X54768762Y-63539619D02*
X54673524Y-63492000D01*
X54578286Y-63396762D01*
X54435429Y-63253905D01*
X54340190Y-63206286D01*
X54244952Y-63206286D01*
X54292571Y-63444381D02*
X54197333Y-63396762D01*
X54102095Y-63301524D01*
X54054476Y-63111048D01*
X54054476Y-62777714D01*
X54102095Y-62587238D01*
X54197333Y-62492000D01*
X54292571Y-62444381D01*
X54483048Y-62444381D01*
X54578286Y-62492000D01*
X54673524Y-62587238D01*
X54721143Y-62777714D01*
X54721143Y-63111048D01*
X54673524Y-63301524D01*
X54578286Y-63396762D01*
X54483048Y-63444381D01*
X54292571Y-63444381D01*
X55578286Y-62444381D02*
X55387809Y-62444381D01*
X55292571Y-62492000D01*
X55244952Y-62539619D01*
X55149714Y-62682476D01*
X55102095Y-62872952D01*
X55102095Y-63253905D01*
X55149714Y-63349143D01*
X55197333Y-63396762D01*
X55292571Y-63444381D01*
X55483048Y-63444381D01*
X55578286Y-63396762D01*
X55625905Y-63349143D01*
X55673524Y-63253905D01*
X55673524Y-63015810D01*
X55625905Y-62920571D01*
X55578286Y-62872952D01*
X55483048Y-62825333D01*
X55292571Y-62825333D01*
X55197333Y-62872952D01*
X55149714Y-62920571D01*
X55102095Y-63015810D01*
X52602286Y-59491619D02*
X52649905Y-59444000D01*
X52745143Y-59396381D01*
X52983239Y-59396381D01*
X53078477Y-59444000D01*
X53126096Y-59491619D01*
X53173715Y-59586857D01*
X53173715Y-59682095D01*
X53126096Y-59824952D01*
X52554667Y-60396381D01*
X53173715Y-60396381D01*
X53602286Y-60396381D02*
X53602286Y-59396381D01*
X54173715Y-60396381D01*
X54173715Y-59396381D01*
X54554667Y-59396381D02*
X55221334Y-59396381D01*
X54792762Y-60396381D01*
X55792762Y-59396381D02*
X55888001Y-59396381D01*
X55983239Y-59444000D01*
X56030858Y-59491619D01*
X56078477Y-59586857D01*
X56126096Y-59777333D01*
X56126096Y-60015429D01*
X56078477Y-60205905D01*
X56030858Y-60301143D01*
X55983239Y-60348762D01*
X55888001Y-60396381D01*
X55792762Y-60396381D01*
X55697524Y-60348762D01*
X55649905Y-60301143D01*
X55602286Y-60205905D01*
X55554667Y-60015429D01*
X55554667Y-59777333D01*
X55602286Y-59586857D01*
X55649905Y-59491619D01*
X55697524Y-59444000D01*
X55792762Y-59396381D01*
X56745143Y-59396381D02*
X56840382Y-59396381D01*
X56935620Y-59444000D01*
X56983239Y-59491619D01*
X57030858Y-59586857D01*
X57078477Y-59777333D01*
X57078477Y-60015429D01*
X57030858Y-60205905D01*
X56983239Y-60301143D01*
X56935620Y-60348762D01*
X56840382Y-60396381D01*
X56745143Y-60396381D01*
X56649905Y-60348762D01*
X56602286Y-60301143D01*
X56554667Y-60205905D01*
X56507048Y-60015429D01*
X56507048Y-59777333D01*
X56554667Y-59586857D01*
X56602286Y-59491619D01*
X56649905Y-59444000D01*
X56745143Y-59396381D01*
X57459429Y-59491619D02*
X57507048Y-59444000D01*
X57602286Y-59396381D01*
X57840382Y-59396381D01*
X57935620Y-59444000D01*
X57983239Y-59491619D01*
X58030858Y-59586857D01*
X58030858Y-59682095D01*
X57983239Y-59824952D01*
X57411810Y-60396381D01*
X58030858Y-60396381D01*
X58459429Y-60396381D02*
X58459429Y-59396381D01*
X59030858Y-60396381D02*
X58602286Y-59824952D01*
X59030858Y-59396381D02*
X58459429Y-59967810D01*
X59364191Y-59396381D02*
X59602286Y-60396381D01*
X59792763Y-59682095D01*
X59983239Y-60396381D01*
X60221334Y-59396381D01*
X66706762Y-74461619D02*
X66611524Y-74414000D01*
X66516286Y-74318762D01*
X66373429Y-74175905D01*
X66278190Y-74128286D01*
X66182952Y-74128286D01*
X66230571Y-74366381D02*
X66135333Y-74318762D01*
X66040095Y-74223524D01*
X65992476Y-74033048D01*
X65992476Y-73699714D01*
X66040095Y-73509238D01*
X66135333Y-73414000D01*
X66230571Y-73366381D01*
X66421048Y-73366381D01*
X66516286Y-73414000D01*
X66611524Y-73509238D01*
X66659143Y-73699714D01*
X66659143Y-74033048D01*
X66611524Y-74223524D01*
X66516286Y-74318762D01*
X66421048Y-74366381D01*
X66230571Y-74366381D01*
X66992476Y-73366381D02*
X67659143Y-73366381D01*
X67230571Y-74366381D01*
X55396286Y-73461619D02*
X55443905Y-73414000D01*
X55539143Y-73366381D01*
X55777239Y-73366381D01*
X55872477Y-73414000D01*
X55920096Y-73461619D01*
X55967715Y-73556857D01*
X55967715Y-73652095D01*
X55920096Y-73794952D01*
X55348667Y-74366381D01*
X55967715Y-74366381D01*
X56396286Y-74366381D02*
X56396286Y-73366381D01*
X56967715Y-74366381D01*
X56967715Y-73366381D01*
X57348667Y-73366381D02*
X58015334Y-73366381D01*
X57586762Y-74366381D01*
X58586762Y-73366381D02*
X58682001Y-73366381D01*
X58777239Y-73414000D01*
X58824858Y-73461619D01*
X58872477Y-73556857D01*
X58920096Y-73747333D01*
X58920096Y-73985429D01*
X58872477Y-74175905D01*
X58824858Y-74271143D01*
X58777239Y-74318762D01*
X58682001Y-74366381D01*
X58586762Y-74366381D01*
X58491524Y-74318762D01*
X58443905Y-74271143D01*
X58396286Y-74175905D01*
X58348667Y-73985429D01*
X58348667Y-73747333D01*
X58396286Y-73556857D01*
X58443905Y-73461619D01*
X58491524Y-73414000D01*
X58586762Y-73366381D01*
X59539143Y-73366381D02*
X59634382Y-73366381D01*
X59729620Y-73414000D01*
X59777239Y-73461619D01*
X59824858Y-73556857D01*
X59872477Y-73747333D01*
X59872477Y-73985429D01*
X59824858Y-74175905D01*
X59777239Y-74271143D01*
X59729620Y-74318762D01*
X59634382Y-74366381D01*
X59539143Y-74366381D01*
X59443905Y-74318762D01*
X59396286Y-74271143D01*
X59348667Y-74175905D01*
X59301048Y-73985429D01*
X59301048Y-73747333D01*
X59348667Y-73556857D01*
X59396286Y-73461619D01*
X59443905Y-73414000D01*
X59539143Y-73366381D01*
X60253429Y-73461619D02*
X60301048Y-73414000D01*
X60396286Y-73366381D01*
X60634382Y-73366381D01*
X60729620Y-73414000D01*
X60777239Y-73461619D01*
X60824858Y-73556857D01*
X60824858Y-73652095D01*
X60777239Y-73794952D01*
X60205810Y-74366381D01*
X60824858Y-74366381D01*
X61253429Y-74366381D02*
X61253429Y-73366381D01*
X61824858Y-74366381D02*
X61396286Y-73794952D01*
X61824858Y-73366381D02*
X61253429Y-73937810D01*
X62158191Y-73366381D02*
X62396286Y-74366381D01*
X62586763Y-73652095D01*
X62777239Y-74366381D01*
X63015334Y-73366381D01*
X35139334Y-70810381D02*
X34806000Y-70334190D01*
X34567905Y-70810381D02*
X34567905Y-69810381D01*
X34948858Y-69810381D01*
X35044096Y-69858000D01*
X35091715Y-69905619D01*
X35139334Y-70000857D01*
X35139334Y-70143714D01*
X35091715Y-70238952D01*
X35044096Y-70286571D01*
X34948858Y-70334190D01*
X34567905Y-70334190D01*
X36091715Y-70810381D02*
X35520286Y-70810381D01*
X35806000Y-70810381D02*
X35806000Y-69810381D01*
X35710762Y-69953238D01*
X35615524Y-70048476D01*
X35520286Y-70096095D01*
X34091714Y-68540381D02*
X34710762Y-68540381D01*
X34377428Y-68921333D01*
X34520286Y-68921333D01*
X34615524Y-68968952D01*
X34663143Y-69016571D01*
X34710762Y-69111810D01*
X34710762Y-69349905D01*
X34663143Y-69445143D01*
X34615524Y-69492762D01*
X34520286Y-69540381D01*
X34234571Y-69540381D01*
X34139333Y-69492762D01*
X34091714Y-69445143D01*
X35044095Y-68540381D02*
X35663143Y-68540381D01*
X35329809Y-68921333D01*
X35472667Y-68921333D01*
X35567905Y-68968952D01*
X35615524Y-69016571D01*
X35663143Y-69111810D01*
X35663143Y-69349905D01*
X35615524Y-69445143D01*
X35567905Y-69492762D01*
X35472667Y-69540381D01*
X35186952Y-69540381D01*
X35091714Y-69492762D01*
X35044095Y-69445143D01*
X36091714Y-69540381D02*
X36091714Y-68540381D01*
X36186952Y-69159429D02*
X36472667Y-69540381D01*
X36472667Y-68873714D02*
X36091714Y-69254667D01*
X51903334Y-69032381D02*
X51570000Y-68556190D01*
X51331905Y-69032381D02*
X51331905Y-68032381D01*
X51712858Y-68032381D01*
X51808096Y-68080000D01*
X51855715Y-68127619D01*
X51903334Y-68222857D01*
X51903334Y-68365714D01*
X51855715Y-68460952D01*
X51808096Y-68508571D01*
X51712858Y-68556190D01*
X51331905Y-68556190D01*
X52284286Y-68127619D02*
X52331905Y-68080000D01*
X52427143Y-68032381D01*
X52665239Y-68032381D01*
X52760477Y-68080000D01*
X52808096Y-68127619D01*
X52855715Y-68222857D01*
X52855715Y-68318095D01*
X52808096Y-68460952D01*
X52236667Y-69032381D01*
X52855715Y-69032381D01*
X53649714Y-68032381D02*
X54268762Y-68032381D01*
X53935428Y-68413333D01*
X54078286Y-68413333D01*
X54173524Y-68460952D01*
X54221143Y-68508571D01*
X54268762Y-68603810D01*
X54268762Y-68841905D01*
X54221143Y-68937143D01*
X54173524Y-68984762D01*
X54078286Y-69032381D01*
X53792571Y-69032381D01*
X53697333Y-68984762D01*
X53649714Y-68937143D01*
X54602095Y-68032381D02*
X55221143Y-68032381D01*
X54887809Y-68413333D01*
X55030667Y-68413333D01*
X55125905Y-68460952D01*
X55173524Y-68508571D01*
X55221143Y-68603810D01*
X55221143Y-68841905D01*
X55173524Y-68937143D01*
X55125905Y-68984762D01*
X55030667Y-69032381D01*
X54744952Y-69032381D01*
X54649714Y-68984762D01*
X54602095Y-68937143D01*
X55649714Y-69032381D02*
X55649714Y-68032381D01*
X55744952Y-68651429D02*
X56030667Y-69032381D01*
X56030667Y-68365714D02*
X55649714Y-68746667D01*
X60539334Y-77922381D02*
X60206000Y-77446190D01*
X59967905Y-77922381D02*
X59967905Y-76922381D01*
X60348858Y-76922381D01*
X60444096Y-76970000D01*
X60491715Y-77017619D01*
X60539334Y-77112857D01*
X60539334Y-77255714D01*
X60491715Y-77350952D01*
X60444096Y-77398571D01*
X60348858Y-77446190D01*
X59967905Y-77446190D01*
X60872667Y-76922381D02*
X61491715Y-76922381D01*
X61158381Y-77303333D01*
X61301239Y-77303333D01*
X61396477Y-77350952D01*
X61444096Y-77398571D01*
X61491715Y-77493810D01*
X61491715Y-77731905D01*
X61444096Y-77827143D01*
X61396477Y-77874762D01*
X61301239Y-77922381D01*
X61015524Y-77922381D01*
X60920286Y-77874762D01*
X60872667Y-77827143D01*
X56586572Y-77922381D02*
X56015143Y-77922381D01*
X56300857Y-77922381D02*
X56300857Y-76922381D01*
X56205619Y-77065238D01*
X56110381Y-77160476D01*
X56015143Y-77208095D01*
X57205619Y-76922381D02*
X57300858Y-76922381D01*
X57396096Y-76970000D01*
X57443715Y-77017619D01*
X57491334Y-77112857D01*
X57538953Y-77303333D01*
X57538953Y-77541429D01*
X57491334Y-77731905D01*
X57443715Y-77827143D01*
X57396096Y-77874762D01*
X57300858Y-77922381D01*
X57205619Y-77922381D01*
X57110381Y-77874762D01*
X57062762Y-77827143D01*
X57015143Y-77731905D01*
X56967524Y-77541429D01*
X56967524Y-77303333D01*
X57015143Y-77112857D01*
X57062762Y-77017619D01*
X57110381Y-76970000D01*
X57205619Y-76922381D01*
X58158000Y-76922381D02*
X58253239Y-76922381D01*
X58348477Y-76970000D01*
X58396096Y-77017619D01*
X58443715Y-77112857D01*
X58491334Y-77303333D01*
X58491334Y-77541429D01*
X58443715Y-77731905D01*
X58396096Y-77827143D01*
X58348477Y-77874762D01*
X58253239Y-77922381D01*
X58158000Y-77922381D01*
X58062762Y-77874762D01*
X58015143Y-77827143D01*
X57967524Y-77731905D01*
X57919905Y-77541429D01*
X57919905Y-77303333D01*
X57967524Y-77112857D01*
X58015143Y-77017619D01*
X58062762Y-76970000D01*
X58158000Y-76922381D01*
X58919905Y-77922381D02*
X58919905Y-76922381D01*
X59015143Y-77541429D02*
X59300858Y-77922381D01*
X59300858Y-77255714D02*
X58919905Y-77636667D01*
X70699334Y-73604381D02*
X70366000Y-73128190D01*
X70127905Y-73604381D02*
X70127905Y-72604381D01*
X70508858Y-72604381D01*
X70604096Y-72652000D01*
X70651715Y-72699619D01*
X70699334Y-72794857D01*
X70699334Y-72937714D01*
X70651715Y-73032952D01*
X70604096Y-73080571D01*
X70508858Y-73128190D01*
X70127905Y-73128190D01*
X71556477Y-72937714D02*
X71556477Y-73604381D01*
X71318381Y-72556762D02*
X71080286Y-73271048D01*
X71699334Y-73271048D01*
X70556572Y-74874381D02*
X69985143Y-74874381D01*
X70270857Y-74874381D02*
X70270857Y-73874381D01*
X70175619Y-74017238D01*
X70080381Y-74112476D01*
X69985143Y-74160095D01*
X71175619Y-73874381D02*
X71270858Y-73874381D01*
X71366096Y-73922000D01*
X71413715Y-73969619D01*
X71461334Y-74064857D01*
X71508953Y-74255333D01*
X71508953Y-74493429D01*
X71461334Y-74683905D01*
X71413715Y-74779143D01*
X71366096Y-74826762D01*
X71270858Y-74874381D01*
X71175619Y-74874381D01*
X71080381Y-74826762D01*
X71032762Y-74779143D01*
X70985143Y-74683905D01*
X70937524Y-74493429D01*
X70937524Y-74255333D01*
X70985143Y-74064857D01*
X71032762Y-73969619D01*
X71080381Y-73922000D01*
X71175619Y-73874381D01*
X72128000Y-73874381D02*
X72223239Y-73874381D01*
X72318477Y-73922000D01*
X72366096Y-73969619D01*
X72413715Y-74064857D01*
X72461334Y-74255333D01*
X72461334Y-74493429D01*
X72413715Y-74683905D01*
X72366096Y-74779143D01*
X72318477Y-74826762D01*
X72223239Y-74874381D01*
X72128000Y-74874381D01*
X72032762Y-74826762D01*
X71985143Y-74779143D01*
X71937524Y-74683905D01*
X71889905Y-74493429D01*
X71889905Y-74255333D01*
X71937524Y-74064857D01*
X71985143Y-73969619D01*
X72032762Y-73922000D01*
X72128000Y-73874381D01*
X72889905Y-74874381D02*
X72889905Y-73874381D01*
X72985143Y-74493429D02*
X73270858Y-74874381D01*
X73270858Y-74207714D02*
X72889905Y-74588667D01*
X74509334Y-76398381D02*
X74176000Y-75922190D01*
X73937905Y-76398381D02*
X73937905Y-75398381D01*
X74318858Y-75398381D01*
X74414096Y-75446000D01*
X74461715Y-75493619D01*
X74509334Y-75588857D01*
X74509334Y-75731714D01*
X74461715Y-75826952D01*
X74414096Y-75874571D01*
X74318858Y-75922190D01*
X73937905Y-75922190D01*
X75414096Y-75398381D02*
X74937905Y-75398381D01*
X74890286Y-75874571D01*
X74937905Y-75826952D01*
X75033143Y-75779333D01*
X75271239Y-75779333D01*
X75366477Y-75826952D01*
X75414096Y-75874571D01*
X75461715Y-75969810D01*
X75461715Y-76207905D01*
X75414096Y-76303143D01*
X75366477Y-76350762D01*
X75271239Y-76398381D01*
X75033143Y-76398381D01*
X74937905Y-76350762D01*
X74890286Y-76303143D01*
X76652572Y-76398381D02*
X76081143Y-76398381D01*
X76366857Y-76398381D02*
X76366857Y-75398381D01*
X76271619Y-75541238D01*
X76176381Y-75636476D01*
X76081143Y-75684095D01*
X77271619Y-75398381D02*
X77366858Y-75398381D01*
X77462096Y-75446000D01*
X77509715Y-75493619D01*
X77557334Y-75588857D01*
X77604953Y-75779333D01*
X77604953Y-76017429D01*
X77557334Y-76207905D01*
X77509715Y-76303143D01*
X77462096Y-76350762D01*
X77366858Y-76398381D01*
X77271619Y-76398381D01*
X77176381Y-76350762D01*
X77128762Y-76303143D01*
X77081143Y-76207905D01*
X77033524Y-76017429D01*
X77033524Y-75779333D01*
X77081143Y-75588857D01*
X77128762Y-75493619D01*
X77176381Y-75446000D01*
X77271619Y-75398381D01*
X78224000Y-75398381D02*
X78319239Y-75398381D01*
X78414477Y-75446000D01*
X78462096Y-75493619D01*
X78509715Y-75588857D01*
X78557334Y-75779333D01*
X78557334Y-76017429D01*
X78509715Y-76207905D01*
X78462096Y-76303143D01*
X78414477Y-76350762D01*
X78319239Y-76398381D01*
X78224000Y-76398381D01*
X78128762Y-76350762D01*
X78081143Y-76303143D01*
X78033524Y-76207905D01*
X77985905Y-76017429D01*
X77985905Y-75779333D01*
X78033524Y-75588857D01*
X78081143Y-75493619D01*
X78128762Y-75446000D01*
X78224000Y-75398381D01*
X78985905Y-76398381D02*
X78985905Y-75398381D01*
X79081143Y-76017429D02*
X79366858Y-76398381D01*
X79366858Y-75731714D02*
X78985905Y-76112667D01*
X85685334Y-71572381D02*
X85352000Y-71096190D01*
X85113905Y-71572381D02*
X85113905Y-70572381D01*
X85494858Y-70572381D01*
X85590096Y-70620000D01*
X85637715Y-70667619D01*
X85685334Y-70762857D01*
X85685334Y-70905714D01*
X85637715Y-71000952D01*
X85590096Y-71048571D01*
X85494858Y-71096190D01*
X85113905Y-71096190D01*
X86542477Y-70572381D02*
X86352000Y-70572381D01*
X86256762Y-70620000D01*
X86209143Y-70667619D01*
X86113905Y-70810476D01*
X86066286Y-71000952D01*
X86066286Y-71381905D01*
X86113905Y-71477143D01*
X86161524Y-71524762D01*
X86256762Y-71572381D01*
X86447239Y-71572381D01*
X86542477Y-71524762D01*
X86590096Y-71477143D01*
X86637715Y-71381905D01*
X86637715Y-71143810D01*
X86590096Y-71048571D01*
X86542477Y-71000952D01*
X86447239Y-70953333D01*
X86256762Y-70953333D01*
X86161524Y-71000952D01*
X86113905Y-71048571D01*
X86066286Y-71143810D01*
X87955524Y-70667619D02*
X88003143Y-70620000D01*
X88098381Y-70572381D01*
X88336477Y-70572381D01*
X88431715Y-70620000D01*
X88479334Y-70667619D01*
X88526953Y-70762857D01*
X88526953Y-70858095D01*
X88479334Y-71000952D01*
X87907905Y-71572381D01*
X88526953Y-71572381D01*
X88955524Y-71572381D02*
X88955524Y-70572381D01*
X89050762Y-71191429D02*
X89336477Y-71572381D01*
X89336477Y-70905714D02*
X88955524Y-71286667D01*
X42441905Y-78430381D02*
X42441905Y-77430381D01*
X42822858Y-77430381D01*
X42918096Y-77478000D01*
X42965715Y-77525619D01*
X43013334Y-77620857D01*
X43013334Y-77763714D01*
X42965715Y-77858952D01*
X42918096Y-77906571D01*
X42822858Y-77954190D01*
X42441905Y-77954190D01*
X43965715Y-78430381D02*
X43394286Y-78430381D01*
X43680000Y-78430381D02*
X43680000Y-77430381D01*
X43584762Y-77573238D01*
X43489524Y-77668476D01*
X43394286Y-77716095D01*
X44442286Y-78430381D02*
X44442286Y-77430381D01*
X44823239Y-77430381D01*
X44918477Y-77478000D01*
X44966096Y-77525619D01*
X45013715Y-77620857D01*
X45013715Y-77763714D01*
X44966096Y-77858952D01*
X44918477Y-77906571D01*
X44823239Y-77954190D01*
X44442286Y-77954190D01*
X46013715Y-78430381D02*
X45680381Y-77954190D01*
X45442286Y-78430381D02*
X45442286Y-77430381D01*
X45823239Y-77430381D01*
X45918477Y-77478000D01*
X45966096Y-77525619D01*
X46013715Y-77620857D01*
X46013715Y-77763714D01*
X45966096Y-77858952D01*
X45918477Y-77906571D01*
X45823239Y-77954190D01*
X45442286Y-77954190D01*
X46632762Y-77430381D02*
X46823239Y-77430381D01*
X46918477Y-77478000D01*
X47013715Y-77573238D01*
X47061334Y-77763714D01*
X47061334Y-78097048D01*
X47013715Y-78287524D01*
X46918477Y-78382762D01*
X46823239Y-78430381D01*
X46632762Y-78430381D01*
X46537524Y-78382762D01*
X46442286Y-78287524D01*
X46394667Y-78097048D01*
X46394667Y-77763714D01*
X46442286Y-77573238D01*
X46537524Y-77478000D01*
X46632762Y-77430381D01*
X48013715Y-77478000D02*
X47918477Y-77430381D01*
X47775620Y-77430381D01*
X47632762Y-77478000D01*
X47537524Y-77573238D01*
X47489905Y-77668476D01*
X47442286Y-77858952D01*
X47442286Y-78001810D01*
X47489905Y-78192286D01*
X47537524Y-78287524D01*
X47632762Y-78382762D01*
X47775620Y-78430381D01*
X47870858Y-78430381D01*
X48013715Y-78382762D01*
X48061334Y-78335143D01*
X48061334Y-78001810D01*
X47870858Y-78001810D01*
X101006381Y-63222095D02*
X100006381Y-63222095D01*
X100006381Y-62841142D01*
X100054000Y-62745904D01*
X100101619Y-62698285D01*
X100196857Y-62650666D01*
X100339714Y-62650666D01*
X100434952Y-62698285D01*
X100482571Y-62745904D01*
X100530190Y-62841142D01*
X100530190Y-63222095D01*
X100101619Y-62269714D02*
X100054000Y-62222095D01*
X100006381Y-62126857D01*
X100006381Y-61888761D01*
X100054000Y-61793523D01*
X100101619Y-61745904D01*
X100196857Y-61698285D01*
X100292095Y-61698285D01*
X100434952Y-61745904D01*
X101006381Y-62317333D01*
X101006381Y-61698285D01*
X98720667Y-66460191D02*
X98720667Y-65984000D01*
X99006381Y-66555429D02*
X98006381Y-66222096D01*
X99006381Y-65888762D01*
X99006381Y-65031619D02*
X99006381Y-65603048D01*
X99006381Y-65317334D02*
X98006381Y-65317334D01*
X98149238Y-65412572D01*
X98244476Y-65507810D01*
X98292095Y-65603048D01*
X98101619Y-64650667D02*
X98054000Y-64603048D01*
X98006381Y-64507810D01*
X98006381Y-64269714D01*
X98054000Y-64174476D01*
X98101619Y-64126857D01*
X98196857Y-64079238D01*
X98292095Y-64079238D01*
X98434952Y-64126857D01*
X99006381Y-64698286D01*
X99006381Y-64079238D01*
X98006381Y-63460191D02*
X98006381Y-63364952D01*
X98054000Y-63269714D01*
X98101619Y-63222095D01*
X98196857Y-63174476D01*
X98387333Y-63126857D01*
X98625429Y-63126857D01*
X98815905Y-63174476D01*
X98911143Y-63222095D01*
X98958762Y-63269714D01*
X99006381Y-63364952D01*
X99006381Y-63460191D01*
X98958762Y-63555429D01*
X98911143Y-63603048D01*
X98815905Y-63650667D01*
X98625429Y-63698286D01*
X98387333Y-63698286D01*
X98196857Y-63650667D01*
X98101619Y-63603048D01*
X98054000Y-63555429D01*
X98006381Y-63460191D01*
X98006381Y-62269714D02*
X98006381Y-62460191D01*
X98054000Y-62555429D01*
X98101619Y-62603048D01*
X98244476Y-62698286D01*
X98434952Y-62745905D01*
X98815905Y-62745905D01*
X98911143Y-62698286D01*
X98958762Y-62650667D01*
X99006381Y-62555429D01*
X99006381Y-62364952D01*
X98958762Y-62269714D01*
X98911143Y-62222095D01*
X98815905Y-62174476D01*
X98577810Y-62174476D01*
X98482571Y-62222095D01*
X98434952Y-62269714D01*
X98387333Y-62364952D01*
X98387333Y-62555429D01*
X98434952Y-62650667D01*
X98482571Y-62698286D01*
X98577810Y-62745905D01*
X99006381Y-61698286D02*
X99006381Y-61507810D01*
X98958762Y-61412571D01*
X98911143Y-61364952D01*
X98768286Y-61269714D01*
X98577810Y-61222095D01*
X98196857Y-61222095D01*
X98101619Y-61269714D01*
X98054000Y-61317333D01*
X98006381Y-61412571D01*
X98006381Y-61603048D01*
X98054000Y-61698286D01*
X98101619Y-61745905D01*
X98196857Y-61793524D01*
X98434952Y-61793524D01*
X98530190Y-61745905D01*
X98577810Y-61698286D01*
X98625429Y-61603048D01*
X98625429Y-61412571D01*
X98577810Y-61317333D01*
X98530190Y-61269714D01*
X98434952Y-61222095D01*
X99006381Y-60745905D02*
X99006381Y-60555429D01*
X98958762Y-60460190D01*
X98911143Y-60412571D01*
X98768286Y-60317333D01*
X98577810Y-60269714D01*
X98196857Y-60269714D01*
X98101619Y-60317333D01*
X98054000Y-60364952D01*
X98006381Y-60460190D01*
X98006381Y-60650667D01*
X98054000Y-60745905D01*
X98101619Y-60793524D01*
X98196857Y-60841143D01*
X98434952Y-60841143D01*
X98530190Y-60793524D01*
X98577810Y-60745905D01*
X98625429Y-60650667D01*
X98625429Y-60460190D01*
X98577810Y-60364952D01*
X98530190Y-60317333D01*
X98434952Y-60269714D01*
X98911143Y-59269714D02*
X98958762Y-59317333D01*
X99006381Y-59460190D01*
X99006381Y-59555428D01*
X98958762Y-59698286D01*
X98863524Y-59793524D01*
X98768286Y-59841143D01*
X98577810Y-59888762D01*
X98434952Y-59888762D01*
X98244476Y-59841143D01*
X98149238Y-59793524D01*
X98054000Y-59698286D01*
X98006381Y-59555428D01*
X98006381Y-59460190D01*
X98054000Y-59317333D01*
X98101619Y-59269714D01*
X98006381Y-58984000D02*
X98006381Y-58412571D01*
X99006381Y-58698286D02*
X98006381Y-58698286D01*
X91416286Y-34218571D02*
X91559143Y-34266190D01*
X91606762Y-34313810D01*
X91654381Y-34409048D01*
X91654381Y-34551905D01*
X91606762Y-34647143D01*
X91559143Y-34694762D01*
X91463905Y-34742381D01*
X91082952Y-34742381D01*
X91082952Y-33742381D01*
X91416286Y-33742381D01*
X91511524Y-33790000D01*
X91559143Y-33837619D01*
X91606762Y-33932857D01*
X91606762Y-34028095D01*
X91559143Y-34123333D01*
X91511524Y-34170952D01*
X91416286Y-34218571D01*
X91082952Y-34218571D01*
X91940095Y-33742381D02*
X92511524Y-33742381D01*
X92225809Y-34742381D02*
X92225809Y-33742381D01*
X92797238Y-33837619D02*
X92844857Y-33790000D01*
X92940095Y-33742381D01*
X93178191Y-33742381D01*
X93273429Y-33790000D01*
X93321048Y-33837619D01*
X93368667Y-33932857D01*
X93368667Y-34028095D01*
X93321048Y-34170952D01*
X92749619Y-34742381D01*
X93368667Y-34742381D01*
D15*
X82150856Y-32294286D02*
X82078285Y-32366857D01*
X81860571Y-32439429D01*
X81715428Y-32439429D01*
X81497713Y-32366857D01*
X81352571Y-32221714D01*
X81279999Y-32076571D01*
X81207428Y-31786286D01*
X81207428Y-31568571D01*
X81279999Y-31278286D01*
X81352571Y-31133143D01*
X81497713Y-30988000D01*
X81715428Y-30915429D01*
X81860571Y-30915429D01*
X82078285Y-30988000D01*
X82150856Y-31060571D01*
X83674856Y-32439429D02*
X83166856Y-31713714D01*
X82803999Y-32439429D02*
X82803999Y-30915429D01*
X83384571Y-30915429D01*
X83529713Y-30988000D01*
X83602285Y-31060571D01*
X83674856Y-31205714D01*
X83674856Y-31423429D01*
X83602285Y-31568571D01*
X83529713Y-31641143D01*
X83384571Y-31713714D01*
X82803999Y-31713714D01*
X84255428Y-31060571D02*
X84327999Y-30988000D01*
X84473142Y-30915429D01*
X84835999Y-30915429D01*
X84981142Y-30988000D01*
X85053713Y-31060571D01*
X85126285Y-31205714D01*
X85126285Y-31350857D01*
X85053713Y-31568571D01*
X84182856Y-32439429D01*
X85126285Y-32439429D01*
X86069714Y-30915429D02*
X86214857Y-30915429D01*
X86360000Y-30988000D01*
X86432571Y-31060571D01*
X86505142Y-31205714D01*
X86577714Y-31496000D01*
X86577714Y-31858857D01*
X86505142Y-32149143D01*
X86432571Y-32294286D01*
X86360000Y-32366857D01*
X86214857Y-32439429D01*
X86069714Y-32439429D01*
X85924571Y-32366857D01*
X85852000Y-32294286D01*
X85779428Y-32149143D01*
X85706857Y-31858857D01*
X85706857Y-31496000D01*
X85779428Y-31205714D01*
X85852000Y-31060571D01*
X85924571Y-30988000D01*
X86069714Y-30915429D01*
X88029143Y-32439429D02*
X87158286Y-32439429D01*
X87593714Y-32439429D02*
X87593714Y-30915429D01*
X87448571Y-31133143D01*
X87303429Y-31278286D01*
X87158286Y-31350857D01*
X89335429Y-30915429D02*
X89045143Y-30915429D01*
X88900000Y-30988000D01*
X88827429Y-31060571D01*
X88682286Y-31278286D01*
X88609715Y-31568571D01*
X88609715Y-32149143D01*
X88682286Y-32294286D01*
X88754858Y-32366857D01*
X88900000Y-32439429D01*
X89190286Y-32439429D01*
X89335429Y-32366857D01*
X89408000Y-32294286D01*
X89480572Y-32149143D01*
X89480572Y-31786286D01*
X89408000Y-31641143D01*
X89335429Y-31568571D01*
X89190286Y-31496000D01*
X88900000Y-31496000D01*
X88754858Y-31568571D01*
X88682286Y-31641143D01*
X88609715Y-31786286D01*
D13*
X72763143Y-46839143D02*
X72715524Y-46886762D01*
X72572667Y-46934381D01*
X72477429Y-46934381D01*
X72334571Y-46886762D01*
X72239333Y-46791524D01*
X72191714Y-46696286D01*
X72144095Y-46505810D01*
X72144095Y-46362952D01*
X72191714Y-46172476D01*
X72239333Y-46077238D01*
X72334571Y-45982000D01*
X72477429Y-45934381D01*
X72572667Y-45934381D01*
X72715524Y-45982000D01*
X72763143Y-46029619D01*
X73144095Y-46029619D02*
X73191714Y-45982000D01*
X73286952Y-45934381D01*
X73525048Y-45934381D01*
X73620286Y-45982000D01*
X73667905Y-46029619D01*
X73715524Y-46124857D01*
X73715524Y-46220095D01*
X73667905Y-46362952D01*
X73096476Y-46934381D01*
X73715524Y-46934381D01*
X74334571Y-45934381D02*
X74429810Y-45934381D01*
X74525048Y-45982000D01*
X74572667Y-46029619D01*
X74620286Y-46124857D01*
X74667905Y-46315333D01*
X74667905Y-46553429D01*
X74620286Y-46743905D01*
X74572667Y-46839143D01*
X74525048Y-46886762D01*
X74429810Y-46934381D01*
X74334571Y-46934381D01*
X74239333Y-46886762D01*
X74191714Y-46839143D01*
X74144095Y-46743905D01*
X74096476Y-46553429D01*
X74096476Y-46315333D01*
X74144095Y-46124857D01*
X74191714Y-46029619D01*
X74239333Y-45982000D01*
X74334571Y-45934381D01*
X67175143Y-45410381D02*
X66603714Y-45410381D01*
X66889428Y-45410381D02*
X66889428Y-44410381D01*
X66794190Y-44553238D01*
X66698952Y-44648476D01*
X66603714Y-44696095D01*
X67794190Y-44410381D02*
X67889429Y-44410381D01*
X67984667Y-44458000D01*
X68032286Y-44505619D01*
X68079905Y-44600857D01*
X68127524Y-44791333D01*
X68127524Y-45029429D01*
X68079905Y-45219905D01*
X68032286Y-45315143D01*
X67984667Y-45362762D01*
X67889429Y-45410381D01*
X67794190Y-45410381D01*
X67698952Y-45362762D01*
X67651333Y-45315143D01*
X67603714Y-45219905D01*
X67556095Y-45029429D01*
X67556095Y-44791333D01*
X67603714Y-44600857D01*
X67651333Y-44505619D01*
X67698952Y-44458000D01*
X67794190Y-44410381D01*
X68984667Y-44743714D02*
X68984667Y-45410381D01*
X68556095Y-44743714D02*
X68556095Y-45267524D01*
X68603714Y-45362762D01*
X68698952Y-45410381D01*
X68841810Y-45410381D01*
X68937048Y-45362762D01*
X68984667Y-45315143D01*
X57253143Y-48902857D02*
X57300762Y-48950476D01*
X57348381Y-49093333D01*
X57348381Y-49188571D01*
X57300762Y-49331429D01*
X57205524Y-49426667D01*
X57110286Y-49474286D01*
X56919810Y-49521905D01*
X56776952Y-49521905D01*
X56586476Y-49474286D01*
X56491238Y-49426667D01*
X56396000Y-49331429D01*
X56348381Y-49188571D01*
X56348381Y-49093333D01*
X56396000Y-48950476D01*
X56443619Y-48902857D01*
X56443619Y-48521905D02*
X56396000Y-48474286D01*
X56348381Y-48379048D01*
X56348381Y-48140952D01*
X56396000Y-48045714D01*
X56443619Y-47998095D01*
X56538857Y-47950476D01*
X56634095Y-47950476D01*
X56776952Y-47998095D01*
X57348381Y-48569524D01*
X57348381Y-47950476D01*
X56443619Y-47569524D02*
X56396000Y-47521905D01*
X56348381Y-47426667D01*
X56348381Y-47188571D01*
X56396000Y-47093333D01*
X56443619Y-47045714D01*
X56538857Y-46998095D01*
X56634095Y-46998095D01*
X56776952Y-47045714D01*
X57348381Y-47617143D01*
X57348381Y-46998095D01*
X55824381Y-48902857D02*
X55824381Y-49474286D01*
X55824381Y-49188572D02*
X54824381Y-49188572D01*
X54967238Y-49283810D01*
X55062476Y-49379048D01*
X55110095Y-49474286D01*
X54824381Y-48283810D02*
X54824381Y-48188571D01*
X54872000Y-48093333D01*
X54919619Y-48045714D01*
X55014857Y-47998095D01*
X55205333Y-47950476D01*
X55443429Y-47950476D01*
X55633905Y-47998095D01*
X55729143Y-48045714D01*
X55776762Y-48093333D01*
X55824381Y-48188571D01*
X55824381Y-48283810D01*
X55776762Y-48379048D01*
X55729143Y-48426667D01*
X55633905Y-48474286D01*
X55443429Y-48521905D01*
X55205333Y-48521905D01*
X55014857Y-48474286D01*
X54919619Y-48426667D01*
X54872000Y-48379048D01*
X54824381Y-48283810D01*
X55157714Y-47093333D02*
X55824381Y-47093333D01*
X55157714Y-47521905D02*
X55681524Y-47521905D01*
X55776762Y-47474286D01*
X55824381Y-47379048D01*
X55824381Y-47236190D01*
X55776762Y-47140952D01*
X55729143Y-47093333D01*
X73747334Y-49982381D02*
X73271143Y-49982381D01*
X73271143Y-48982381D01*
X74604477Y-49982381D02*
X74033048Y-49982381D01*
X74318762Y-49982381D02*
X74318762Y-48982381D01*
X74223524Y-49125238D01*
X74128286Y-49220476D01*
X74033048Y-49268095D01*
X67842001Y-52065714D02*
X67842001Y-52732381D01*
X67603905Y-51684762D02*
X67365810Y-52399048D01*
X67984858Y-52399048D01*
X68365810Y-52637143D02*
X68413429Y-52684762D01*
X68365810Y-52732381D01*
X68318191Y-52684762D01*
X68365810Y-52637143D01*
X68365810Y-52732381D01*
X68746762Y-51732381D02*
X69413429Y-51732381D01*
X68984857Y-52732381D01*
X70222953Y-52065714D02*
X70222953Y-52732381D01*
X69794381Y-52065714D02*
X69794381Y-52589524D01*
X69842000Y-52684762D01*
X69937238Y-52732381D01*
X70080096Y-52732381D01*
X70175334Y-52684762D01*
X70222953Y-52637143D01*
X70699143Y-52732381D02*
X70699143Y-51732381D01*
X70699143Y-52208571D02*
X71270572Y-52208571D01*
X71270572Y-52732381D02*
X71270572Y-51732381D01*
X61976095Y-44918381D02*
X61976095Y-45727905D01*
X62023714Y-45823143D01*
X62071333Y-45870762D01*
X62166571Y-45918381D01*
X62357048Y-45918381D01*
X62452286Y-45870762D01*
X62499905Y-45823143D01*
X62547524Y-45727905D01*
X62547524Y-44918381D01*
X62976095Y-45013619D02*
X63023714Y-44966000D01*
X63118952Y-44918381D01*
X63357048Y-44918381D01*
X63452286Y-44966000D01*
X63499905Y-45013619D01*
X63547524Y-45108857D01*
X63547524Y-45204095D01*
X63499905Y-45346952D01*
X62928476Y-45918381D01*
X63547524Y-45918381D01*
X59238000Y-51268381D02*
X59809429Y-51268381D01*
X59523714Y-52268381D02*
X59523714Y-51268381D01*
X60618953Y-52268381D02*
X60142762Y-52268381D01*
X60142762Y-51268381D01*
X60809429Y-51268381D02*
X61142762Y-52268381D01*
X61476096Y-51268381D01*
X62238001Y-51268381D02*
X62047524Y-51268381D01*
X61952286Y-51316000D01*
X61904667Y-51363619D01*
X61809429Y-51506476D01*
X61761810Y-51696952D01*
X61761810Y-52077905D01*
X61809429Y-52173143D01*
X61857048Y-52220762D01*
X61952286Y-52268381D01*
X62142763Y-52268381D01*
X62238001Y-52220762D01*
X62285620Y-52173143D01*
X62333239Y-52077905D01*
X62333239Y-51839810D01*
X62285620Y-51744571D01*
X62238001Y-51696952D01*
X62142763Y-51649333D01*
X61952286Y-51649333D01*
X61857048Y-51696952D01*
X61809429Y-51744571D01*
X61761810Y-51839810D01*
X63285620Y-52268381D02*
X62714191Y-52268381D01*
X62999905Y-52268381D02*
X62999905Y-51268381D01*
X62904667Y-51411238D01*
X62809429Y-51506476D01*
X62714191Y-51554095D01*
X63666572Y-51363619D02*
X63714191Y-51316000D01*
X63809429Y-51268381D01*
X64047525Y-51268381D01*
X64142763Y-51316000D01*
X64190382Y-51363619D01*
X64238001Y-51458857D01*
X64238001Y-51554095D01*
X64190382Y-51696952D01*
X63618953Y-52268381D01*
X64238001Y-52268381D01*
X64618953Y-51363619D02*
X64666572Y-51316000D01*
X64761810Y-51268381D01*
X64999906Y-51268381D01*
X65095144Y-51316000D01*
X65142763Y-51363619D01*
X65190382Y-51458857D01*
X65190382Y-51554095D01*
X65142763Y-51696952D01*
X64571334Y-52268381D01*
X65190382Y-52268381D01*
X66095144Y-51268381D02*
X65618953Y-51268381D01*
X65571334Y-51744571D01*
X65618953Y-51696952D01*
X65714191Y-51649333D01*
X65952287Y-51649333D01*
X66047525Y-51696952D01*
X66095144Y-51744571D01*
X66142763Y-51839810D01*
X66142763Y-52077905D01*
X66095144Y-52173143D01*
X66047525Y-52220762D01*
X65952287Y-52268381D01*
X65714191Y-52268381D01*
X65618953Y-52220762D01*
X65571334Y-52173143D01*
M02*
