G04 #@! TF.FileFunction,Soldermask,Top*
%FSLAX46Y46*%
G04 Gerber Fmt 4.6, Leading zero omitted, Abs format (unit mm)*
G04 Created by KiCad (PCBNEW 4.0.2+e4-6225~38~ubuntu15.10.1-stable) date Fri 13 May 2016 04:34:39 PM MDT*
%MOMM*%
G01*
G04 APERTURE LIST*
%ADD10C,0.100000*%
%ADD11R,1.400760X0.999440*%
%ADD12R,2.600000X2.200000*%
%ADD13R,1.700000X0.700000*%
%ADD14R,1.900000X1.650000*%
%ADD15R,1.650000X1.900000*%
%ADD16R,2.432000X2.127200*%
%ADD17O,2.432000X2.127200*%
%ADD18R,0.999440X1.400760*%
%ADD19R,1.900000X1.700000*%
%ADD20R,1.700000X1.900000*%
%ADD21R,3.150000X1.400000*%
%ADD22R,1.850000X0.850000*%
%ADD23R,5.700000X5.700000*%
%ADD24C,18.180000*%
G04 APERTURE END LIST*
D10*
D11*
X62169040Y-53355240D03*
X62169040Y-52054760D03*
X64068960Y-52705000D03*
D12*
X101247000Y-52893000D03*
D13*
X97997000Y-73143000D03*
X97997000Y-73643000D03*
X97997000Y-74143000D03*
X97997000Y-72643000D03*
X97997000Y-72143000D03*
X97997000Y-71643000D03*
X97997000Y-71143000D03*
X97997000Y-70643000D03*
X97997000Y-70143000D03*
X97997000Y-69643000D03*
X97997000Y-69143000D03*
X97997000Y-68643000D03*
X97997000Y-68143000D03*
X97997000Y-67643000D03*
X97997000Y-67143000D03*
X97997000Y-66643000D03*
X97997000Y-66143000D03*
X97997000Y-65643000D03*
X97997000Y-65143000D03*
X97997000Y-64643000D03*
X97997000Y-64143000D03*
X97997000Y-63643000D03*
X97997000Y-63143000D03*
X97997000Y-62643000D03*
X97997000Y-62143000D03*
X97997000Y-61643000D03*
X97997000Y-61143000D03*
X97997000Y-60643000D03*
X97997000Y-60143000D03*
X97997000Y-59643000D03*
X97997000Y-59143000D03*
X97997000Y-58643000D03*
X97997000Y-58143000D03*
X97997000Y-57643000D03*
X97997000Y-57143000D03*
X97997000Y-56643000D03*
X97997000Y-56143000D03*
X97997000Y-55643000D03*
X97997000Y-55143000D03*
X97997000Y-54643000D03*
D12*
X101247000Y-75893000D03*
D14*
X51415000Y-56261000D03*
X48915000Y-56261000D03*
X54209000Y-53213000D03*
X51709000Y-53213000D03*
D15*
X59817000Y-57043000D03*
X59817000Y-59543000D03*
D14*
X95036000Y-35814000D03*
X97536000Y-35814000D03*
X75545000Y-66167000D03*
X73045000Y-66167000D03*
X86721000Y-62103000D03*
X84221000Y-62103000D03*
X81133000Y-66167000D03*
X78633000Y-66167000D03*
X81133000Y-62103000D03*
X78633000Y-62103000D03*
X69957000Y-58293000D03*
X67457000Y-58293000D03*
D15*
X64135000Y-58059000D03*
X64135000Y-60559000D03*
D14*
X63480000Y-48768000D03*
X60980000Y-48768000D03*
X86721000Y-66167000D03*
X84221000Y-66167000D03*
X75545000Y-62103000D03*
X73045000Y-62103000D03*
D15*
X37744400Y-55798400D03*
X37744400Y-58298400D03*
D14*
X86721000Y-69723000D03*
X84221000Y-69723000D03*
X75545000Y-69723000D03*
X73045000Y-69723000D03*
X86701000Y-58293000D03*
X84201000Y-58293000D03*
X81133000Y-69723000D03*
X78633000Y-69723000D03*
X81133000Y-58293000D03*
X78633000Y-58293000D03*
X49169000Y-74549000D03*
X51669000Y-74549000D03*
D11*
X58988960Y-52562760D03*
X58988960Y-53863240D03*
X57089040Y-53213000D03*
D14*
X56154000Y-72390000D03*
X58654000Y-72390000D03*
D16*
X31877000Y-70993000D03*
D17*
X31877000Y-68453000D03*
X31877000Y-65913000D03*
X31877000Y-63373000D03*
X31877000Y-60833000D03*
X31877000Y-58293000D03*
D18*
X41417240Y-60512960D03*
X40116760Y-60512960D03*
X40767000Y-58613040D03*
D11*
X48066960Y-58912760D03*
X48066960Y-60213240D03*
X46167040Y-59563000D03*
X51247040Y-60213240D03*
X51247040Y-58912760D03*
X53146960Y-59563000D03*
X108772960Y-44942760D03*
X108772960Y-46243240D03*
X106873040Y-45593000D03*
X62169040Y-56149240D03*
X62169040Y-54848760D03*
X64068960Y-55499000D03*
X96133920Y-44053760D03*
X96133920Y-45354240D03*
X94234000Y-44704000D03*
D19*
X45419000Y-56261000D03*
X42719000Y-56261000D03*
D20*
X56007000Y-56943000D03*
X56007000Y-59643000D03*
D19*
X97616000Y-39116000D03*
X94916000Y-39116000D03*
X103585000Y-45593000D03*
X100885000Y-45593000D03*
X96473000Y-52705000D03*
X93773000Y-52705000D03*
X75645000Y-58293000D03*
X72945000Y-58293000D03*
X58754000Y-68580000D03*
X56054000Y-68580000D03*
D20*
X28575000Y-68119000D03*
X28575000Y-70819000D03*
D21*
X37338000Y-75692000D03*
X43088000Y-75692000D03*
X43088000Y-71692000D03*
X37338000Y-71692000D03*
D22*
X52607000Y-71378000D03*
X52607000Y-70728000D03*
X52607000Y-70078000D03*
X52607000Y-69428000D03*
X52607000Y-68778000D03*
X52607000Y-68128000D03*
X52607000Y-67478000D03*
X52607000Y-66828000D03*
X52607000Y-66178000D03*
X52607000Y-65528000D03*
X46707000Y-65528000D03*
X46707000Y-66178000D03*
X46707000Y-66828000D03*
X46707000Y-67478000D03*
X46707000Y-68128000D03*
X46707000Y-68778000D03*
X46707000Y-69428000D03*
X46707000Y-70078000D03*
X46707000Y-70728000D03*
X46707000Y-71378000D03*
D23*
X61746000Y-41910000D03*
X90146000Y-41910000D03*
D24*
X75946000Y-41910000D03*
D23*
X27202000Y-41910000D03*
X55602000Y-41910000D03*
D24*
X41402000Y-41910000D03*
M02*
