G04 #@! TF.FileFunction,Profile,NP*
%FSLAX46Y46*%
G04 Gerber Fmt 4.6, Leading zero omitted, Abs format (unit mm)*
G04 Created by KiCad (PCBNEW 4.0.2+e4-6225~38~ubuntu15.10.1-stable) date Tue 31 May 2016 07:41:29 PM MDT*
%MOMM*%
G01*
G04 APERTURE LIST*
%ADD10C,0.100000*%
%ADD11C,0.150000*%
%ADD12C,0.300000*%
G04 APERTURE END LIST*
D10*
D11*
X102616000Y-74422000D02*
X104140000Y-74422000D01*
X102616000Y-50292000D02*
X104394000Y-50292000D01*
D12*
X105945714Y-65329143D02*
X106017143Y-65400572D01*
X106088571Y-65614858D01*
X106088571Y-65757715D01*
X106017143Y-65972000D01*
X105874286Y-66114858D01*
X105731429Y-66186286D01*
X105445714Y-66257715D01*
X105231429Y-66257715D01*
X104945714Y-66186286D01*
X104802857Y-66114858D01*
X104660000Y-65972000D01*
X104588571Y-65757715D01*
X104588571Y-65614858D01*
X104660000Y-65400572D01*
X104731429Y-65329143D01*
X104588571Y-64686286D02*
X105802857Y-64686286D01*
X105945714Y-64614858D01*
X106017143Y-64543429D01*
X106088571Y-64400572D01*
X106088571Y-64114858D01*
X106017143Y-63972000D01*
X105945714Y-63900572D01*
X105802857Y-63829143D01*
X104588571Y-63829143D01*
X104588571Y-63329143D02*
X104588571Y-62472000D01*
X106088571Y-62900571D02*
X104588571Y-62900571D01*
X104588571Y-60543429D02*
X104588571Y-60257715D01*
X104660000Y-60114857D01*
X104802857Y-59972000D01*
X105088571Y-59900572D01*
X105588571Y-59900572D01*
X105874286Y-59972000D01*
X106017143Y-60114857D01*
X106088571Y-60257715D01*
X106088571Y-60543429D01*
X106017143Y-60686286D01*
X105874286Y-60829143D01*
X105588571Y-60900572D01*
X105088571Y-60900572D01*
X104802857Y-60829143D01*
X104660000Y-60686286D01*
X104588571Y-60543429D01*
X104588571Y-59257714D02*
X105802857Y-59257714D01*
X105945714Y-59186286D01*
X106017143Y-59114857D01*
X106088571Y-58972000D01*
X106088571Y-58686286D01*
X106017143Y-58543428D01*
X105945714Y-58472000D01*
X105802857Y-58400571D01*
X104588571Y-58400571D01*
X104588571Y-57900571D02*
X104588571Y-57043428D01*
X106088571Y-57471999D02*
X104588571Y-57471999D01*
D11*
X106934000Y-50292000D02*
X106934000Y-74422000D01*
X106934000Y-74422000D02*
X104140000Y-74422000D01*
X104140000Y-50292000D02*
X106934000Y-50292000D01*
X102616000Y-74422000D02*
X102616000Y-50292000D01*
X26035000Y-29845000D02*
X109855000Y-29845000D01*
X23495000Y-78105000D02*
X23495000Y-32385000D01*
X109855000Y-80645000D02*
X26035000Y-80645000D01*
X112395000Y-32385000D02*
X112395000Y-78105000D01*
X112395000Y-32385000D02*
G75*
G03X109855000Y-29845000I-2540000J0D01*
G01*
X26035000Y-29845000D02*
G75*
G03X23495000Y-32385000I0J-2540000D01*
G01*
X23495000Y-78105000D02*
G75*
G03X26035000Y-80645000I2540000J0D01*
G01*
X109855000Y-80645000D02*
G75*
G03X112395000Y-78105000I0J2540000D01*
G01*
M02*
