G04 #@! TF.FileFunction,Copper,L1,Top,Signal*
%FSLAX46Y46*%
G04 Gerber Fmt 4.6, Leading zero omitted, Abs format (unit mm)*
G04 Created by KiCad (PCBNEW 4.0.2+e4-6225~38~ubuntu15.10.1-stable) date Sun 14 Aug 2016 02:58:43 PM MDT*
%MOMM*%
G01*
G04 APERTURE LIST*
%ADD10C,0.100000*%
%ADD11R,8.000000X4.000000*%
%ADD12R,9.000000X4.000000*%
%ADD13R,1.450000X0.450000*%
%ADD14R,1.500000X1.250000*%
%ADD15R,1.500000X1.300000*%
%ADD16R,1.000000X2.750000*%
%ADD17R,0.599440X1.000760*%
%ADD18R,1.000760X0.599440*%
%ADD19R,1.300000X1.500000*%
%ADD20R,1.727200X2.032000*%
%ADD21O,1.727200X2.032000*%
%ADD22R,2.200000X3.810000*%
%ADD23R,1.300000X0.300000*%
%ADD24R,5.300000X5.300000*%
%ADD25C,15.240000*%
%ADD26R,1.250000X1.500000*%
%ADD27R,2.500000X2.500000*%
%ADD28R,0.650000X1.060000*%
%ADD29C,0.685800*%
%ADD30C,0.254000*%
G04 APERTURE END LIST*
D10*
D11*
X29464000Y-42164000D03*
D12*
X61976000Y-42164000D03*
D13*
X44606000Y-62107000D03*
X44606000Y-61457000D03*
X44606000Y-60807000D03*
X44606000Y-60157000D03*
X44606000Y-59507000D03*
X44606000Y-58857000D03*
X44606000Y-58207000D03*
X44606000Y-57557000D03*
X44606000Y-56907000D03*
X44606000Y-56257000D03*
X38706000Y-56257000D03*
X38706000Y-56907000D03*
X38706000Y-57557000D03*
X38706000Y-58207000D03*
X38706000Y-58857000D03*
X38706000Y-59507000D03*
X38706000Y-60157000D03*
X38706000Y-60807000D03*
X38706000Y-61457000D03*
X38706000Y-62107000D03*
D14*
X47732000Y-74422000D03*
X45232000Y-74422000D03*
X50566000Y-64516000D03*
X53066000Y-64516000D03*
D15*
X53166000Y-61722000D03*
X50466000Y-61722000D03*
X37766000Y-72390000D03*
X40466000Y-72390000D03*
D16*
X30956000Y-62057000D03*
X30956000Y-56307000D03*
X26956000Y-56307000D03*
X26956000Y-62057000D03*
D14*
X47732000Y-70358000D03*
X45232000Y-70358000D03*
X59670000Y-57658000D03*
X57170000Y-57658000D03*
X50820000Y-74422000D03*
X53320000Y-74422000D03*
X60686000Y-72136000D03*
X58186000Y-72136000D03*
X63774000Y-66294000D03*
X66274000Y-66294000D03*
X69362000Y-66294000D03*
X71862000Y-66294000D03*
X66274000Y-55880000D03*
X63774000Y-55880000D03*
X74950000Y-66294000D03*
X77450000Y-66294000D03*
X83038000Y-69342000D03*
X80538000Y-69342000D03*
X77450000Y-69342000D03*
X74950000Y-69342000D03*
X66274000Y-69342000D03*
X63774000Y-69342000D03*
X71862000Y-55880000D03*
X69362000Y-55880000D03*
X80538000Y-66294000D03*
X83038000Y-66294000D03*
X71862000Y-69342000D03*
X69362000Y-69342000D03*
X88626000Y-55880000D03*
X86126000Y-55880000D03*
X77450000Y-55880000D03*
X74950000Y-55880000D03*
X86126000Y-66294000D03*
X88626000Y-66294000D03*
X83038000Y-55880000D03*
X80538000Y-55880000D03*
X91460000Y-67056000D03*
X93960000Y-67056000D03*
D17*
X59039760Y-63312040D03*
X60340240Y-63312040D03*
X59690000Y-65211960D03*
D18*
X38674040Y-67198240D03*
X38674040Y-65897760D03*
X40573960Y-66548000D03*
X43246040Y-67198240D03*
X43246040Y-65897760D03*
X45145960Y-66548000D03*
X47818040Y-67198240D03*
X47818040Y-65897760D03*
X49717960Y-66548000D03*
X64516000Y-78008480D03*
X64516000Y-76708000D03*
X66415920Y-77358240D03*
X61026040Y-61356240D03*
X61026040Y-60055760D03*
X62925960Y-60706000D03*
D17*
X56245760Y-61280040D03*
X57546240Y-61280040D03*
X56896000Y-63179960D03*
X63865760Y-72964040D03*
X65166240Y-72964040D03*
X64516000Y-74863960D03*
D15*
X40466000Y-69596000D03*
X37766000Y-69596000D03*
X50720000Y-70358000D03*
X53420000Y-70358000D03*
X60786000Y-75692000D03*
X58086000Y-75692000D03*
D19*
X68834000Y-76788000D03*
X68834000Y-74088000D03*
D15*
X77550000Y-74168000D03*
X74850000Y-74168000D03*
X88726000Y-69342000D03*
X86026000Y-69342000D03*
D20*
X40132000Y-77216000D03*
D21*
X37592000Y-77216000D03*
X35052000Y-77216000D03*
X32512000Y-77216000D03*
X29972000Y-77216000D03*
X27432000Y-77216000D03*
D22*
X100104000Y-50734000D03*
D23*
X96854000Y-70984000D03*
X96854000Y-71484000D03*
X96854000Y-71984000D03*
X96854000Y-70484000D03*
X96854000Y-69984000D03*
X96854000Y-69484000D03*
X96854000Y-68984000D03*
X96854000Y-68484000D03*
X96854000Y-67984000D03*
X96854000Y-67484000D03*
X96854000Y-66984000D03*
X96854000Y-66484000D03*
X96854000Y-65984000D03*
X96854000Y-65484000D03*
X96854000Y-64984000D03*
X96854000Y-64484000D03*
X96854000Y-63984000D03*
X96854000Y-63484000D03*
X96854000Y-62984000D03*
X96854000Y-62484000D03*
X96854000Y-61984000D03*
X96854000Y-61484000D03*
X96854000Y-60984000D03*
X96854000Y-60484000D03*
X96854000Y-59984000D03*
X96854000Y-59484000D03*
X96854000Y-58984000D03*
X96854000Y-58484000D03*
X96854000Y-57984000D03*
X96854000Y-57484000D03*
X96854000Y-56984000D03*
X96854000Y-56484000D03*
X96854000Y-55984000D03*
X96854000Y-55484000D03*
X96854000Y-54984000D03*
X96854000Y-54484000D03*
X96854000Y-53984000D03*
X96854000Y-53484000D03*
X96854000Y-52984000D03*
X96854000Y-52484000D03*
D22*
X100104000Y-73734000D03*
D24*
X72136000Y-42164000D03*
X98552000Y-42164000D03*
D25*
X85344000Y-42164000D03*
D14*
X68092000Y-46482000D03*
X70592000Y-46482000D03*
D26*
X58674000Y-47010000D03*
X58674000Y-49510000D03*
D27*
X71092000Y-49530000D03*
X67592000Y-49530000D03*
D28*
X63688000Y-47160000D03*
X62738000Y-47160000D03*
X61788000Y-47160000D03*
X61788000Y-49360000D03*
X63688000Y-49360000D03*
X62738000Y-49360000D03*
D29*
X60706000Y-45720000D03*
X66294000Y-46990000D03*
X94742000Y-53340000D03*
X37338000Y-68072000D03*
X41017008Y-60829008D03*
X58166000Y-69850000D03*
X46736000Y-72390000D03*
X36841663Y-62052131D03*
X92964022Y-69342000D03*
X67818000Y-69342000D03*
X73406000Y-69342000D03*
X78994000Y-69342000D03*
X48768000Y-62992000D03*
X84582000Y-55880000D03*
X47891699Y-56756301D03*
X54864000Y-57658000D03*
X83058000Y-67818000D03*
X80264000Y-74168000D03*
X37084000Y-60960000D03*
X36322000Y-59690000D03*
X35560000Y-66040000D03*
X38354000Y-63500000D03*
X39691954Y-63940046D03*
X57404000Y-53987690D03*
X40386000Y-57150000D03*
X46482000Y-56134000D03*
X55118000Y-56134000D03*
X36830000Y-65532000D03*
X36576000Y-63246000D03*
X62484000Y-76200000D03*
X36068000Y-57658000D03*
X36322000Y-56642000D03*
X51816000Y-59944000D03*
X64262000Y-50546000D03*
X47498000Y-60706000D03*
X33020000Y-56642000D03*
X44704000Y-53848000D03*
X65277996Y-48260000D03*
X45720000Y-64262000D03*
X49276000Y-68580000D03*
D30*
X64267000Y-47160000D02*
X63688000Y-47160000D01*
X70592000Y-46482000D02*
X70592000Y-49030000D01*
X70592000Y-49030000D02*
X71092000Y-49530000D01*
X70592000Y-46482000D02*
X70592000Y-43708000D01*
X70592000Y-43708000D02*
X72136000Y-42164000D01*
X64267000Y-47160000D02*
X69263000Y-42164000D01*
X69263000Y-42164000D02*
X72136000Y-42164000D01*
X72136000Y-42164000D02*
X65278000Y-35306000D01*
X65278000Y-35306000D02*
X38354000Y-35306000D01*
X38354000Y-35306000D02*
X31496000Y-42164000D01*
X31496000Y-42164000D02*
X29464000Y-42164000D01*
X98552000Y-42164000D02*
X98552000Y-39260000D01*
X98552000Y-39260000D02*
X91550000Y-32258000D01*
X91550000Y-32258000D02*
X79138000Y-32258000D01*
X79138000Y-32258000D02*
X72136000Y-39260000D01*
X72136000Y-39260000D02*
X72136000Y-42164000D01*
X34798000Y-51308000D02*
X34798000Y-45498000D01*
X34798000Y-45498000D02*
X31464000Y-42164000D01*
X31464000Y-42164000D02*
X29464000Y-42164000D01*
X40132000Y-77216000D02*
X40132000Y-72724000D01*
X40132000Y-72724000D02*
X40466000Y-72390000D01*
X34798000Y-51164000D02*
X34798000Y-51308000D01*
X34798000Y-51308000D02*
X34798000Y-62992000D01*
X34798000Y-62992000D02*
X35052000Y-63246000D01*
X40466000Y-72390000D02*
X40366000Y-72390000D01*
X40366000Y-72390000D02*
X38842000Y-70866000D01*
X38842000Y-70866000D02*
X36830000Y-70866000D01*
X36830000Y-70866000D02*
X36182301Y-70218301D01*
X36182301Y-70218301D02*
X36182301Y-64376301D01*
X36182301Y-64376301D02*
X35052000Y-63246000D01*
X35052000Y-63246000D02*
X36576000Y-64770000D01*
X40960751Y-64770000D02*
X40894000Y-64770000D01*
X36576000Y-64770000D02*
X40964000Y-64770000D01*
X43627000Y-62107000D02*
X44606000Y-62107000D01*
X45232000Y-74422000D02*
X41594000Y-74422000D01*
X41594000Y-74422000D02*
X40466000Y-73294000D01*
X40466000Y-73294000D02*
X40466000Y-72390000D01*
X40964000Y-64770000D02*
X43627000Y-62107000D01*
X68092000Y-46482000D02*
X66802000Y-46482000D01*
X66802000Y-46482000D02*
X66294000Y-46990000D01*
X94886000Y-53484000D02*
X94742000Y-53340000D01*
X96854000Y-53484000D02*
X94886000Y-53484000D01*
X38674040Y-67198240D02*
X38211760Y-67198240D01*
X38211760Y-67198240D02*
X37338000Y-68072000D01*
X40674109Y-61171907D02*
X41017008Y-60829008D01*
X39739016Y-62107000D02*
X40674109Y-61171907D01*
X38706000Y-62107000D02*
X39739016Y-62107000D01*
X38674040Y-67198240D02*
X37957760Y-67198240D01*
X37957760Y-67198240D02*
X37338000Y-67818000D01*
X58186000Y-72136000D02*
X58186000Y-69870000D01*
X58186000Y-69870000D02*
X58166000Y-69850000D01*
X47732000Y-74422000D02*
X47732000Y-73386000D01*
X47732000Y-73386000D02*
X46736000Y-72390000D01*
X36896532Y-62107000D02*
X36841663Y-62052131D01*
X38706000Y-62107000D02*
X36896532Y-62107000D01*
X93306921Y-68999101D02*
X92964022Y-69342000D01*
X93822022Y-68484000D02*
X93306921Y-68999101D01*
X96854000Y-68484000D02*
X93822022Y-68484000D01*
X69362000Y-69342000D02*
X67818000Y-69342000D01*
X74950000Y-69342000D02*
X73406000Y-69342000D01*
X80538000Y-69342000D02*
X78994000Y-69342000D01*
X48768000Y-63722000D02*
X48768000Y-62992000D01*
X50566000Y-64516000D02*
X49562000Y-64516000D01*
X49562000Y-64516000D02*
X48768000Y-63722000D01*
X86126000Y-55880000D02*
X84582000Y-55880000D01*
X45232000Y-70358000D02*
X43180000Y-70358000D01*
X43180000Y-70358000D02*
X42418000Y-69596000D01*
X42418000Y-69596000D02*
X40466000Y-69596000D01*
X47818040Y-65897760D02*
X45242480Y-65897760D01*
X45242480Y-65897760D02*
X45145960Y-65994280D01*
X45145960Y-65994280D02*
X45145960Y-66548000D01*
X45232000Y-70358000D02*
X45232000Y-66634040D01*
X45232000Y-66634040D02*
X45145960Y-66548000D01*
X59670000Y-57658000D02*
X59690000Y-57678000D01*
X59690000Y-57678000D02*
X59690000Y-65211960D01*
X47891699Y-56756301D02*
X47129699Y-56756301D01*
X47129699Y-56756301D02*
X46979000Y-56907000D01*
X46979000Y-56907000D02*
X45585000Y-56907000D01*
X56166000Y-57658000D02*
X54864000Y-57658000D01*
X45585000Y-56907000D02*
X44606000Y-56907000D01*
X57170000Y-57658000D02*
X56166000Y-57658000D01*
X71120000Y-78232000D02*
X66040000Y-78232000D01*
X64516000Y-78008480D02*
X65270380Y-78008480D01*
X66040000Y-78232000D02*
X54610000Y-78232000D01*
X65270380Y-78008480D02*
X65493900Y-78232000D01*
X65493900Y-78232000D02*
X66040000Y-78232000D01*
X96854000Y-67984000D02*
X97656922Y-67984000D01*
X97656922Y-67984000D02*
X98298000Y-68625078D01*
X98298000Y-68625078D02*
X98298000Y-72644000D01*
X98298000Y-72644000D02*
X97282000Y-73660000D01*
X97282000Y-73660000D02*
X83820000Y-73660000D01*
X83820000Y-73660000D02*
X82042000Y-75438000D01*
X82042000Y-75438000D02*
X73914000Y-75438000D01*
X73914000Y-75438000D02*
X71120000Y-78232000D01*
X54610000Y-78232000D02*
X53320000Y-76942000D01*
X53320000Y-76942000D02*
X53320000Y-74422000D01*
X96854000Y-67984000D02*
X96854000Y-67484000D01*
X53420000Y-70358000D02*
X53420000Y-68406000D01*
X53420000Y-68406000D02*
X51562000Y-66548000D01*
X51562000Y-66548000D02*
X49717960Y-66548000D01*
X53320000Y-74422000D02*
X53320000Y-70458000D01*
X53320000Y-70458000D02*
X53420000Y-70358000D01*
X63865760Y-72763380D02*
X63731140Y-72898000D01*
X63731140Y-72898000D02*
X63246000Y-72898000D01*
X63246000Y-72898000D02*
X62484000Y-72136000D01*
X62484000Y-72136000D02*
X60686000Y-72136000D01*
X63865760Y-72964040D02*
X63865760Y-72763380D01*
X58086000Y-75692000D02*
X58086000Y-75010000D01*
X58086000Y-75010000D02*
X60686000Y-72410000D01*
X60686000Y-72410000D02*
X60686000Y-72136000D01*
X96854000Y-70484000D02*
X95190750Y-70484000D01*
X95190750Y-70484000D02*
X93792750Y-71882000D01*
X93792750Y-71882000D02*
X64747140Y-71882000D01*
X64747140Y-71882000D02*
X63865760Y-72763380D01*
X96854000Y-60984000D02*
X68205000Y-60984000D01*
X68205000Y-60984000D02*
X63774000Y-65415000D01*
X63774000Y-65415000D02*
X63774000Y-66294000D01*
X96854000Y-61484000D02*
X70205000Y-61484000D01*
X70205000Y-61484000D02*
X66274000Y-65415000D01*
X66274000Y-65415000D02*
X66274000Y-66294000D01*
X96854000Y-61984000D02*
X72793000Y-61984000D01*
X72793000Y-61984000D02*
X69362000Y-65415000D01*
X69362000Y-65415000D02*
X69362000Y-66294000D01*
X96854000Y-62484000D02*
X74793000Y-62484000D01*
X74793000Y-62484000D02*
X71862000Y-65415000D01*
X71862000Y-65415000D02*
X71862000Y-66294000D01*
X66274000Y-55880000D02*
X66274000Y-56114000D01*
X66274000Y-56114000D02*
X70144000Y-59984000D01*
X70144000Y-59984000D02*
X95950000Y-59984000D01*
X95950000Y-59984000D02*
X96854000Y-59984000D01*
X63774000Y-55880000D02*
X63774000Y-56154000D01*
X63774000Y-56154000D02*
X68104000Y-60484000D01*
X68104000Y-60484000D02*
X95950000Y-60484000D01*
X95950000Y-60484000D02*
X96854000Y-60484000D01*
X96854000Y-62984000D02*
X77381000Y-62984000D01*
X77381000Y-62984000D02*
X74950000Y-65415000D01*
X74950000Y-65415000D02*
X74950000Y-66294000D01*
X75075000Y-65786000D02*
X74950000Y-65786000D01*
X96854000Y-63484000D02*
X79381000Y-63484000D01*
X79381000Y-63484000D02*
X77450000Y-65415000D01*
X77450000Y-65415000D02*
X77450000Y-66294000D01*
X83058000Y-67818000D02*
X83058000Y-69322000D01*
X83058000Y-69322000D02*
X83038000Y-69342000D01*
X77550000Y-74168000D02*
X80264000Y-74168000D01*
X96854000Y-71484000D02*
X95394000Y-71484000D01*
X95394000Y-71484000D02*
X93980000Y-72898000D01*
X93980000Y-72898000D02*
X78232000Y-72898000D01*
X78232000Y-72898000D02*
X77550000Y-73580000D01*
X77550000Y-73580000D02*
X77550000Y-74168000D01*
X96854000Y-71984000D02*
X96854000Y-71484000D01*
X83038000Y-69342000D02*
X84042000Y-69342000D01*
X84042000Y-69342000D02*
X86026000Y-69342000D01*
X77450000Y-69342000D02*
X77450000Y-67798000D01*
X77450000Y-67798000D02*
X76962000Y-67310000D01*
X62484000Y-67310000D02*
X61722000Y-66548000D01*
X76962000Y-67310000D02*
X62484000Y-67310000D01*
X61722000Y-66548000D02*
X61722000Y-62992000D01*
X61722000Y-62992000D02*
X62925960Y-61788040D01*
X62925960Y-61788040D02*
X62925960Y-60706000D01*
X96854000Y-68984000D02*
X94592000Y-68984000D01*
X94592000Y-68984000D02*
X92964000Y-70612000D01*
X92964000Y-70612000D02*
X77724000Y-70612000D01*
X77724000Y-70612000D02*
X77450000Y-70338000D01*
X77450000Y-70338000D02*
X77450000Y-69342000D01*
X66274000Y-69342000D02*
X66274000Y-68560000D01*
X56896000Y-64516000D02*
X56896000Y-63179960D01*
X66274000Y-68560000D02*
X66040000Y-68326000D01*
X66040000Y-68326000D02*
X60706000Y-68326000D01*
X60706000Y-68326000D02*
X56896000Y-64516000D01*
X66274000Y-69342000D02*
X66274000Y-70221000D01*
X66274000Y-70221000D02*
X67477820Y-71424820D01*
X67477820Y-71424820D02*
X93675180Y-71424820D01*
X93675180Y-71424820D02*
X95116000Y-69984000D01*
X95116000Y-69984000D02*
X95950000Y-69984000D01*
X95950000Y-69984000D02*
X96854000Y-69984000D01*
X71862000Y-55880000D02*
X71862000Y-56114000D01*
X71862000Y-56114000D02*
X74732000Y-58984000D01*
X74732000Y-58984000D02*
X95950000Y-58984000D01*
X95950000Y-58984000D02*
X96854000Y-58984000D01*
X69362000Y-55880000D02*
X69362000Y-56154000D01*
X69362000Y-56154000D02*
X72692000Y-59484000D01*
X72692000Y-59484000D02*
X95950000Y-59484000D01*
X95950000Y-59484000D02*
X96854000Y-59484000D01*
X96854000Y-63984000D02*
X81969000Y-63984000D01*
X81969000Y-63984000D02*
X80538000Y-65415000D01*
X80538000Y-65415000D02*
X80538000Y-66294000D01*
X80663000Y-65786000D02*
X80538000Y-65786000D01*
X96854000Y-64484000D02*
X83969000Y-64484000D01*
X83969000Y-64484000D02*
X83038000Y-65415000D01*
X83038000Y-65415000D02*
X83038000Y-66294000D01*
X71862000Y-69342000D02*
X71862000Y-68306000D01*
X61214000Y-67310000D02*
X61214000Y-64185800D01*
X71862000Y-68306000D02*
X71374000Y-67818000D01*
X61722000Y-67818000D02*
X61214000Y-67310000D01*
X71374000Y-67818000D02*
X61722000Y-67818000D01*
X61214000Y-64185800D02*
X60340240Y-63312040D01*
X96854000Y-69484000D02*
X94854000Y-69484000D01*
X94854000Y-69484000D02*
X93319590Y-71018410D01*
X93319590Y-71018410D02*
X72542410Y-71018410D01*
X72542410Y-71018410D02*
X71862000Y-70338000D01*
X71862000Y-70338000D02*
X71862000Y-69342000D01*
X89230000Y-56484000D02*
X88626000Y-55880000D01*
X96854000Y-56484000D02*
X89230000Y-56484000D01*
X96854000Y-57984000D02*
X79320000Y-57984000D01*
X79320000Y-57984000D02*
X77450000Y-56114000D01*
X77450000Y-56114000D02*
X77450000Y-55880000D01*
X74950000Y-55880000D02*
X74950000Y-57170000D01*
X74950000Y-57170000D02*
X76264000Y-58484000D01*
X76264000Y-58484000D02*
X95950000Y-58484000D01*
X95950000Y-58484000D02*
X96854000Y-58484000D01*
X96854000Y-64984000D02*
X86557000Y-64984000D01*
X86557000Y-64984000D02*
X86126000Y-65415000D01*
X86126000Y-65415000D02*
X86126000Y-66294000D01*
X86380000Y-66040000D02*
X86505000Y-66040000D01*
X86505000Y-65786000D02*
X86380000Y-65786000D01*
X96854000Y-65484000D02*
X89436000Y-65484000D01*
X89436000Y-65484000D02*
X88626000Y-66294000D01*
X96854000Y-56984000D02*
X83908000Y-56984000D01*
X83908000Y-56984000D02*
X83038000Y-56114000D01*
X83038000Y-56114000D02*
X83038000Y-55880000D01*
X96854000Y-57484000D02*
X82122000Y-57484000D01*
X82122000Y-57484000D02*
X80538000Y-55900000D01*
X80538000Y-55900000D02*
X80538000Y-55880000D01*
X96854000Y-65984000D02*
X91653000Y-65984000D01*
X91653000Y-65984000D02*
X91460000Y-66177000D01*
X91460000Y-66177000D02*
X91460000Y-67056000D01*
X96854000Y-66484000D02*
X94532000Y-66484000D01*
X94532000Y-66484000D02*
X93960000Y-67056000D01*
X53166000Y-61722000D02*
X53166000Y-64416000D01*
X53166000Y-64416000D02*
X53066000Y-64516000D01*
X37084000Y-60800000D02*
X37084000Y-60960000D01*
X37727000Y-60157000D02*
X37084000Y-60800000D01*
X38706000Y-60157000D02*
X37727000Y-60157000D01*
X35052000Y-73406000D02*
X35052000Y-77216000D01*
X36068000Y-72390000D02*
X37766000Y-72390000D01*
X35052000Y-73406000D02*
X36068000Y-72390000D01*
X36322000Y-59690000D02*
X36505000Y-59507000D01*
X36505000Y-59507000D02*
X38706000Y-59507000D01*
X35560000Y-70284000D02*
X35560000Y-66040000D01*
X37766000Y-72390000D02*
X37666000Y-72390000D01*
X37666000Y-72390000D02*
X35560000Y-70284000D01*
X42610024Y-60157000D02*
X39609923Y-63157101D01*
X38696899Y-63157101D02*
X38354000Y-63500000D01*
X44606000Y-60157000D02*
X42610024Y-60157000D01*
X39609923Y-63157101D02*
X38696899Y-63157101D01*
X44647000Y-60198000D02*
X44606000Y-60157000D01*
X42825000Y-60807000D02*
X40034853Y-63597147D01*
X44606000Y-60807000D02*
X42825000Y-60807000D01*
X40034853Y-63597147D02*
X39691954Y-63940046D01*
X51663000Y-57557000D02*
X44606000Y-57557000D01*
X96783401Y-52913401D02*
X95980479Y-52913401D01*
X56642000Y-52578000D02*
X51663000Y-57557000D01*
X95645078Y-52578000D02*
X56642000Y-52578000D01*
X95980479Y-52913401D02*
X95645078Y-52578000D01*
X96854000Y-52984000D02*
X96783401Y-52913401D01*
X38706000Y-61311401D02*
X38706000Y-61457000D01*
X39654521Y-61311401D02*
X38706000Y-61311401D01*
X41656000Y-59309922D02*
X39654521Y-61311401D01*
X41656000Y-54356000D02*
X41656000Y-59309922D01*
X96854000Y-52484000D02*
X96541589Y-52171589D01*
X43840411Y-52171589D02*
X41656000Y-54356000D01*
X96541589Y-52171589D02*
X43840411Y-52171589D01*
X96854000Y-53984000D02*
X96783401Y-53913401D01*
X96783401Y-53913401D02*
X95980479Y-53913401D01*
X93726000Y-54102000D02*
X92964000Y-53340000D01*
X95980479Y-53913401D02*
X95791880Y-54102000D01*
X95791880Y-54102000D02*
X93726000Y-54102000D01*
X92964000Y-53340000D02*
X56642000Y-53340000D01*
X51775000Y-58207000D02*
X44606000Y-58207000D01*
X56642000Y-53340000D02*
X51775000Y-58207000D01*
X39685000Y-58857000D02*
X38706000Y-58857000D01*
X41148000Y-57394000D02*
X39685000Y-58857000D01*
X41148000Y-54102000D02*
X41148000Y-57394000D01*
X43484822Y-51765178D02*
X41148000Y-54102000D01*
X97739178Y-51765178D02*
X43484822Y-51765178D01*
X98298000Y-52324000D02*
X97739178Y-51765178D01*
X98298000Y-53944000D02*
X98298000Y-52324000D01*
X97758000Y-54484000D02*
X98298000Y-53944000D01*
X96854000Y-54484000D02*
X97758000Y-54484000D01*
X96854000Y-54984000D02*
X93338000Y-54984000D01*
X93338000Y-54984000D02*
X92456000Y-54102000D01*
X92456000Y-54102000D02*
X57518310Y-54102000D01*
X57518310Y-54102000D02*
X57404000Y-53987690D01*
X40386000Y-57150000D02*
X40043101Y-57492899D01*
X40043101Y-57492899D02*
X40043101Y-57848899D01*
X40043101Y-57848899D02*
X39685000Y-58207000D01*
X39685000Y-58207000D02*
X38706000Y-58207000D01*
X56642000Y-54610000D02*
X55118000Y-56134000D01*
X57404000Y-54610000D02*
X56642000Y-54610000D01*
X92202000Y-54610000D02*
X57404000Y-54610000D01*
X93076000Y-55484000D02*
X92202000Y-54610000D01*
X96854000Y-55484000D02*
X93076000Y-55484000D01*
X46482000Y-56134000D02*
X44729000Y-56134000D01*
X44729000Y-56134000D02*
X44606000Y-56257000D01*
X96854000Y-66984000D02*
X96084000Y-66984000D01*
X91788992Y-69342000D02*
X89730000Y-69342000D01*
X96084000Y-66984000D02*
X94990411Y-68077589D01*
X93053403Y-68077589D02*
X91788992Y-69342000D01*
X94990411Y-68077589D02*
X93053403Y-68077589D01*
X89730000Y-69342000D02*
X88726000Y-69342000D01*
X74850000Y-74168000D02*
X73846000Y-74168000D01*
X73846000Y-74168000D02*
X72395660Y-75618340D01*
X65069720Y-74863960D02*
X64516000Y-74863960D01*
X72395660Y-75618340D02*
X65824100Y-75618340D01*
X65824100Y-75618340D02*
X65069720Y-74863960D01*
X96854000Y-70984000D02*
X95265500Y-70984000D01*
X95265500Y-70984000D02*
X93859500Y-72390000D01*
X93859500Y-72390000D02*
X76728000Y-72390000D01*
X76728000Y-72390000D02*
X74950000Y-74168000D01*
X74950000Y-74168000D02*
X74850000Y-74168000D01*
X38785800Y-65786000D02*
X41402000Y-65786000D01*
X44196000Y-66647060D02*
X43446700Y-65897760D01*
X38674040Y-65897760D02*
X38785800Y-65786000D01*
X44196000Y-68072000D02*
X44196000Y-66647060D01*
X41402000Y-65786000D02*
X41910000Y-66294000D01*
X43446700Y-65897760D02*
X43246040Y-65897760D01*
X41910000Y-66294000D02*
X41910000Y-67818000D01*
X41910000Y-67818000D02*
X42418000Y-68326000D01*
X42418000Y-68326000D02*
X43942000Y-68326000D01*
X43942000Y-68326000D02*
X44196000Y-68072000D01*
X36830000Y-65532000D02*
X37338000Y-66040000D01*
X37338000Y-66040000D02*
X38531800Y-66040000D01*
X38531800Y-66040000D02*
X38674040Y-65897760D01*
X35445699Y-62115699D02*
X36576000Y-63246000D01*
X38706000Y-56257000D02*
X36858006Y-56257000D01*
X35674301Y-56019699D02*
X35445699Y-56248301D01*
X36858006Y-56257000D02*
X36620705Y-56019699D01*
X36620705Y-56019699D02*
X35674301Y-56019699D01*
X35445699Y-56248301D02*
X35445699Y-62115699D01*
X38206000Y-56257000D02*
X38706000Y-56257000D01*
X40573960Y-66548000D02*
X40573960Y-67101720D01*
X40573960Y-67101720D02*
X38079680Y-69596000D01*
X38079680Y-69596000D02*
X37766000Y-69596000D01*
X62484000Y-76200000D02*
X63253620Y-76200000D01*
X63761620Y-76708000D02*
X64516000Y-76708000D01*
X63253620Y-76200000D02*
X63761620Y-76708000D01*
X38706000Y-57557000D02*
X36169000Y-57557000D01*
X36169000Y-57557000D02*
X36068000Y-57658000D01*
X66415920Y-77358240D02*
X68263760Y-77358240D01*
X68263760Y-77358240D02*
X68834000Y-76788000D01*
X68834000Y-76788000D02*
X68834000Y-76888000D01*
X36322000Y-56642000D02*
X36664899Y-56984899D01*
X36664899Y-56984899D02*
X38628101Y-56984899D01*
X38628101Y-56984899D02*
X38706000Y-56907000D01*
X52324000Y-59944000D02*
X51816000Y-59944000D01*
X52991006Y-59944000D02*
X52324000Y-59944000D01*
X57546240Y-60525660D02*
X56964580Y-59944000D01*
X56964580Y-59944000D02*
X52991006Y-59944000D01*
X61026040Y-60055760D02*
X61026040Y-56708040D01*
X61026040Y-56708040D02*
X60706000Y-56388000D01*
X60706000Y-56388000D02*
X58674000Y-56388000D01*
X58674000Y-56388000D02*
X58420000Y-56642000D01*
X58420000Y-56642000D02*
X58420000Y-59651900D01*
X58420000Y-59651900D02*
X57546240Y-60525660D01*
X57546240Y-60525660D02*
X57546240Y-61280040D01*
X60786000Y-75692000D02*
X60786000Y-74788000D01*
X60786000Y-74788000D02*
X61660000Y-73914000D01*
X61660000Y-73914000D02*
X64416940Y-73914000D01*
X64416940Y-73914000D02*
X65166240Y-73164700D01*
X65166240Y-73164700D02*
X65166240Y-72964040D01*
X65166240Y-72964040D02*
X67810040Y-72964040D01*
X67810040Y-72964040D02*
X68834000Y-73988000D01*
X68834000Y-73988000D02*
X68834000Y-74088000D01*
X64090000Y-50546000D02*
X64262000Y-50546000D01*
X63688000Y-49360000D02*
X63688000Y-50144000D01*
X63688000Y-50144000D02*
X64090000Y-50546000D01*
X45585000Y-61457000D02*
X45466000Y-61457000D01*
X45466000Y-61457000D02*
X44606000Y-61457000D01*
X47498000Y-60706000D02*
X47013067Y-60706000D01*
X47013067Y-60706000D02*
X46262067Y-61457000D01*
X46262067Y-61457000D02*
X45466000Y-61457000D01*
X50027000Y-61457000D02*
X45585000Y-61457000D01*
X50466000Y-61722000D02*
X50292000Y-61722000D01*
X50292000Y-61722000D02*
X50027000Y-61457000D01*
X44617000Y-61468000D02*
X44606000Y-61457000D01*
X30956000Y-56307000D02*
X30956000Y-60928000D01*
X33020000Y-56642000D02*
X31291000Y-56642000D01*
X31291000Y-56642000D02*
X30956000Y-56307000D01*
X43627000Y-59507000D02*
X43180000Y-59060000D01*
X43180000Y-59060000D02*
X43180000Y-55372000D01*
X43180000Y-55372000D02*
X44361101Y-54190899D01*
X44361101Y-54190899D02*
X44704000Y-53848000D01*
X44606000Y-59507000D02*
X43627000Y-59507000D01*
X30956000Y-60928000D02*
X30956000Y-62057000D01*
X62045922Y-48260000D02*
X65277996Y-48260000D01*
X61788000Y-48517922D02*
X62045922Y-48260000D01*
X62045922Y-48260000D02*
X62738000Y-47567922D01*
X45235067Y-64262000D02*
X45720000Y-64262000D01*
X42926000Y-64262000D02*
X45235067Y-64262000D01*
X61788000Y-49360000D02*
X61788000Y-48517922D01*
X62738000Y-47567922D02*
X62738000Y-47160000D01*
X61788000Y-49360000D02*
X58824000Y-49360000D01*
X58824000Y-49360000D02*
X58674000Y-49510000D01*
X58674000Y-49510000D02*
X58674000Y-49022000D01*
X42316411Y-64871589D02*
X42926000Y-64262000D01*
X42316411Y-66469271D02*
X42316411Y-64871589D01*
X43045380Y-67198240D02*
X42316411Y-66469271D01*
X43246040Y-67198240D02*
X43045380Y-67198240D01*
X49276000Y-68580000D02*
X49199800Y-68580000D01*
X49199800Y-68580000D02*
X47818040Y-67198240D01*
X47818040Y-67198240D02*
X48018700Y-67198240D01*
X67592000Y-49530000D02*
X67592000Y-51034000D01*
X67457699Y-51168301D02*
X63762301Y-51168301D01*
X62738000Y-50144000D02*
X62738000Y-49360000D01*
X63762301Y-51168301D02*
X62738000Y-50144000D01*
X67592000Y-51034000D02*
X67457699Y-51168301D01*
G36*
X110649094Y-30467888D02*
X111322293Y-30917707D01*
X111772112Y-31590906D01*
X111939000Y-32429911D01*
X111939000Y-76790089D01*
X111772112Y-77629094D01*
X111322293Y-78302293D01*
X110649094Y-78752112D01*
X109810089Y-78919000D01*
X26079911Y-78919000D01*
X25240906Y-78752112D01*
X24567707Y-78302293D01*
X24314693Y-77923631D01*
X26199567Y-77923631D01*
X26505858Y-78352998D01*
X26801861Y-78586682D01*
X27000200Y-78535695D01*
X27000200Y-77724000D01*
X26254883Y-77724000D01*
X26199567Y-77923631D01*
X24314693Y-77923631D01*
X24117888Y-77629094D01*
X23951000Y-76790089D01*
X23951000Y-76508369D01*
X26199567Y-76508369D01*
X26254883Y-76708000D01*
X27000200Y-76708000D01*
X27000200Y-75896305D01*
X27863800Y-75896305D01*
X27863800Y-76708000D01*
X27960000Y-76708000D01*
X27960000Y-77724000D01*
X27863800Y-77724000D01*
X27863800Y-78535695D01*
X28062139Y-78586682D01*
X28358142Y-78352998D01*
X28664433Y-77923631D01*
X28609118Y-77724002D01*
X28792690Y-77724002D01*
X28822140Y-77872057D01*
X29091935Y-78275834D01*
X29495712Y-78545629D01*
X29972000Y-78640369D01*
X30448288Y-78545629D01*
X30852065Y-78275834D01*
X31121860Y-77872057D01*
X31216600Y-77395769D01*
X31216600Y-77036231D01*
X31267400Y-77036231D01*
X31267400Y-77395769D01*
X31362140Y-77872057D01*
X31631935Y-78275834D01*
X32035712Y-78545629D01*
X32512000Y-78640369D01*
X32988288Y-78545629D01*
X33392065Y-78275834D01*
X33661860Y-77872057D01*
X33756600Y-77395769D01*
X33756600Y-77036231D01*
X33661860Y-76559943D01*
X33392065Y-76156166D01*
X32988288Y-75886371D01*
X32512000Y-75791631D01*
X32035712Y-75886371D01*
X31631935Y-76156166D01*
X31362140Y-76559943D01*
X31267400Y-77036231D01*
X31216600Y-77036231D01*
X31121860Y-76559943D01*
X30852065Y-76156166D01*
X30448288Y-75886371D01*
X29972000Y-75791631D01*
X29495712Y-75886371D01*
X29091935Y-76156166D01*
X28822140Y-76559943D01*
X28792690Y-76707998D01*
X28609118Y-76707998D01*
X28664433Y-76508369D01*
X28358142Y-76079002D01*
X28062139Y-75845318D01*
X27863800Y-75896305D01*
X27000200Y-75896305D01*
X26801861Y-75845318D01*
X26505858Y-76079002D01*
X26199567Y-76508369D01*
X23951000Y-76508369D01*
X23951000Y-62692000D01*
X25948000Y-62692000D01*
X25948000Y-63533047D01*
X26025338Y-63719758D01*
X26168241Y-63862661D01*
X26354952Y-63940000D01*
X26579000Y-63940000D01*
X26706000Y-63813000D01*
X26706000Y-62565000D01*
X27206000Y-62565000D01*
X27206000Y-63813000D01*
X27333000Y-63940000D01*
X27557048Y-63940000D01*
X27743759Y-63862661D01*
X27886662Y-63719758D01*
X27964000Y-63533047D01*
X27964000Y-62692000D01*
X27837000Y-62565000D01*
X27206000Y-62565000D01*
X26706000Y-62565000D01*
X26075000Y-62565000D01*
X25948000Y-62692000D01*
X23951000Y-62692000D01*
X23951000Y-60580953D01*
X25948000Y-60580953D01*
X25948000Y-61422000D01*
X26075000Y-61549000D01*
X26706000Y-61549000D01*
X26706000Y-60301000D01*
X27206000Y-60301000D01*
X27206000Y-61549000D01*
X27837000Y-61549000D01*
X27964000Y-61422000D01*
X27964000Y-60580953D01*
X27886662Y-60394242D01*
X27743759Y-60251339D01*
X27557048Y-60174000D01*
X27333000Y-60174000D01*
X27206000Y-60301000D01*
X26706000Y-60301000D01*
X26579000Y-60174000D01*
X26354952Y-60174000D01*
X26168241Y-60251339D01*
X26025338Y-60394242D01*
X25948000Y-60580953D01*
X23951000Y-60580953D01*
X23951000Y-56942000D01*
X25948000Y-56942000D01*
X25948000Y-57783047D01*
X26025338Y-57969758D01*
X26168241Y-58112661D01*
X26354952Y-58190000D01*
X26579000Y-58190000D01*
X26706000Y-58063000D01*
X26706000Y-56815000D01*
X27206000Y-56815000D01*
X27206000Y-58063000D01*
X27333000Y-58190000D01*
X27557048Y-58190000D01*
X27743759Y-58112661D01*
X27886662Y-57969758D01*
X27964000Y-57783047D01*
X27964000Y-56942000D01*
X27837000Y-56815000D01*
X27206000Y-56815000D01*
X26706000Y-56815000D01*
X26075000Y-56815000D01*
X25948000Y-56942000D01*
X23951000Y-56942000D01*
X23951000Y-54830953D01*
X25948000Y-54830953D01*
X25948000Y-55672000D01*
X26075000Y-55799000D01*
X26706000Y-55799000D01*
X26706000Y-54551000D01*
X27206000Y-54551000D01*
X27206000Y-55799000D01*
X27837000Y-55799000D01*
X27964000Y-55672000D01*
X27964000Y-54932000D01*
X30067536Y-54932000D01*
X30067536Y-57682000D01*
X30094103Y-57823190D01*
X30177546Y-57952865D01*
X30304866Y-58039859D01*
X30448000Y-58068844D01*
X30448000Y-60295041D01*
X30314810Y-60320103D01*
X30185135Y-60403546D01*
X30098141Y-60530866D01*
X30067536Y-60682000D01*
X30067536Y-63432000D01*
X30094103Y-63573190D01*
X30177546Y-63702865D01*
X30304866Y-63789859D01*
X30456000Y-63820464D01*
X31456000Y-63820464D01*
X31597190Y-63793897D01*
X31726865Y-63710454D01*
X31813859Y-63583134D01*
X31844464Y-63432000D01*
X31844464Y-60682000D01*
X31817897Y-60540810D01*
X31734454Y-60411135D01*
X31607134Y-60324141D01*
X31464000Y-60295156D01*
X31464000Y-58068959D01*
X31597190Y-58043897D01*
X31726865Y-57960454D01*
X31813859Y-57833134D01*
X31844464Y-57682000D01*
X31844464Y-57150000D01*
X32504257Y-57150000D01*
X32609408Y-57255335D01*
X32875376Y-57365774D01*
X33163361Y-57366025D01*
X33429521Y-57256050D01*
X33633335Y-57052592D01*
X33743774Y-56786624D01*
X33744025Y-56498639D01*
X33634050Y-56232479D01*
X33430592Y-56028665D01*
X33164624Y-55918226D01*
X32876639Y-55917975D01*
X32610479Y-56027950D01*
X32504243Y-56134000D01*
X31844464Y-56134000D01*
X31844464Y-54932000D01*
X31817897Y-54790810D01*
X31734454Y-54661135D01*
X31607134Y-54574141D01*
X31456000Y-54543536D01*
X30456000Y-54543536D01*
X30314810Y-54570103D01*
X30185135Y-54653546D01*
X30098141Y-54780866D01*
X30067536Y-54932000D01*
X27964000Y-54932000D01*
X27964000Y-54830953D01*
X27886662Y-54644242D01*
X27743759Y-54501339D01*
X27557048Y-54424000D01*
X27333000Y-54424000D01*
X27206000Y-54551000D01*
X26706000Y-54551000D01*
X26579000Y-54424000D01*
X26354952Y-54424000D01*
X26168241Y-54501339D01*
X26025338Y-54644242D01*
X25948000Y-54830953D01*
X23951000Y-54830953D01*
X23951000Y-40164000D01*
X25075536Y-40164000D01*
X25075536Y-44164000D01*
X25102103Y-44305190D01*
X25185546Y-44434865D01*
X25312866Y-44521859D01*
X25464000Y-44552464D01*
X33134044Y-44552464D01*
X34290000Y-45708420D01*
X34290000Y-62992000D01*
X34328669Y-63186403D01*
X34438790Y-63351210D01*
X34692790Y-63605210D01*
X35674301Y-64586722D01*
X35674301Y-65316200D01*
X35416639Y-65315975D01*
X35150479Y-65425950D01*
X34946665Y-65629408D01*
X34836226Y-65895376D01*
X34835975Y-66183361D01*
X34945950Y-66449521D01*
X35052000Y-66555757D01*
X35052000Y-70284000D01*
X35090669Y-70478403D01*
X35200790Y-70643210D01*
X36439580Y-71882000D01*
X36068000Y-71882000D01*
X35873597Y-71920669D01*
X35708790Y-72030790D01*
X34692790Y-73046790D01*
X34582669Y-73211597D01*
X34544000Y-73406000D01*
X34544000Y-75907560D01*
X34171935Y-76156166D01*
X33902140Y-76559943D01*
X33807400Y-77036231D01*
X33807400Y-77395769D01*
X33902140Y-77872057D01*
X34171935Y-78275834D01*
X34575712Y-78545629D01*
X35052000Y-78640369D01*
X35528288Y-78545629D01*
X35932065Y-78275834D01*
X36201860Y-77872057D01*
X36296600Y-77395769D01*
X36296600Y-77036231D01*
X36347400Y-77036231D01*
X36347400Y-77395769D01*
X36442140Y-77872057D01*
X36711935Y-78275834D01*
X37115712Y-78545629D01*
X37592000Y-78640369D01*
X38068288Y-78545629D01*
X38472065Y-78275834D01*
X38741860Y-77872057D01*
X38836600Y-77395769D01*
X38836600Y-77036231D01*
X38741860Y-76559943D01*
X38472065Y-76156166D01*
X38068288Y-75886371D01*
X37592000Y-75791631D01*
X37115712Y-75886371D01*
X36711935Y-76156166D01*
X36442140Y-76559943D01*
X36347400Y-77036231D01*
X36296600Y-77036231D01*
X36201860Y-76559943D01*
X35932065Y-76156166D01*
X35560000Y-75907560D01*
X35560000Y-73616420D01*
X36278420Y-72898000D01*
X36627536Y-72898000D01*
X36627536Y-73040000D01*
X36654103Y-73181190D01*
X36737546Y-73310865D01*
X36864866Y-73397859D01*
X37016000Y-73428464D01*
X38516000Y-73428464D01*
X38657190Y-73401897D01*
X38786865Y-73318454D01*
X38873859Y-73191134D01*
X38904464Y-73040000D01*
X38904464Y-71740000D01*
X38882882Y-71625302D01*
X39327536Y-72069957D01*
X39327536Y-73040000D01*
X39354103Y-73181190D01*
X39437546Y-73310865D01*
X39564866Y-73397859D01*
X39624000Y-73409834D01*
X39624000Y-75811536D01*
X39268400Y-75811536D01*
X39127210Y-75838103D01*
X38997535Y-75921546D01*
X38910541Y-76048866D01*
X38879936Y-76200000D01*
X38879936Y-78232000D01*
X38906503Y-78373190D01*
X38989946Y-78502865D01*
X39117266Y-78589859D01*
X39268400Y-78620464D01*
X40995600Y-78620464D01*
X41136790Y-78593897D01*
X41266465Y-78510454D01*
X41353459Y-78383134D01*
X41384064Y-78232000D01*
X41384064Y-76200000D01*
X41357497Y-76058810D01*
X41274054Y-75929135D01*
X41146734Y-75842141D01*
X40995600Y-75811536D01*
X40640000Y-75811536D01*
X40640000Y-74186420D01*
X41234790Y-74781210D01*
X41399597Y-74891331D01*
X41594000Y-74930000D01*
X44093536Y-74930000D01*
X44093536Y-75047000D01*
X44120103Y-75188190D01*
X44203546Y-75317865D01*
X44330866Y-75404859D01*
X44482000Y-75435464D01*
X45982000Y-75435464D01*
X46123190Y-75408897D01*
X46252865Y-75325454D01*
X46339859Y-75198134D01*
X46370464Y-75047000D01*
X46370464Y-74861500D01*
X46474000Y-74861500D01*
X46474000Y-75148048D01*
X46551339Y-75334759D01*
X46694242Y-75477662D01*
X46880953Y-75555000D01*
X47230000Y-75555000D01*
X47357000Y-75428000D01*
X47357000Y-74734500D01*
X48107000Y-74734500D01*
X48107000Y-75428000D01*
X48234000Y-75555000D01*
X48583047Y-75555000D01*
X48769758Y-75477662D01*
X48912661Y-75334759D01*
X48990000Y-75148048D01*
X48990000Y-74861500D01*
X49562000Y-74861500D01*
X49562000Y-75148048D01*
X49639339Y-75334759D01*
X49782242Y-75477662D01*
X49968953Y-75555000D01*
X50318000Y-75555000D01*
X50445000Y-75428000D01*
X50445000Y-74734500D01*
X51195000Y-74734500D01*
X51195000Y-75428000D01*
X51322000Y-75555000D01*
X51671047Y-75555000D01*
X51857758Y-75477662D01*
X52000661Y-75334759D01*
X52078000Y-75148048D01*
X52078000Y-74861500D01*
X51951000Y-74734500D01*
X51195000Y-74734500D01*
X50445000Y-74734500D01*
X49689000Y-74734500D01*
X49562000Y-74861500D01*
X48990000Y-74861500D01*
X48863000Y-74734500D01*
X48107000Y-74734500D01*
X47357000Y-74734500D01*
X46601000Y-74734500D01*
X46474000Y-74861500D01*
X46370464Y-74861500D01*
X46370464Y-73797000D01*
X46351451Y-73695952D01*
X46474000Y-73695952D01*
X46474000Y-73982500D01*
X46601000Y-74109500D01*
X47357000Y-74109500D01*
X47357000Y-73416000D01*
X48107000Y-73416000D01*
X48107000Y-74109500D01*
X48863000Y-74109500D01*
X48990000Y-73982500D01*
X48990000Y-73695952D01*
X49562000Y-73695952D01*
X49562000Y-73982500D01*
X49689000Y-74109500D01*
X50445000Y-74109500D01*
X50445000Y-73416000D01*
X51195000Y-73416000D01*
X51195000Y-74109500D01*
X51951000Y-74109500D01*
X52078000Y-73982500D01*
X52078000Y-73695952D01*
X52000661Y-73509241D01*
X51857758Y-73366338D01*
X51671047Y-73289000D01*
X51322000Y-73289000D01*
X51195000Y-73416000D01*
X50445000Y-73416000D01*
X50318000Y-73289000D01*
X49968953Y-73289000D01*
X49782242Y-73366338D01*
X49639339Y-73509241D01*
X49562000Y-73695952D01*
X48990000Y-73695952D01*
X48912661Y-73509241D01*
X48769758Y-73366338D01*
X48583047Y-73289000D01*
X48234000Y-73289000D01*
X48107000Y-73416000D01*
X47357000Y-73416000D01*
X47230000Y-73289000D01*
X46880953Y-73289000D01*
X46694242Y-73366338D01*
X46551339Y-73509241D01*
X46474000Y-73695952D01*
X46351451Y-73695952D01*
X46343897Y-73655810D01*
X46260454Y-73526135D01*
X46133134Y-73439141D01*
X45982000Y-73408536D01*
X44482000Y-73408536D01*
X44340810Y-73435103D01*
X44211135Y-73518546D01*
X44124141Y-73645866D01*
X44093536Y-73797000D01*
X44093536Y-73914000D01*
X41804420Y-73914000D01*
X41302591Y-73412171D01*
X41357190Y-73401897D01*
X41486865Y-73318454D01*
X41573859Y-73191134D01*
X41604464Y-73040000D01*
X41604464Y-71740000D01*
X41577897Y-71598810D01*
X41494454Y-71469135D01*
X41367134Y-71382141D01*
X41216000Y-71351536D01*
X40045957Y-71351536D01*
X39201210Y-70506790D01*
X39036403Y-70396669D01*
X38880243Y-70365607D01*
X38904464Y-70246000D01*
X38904464Y-69489636D01*
X39327536Y-69066564D01*
X39327536Y-70246000D01*
X39354103Y-70387190D01*
X39437546Y-70516865D01*
X39564866Y-70603859D01*
X39716000Y-70634464D01*
X41216000Y-70634464D01*
X41357190Y-70607897D01*
X41486865Y-70524454D01*
X41573859Y-70397134D01*
X41604464Y-70246000D01*
X41604464Y-70104000D01*
X42207580Y-70104000D01*
X42820790Y-70717210D01*
X42985597Y-70827331D01*
X43180000Y-70866000D01*
X44093536Y-70866000D01*
X44093536Y-70983000D01*
X44120103Y-71124190D01*
X44203546Y-71253865D01*
X44330866Y-71340859D01*
X44482000Y-71371464D01*
X45982000Y-71371464D01*
X46123190Y-71344897D01*
X46252865Y-71261454D01*
X46339859Y-71134134D01*
X46370464Y-70983000D01*
X46370464Y-70797500D01*
X46474000Y-70797500D01*
X46474000Y-71084048D01*
X46551339Y-71270759D01*
X46694242Y-71413662D01*
X46880953Y-71491000D01*
X47230000Y-71491000D01*
X47357000Y-71364000D01*
X47357000Y-70670500D01*
X48107000Y-70670500D01*
X48107000Y-71364000D01*
X48234000Y-71491000D01*
X48583047Y-71491000D01*
X48769758Y-71413662D01*
X48912661Y-71270759D01*
X48990000Y-71084048D01*
X48990000Y-70810000D01*
X49462000Y-70810000D01*
X49462000Y-71109048D01*
X49539339Y-71295759D01*
X49682242Y-71438662D01*
X49868953Y-71516000D01*
X50218000Y-71516000D01*
X50345000Y-71389000D01*
X50345000Y-70683000D01*
X51095000Y-70683000D01*
X51095000Y-71389000D01*
X51222000Y-71516000D01*
X51571047Y-71516000D01*
X51757758Y-71438662D01*
X51900661Y-71295759D01*
X51978000Y-71109048D01*
X51978000Y-70810000D01*
X51851000Y-70683000D01*
X51095000Y-70683000D01*
X50345000Y-70683000D01*
X49589000Y-70683000D01*
X49462000Y-70810000D01*
X48990000Y-70810000D01*
X48990000Y-70797500D01*
X48863000Y-70670500D01*
X48107000Y-70670500D01*
X47357000Y-70670500D01*
X46601000Y-70670500D01*
X46474000Y-70797500D01*
X46370464Y-70797500D01*
X46370464Y-69733000D01*
X46351451Y-69631952D01*
X46474000Y-69631952D01*
X46474000Y-69918500D01*
X46601000Y-70045500D01*
X47357000Y-70045500D01*
X47357000Y-69352000D01*
X48107000Y-69352000D01*
X48107000Y-70045500D01*
X48863000Y-70045500D01*
X48990000Y-69918500D01*
X48990000Y-69631952D01*
X48979645Y-69606952D01*
X49462000Y-69606952D01*
X49462000Y-69906000D01*
X49589000Y-70033000D01*
X50345000Y-70033000D01*
X50345000Y-69327000D01*
X51095000Y-69327000D01*
X51095000Y-70033000D01*
X51851000Y-70033000D01*
X51978000Y-69906000D01*
X51978000Y-69606952D01*
X51900661Y-69420241D01*
X51757758Y-69277338D01*
X51571047Y-69200000D01*
X51222000Y-69200000D01*
X51095000Y-69327000D01*
X50345000Y-69327000D01*
X50218000Y-69200000D01*
X49868953Y-69200000D01*
X49682242Y-69277338D01*
X49539339Y-69420241D01*
X49462000Y-69606952D01*
X48979645Y-69606952D01*
X48912661Y-69445241D01*
X48769758Y-69302338D01*
X48583047Y-69225000D01*
X48234000Y-69225000D01*
X48107000Y-69352000D01*
X47357000Y-69352000D01*
X47230000Y-69225000D01*
X46880953Y-69225000D01*
X46694242Y-69302338D01*
X46551339Y-69445241D01*
X46474000Y-69631952D01*
X46351451Y-69631952D01*
X46343897Y-69591810D01*
X46260454Y-69462135D01*
X46133134Y-69375141D01*
X45982000Y-69344536D01*
X45740000Y-69344536D01*
X45740000Y-67218560D01*
X45787530Y-67209617D01*
X45917205Y-67126174D01*
X46004199Y-66998854D01*
X46034804Y-66847720D01*
X46034804Y-66405760D01*
X46998934Y-66405760D01*
X47039206Y-66468345D01*
X47157242Y-66548996D01*
X47046795Y-66620066D01*
X46959801Y-66747386D01*
X46929196Y-66898520D01*
X46929196Y-67497960D01*
X46955763Y-67639150D01*
X47039206Y-67768825D01*
X47166526Y-67855819D01*
X47317660Y-67886424D01*
X47787804Y-67886424D01*
X48552038Y-68650658D01*
X48551975Y-68723361D01*
X48661950Y-68989521D01*
X48865408Y-69193335D01*
X49131376Y-69303774D01*
X49419361Y-69304025D01*
X49685521Y-69194050D01*
X49889335Y-68990592D01*
X49999774Y-68724624D01*
X50000025Y-68436639D01*
X49890050Y-68170479D01*
X49686592Y-67966665D01*
X49420624Y-67856226D01*
X49194249Y-67856029D01*
X48706884Y-67368664D01*
X48706884Y-66898520D01*
X48680317Y-66757330D01*
X48596874Y-66627655D01*
X48478838Y-66547004D01*
X48589285Y-66475934D01*
X48676279Y-66348614D01*
X48706884Y-66197480D01*
X48706884Y-65598040D01*
X48680317Y-65456850D01*
X48596874Y-65327175D01*
X48469554Y-65240181D01*
X48318420Y-65209576D01*
X47317660Y-65209576D01*
X47176470Y-65236143D01*
X47046795Y-65319586D01*
X46998847Y-65389760D01*
X45242480Y-65389760D01*
X45048077Y-65428429D01*
X44883270Y-65538550D01*
X44786750Y-65635070D01*
X44676629Y-65799877D01*
X44664706Y-65859816D01*
X44645580Y-65859816D01*
X44504390Y-65886383D01*
X44374715Y-65969826D01*
X44318889Y-66051529D01*
X44134884Y-65867524D01*
X44134884Y-65598040D01*
X44108317Y-65456850D01*
X44024874Y-65327175D01*
X43897554Y-65240181D01*
X43746420Y-65209576D01*
X42824411Y-65209576D01*
X42824411Y-65082009D01*
X43136420Y-64770000D01*
X45204257Y-64770000D01*
X45309408Y-64875335D01*
X45575376Y-64985774D01*
X45863361Y-64986025D01*
X45937237Y-64955500D01*
X49308000Y-64955500D01*
X49308000Y-65242048D01*
X49385339Y-65428759D01*
X49528242Y-65571662D01*
X49714953Y-65649000D01*
X50064000Y-65649000D01*
X50191000Y-65522000D01*
X50191000Y-64828500D01*
X50941000Y-64828500D01*
X50941000Y-65522000D01*
X51068000Y-65649000D01*
X51417047Y-65649000D01*
X51603758Y-65571662D01*
X51746661Y-65428759D01*
X51824000Y-65242048D01*
X51824000Y-64955500D01*
X51697000Y-64828500D01*
X50941000Y-64828500D01*
X50191000Y-64828500D01*
X49435000Y-64828500D01*
X49308000Y-64955500D01*
X45937237Y-64955500D01*
X46129521Y-64876050D01*
X46333335Y-64672592D01*
X46443774Y-64406624D01*
X46444025Y-64118639D01*
X46334050Y-63852479D01*
X46271633Y-63789952D01*
X49308000Y-63789952D01*
X49308000Y-64076500D01*
X49435000Y-64203500D01*
X50191000Y-64203500D01*
X50191000Y-63510000D01*
X50941000Y-63510000D01*
X50941000Y-64203500D01*
X51697000Y-64203500D01*
X51824000Y-64076500D01*
X51824000Y-63891000D01*
X51927536Y-63891000D01*
X51927536Y-65141000D01*
X51954103Y-65282190D01*
X52037546Y-65411865D01*
X52164866Y-65498859D01*
X52316000Y-65529464D01*
X53816000Y-65529464D01*
X53957190Y-65502897D01*
X54086865Y-65419454D01*
X54173859Y-65292134D01*
X54204464Y-65141000D01*
X54204464Y-63891000D01*
X54177897Y-63749810D01*
X54094454Y-63620135D01*
X53967134Y-63533141D01*
X53816000Y-63502536D01*
X53674000Y-63502536D01*
X53674000Y-62760464D01*
X53916000Y-62760464D01*
X54057190Y-62733897D01*
X54186865Y-62650454D01*
X54273859Y-62523134D01*
X54304464Y-62372000D01*
X54304464Y-61657230D01*
X55438040Y-61657230D01*
X55438040Y-61881468D01*
X55515379Y-62068179D01*
X55658282Y-62211082D01*
X55844993Y-62288420D01*
X55968900Y-62288420D01*
X56095900Y-62161420D01*
X56095900Y-61530230D01*
X55565040Y-61530230D01*
X55438040Y-61657230D01*
X54304464Y-61657230D01*
X54304464Y-61072000D01*
X54277897Y-60930810D01*
X54194454Y-60801135D01*
X54067134Y-60714141D01*
X53916000Y-60683536D01*
X52416000Y-60683536D01*
X52274810Y-60710103D01*
X52145135Y-60793546D01*
X52058141Y-60920866D01*
X52027536Y-61072000D01*
X52027536Y-62372000D01*
X52054103Y-62513190D01*
X52137546Y-62642865D01*
X52264866Y-62729859D01*
X52416000Y-62760464D01*
X52658000Y-62760464D01*
X52658000Y-63502536D01*
X52316000Y-63502536D01*
X52174810Y-63529103D01*
X52045135Y-63612546D01*
X51958141Y-63739866D01*
X51927536Y-63891000D01*
X51824000Y-63891000D01*
X51824000Y-63789952D01*
X51746661Y-63603241D01*
X51603758Y-63460338D01*
X51417047Y-63383000D01*
X51068000Y-63383000D01*
X50941000Y-63510000D01*
X50191000Y-63510000D01*
X50064000Y-63383000D01*
X49714953Y-63383000D01*
X49528242Y-63460338D01*
X49385339Y-63603241D01*
X49308000Y-63789952D01*
X46271633Y-63789952D01*
X46130592Y-63648665D01*
X45864624Y-63538226D01*
X45576639Y-63537975D01*
X45310479Y-63647950D01*
X45204243Y-63754000D01*
X42926000Y-63754000D01*
X42731597Y-63792669D01*
X42566790Y-63902790D01*
X41957201Y-64512379D01*
X41847080Y-64677186D01*
X41808411Y-64871589D01*
X41808411Y-65473991D01*
X41761210Y-65426790D01*
X41596403Y-65316669D01*
X41402000Y-65278000D01*
X40964000Y-65278000D01*
X41158403Y-65239331D01*
X41323210Y-65129210D01*
X43757055Y-62695365D01*
X43881000Y-62720464D01*
X45331000Y-62720464D01*
X45472190Y-62693897D01*
X45601865Y-62610454D01*
X45688859Y-62483134D01*
X45719464Y-62332000D01*
X45719464Y-61965000D01*
X49327536Y-61965000D01*
X49327536Y-62372000D01*
X49354103Y-62513190D01*
X49437546Y-62642865D01*
X49564866Y-62729859D01*
X49716000Y-62760464D01*
X51216000Y-62760464D01*
X51357190Y-62733897D01*
X51486865Y-62650454D01*
X51573859Y-62523134D01*
X51604464Y-62372000D01*
X51604464Y-61072000D01*
X51577897Y-60930810D01*
X51494454Y-60801135D01*
X51367134Y-60714141D01*
X51216000Y-60683536D01*
X49716000Y-60683536D01*
X49574810Y-60710103D01*
X49445135Y-60793546D01*
X49358141Y-60920866D01*
X49352444Y-60949000D01*
X48180925Y-60949000D01*
X48221774Y-60850624D01*
X48222025Y-60562639D01*
X48112050Y-60296479D01*
X47908592Y-60092665D01*
X47642624Y-59982226D01*
X47354639Y-59981975D01*
X47088479Y-60091950D01*
X46974573Y-60205657D01*
X46850917Y-60230254D01*
X46818663Y-60236669D01*
X46653856Y-60346790D01*
X46051647Y-60949000D01*
X45719464Y-60949000D01*
X45719464Y-60582000D01*
X45699957Y-60478330D01*
X45719464Y-60382000D01*
X45719464Y-59932000D01*
X45699957Y-59828330D01*
X45719464Y-59732000D01*
X45719464Y-59282000D01*
X45699957Y-59178330D01*
X45719464Y-59082000D01*
X45719464Y-58715000D01*
X51775000Y-58715000D01*
X51969403Y-58676331D01*
X52134210Y-58566210D01*
X54402479Y-56297942D01*
X54503950Y-56543521D01*
X54707408Y-56747335D01*
X54973376Y-56857774D01*
X55261361Y-56858025D01*
X55527521Y-56748050D01*
X55731335Y-56544592D01*
X55841774Y-56278624D01*
X55841905Y-56128515D01*
X56852421Y-55118000D01*
X62663279Y-55118000D01*
X62635536Y-55255000D01*
X62635536Y-56505000D01*
X62662103Y-56646190D01*
X62745546Y-56775865D01*
X62872866Y-56862859D01*
X63024000Y-56893464D01*
X63795044Y-56893464D01*
X67686080Y-60784500D01*
X63414790Y-65055790D01*
X63304669Y-65220597D01*
X63292746Y-65280536D01*
X63024000Y-65280536D01*
X62882810Y-65307103D01*
X62753135Y-65390546D01*
X62666141Y-65517866D01*
X62635536Y-65669000D01*
X62635536Y-66743116D01*
X62230000Y-66337580D01*
X62230000Y-63202420D01*
X63285171Y-62147250D01*
X63395291Y-61982443D01*
X63433960Y-61788040D01*
X63433960Y-61392750D01*
X63567530Y-61367617D01*
X63697205Y-61284174D01*
X63784199Y-61156854D01*
X63814804Y-61005720D01*
X63814804Y-60406280D01*
X63788237Y-60265090D01*
X63704794Y-60135415D01*
X63577474Y-60048421D01*
X63426340Y-60017816D01*
X62425580Y-60017816D01*
X62284390Y-60044383D01*
X62154715Y-60127826D01*
X62067721Y-60255146D01*
X62037116Y-60406280D01*
X62037116Y-61005720D01*
X62063683Y-61146910D01*
X62147126Y-61276585D01*
X62274446Y-61363579D01*
X62417960Y-61392641D01*
X62417960Y-61577619D01*
X61362790Y-62632790D01*
X61252669Y-62797597D01*
X61214000Y-62992000D01*
X61214000Y-63467380D01*
X61028424Y-63281804D01*
X61028424Y-62811660D01*
X61001857Y-62670470D01*
X60918414Y-62540795D01*
X60791094Y-62453801D01*
X60639960Y-62423196D01*
X60198000Y-62423196D01*
X60198000Y-62046720D01*
X60237901Y-62086621D01*
X60424612Y-62163960D01*
X60648850Y-62163960D01*
X60775850Y-62036960D01*
X60775850Y-61506100D01*
X61276230Y-61506100D01*
X61276230Y-62036960D01*
X61403230Y-62163960D01*
X61627468Y-62163960D01*
X61814179Y-62086621D01*
X61957082Y-61943718D01*
X62034420Y-61757007D01*
X62034420Y-61633100D01*
X61907420Y-61506100D01*
X61276230Y-61506100D01*
X60775850Y-61506100D01*
X60525660Y-61506100D01*
X60525660Y-61206380D01*
X60775850Y-61206380D01*
X60775850Y-61056520D01*
X61276230Y-61056520D01*
X61276230Y-61206380D01*
X61907420Y-61206380D01*
X62034420Y-61079380D01*
X62034420Y-60955473D01*
X61957082Y-60768762D01*
X61814179Y-60625859D01*
X61805312Y-60622186D01*
X61884279Y-60506614D01*
X61914884Y-60355480D01*
X61914884Y-59756040D01*
X61888317Y-59614850D01*
X61804874Y-59485175D01*
X61677554Y-59398181D01*
X61534040Y-59369119D01*
X61534040Y-56708040D01*
X61495371Y-56513637D01*
X61385250Y-56348830D01*
X61065210Y-56028790D01*
X60900403Y-55918669D01*
X60706000Y-55880000D01*
X58674000Y-55880000D01*
X58511850Y-55912254D01*
X58479596Y-55918669D01*
X58314790Y-56028790D01*
X58060790Y-56282790D01*
X57950669Y-56447597D01*
X57912000Y-56642000D01*
X57912000Y-56644536D01*
X56420000Y-56644536D01*
X56278810Y-56671103D01*
X56149135Y-56754546D01*
X56062141Y-56881866D01*
X56031536Y-57033000D01*
X56031536Y-57150000D01*
X55379743Y-57150000D01*
X55274592Y-57044665D01*
X55008624Y-56934226D01*
X54720639Y-56933975D01*
X54454479Y-57043950D01*
X54250665Y-57247408D01*
X54140226Y-57513376D01*
X54139975Y-57801361D01*
X54249950Y-58067521D01*
X54453408Y-58271335D01*
X54719376Y-58381774D01*
X55007361Y-58382025D01*
X55273521Y-58272050D01*
X55379757Y-58166000D01*
X56031536Y-58166000D01*
X56031536Y-58283000D01*
X56058103Y-58424190D01*
X56141546Y-58553865D01*
X56268866Y-58640859D01*
X56420000Y-58671464D01*
X57912000Y-58671464D01*
X57912000Y-59441480D01*
X57546240Y-59807240D01*
X57323790Y-59584790D01*
X57158983Y-59474669D01*
X56964580Y-59436000D01*
X52331743Y-59436000D01*
X52226592Y-59330665D01*
X51960624Y-59220226D01*
X51672639Y-59219975D01*
X51406479Y-59329950D01*
X51202665Y-59533408D01*
X51092226Y-59799376D01*
X51091975Y-60087361D01*
X51201950Y-60353521D01*
X51405408Y-60557335D01*
X51671376Y-60667774D01*
X51959361Y-60668025D01*
X52225521Y-60558050D01*
X52331757Y-60452000D01*
X55555280Y-60452000D01*
X55515379Y-60491901D01*
X55438040Y-60678612D01*
X55438040Y-60902850D01*
X55565040Y-61029850D01*
X56095900Y-61029850D01*
X56095900Y-60779660D01*
X56395620Y-60779660D01*
X56395620Y-61029850D01*
X56545480Y-61029850D01*
X56545480Y-61530230D01*
X56395620Y-61530230D01*
X56395620Y-62161420D01*
X56522620Y-62288420D01*
X56646527Y-62288420D01*
X56833238Y-62211082D01*
X56976141Y-62068179D01*
X56979814Y-62059312D01*
X57095386Y-62138279D01*
X57246520Y-62168884D01*
X57845960Y-62168884D01*
X57987150Y-62142317D01*
X58116825Y-62058874D01*
X58203819Y-61931554D01*
X58234424Y-61780420D01*
X58234424Y-60779660D01*
X58207857Y-60638470D01*
X58185928Y-60604392D01*
X58779210Y-60011110D01*
X58889331Y-59846304D01*
X58912067Y-59732000D01*
X58928000Y-59651900D01*
X58928000Y-58671464D01*
X59182000Y-58671464D01*
X59182000Y-64392854D01*
X59119415Y-64433126D01*
X59032421Y-64560446D01*
X59001816Y-64711580D01*
X59001816Y-65712340D01*
X59028383Y-65853530D01*
X59111826Y-65983205D01*
X59239146Y-66070199D01*
X59390280Y-66100804D01*
X59989720Y-66100804D01*
X60130910Y-66074237D01*
X60260585Y-65990794D01*
X60347579Y-65863474D01*
X60378184Y-65712340D01*
X60378184Y-64711580D01*
X60351617Y-64570390D01*
X60268174Y-64440715D01*
X60198000Y-64392767D01*
X60198000Y-64200884D01*
X60510664Y-64200884D01*
X60706000Y-64396220D01*
X60706000Y-67310000D01*
X60744669Y-67504403D01*
X60854790Y-67669210D01*
X61003580Y-67818000D01*
X60916420Y-67818000D01*
X57404000Y-64305580D01*
X57404000Y-63999066D01*
X57466585Y-63958794D01*
X57553579Y-63831474D01*
X57582383Y-63689230D01*
X58232040Y-63689230D01*
X58232040Y-63913468D01*
X58309379Y-64100179D01*
X58452282Y-64243082D01*
X58638993Y-64320420D01*
X58762900Y-64320420D01*
X58889900Y-64193420D01*
X58889900Y-63562230D01*
X58359040Y-63562230D01*
X58232040Y-63689230D01*
X57582383Y-63689230D01*
X57584184Y-63680340D01*
X57584184Y-62710612D01*
X58232040Y-62710612D01*
X58232040Y-62934850D01*
X58359040Y-63061850D01*
X58889900Y-63061850D01*
X58889900Y-62430660D01*
X58762900Y-62303660D01*
X58638993Y-62303660D01*
X58452282Y-62380998D01*
X58309379Y-62523901D01*
X58232040Y-62710612D01*
X57584184Y-62710612D01*
X57584184Y-62679580D01*
X57557617Y-62538390D01*
X57474174Y-62408715D01*
X57346854Y-62321721D01*
X57195720Y-62291116D01*
X56596280Y-62291116D01*
X56455090Y-62317683D01*
X56325415Y-62401126D01*
X56238421Y-62528446D01*
X56207816Y-62679580D01*
X56207816Y-63680340D01*
X56234383Y-63821530D01*
X56317826Y-63951205D01*
X56388000Y-63999153D01*
X56388000Y-64516000D01*
X56426669Y-64710403D01*
X56536790Y-64875210D01*
X60346790Y-68685210D01*
X60511597Y-68795331D01*
X60706000Y-68834000D01*
X62516000Y-68834000D01*
X62516000Y-68902500D01*
X62643000Y-69029500D01*
X63399000Y-69029500D01*
X63399000Y-68834000D01*
X64149000Y-68834000D01*
X64149000Y-69029500D01*
X64905000Y-69029500D01*
X65032000Y-68902500D01*
X65032000Y-68834000D01*
X65135536Y-68834000D01*
X65135536Y-69967000D01*
X65162103Y-70108190D01*
X65245546Y-70237865D01*
X65372866Y-70324859D01*
X65524000Y-70355464D01*
X65792746Y-70355464D01*
X65804669Y-70415403D01*
X65914790Y-70580210D01*
X66708579Y-71374000D01*
X64747140Y-71374000D01*
X64552737Y-71412669D01*
X64387930Y-71522789D01*
X63835524Y-72075196D01*
X63566040Y-72075196D01*
X63424850Y-72101763D01*
X63295175Y-72185206D01*
X63277498Y-72211078D01*
X62843210Y-71776790D01*
X62678403Y-71666669D01*
X62484000Y-71628000D01*
X61824464Y-71628000D01*
X61824464Y-71511000D01*
X61797897Y-71369810D01*
X61714454Y-71240135D01*
X61587134Y-71153141D01*
X61436000Y-71122536D01*
X59936000Y-71122536D01*
X59794810Y-71149103D01*
X59665135Y-71232546D01*
X59578141Y-71359866D01*
X59547536Y-71511000D01*
X59547536Y-72761000D01*
X59558470Y-72819110D01*
X59393418Y-72984162D01*
X59444000Y-72862048D01*
X59444000Y-72575500D01*
X59317000Y-72448500D01*
X58561000Y-72448500D01*
X58561000Y-73142000D01*
X58688000Y-73269000D01*
X59037047Y-73269000D01*
X59159161Y-73218419D01*
X57726790Y-74650790D01*
X57724955Y-74653536D01*
X57336000Y-74653536D01*
X57194810Y-74680103D01*
X57065135Y-74763546D01*
X56978141Y-74890866D01*
X56947536Y-75042000D01*
X56947536Y-76342000D01*
X56974103Y-76483190D01*
X57057546Y-76612865D01*
X57184866Y-76699859D01*
X57336000Y-76730464D01*
X58836000Y-76730464D01*
X58977190Y-76703897D01*
X59106865Y-76620454D01*
X59193859Y-76493134D01*
X59224464Y-76342000D01*
X59224464Y-75042000D01*
X59197897Y-74900810D01*
X59114454Y-74771135D01*
X59072174Y-74742246D01*
X60664956Y-73149464D01*
X61436000Y-73149464D01*
X61577190Y-73122897D01*
X61706865Y-73039454D01*
X61793859Y-72912134D01*
X61824464Y-72761000D01*
X61824464Y-72644000D01*
X62273580Y-72644000D01*
X62886790Y-73257210D01*
X63051597Y-73367331D01*
X63177576Y-73392390D01*
X63177576Y-73406000D01*
X61660000Y-73406000D01*
X61465597Y-73444669D01*
X61300790Y-73554790D01*
X60426790Y-74428790D01*
X60316669Y-74593597D01*
X60304746Y-74653536D01*
X60036000Y-74653536D01*
X59894810Y-74680103D01*
X59765135Y-74763546D01*
X59678141Y-74890866D01*
X59647536Y-75042000D01*
X59647536Y-76342000D01*
X59674103Y-76483190D01*
X59757546Y-76612865D01*
X59884866Y-76699859D01*
X60036000Y-76730464D01*
X61536000Y-76730464D01*
X61677190Y-76703897D01*
X61806865Y-76620454D01*
X61848992Y-76558799D01*
X61869950Y-76609521D01*
X62073408Y-76813335D01*
X62339376Y-76923774D01*
X62627361Y-76924025D01*
X62893521Y-76814050D01*
X62999757Y-76708000D01*
X63043200Y-76708000D01*
X63402409Y-77067210D01*
X63505964Y-77136403D01*
X63567217Y-77177331D01*
X63687393Y-77201235D01*
X63737166Y-77278585D01*
X63855202Y-77359236D01*
X63744755Y-77430306D01*
X63657761Y-77557626D01*
X63627156Y-77708760D01*
X63627156Y-77724000D01*
X54820421Y-77724000D01*
X53828000Y-76731580D01*
X53828000Y-75435464D01*
X54070000Y-75435464D01*
X54211190Y-75408897D01*
X54340865Y-75325454D01*
X54427859Y-75198134D01*
X54458464Y-75047000D01*
X54458464Y-73797000D01*
X54431897Y-73655810D01*
X54348454Y-73526135D01*
X54221134Y-73439141D01*
X54070000Y-73408536D01*
X53828000Y-73408536D01*
X53828000Y-72575500D01*
X56928000Y-72575500D01*
X56928000Y-72862048D01*
X57005339Y-73048759D01*
X57148242Y-73191662D01*
X57334953Y-73269000D01*
X57684000Y-73269000D01*
X57811000Y-73142000D01*
X57811000Y-72448500D01*
X57055000Y-72448500D01*
X56928000Y-72575500D01*
X53828000Y-72575500D01*
X53828000Y-71409952D01*
X56928000Y-71409952D01*
X56928000Y-71696500D01*
X57055000Y-71823500D01*
X57811000Y-71823500D01*
X57811000Y-71130000D01*
X58561000Y-71130000D01*
X58561000Y-71823500D01*
X59317000Y-71823500D01*
X59444000Y-71696500D01*
X59444000Y-71409952D01*
X59366661Y-71223241D01*
X59223758Y-71080338D01*
X59037047Y-71003000D01*
X58688000Y-71003000D01*
X58561000Y-71130000D01*
X57811000Y-71130000D01*
X57684000Y-71003000D01*
X57334953Y-71003000D01*
X57148242Y-71080338D01*
X57005339Y-71223241D01*
X56928000Y-71409952D01*
X53828000Y-71409952D01*
X53828000Y-71396464D01*
X54170000Y-71396464D01*
X54311190Y-71369897D01*
X54440865Y-71286454D01*
X54527859Y-71159134D01*
X54558464Y-71008000D01*
X54558464Y-69781500D01*
X62516000Y-69781500D01*
X62516000Y-70068048D01*
X62593339Y-70254759D01*
X62736242Y-70397662D01*
X62922953Y-70475000D01*
X63272000Y-70475000D01*
X63399000Y-70348000D01*
X63399000Y-69654500D01*
X64149000Y-69654500D01*
X64149000Y-70348000D01*
X64276000Y-70475000D01*
X64625047Y-70475000D01*
X64811758Y-70397662D01*
X64954661Y-70254759D01*
X65032000Y-70068048D01*
X65032000Y-69781500D01*
X64905000Y-69654500D01*
X64149000Y-69654500D01*
X63399000Y-69654500D01*
X62643000Y-69654500D01*
X62516000Y-69781500D01*
X54558464Y-69781500D01*
X54558464Y-69708000D01*
X54531897Y-69566810D01*
X54448454Y-69437135D01*
X54321134Y-69350141D01*
X54170000Y-69319536D01*
X53928000Y-69319536D01*
X53928000Y-68406000D01*
X53889331Y-68211597D01*
X53779210Y-68046790D01*
X51921210Y-66188790D01*
X51756403Y-66078669D01*
X51562000Y-66040000D01*
X50537066Y-66040000D01*
X50496794Y-65977415D01*
X50369474Y-65890421D01*
X50218340Y-65859816D01*
X49217580Y-65859816D01*
X49076390Y-65886383D01*
X48946715Y-65969826D01*
X48859721Y-66097146D01*
X48829116Y-66248280D01*
X48829116Y-66847720D01*
X48855683Y-66988910D01*
X48939126Y-67118585D01*
X49066446Y-67205579D01*
X49217580Y-67236184D01*
X50218340Y-67236184D01*
X50359530Y-67209617D01*
X50489205Y-67126174D01*
X50537153Y-67056000D01*
X51351580Y-67056000D01*
X52912000Y-68616420D01*
X52912000Y-69319536D01*
X52670000Y-69319536D01*
X52528810Y-69346103D01*
X52399135Y-69429546D01*
X52312141Y-69556866D01*
X52281536Y-69708000D01*
X52281536Y-71008000D01*
X52308103Y-71149190D01*
X52391546Y-71278865D01*
X52518866Y-71365859D01*
X52670000Y-71396464D01*
X52812000Y-71396464D01*
X52812000Y-73408536D01*
X52570000Y-73408536D01*
X52428810Y-73435103D01*
X52299135Y-73518546D01*
X52212141Y-73645866D01*
X52181536Y-73797000D01*
X52181536Y-75047000D01*
X52208103Y-75188190D01*
X52291546Y-75317865D01*
X52418866Y-75404859D01*
X52570000Y-75435464D01*
X52812000Y-75435464D01*
X52812000Y-76942000D01*
X52850669Y-77136403D01*
X52960790Y-77301210D01*
X54250789Y-78591210D01*
X54324361Y-78640369D01*
X54415597Y-78701331D01*
X54610000Y-78740000D01*
X71120000Y-78740000D01*
X71314403Y-78701331D01*
X71479210Y-78591210D01*
X74124420Y-75946000D01*
X82042000Y-75946000D01*
X82236403Y-75907331D01*
X82401210Y-75797210D01*
X83829420Y-74369000D01*
X98496000Y-74369000D01*
X98496000Y-75740047D01*
X98573338Y-75926758D01*
X98716241Y-76069661D01*
X98902952Y-76147000D01*
X99469000Y-76147000D01*
X99596000Y-76020000D01*
X99596000Y-74242000D01*
X100612000Y-74242000D01*
X100612000Y-76020000D01*
X100739000Y-76147000D01*
X101305048Y-76147000D01*
X101491759Y-76069661D01*
X101634662Y-75926758D01*
X101712000Y-75740047D01*
X101712000Y-74369000D01*
X101585000Y-74242000D01*
X100612000Y-74242000D01*
X99596000Y-74242000D01*
X98623000Y-74242000D01*
X98496000Y-74369000D01*
X83829420Y-74369000D01*
X84030420Y-74168000D01*
X97282000Y-74168000D01*
X97476403Y-74129331D01*
X97641210Y-74019210D01*
X98528710Y-73131710D01*
X98623000Y-73226000D01*
X99596000Y-73226000D01*
X99596000Y-71448000D01*
X100612000Y-71448000D01*
X100612000Y-73226000D01*
X101585000Y-73226000D01*
X101712000Y-73099000D01*
X101712000Y-71727953D01*
X101634662Y-71541242D01*
X101491759Y-71398339D01*
X101305048Y-71321000D01*
X100739000Y-71321000D01*
X100612000Y-71448000D01*
X99596000Y-71448000D01*
X99469000Y-71321000D01*
X98902952Y-71321000D01*
X98806000Y-71361159D01*
X98806000Y-68625078D01*
X98797850Y-68584103D01*
X98767331Y-68430674D01*
X98657210Y-68265868D01*
X98016132Y-67624790D01*
X97892464Y-67542157D01*
X97892464Y-67334000D01*
X97872957Y-67230330D01*
X97892464Y-67134000D01*
X97892464Y-66834000D01*
X97872957Y-66730330D01*
X97892464Y-66634000D01*
X97892464Y-66334000D01*
X97872957Y-66230330D01*
X97892464Y-66134000D01*
X97892464Y-65834000D01*
X97872957Y-65730330D01*
X97892464Y-65634000D01*
X97892464Y-65334000D01*
X97872957Y-65230330D01*
X97892464Y-65134000D01*
X97892464Y-64834000D01*
X97872957Y-64730330D01*
X97892464Y-64634000D01*
X97892464Y-64334000D01*
X97872957Y-64230330D01*
X97892464Y-64134000D01*
X97892464Y-63834000D01*
X97872957Y-63730330D01*
X97892464Y-63634000D01*
X97892464Y-63334000D01*
X97872957Y-63230330D01*
X97892464Y-63134000D01*
X97892464Y-62834000D01*
X97872957Y-62730330D01*
X97892464Y-62634000D01*
X97892464Y-62334000D01*
X97872957Y-62230330D01*
X97892464Y-62134000D01*
X97892464Y-61834000D01*
X97872957Y-61730330D01*
X97892464Y-61634000D01*
X97892464Y-61334000D01*
X97872957Y-61230330D01*
X97892464Y-61134000D01*
X97892464Y-60834000D01*
X97872957Y-60730330D01*
X97892464Y-60634000D01*
X97892464Y-60334000D01*
X97872957Y-60230330D01*
X97892464Y-60134000D01*
X97892464Y-59834000D01*
X97872957Y-59730330D01*
X97892464Y-59634000D01*
X97892464Y-59334000D01*
X97872957Y-59230330D01*
X97892464Y-59134000D01*
X97892464Y-58834000D01*
X97872957Y-58730330D01*
X97892464Y-58634000D01*
X97892464Y-58334000D01*
X97872957Y-58230330D01*
X97892464Y-58134000D01*
X97892464Y-57834000D01*
X97872957Y-57730330D01*
X97892464Y-57634000D01*
X97892464Y-57334000D01*
X97872957Y-57230330D01*
X97892464Y-57134000D01*
X97892464Y-56834000D01*
X97872957Y-56730330D01*
X97892464Y-56634000D01*
X97892464Y-56334000D01*
X97872957Y-56230330D01*
X97892464Y-56134000D01*
X97892464Y-55834000D01*
X97872957Y-55730330D01*
X97892464Y-55634000D01*
X97892464Y-55334000D01*
X97872957Y-55230330D01*
X97892464Y-55134000D01*
X97892464Y-54965254D01*
X97952403Y-54953331D01*
X98117210Y-54843210D01*
X98657210Y-54303210D01*
X98767331Y-54138404D01*
X98781999Y-54064661D01*
X98806000Y-53944000D01*
X98806000Y-53106841D01*
X98902952Y-53147000D01*
X99469000Y-53147000D01*
X99596000Y-53020000D01*
X99596000Y-51242000D01*
X100612000Y-51242000D01*
X100612000Y-53020000D01*
X100739000Y-53147000D01*
X101305048Y-53147000D01*
X101491759Y-53069661D01*
X101634662Y-52926758D01*
X101712000Y-52740047D01*
X101712000Y-51369000D01*
X101585000Y-51242000D01*
X100612000Y-51242000D01*
X99596000Y-51242000D01*
X98623000Y-51242000D01*
X98496000Y-51369000D01*
X98496000Y-51803580D01*
X98098388Y-51405968D01*
X97933581Y-51295847D01*
X97739178Y-51257178D01*
X68042105Y-51257178D01*
X68061331Y-51228404D01*
X68067746Y-51196150D01*
X68073254Y-51168464D01*
X68842000Y-51168464D01*
X68983190Y-51141897D01*
X69112865Y-51058454D01*
X69199859Y-50931134D01*
X69230464Y-50780000D01*
X69230464Y-48280000D01*
X69203897Y-48138810D01*
X69120454Y-48009135D01*
X68993134Y-47922141D01*
X68842000Y-47891536D01*
X66342000Y-47891536D01*
X66200810Y-47918103D01*
X66071135Y-48001546D01*
X65998431Y-48107951D01*
X65892046Y-47850479D01*
X65688588Y-47646665D01*
X65422620Y-47536226D01*
X65134635Y-47535975D01*
X64868475Y-47645950D01*
X64762239Y-47752000D01*
X64388909Y-47752000D01*
X64401464Y-47690000D01*
X64401464Y-47641254D01*
X64461403Y-47629331D01*
X64626210Y-47519210D01*
X65223920Y-46921500D01*
X66834000Y-46921500D01*
X66834000Y-47208048D01*
X66911339Y-47394759D01*
X67054242Y-47537662D01*
X67240953Y-47615000D01*
X67590000Y-47615000D01*
X67717000Y-47488000D01*
X67717000Y-46794500D01*
X68467000Y-46794500D01*
X68467000Y-47488000D01*
X68594000Y-47615000D01*
X68943047Y-47615000D01*
X69129758Y-47537662D01*
X69272661Y-47394759D01*
X69350000Y-47208048D01*
X69350000Y-46921500D01*
X69223000Y-46794500D01*
X68467000Y-46794500D01*
X67717000Y-46794500D01*
X66961000Y-46794500D01*
X66834000Y-46921500D01*
X65223920Y-46921500D01*
X66389468Y-45755952D01*
X66834000Y-45755952D01*
X66834000Y-46042500D01*
X66961000Y-46169500D01*
X67717000Y-46169500D01*
X67717000Y-45476000D01*
X68467000Y-45476000D01*
X68467000Y-46169500D01*
X69223000Y-46169500D01*
X69350000Y-46042500D01*
X69350000Y-45755952D01*
X69272661Y-45569241D01*
X69129758Y-45426338D01*
X68943047Y-45349000D01*
X68594000Y-45349000D01*
X68467000Y-45476000D01*
X67717000Y-45476000D01*
X67590000Y-45349000D01*
X67240953Y-45349000D01*
X67054242Y-45426338D01*
X66911339Y-45569241D01*
X66834000Y-45755952D01*
X66389468Y-45755952D01*
X69097536Y-43047884D01*
X69097536Y-44814000D01*
X69124103Y-44955190D01*
X69207546Y-45084865D01*
X69334866Y-45171859D01*
X69486000Y-45202464D01*
X70084000Y-45202464D01*
X70084000Y-45468536D01*
X69842000Y-45468536D01*
X69700810Y-45495103D01*
X69571135Y-45578546D01*
X69484141Y-45705866D01*
X69453536Y-45857000D01*
X69453536Y-47107000D01*
X69480103Y-47248190D01*
X69563546Y-47377865D01*
X69690866Y-47464859D01*
X69842000Y-47495464D01*
X70084000Y-47495464D01*
X70084000Y-47891536D01*
X69842000Y-47891536D01*
X69700810Y-47918103D01*
X69571135Y-48001546D01*
X69484141Y-48128866D01*
X69453536Y-48280000D01*
X69453536Y-50780000D01*
X69480103Y-50921190D01*
X69563546Y-51050865D01*
X69690866Y-51137859D01*
X69842000Y-51168464D01*
X72342000Y-51168464D01*
X72483190Y-51141897D01*
X72612865Y-51058454D01*
X72699859Y-50931134D01*
X72730464Y-50780000D01*
X72730464Y-48282177D01*
X79944243Y-48282177D01*
X80893025Y-49154502D01*
X83906985Y-50325697D01*
X85433731Y-50292000D01*
X102160000Y-50292000D01*
X102160000Y-74168000D01*
X102194711Y-74342504D01*
X102293559Y-74490441D01*
X102441496Y-74589289D01*
X102616000Y-74624000D01*
X106680000Y-74624000D01*
X106854504Y-74589289D01*
X107002441Y-74490441D01*
X107101289Y-74342504D01*
X107136000Y-74168000D01*
X107136000Y-50292000D01*
X107101289Y-50117496D01*
X107002441Y-49969559D01*
X106854504Y-49870711D01*
X106680000Y-49836000D01*
X102616000Y-49836000D01*
X102441496Y-49870711D01*
X102293559Y-49969559D01*
X102194711Y-50117496D01*
X102160000Y-50292000D01*
X85433731Y-50292000D01*
X87139717Y-50254347D01*
X89794975Y-49154502D01*
X90258909Y-48727953D01*
X98496000Y-48727953D01*
X98496000Y-50099000D01*
X98623000Y-50226000D01*
X99596000Y-50226000D01*
X99596000Y-48448000D01*
X100612000Y-48448000D01*
X100612000Y-50226000D01*
X101585000Y-50226000D01*
X101712000Y-50099000D01*
X101712000Y-48727953D01*
X101634662Y-48541242D01*
X101491759Y-48398339D01*
X101305048Y-48321000D01*
X100739000Y-48321000D01*
X100612000Y-48448000D01*
X99596000Y-48448000D01*
X99469000Y-48321000D01*
X98902952Y-48321000D01*
X98716241Y-48398339D01*
X98573338Y-48541242D01*
X98496000Y-48727953D01*
X90258909Y-48727953D01*
X90743757Y-48282177D01*
X85344000Y-42882420D01*
X79944243Y-48282177D01*
X72730464Y-48282177D01*
X72730464Y-48280000D01*
X72703897Y-48138810D01*
X72620454Y-48009135D01*
X72493134Y-47922141D01*
X72342000Y-47891536D01*
X71100000Y-47891536D01*
X71100000Y-47495464D01*
X71342000Y-47495464D01*
X71483190Y-47468897D01*
X71612865Y-47385454D01*
X71699859Y-47258134D01*
X71730464Y-47107000D01*
X71730464Y-45857000D01*
X71703897Y-45715810D01*
X71620454Y-45586135D01*
X71493134Y-45499141D01*
X71342000Y-45468536D01*
X71100000Y-45468536D01*
X71100000Y-45202464D01*
X74786000Y-45202464D01*
X74927190Y-45175897D01*
X75056865Y-45092454D01*
X75143859Y-44965134D01*
X75174464Y-44814000D01*
X75174464Y-40726985D01*
X77182303Y-40726985D01*
X77253653Y-43959717D01*
X78353498Y-46614975D01*
X79225823Y-47563757D01*
X84625580Y-42164000D01*
X86062420Y-42164000D01*
X91462177Y-47563757D01*
X92334502Y-46614975D01*
X93505697Y-43601015D01*
X93434347Y-40368283D01*
X92334502Y-37713025D01*
X91462177Y-36764243D01*
X86062420Y-42164000D01*
X84625580Y-42164000D01*
X79225823Y-36764243D01*
X78353498Y-37713025D01*
X77182303Y-40726985D01*
X75174464Y-40726985D01*
X75174464Y-39514000D01*
X75147897Y-39372810D01*
X75064454Y-39243135D01*
X74937134Y-39156141D01*
X74786000Y-39125536D01*
X72988884Y-39125536D01*
X76068597Y-36045823D01*
X79944243Y-36045823D01*
X85344000Y-41445580D01*
X90743757Y-36045823D01*
X89794975Y-35173498D01*
X86781015Y-34002303D01*
X83548283Y-34073653D01*
X80893025Y-35173498D01*
X79944243Y-36045823D01*
X76068597Y-36045823D01*
X79348421Y-32766000D01*
X91339580Y-32766000D01*
X97699115Y-39125536D01*
X95902000Y-39125536D01*
X95760810Y-39152103D01*
X95631135Y-39235546D01*
X95544141Y-39362866D01*
X95513536Y-39514000D01*
X95513536Y-44814000D01*
X95540103Y-44955190D01*
X95623546Y-45084865D01*
X95750866Y-45171859D01*
X95902000Y-45202464D01*
X101202000Y-45202464D01*
X101343190Y-45175897D01*
X101472865Y-45092454D01*
X101559859Y-44965134D01*
X101590464Y-44814000D01*
X101590464Y-39514000D01*
X101563897Y-39372810D01*
X101480454Y-39243135D01*
X101353134Y-39156141D01*
X101202000Y-39125536D01*
X99033254Y-39125536D01*
X99021331Y-39065597D01*
X99021331Y-39065596D01*
X98911210Y-38900789D01*
X91909210Y-31898790D01*
X91744403Y-31788669D01*
X91550000Y-31750000D01*
X79138000Y-31750000D01*
X78975850Y-31782254D01*
X78943596Y-31788669D01*
X78778789Y-31898790D01*
X71776791Y-38900789D01*
X71776790Y-38900790D01*
X71666669Y-39065597D01*
X71654746Y-39125536D01*
X69815957Y-39125536D01*
X65637210Y-34946790D01*
X65472403Y-34836669D01*
X65278000Y-34798000D01*
X38354000Y-34798000D01*
X38159597Y-34836669D01*
X37994790Y-34946789D01*
X33166044Y-39775536D01*
X25464000Y-39775536D01*
X25322810Y-39802103D01*
X25193135Y-39885546D01*
X25106141Y-40012866D01*
X25075536Y-40164000D01*
X23951000Y-40164000D01*
X23951000Y-32429911D01*
X24117888Y-31590906D01*
X24567707Y-30917707D01*
X25240906Y-30467888D01*
X26079911Y-30301000D01*
X109810089Y-30301000D01*
X110649094Y-30467888D01*
X110649094Y-30467888D01*
G37*
X110649094Y-30467888D02*
X111322293Y-30917707D01*
X111772112Y-31590906D01*
X111939000Y-32429911D01*
X111939000Y-76790089D01*
X111772112Y-77629094D01*
X111322293Y-78302293D01*
X110649094Y-78752112D01*
X109810089Y-78919000D01*
X26079911Y-78919000D01*
X25240906Y-78752112D01*
X24567707Y-78302293D01*
X24314693Y-77923631D01*
X26199567Y-77923631D01*
X26505858Y-78352998D01*
X26801861Y-78586682D01*
X27000200Y-78535695D01*
X27000200Y-77724000D01*
X26254883Y-77724000D01*
X26199567Y-77923631D01*
X24314693Y-77923631D01*
X24117888Y-77629094D01*
X23951000Y-76790089D01*
X23951000Y-76508369D01*
X26199567Y-76508369D01*
X26254883Y-76708000D01*
X27000200Y-76708000D01*
X27000200Y-75896305D01*
X27863800Y-75896305D01*
X27863800Y-76708000D01*
X27960000Y-76708000D01*
X27960000Y-77724000D01*
X27863800Y-77724000D01*
X27863800Y-78535695D01*
X28062139Y-78586682D01*
X28358142Y-78352998D01*
X28664433Y-77923631D01*
X28609118Y-77724002D01*
X28792690Y-77724002D01*
X28822140Y-77872057D01*
X29091935Y-78275834D01*
X29495712Y-78545629D01*
X29972000Y-78640369D01*
X30448288Y-78545629D01*
X30852065Y-78275834D01*
X31121860Y-77872057D01*
X31216600Y-77395769D01*
X31216600Y-77036231D01*
X31267400Y-77036231D01*
X31267400Y-77395769D01*
X31362140Y-77872057D01*
X31631935Y-78275834D01*
X32035712Y-78545629D01*
X32512000Y-78640369D01*
X32988288Y-78545629D01*
X33392065Y-78275834D01*
X33661860Y-77872057D01*
X33756600Y-77395769D01*
X33756600Y-77036231D01*
X33661860Y-76559943D01*
X33392065Y-76156166D01*
X32988288Y-75886371D01*
X32512000Y-75791631D01*
X32035712Y-75886371D01*
X31631935Y-76156166D01*
X31362140Y-76559943D01*
X31267400Y-77036231D01*
X31216600Y-77036231D01*
X31121860Y-76559943D01*
X30852065Y-76156166D01*
X30448288Y-75886371D01*
X29972000Y-75791631D01*
X29495712Y-75886371D01*
X29091935Y-76156166D01*
X28822140Y-76559943D01*
X28792690Y-76707998D01*
X28609118Y-76707998D01*
X28664433Y-76508369D01*
X28358142Y-76079002D01*
X28062139Y-75845318D01*
X27863800Y-75896305D01*
X27000200Y-75896305D01*
X26801861Y-75845318D01*
X26505858Y-76079002D01*
X26199567Y-76508369D01*
X23951000Y-76508369D01*
X23951000Y-62692000D01*
X25948000Y-62692000D01*
X25948000Y-63533047D01*
X26025338Y-63719758D01*
X26168241Y-63862661D01*
X26354952Y-63940000D01*
X26579000Y-63940000D01*
X26706000Y-63813000D01*
X26706000Y-62565000D01*
X27206000Y-62565000D01*
X27206000Y-63813000D01*
X27333000Y-63940000D01*
X27557048Y-63940000D01*
X27743759Y-63862661D01*
X27886662Y-63719758D01*
X27964000Y-63533047D01*
X27964000Y-62692000D01*
X27837000Y-62565000D01*
X27206000Y-62565000D01*
X26706000Y-62565000D01*
X26075000Y-62565000D01*
X25948000Y-62692000D01*
X23951000Y-62692000D01*
X23951000Y-60580953D01*
X25948000Y-60580953D01*
X25948000Y-61422000D01*
X26075000Y-61549000D01*
X26706000Y-61549000D01*
X26706000Y-60301000D01*
X27206000Y-60301000D01*
X27206000Y-61549000D01*
X27837000Y-61549000D01*
X27964000Y-61422000D01*
X27964000Y-60580953D01*
X27886662Y-60394242D01*
X27743759Y-60251339D01*
X27557048Y-60174000D01*
X27333000Y-60174000D01*
X27206000Y-60301000D01*
X26706000Y-60301000D01*
X26579000Y-60174000D01*
X26354952Y-60174000D01*
X26168241Y-60251339D01*
X26025338Y-60394242D01*
X25948000Y-60580953D01*
X23951000Y-60580953D01*
X23951000Y-56942000D01*
X25948000Y-56942000D01*
X25948000Y-57783047D01*
X26025338Y-57969758D01*
X26168241Y-58112661D01*
X26354952Y-58190000D01*
X26579000Y-58190000D01*
X26706000Y-58063000D01*
X26706000Y-56815000D01*
X27206000Y-56815000D01*
X27206000Y-58063000D01*
X27333000Y-58190000D01*
X27557048Y-58190000D01*
X27743759Y-58112661D01*
X27886662Y-57969758D01*
X27964000Y-57783047D01*
X27964000Y-56942000D01*
X27837000Y-56815000D01*
X27206000Y-56815000D01*
X26706000Y-56815000D01*
X26075000Y-56815000D01*
X25948000Y-56942000D01*
X23951000Y-56942000D01*
X23951000Y-54830953D01*
X25948000Y-54830953D01*
X25948000Y-55672000D01*
X26075000Y-55799000D01*
X26706000Y-55799000D01*
X26706000Y-54551000D01*
X27206000Y-54551000D01*
X27206000Y-55799000D01*
X27837000Y-55799000D01*
X27964000Y-55672000D01*
X27964000Y-54932000D01*
X30067536Y-54932000D01*
X30067536Y-57682000D01*
X30094103Y-57823190D01*
X30177546Y-57952865D01*
X30304866Y-58039859D01*
X30448000Y-58068844D01*
X30448000Y-60295041D01*
X30314810Y-60320103D01*
X30185135Y-60403546D01*
X30098141Y-60530866D01*
X30067536Y-60682000D01*
X30067536Y-63432000D01*
X30094103Y-63573190D01*
X30177546Y-63702865D01*
X30304866Y-63789859D01*
X30456000Y-63820464D01*
X31456000Y-63820464D01*
X31597190Y-63793897D01*
X31726865Y-63710454D01*
X31813859Y-63583134D01*
X31844464Y-63432000D01*
X31844464Y-60682000D01*
X31817897Y-60540810D01*
X31734454Y-60411135D01*
X31607134Y-60324141D01*
X31464000Y-60295156D01*
X31464000Y-58068959D01*
X31597190Y-58043897D01*
X31726865Y-57960454D01*
X31813859Y-57833134D01*
X31844464Y-57682000D01*
X31844464Y-57150000D01*
X32504257Y-57150000D01*
X32609408Y-57255335D01*
X32875376Y-57365774D01*
X33163361Y-57366025D01*
X33429521Y-57256050D01*
X33633335Y-57052592D01*
X33743774Y-56786624D01*
X33744025Y-56498639D01*
X33634050Y-56232479D01*
X33430592Y-56028665D01*
X33164624Y-55918226D01*
X32876639Y-55917975D01*
X32610479Y-56027950D01*
X32504243Y-56134000D01*
X31844464Y-56134000D01*
X31844464Y-54932000D01*
X31817897Y-54790810D01*
X31734454Y-54661135D01*
X31607134Y-54574141D01*
X31456000Y-54543536D01*
X30456000Y-54543536D01*
X30314810Y-54570103D01*
X30185135Y-54653546D01*
X30098141Y-54780866D01*
X30067536Y-54932000D01*
X27964000Y-54932000D01*
X27964000Y-54830953D01*
X27886662Y-54644242D01*
X27743759Y-54501339D01*
X27557048Y-54424000D01*
X27333000Y-54424000D01*
X27206000Y-54551000D01*
X26706000Y-54551000D01*
X26579000Y-54424000D01*
X26354952Y-54424000D01*
X26168241Y-54501339D01*
X26025338Y-54644242D01*
X25948000Y-54830953D01*
X23951000Y-54830953D01*
X23951000Y-40164000D01*
X25075536Y-40164000D01*
X25075536Y-44164000D01*
X25102103Y-44305190D01*
X25185546Y-44434865D01*
X25312866Y-44521859D01*
X25464000Y-44552464D01*
X33134044Y-44552464D01*
X34290000Y-45708420D01*
X34290000Y-62992000D01*
X34328669Y-63186403D01*
X34438790Y-63351210D01*
X34692790Y-63605210D01*
X35674301Y-64586722D01*
X35674301Y-65316200D01*
X35416639Y-65315975D01*
X35150479Y-65425950D01*
X34946665Y-65629408D01*
X34836226Y-65895376D01*
X34835975Y-66183361D01*
X34945950Y-66449521D01*
X35052000Y-66555757D01*
X35052000Y-70284000D01*
X35090669Y-70478403D01*
X35200790Y-70643210D01*
X36439580Y-71882000D01*
X36068000Y-71882000D01*
X35873597Y-71920669D01*
X35708790Y-72030790D01*
X34692790Y-73046790D01*
X34582669Y-73211597D01*
X34544000Y-73406000D01*
X34544000Y-75907560D01*
X34171935Y-76156166D01*
X33902140Y-76559943D01*
X33807400Y-77036231D01*
X33807400Y-77395769D01*
X33902140Y-77872057D01*
X34171935Y-78275834D01*
X34575712Y-78545629D01*
X35052000Y-78640369D01*
X35528288Y-78545629D01*
X35932065Y-78275834D01*
X36201860Y-77872057D01*
X36296600Y-77395769D01*
X36296600Y-77036231D01*
X36347400Y-77036231D01*
X36347400Y-77395769D01*
X36442140Y-77872057D01*
X36711935Y-78275834D01*
X37115712Y-78545629D01*
X37592000Y-78640369D01*
X38068288Y-78545629D01*
X38472065Y-78275834D01*
X38741860Y-77872057D01*
X38836600Y-77395769D01*
X38836600Y-77036231D01*
X38741860Y-76559943D01*
X38472065Y-76156166D01*
X38068288Y-75886371D01*
X37592000Y-75791631D01*
X37115712Y-75886371D01*
X36711935Y-76156166D01*
X36442140Y-76559943D01*
X36347400Y-77036231D01*
X36296600Y-77036231D01*
X36201860Y-76559943D01*
X35932065Y-76156166D01*
X35560000Y-75907560D01*
X35560000Y-73616420D01*
X36278420Y-72898000D01*
X36627536Y-72898000D01*
X36627536Y-73040000D01*
X36654103Y-73181190D01*
X36737546Y-73310865D01*
X36864866Y-73397859D01*
X37016000Y-73428464D01*
X38516000Y-73428464D01*
X38657190Y-73401897D01*
X38786865Y-73318454D01*
X38873859Y-73191134D01*
X38904464Y-73040000D01*
X38904464Y-71740000D01*
X38882882Y-71625302D01*
X39327536Y-72069957D01*
X39327536Y-73040000D01*
X39354103Y-73181190D01*
X39437546Y-73310865D01*
X39564866Y-73397859D01*
X39624000Y-73409834D01*
X39624000Y-75811536D01*
X39268400Y-75811536D01*
X39127210Y-75838103D01*
X38997535Y-75921546D01*
X38910541Y-76048866D01*
X38879936Y-76200000D01*
X38879936Y-78232000D01*
X38906503Y-78373190D01*
X38989946Y-78502865D01*
X39117266Y-78589859D01*
X39268400Y-78620464D01*
X40995600Y-78620464D01*
X41136790Y-78593897D01*
X41266465Y-78510454D01*
X41353459Y-78383134D01*
X41384064Y-78232000D01*
X41384064Y-76200000D01*
X41357497Y-76058810D01*
X41274054Y-75929135D01*
X41146734Y-75842141D01*
X40995600Y-75811536D01*
X40640000Y-75811536D01*
X40640000Y-74186420D01*
X41234790Y-74781210D01*
X41399597Y-74891331D01*
X41594000Y-74930000D01*
X44093536Y-74930000D01*
X44093536Y-75047000D01*
X44120103Y-75188190D01*
X44203546Y-75317865D01*
X44330866Y-75404859D01*
X44482000Y-75435464D01*
X45982000Y-75435464D01*
X46123190Y-75408897D01*
X46252865Y-75325454D01*
X46339859Y-75198134D01*
X46370464Y-75047000D01*
X46370464Y-74861500D01*
X46474000Y-74861500D01*
X46474000Y-75148048D01*
X46551339Y-75334759D01*
X46694242Y-75477662D01*
X46880953Y-75555000D01*
X47230000Y-75555000D01*
X47357000Y-75428000D01*
X47357000Y-74734500D01*
X48107000Y-74734500D01*
X48107000Y-75428000D01*
X48234000Y-75555000D01*
X48583047Y-75555000D01*
X48769758Y-75477662D01*
X48912661Y-75334759D01*
X48990000Y-75148048D01*
X48990000Y-74861500D01*
X49562000Y-74861500D01*
X49562000Y-75148048D01*
X49639339Y-75334759D01*
X49782242Y-75477662D01*
X49968953Y-75555000D01*
X50318000Y-75555000D01*
X50445000Y-75428000D01*
X50445000Y-74734500D01*
X51195000Y-74734500D01*
X51195000Y-75428000D01*
X51322000Y-75555000D01*
X51671047Y-75555000D01*
X51857758Y-75477662D01*
X52000661Y-75334759D01*
X52078000Y-75148048D01*
X52078000Y-74861500D01*
X51951000Y-74734500D01*
X51195000Y-74734500D01*
X50445000Y-74734500D01*
X49689000Y-74734500D01*
X49562000Y-74861500D01*
X48990000Y-74861500D01*
X48863000Y-74734500D01*
X48107000Y-74734500D01*
X47357000Y-74734500D01*
X46601000Y-74734500D01*
X46474000Y-74861500D01*
X46370464Y-74861500D01*
X46370464Y-73797000D01*
X46351451Y-73695952D01*
X46474000Y-73695952D01*
X46474000Y-73982500D01*
X46601000Y-74109500D01*
X47357000Y-74109500D01*
X47357000Y-73416000D01*
X48107000Y-73416000D01*
X48107000Y-74109500D01*
X48863000Y-74109500D01*
X48990000Y-73982500D01*
X48990000Y-73695952D01*
X49562000Y-73695952D01*
X49562000Y-73982500D01*
X49689000Y-74109500D01*
X50445000Y-74109500D01*
X50445000Y-73416000D01*
X51195000Y-73416000D01*
X51195000Y-74109500D01*
X51951000Y-74109500D01*
X52078000Y-73982500D01*
X52078000Y-73695952D01*
X52000661Y-73509241D01*
X51857758Y-73366338D01*
X51671047Y-73289000D01*
X51322000Y-73289000D01*
X51195000Y-73416000D01*
X50445000Y-73416000D01*
X50318000Y-73289000D01*
X49968953Y-73289000D01*
X49782242Y-73366338D01*
X49639339Y-73509241D01*
X49562000Y-73695952D01*
X48990000Y-73695952D01*
X48912661Y-73509241D01*
X48769758Y-73366338D01*
X48583047Y-73289000D01*
X48234000Y-73289000D01*
X48107000Y-73416000D01*
X47357000Y-73416000D01*
X47230000Y-73289000D01*
X46880953Y-73289000D01*
X46694242Y-73366338D01*
X46551339Y-73509241D01*
X46474000Y-73695952D01*
X46351451Y-73695952D01*
X46343897Y-73655810D01*
X46260454Y-73526135D01*
X46133134Y-73439141D01*
X45982000Y-73408536D01*
X44482000Y-73408536D01*
X44340810Y-73435103D01*
X44211135Y-73518546D01*
X44124141Y-73645866D01*
X44093536Y-73797000D01*
X44093536Y-73914000D01*
X41804420Y-73914000D01*
X41302591Y-73412171D01*
X41357190Y-73401897D01*
X41486865Y-73318454D01*
X41573859Y-73191134D01*
X41604464Y-73040000D01*
X41604464Y-71740000D01*
X41577897Y-71598810D01*
X41494454Y-71469135D01*
X41367134Y-71382141D01*
X41216000Y-71351536D01*
X40045957Y-71351536D01*
X39201210Y-70506790D01*
X39036403Y-70396669D01*
X38880243Y-70365607D01*
X38904464Y-70246000D01*
X38904464Y-69489636D01*
X39327536Y-69066564D01*
X39327536Y-70246000D01*
X39354103Y-70387190D01*
X39437546Y-70516865D01*
X39564866Y-70603859D01*
X39716000Y-70634464D01*
X41216000Y-70634464D01*
X41357190Y-70607897D01*
X41486865Y-70524454D01*
X41573859Y-70397134D01*
X41604464Y-70246000D01*
X41604464Y-70104000D01*
X42207580Y-70104000D01*
X42820790Y-70717210D01*
X42985597Y-70827331D01*
X43180000Y-70866000D01*
X44093536Y-70866000D01*
X44093536Y-70983000D01*
X44120103Y-71124190D01*
X44203546Y-71253865D01*
X44330866Y-71340859D01*
X44482000Y-71371464D01*
X45982000Y-71371464D01*
X46123190Y-71344897D01*
X46252865Y-71261454D01*
X46339859Y-71134134D01*
X46370464Y-70983000D01*
X46370464Y-70797500D01*
X46474000Y-70797500D01*
X46474000Y-71084048D01*
X46551339Y-71270759D01*
X46694242Y-71413662D01*
X46880953Y-71491000D01*
X47230000Y-71491000D01*
X47357000Y-71364000D01*
X47357000Y-70670500D01*
X48107000Y-70670500D01*
X48107000Y-71364000D01*
X48234000Y-71491000D01*
X48583047Y-71491000D01*
X48769758Y-71413662D01*
X48912661Y-71270759D01*
X48990000Y-71084048D01*
X48990000Y-70810000D01*
X49462000Y-70810000D01*
X49462000Y-71109048D01*
X49539339Y-71295759D01*
X49682242Y-71438662D01*
X49868953Y-71516000D01*
X50218000Y-71516000D01*
X50345000Y-71389000D01*
X50345000Y-70683000D01*
X51095000Y-70683000D01*
X51095000Y-71389000D01*
X51222000Y-71516000D01*
X51571047Y-71516000D01*
X51757758Y-71438662D01*
X51900661Y-71295759D01*
X51978000Y-71109048D01*
X51978000Y-70810000D01*
X51851000Y-70683000D01*
X51095000Y-70683000D01*
X50345000Y-70683000D01*
X49589000Y-70683000D01*
X49462000Y-70810000D01*
X48990000Y-70810000D01*
X48990000Y-70797500D01*
X48863000Y-70670500D01*
X48107000Y-70670500D01*
X47357000Y-70670500D01*
X46601000Y-70670500D01*
X46474000Y-70797500D01*
X46370464Y-70797500D01*
X46370464Y-69733000D01*
X46351451Y-69631952D01*
X46474000Y-69631952D01*
X46474000Y-69918500D01*
X46601000Y-70045500D01*
X47357000Y-70045500D01*
X47357000Y-69352000D01*
X48107000Y-69352000D01*
X48107000Y-70045500D01*
X48863000Y-70045500D01*
X48990000Y-69918500D01*
X48990000Y-69631952D01*
X48979645Y-69606952D01*
X49462000Y-69606952D01*
X49462000Y-69906000D01*
X49589000Y-70033000D01*
X50345000Y-70033000D01*
X50345000Y-69327000D01*
X51095000Y-69327000D01*
X51095000Y-70033000D01*
X51851000Y-70033000D01*
X51978000Y-69906000D01*
X51978000Y-69606952D01*
X51900661Y-69420241D01*
X51757758Y-69277338D01*
X51571047Y-69200000D01*
X51222000Y-69200000D01*
X51095000Y-69327000D01*
X50345000Y-69327000D01*
X50218000Y-69200000D01*
X49868953Y-69200000D01*
X49682242Y-69277338D01*
X49539339Y-69420241D01*
X49462000Y-69606952D01*
X48979645Y-69606952D01*
X48912661Y-69445241D01*
X48769758Y-69302338D01*
X48583047Y-69225000D01*
X48234000Y-69225000D01*
X48107000Y-69352000D01*
X47357000Y-69352000D01*
X47230000Y-69225000D01*
X46880953Y-69225000D01*
X46694242Y-69302338D01*
X46551339Y-69445241D01*
X46474000Y-69631952D01*
X46351451Y-69631952D01*
X46343897Y-69591810D01*
X46260454Y-69462135D01*
X46133134Y-69375141D01*
X45982000Y-69344536D01*
X45740000Y-69344536D01*
X45740000Y-67218560D01*
X45787530Y-67209617D01*
X45917205Y-67126174D01*
X46004199Y-66998854D01*
X46034804Y-66847720D01*
X46034804Y-66405760D01*
X46998934Y-66405760D01*
X47039206Y-66468345D01*
X47157242Y-66548996D01*
X47046795Y-66620066D01*
X46959801Y-66747386D01*
X46929196Y-66898520D01*
X46929196Y-67497960D01*
X46955763Y-67639150D01*
X47039206Y-67768825D01*
X47166526Y-67855819D01*
X47317660Y-67886424D01*
X47787804Y-67886424D01*
X48552038Y-68650658D01*
X48551975Y-68723361D01*
X48661950Y-68989521D01*
X48865408Y-69193335D01*
X49131376Y-69303774D01*
X49419361Y-69304025D01*
X49685521Y-69194050D01*
X49889335Y-68990592D01*
X49999774Y-68724624D01*
X50000025Y-68436639D01*
X49890050Y-68170479D01*
X49686592Y-67966665D01*
X49420624Y-67856226D01*
X49194249Y-67856029D01*
X48706884Y-67368664D01*
X48706884Y-66898520D01*
X48680317Y-66757330D01*
X48596874Y-66627655D01*
X48478838Y-66547004D01*
X48589285Y-66475934D01*
X48676279Y-66348614D01*
X48706884Y-66197480D01*
X48706884Y-65598040D01*
X48680317Y-65456850D01*
X48596874Y-65327175D01*
X48469554Y-65240181D01*
X48318420Y-65209576D01*
X47317660Y-65209576D01*
X47176470Y-65236143D01*
X47046795Y-65319586D01*
X46998847Y-65389760D01*
X45242480Y-65389760D01*
X45048077Y-65428429D01*
X44883270Y-65538550D01*
X44786750Y-65635070D01*
X44676629Y-65799877D01*
X44664706Y-65859816D01*
X44645580Y-65859816D01*
X44504390Y-65886383D01*
X44374715Y-65969826D01*
X44318889Y-66051529D01*
X44134884Y-65867524D01*
X44134884Y-65598040D01*
X44108317Y-65456850D01*
X44024874Y-65327175D01*
X43897554Y-65240181D01*
X43746420Y-65209576D01*
X42824411Y-65209576D01*
X42824411Y-65082009D01*
X43136420Y-64770000D01*
X45204257Y-64770000D01*
X45309408Y-64875335D01*
X45575376Y-64985774D01*
X45863361Y-64986025D01*
X45937237Y-64955500D01*
X49308000Y-64955500D01*
X49308000Y-65242048D01*
X49385339Y-65428759D01*
X49528242Y-65571662D01*
X49714953Y-65649000D01*
X50064000Y-65649000D01*
X50191000Y-65522000D01*
X50191000Y-64828500D01*
X50941000Y-64828500D01*
X50941000Y-65522000D01*
X51068000Y-65649000D01*
X51417047Y-65649000D01*
X51603758Y-65571662D01*
X51746661Y-65428759D01*
X51824000Y-65242048D01*
X51824000Y-64955500D01*
X51697000Y-64828500D01*
X50941000Y-64828500D01*
X50191000Y-64828500D01*
X49435000Y-64828500D01*
X49308000Y-64955500D01*
X45937237Y-64955500D01*
X46129521Y-64876050D01*
X46333335Y-64672592D01*
X46443774Y-64406624D01*
X46444025Y-64118639D01*
X46334050Y-63852479D01*
X46271633Y-63789952D01*
X49308000Y-63789952D01*
X49308000Y-64076500D01*
X49435000Y-64203500D01*
X50191000Y-64203500D01*
X50191000Y-63510000D01*
X50941000Y-63510000D01*
X50941000Y-64203500D01*
X51697000Y-64203500D01*
X51824000Y-64076500D01*
X51824000Y-63891000D01*
X51927536Y-63891000D01*
X51927536Y-65141000D01*
X51954103Y-65282190D01*
X52037546Y-65411865D01*
X52164866Y-65498859D01*
X52316000Y-65529464D01*
X53816000Y-65529464D01*
X53957190Y-65502897D01*
X54086865Y-65419454D01*
X54173859Y-65292134D01*
X54204464Y-65141000D01*
X54204464Y-63891000D01*
X54177897Y-63749810D01*
X54094454Y-63620135D01*
X53967134Y-63533141D01*
X53816000Y-63502536D01*
X53674000Y-63502536D01*
X53674000Y-62760464D01*
X53916000Y-62760464D01*
X54057190Y-62733897D01*
X54186865Y-62650454D01*
X54273859Y-62523134D01*
X54304464Y-62372000D01*
X54304464Y-61657230D01*
X55438040Y-61657230D01*
X55438040Y-61881468D01*
X55515379Y-62068179D01*
X55658282Y-62211082D01*
X55844993Y-62288420D01*
X55968900Y-62288420D01*
X56095900Y-62161420D01*
X56095900Y-61530230D01*
X55565040Y-61530230D01*
X55438040Y-61657230D01*
X54304464Y-61657230D01*
X54304464Y-61072000D01*
X54277897Y-60930810D01*
X54194454Y-60801135D01*
X54067134Y-60714141D01*
X53916000Y-60683536D01*
X52416000Y-60683536D01*
X52274810Y-60710103D01*
X52145135Y-60793546D01*
X52058141Y-60920866D01*
X52027536Y-61072000D01*
X52027536Y-62372000D01*
X52054103Y-62513190D01*
X52137546Y-62642865D01*
X52264866Y-62729859D01*
X52416000Y-62760464D01*
X52658000Y-62760464D01*
X52658000Y-63502536D01*
X52316000Y-63502536D01*
X52174810Y-63529103D01*
X52045135Y-63612546D01*
X51958141Y-63739866D01*
X51927536Y-63891000D01*
X51824000Y-63891000D01*
X51824000Y-63789952D01*
X51746661Y-63603241D01*
X51603758Y-63460338D01*
X51417047Y-63383000D01*
X51068000Y-63383000D01*
X50941000Y-63510000D01*
X50191000Y-63510000D01*
X50064000Y-63383000D01*
X49714953Y-63383000D01*
X49528242Y-63460338D01*
X49385339Y-63603241D01*
X49308000Y-63789952D01*
X46271633Y-63789952D01*
X46130592Y-63648665D01*
X45864624Y-63538226D01*
X45576639Y-63537975D01*
X45310479Y-63647950D01*
X45204243Y-63754000D01*
X42926000Y-63754000D01*
X42731597Y-63792669D01*
X42566790Y-63902790D01*
X41957201Y-64512379D01*
X41847080Y-64677186D01*
X41808411Y-64871589D01*
X41808411Y-65473991D01*
X41761210Y-65426790D01*
X41596403Y-65316669D01*
X41402000Y-65278000D01*
X40964000Y-65278000D01*
X41158403Y-65239331D01*
X41323210Y-65129210D01*
X43757055Y-62695365D01*
X43881000Y-62720464D01*
X45331000Y-62720464D01*
X45472190Y-62693897D01*
X45601865Y-62610454D01*
X45688859Y-62483134D01*
X45719464Y-62332000D01*
X45719464Y-61965000D01*
X49327536Y-61965000D01*
X49327536Y-62372000D01*
X49354103Y-62513190D01*
X49437546Y-62642865D01*
X49564866Y-62729859D01*
X49716000Y-62760464D01*
X51216000Y-62760464D01*
X51357190Y-62733897D01*
X51486865Y-62650454D01*
X51573859Y-62523134D01*
X51604464Y-62372000D01*
X51604464Y-61072000D01*
X51577897Y-60930810D01*
X51494454Y-60801135D01*
X51367134Y-60714141D01*
X51216000Y-60683536D01*
X49716000Y-60683536D01*
X49574810Y-60710103D01*
X49445135Y-60793546D01*
X49358141Y-60920866D01*
X49352444Y-60949000D01*
X48180925Y-60949000D01*
X48221774Y-60850624D01*
X48222025Y-60562639D01*
X48112050Y-60296479D01*
X47908592Y-60092665D01*
X47642624Y-59982226D01*
X47354639Y-59981975D01*
X47088479Y-60091950D01*
X46974573Y-60205657D01*
X46850917Y-60230254D01*
X46818663Y-60236669D01*
X46653856Y-60346790D01*
X46051647Y-60949000D01*
X45719464Y-60949000D01*
X45719464Y-60582000D01*
X45699957Y-60478330D01*
X45719464Y-60382000D01*
X45719464Y-59932000D01*
X45699957Y-59828330D01*
X45719464Y-59732000D01*
X45719464Y-59282000D01*
X45699957Y-59178330D01*
X45719464Y-59082000D01*
X45719464Y-58715000D01*
X51775000Y-58715000D01*
X51969403Y-58676331D01*
X52134210Y-58566210D01*
X54402479Y-56297942D01*
X54503950Y-56543521D01*
X54707408Y-56747335D01*
X54973376Y-56857774D01*
X55261361Y-56858025D01*
X55527521Y-56748050D01*
X55731335Y-56544592D01*
X55841774Y-56278624D01*
X55841905Y-56128515D01*
X56852421Y-55118000D01*
X62663279Y-55118000D01*
X62635536Y-55255000D01*
X62635536Y-56505000D01*
X62662103Y-56646190D01*
X62745546Y-56775865D01*
X62872866Y-56862859D01*
X63024000Y-56893464D01*
X63795044Y-56893464D01*
X67686080Y-60784500D01*
X63414790Y-65055790D01*
X63304669Y-65220597D01*
X63292746Y-65280536D01*
X63024000Y-65280536D01*
X62882810Y-65307103D01*
X62753135Y-65390546D01*
X62666141Y-65517866D01*
X62635536Y-65669000D01*
X62635536Y-66743116D01*
X62230000Y-66337580D01*
X62230000Y-63202420D01*
X63285171Y-62147250D01*
X63395291Y-61982443D01*
X63433960Y-61788040D01*
X63433960Y-61392750D01*
X63567530Y-61367617D01*
X63697205Y-61284174D01*
X63784199Y-61156854D01*
X63814804Y-61005720D01*
X63814804Y-60406280D01*
X63788237Y-60265090D01*
X63704794Y-60135415D01*
X63577474Y-60048421D01*
X63426340Y-60017816D01*
X62425580Y-60017816D01*
X62284390Y-60044383D01*
X62154715Y-60127826D01*
X62067721Y-60255146D01*
X62037116Y-60406280D01*
X62037116Y-61005720D01*
X62063683Y-61146910D01*
X62147126Y-61276585D01*
X62274446Y-61363579D01*
X62417960Y-61392641D01*
X62417960Y-61577619D01*
X61362790Y-62632790D01*
X61252669Y-62797597D01*
X61214000Y-62992000D01*
X61214000Y-63467380D01*
X61028424Y-63281804D01*
X61028424Y-62811660D01*
X61001857Y-62670470D01*
X60918414Y-62540795D01*
X60791094Y-62453801D01*
X60639960Y-62423196D01*
X60198000Y-62423196D01*
X60198000Y-62046720D01*
X60237901Y-62086621D01*
X60424612Y-62163960D01*
X60648850Y-62163960D01*
X60775850Y-62036960D01*
X60775850Y-61506100D01*
X61276230Y-61506100D01*
X61276230Y-62036960D01*
X61403230Y-62163960D01*
X61627468Y-62163960D01*
X61814179Y-62086621D01*
X61957082Y-61943718D01*
X62034420Y-61757007D01*
X62034420Y-61633100D01*
X61907420Y-61506100D01*
X61276230Y-61506100D01*
X60775850Y-61506100D01*
X60525660Y-61506100D01*
X60525660Y-61206380D01*
X60775850Y-61206380D01*
X60775850Y-61056520D01*
X61276230Y-61056520D01*
X61276230Y-61206380D01*
X61907420Y-61206380D01*
X62034420Y-61079380D01*
X62034420Y-60955473D01*
X61957082Y-60768762D01*
X61814179Y-60625859D01*
X61805312Y-60622186D01*
X61884279Y-60506614D01*
X61914884Y-60355480D01*
X61914884Y-59756040D01*
X61888317Y-59614850D01*
X61804874Y-59485175D01*
X61677554Y-59398181D01*
X61534040Y-59369119D01*
X61534040Y-56708040D01*
X61495371Y-56513637D01*
X61385250Y-56348830D01*
X61065210Y-56028790D01*
X60900403Y-55918669D01*
X60706000Y-55880000D01*
X58674000Y-55880000D01*
X58511850Y-55912254D01*
X58479596Y-55918669D01*
X58314790Y-56028790D01*
X58060790Y-56282790D01*
X57950669Y-56447597D01*
X57912000Y-56642000D01*
X57912000Y-56644536D01*
X56420000Y-56644536D01*
X56278810Y-56671103D01*
X56149135Y-56754546D01*
X56062141Y-56881866D01*
X56031536Y-57033000D01*
X56031536Y-57150000D01*
X55379743Y-57150000D01*
X55274592Y-57044665D01*
X55008624Y-56934226D01*
X54720639Y-56933975D01*
X54454479Y-57043950D01*
X54250665Y-57247408D01*
X54140226Y-57513376D01*
X54139975Y-57801361D01*
X54249950Y-58067521D01*
X54453408Y-58271335D01*
X54719376Y-58381774D01*
X55007361Y-58382025D01*
X55273521Y-58272050D01*
X55379757Y-58166000D01*
X56031536Y-58166000D01*
X56031536Y-58283000D01*
X56058103Y-58424190D01*
X56141546Y-58553865D01*
X56268866Y-58640859D01*
X56420000Y-58671464D01*
X57912000Y-58671464D01*
X57912000Y-59441480D01*
X57546240Y-59807240D01*
X57323790Y-59584790D01*
X57158983Y-59474669D01*
X56964580Y-59436000D01*
X52331743Y-59436000D01*
X52226592Y-59330665D01*
X51960624Y-59220226D01*
X51672639Y-59219975D01*
X51406479Y-59329950D01*
X51202665Y-59533408D01*
X51092226Y-59799376D01*
X51091975Y-60087361D01*
X51201950Y-60353521D01*
X51405408Y-60557335D01*
X51671376Y-60667774D01*
X51959361Y-60668025D01*
X52225521Y-60558050D01*
X52331757Y-60452000D01*
X55555280Y-60452000D01*
X55515379Y-60491901D01*
X55438040Y-60678612D01*
X55438040Y-60902850D01*
X55565040Y-61029850D01*
X56095900Y-61029850D01*
X56095900Y-60779660D01*
X56395620Y-60779660D01*
X56395620Y-61029850D01*
X56545480Y-61029850D01*
X56545480Y-61530230D01*
X56395620Y-61530230D01*
X56395620Y-62161420D01*
X56522620Y-62288420D01*
X56646527Y-62288420D01*
X56833238Y-62211082D01*
X56976141Y-62068179D01*
X56979814Y-62059312D01*
X57095386Y-62138279D01*
X57246520Y-62168884D01*
X57845960Y-62168884D01*
X57987150Y-62142317D01*
X58116825Y-62058874D01*
X58203819Y-61931554D01*
X58234424Y-61780420D01*
X58234424Y-60779660D01*
X58207857Y-60638470D01*
X58185928Y-60604392D01*
X58779210Y-60011110D01*
X58889331Y-59846304D01*
X58912067Y-59732000D01*
X58928000Y-59651900D01*
X58928000Y-58671464D01*
X59182000Y-58671464D01*
X59182000Y-64392854D01*
X59119415Y-64433126D01*
X59032421Y-64560446D01*
X59001816Y-64711580D01*
X59001816Y-65712340D01*
X59028383Y-65853530D01*
X59111826Y-65983205D01*
X59239146Y-66070199D01*
X59390280Y-66100804D01*
X59989720Y-66100804D01*
X60130910Y-66074237D01*
X60260585Y-65990794D01*
X60347579Y-65863474D01*
X60378184Y-65712340D01*
X60378184Y-64711580D01*
X60351617Y-64570390D01*
X60268174Y-64440715D01*
X60198000Y-64392767D01*
X60198000Y-64200884D01*
X60510664Y-64200884D01*
X60706000Y-64396220D01*
X60706000Y-67310000D01*
X60744669Y-67504403D01*
X60854790Y-67669210D01*
X61003580Y-67818000D01*
X60916420Y-67818000D01*
X57404000Y-64305580D01*
X57404000Y-63999066D01*
X57466585Y-63958794D01*
X57553579Y-63831474D01*
X57582383Y-63689230D01*
X58232040Y-63689230D01*
X58232040Y-63913468D01*
X58309379Y-64100179D01*
X58452282Y-64243082D01*
X58638993Y-64320420D01*
X58762900Y-64320420D01*
X58889900Y-64193420D01*
X58889900Y-63562230D01*
X58359040Y-63562230D01*
X58232040Y-63689230D01*
X57582383Y-63689230D01*
X57584184Y-63680340D01*
X57584184Y-62710612D01*
X58232040Y-62710612D01*
X58232040Y-62934850D01*
X58359040Y-63061850D01*
X58889900Y-63061850D01*
X58889900Y-62430660D01*
X58762900Y-62303660D01*
X58638993Y-62303660D01*
X58452282Y-62380998D01*
X58309379Y-62523901D01*
X58232040Y-62710612D01*
X57584184Y-62710612D01*
X57584184Y-62679580D01*
X57557617Y-62538390D01*
X57474174Y-62408715D01*
X57346854Y-62321721D01*
X57195720Y-62291116D01*
X56596280Y-62291116D01*
X56455090Y-62317683D01*
X56325415Y-62401126D01*
X56238421Y-62528446D01*
X56207816Y-62679580D01*
X56207816Y-63680340D01*
X56234383Y-63821530D01*
X56317826Y-63951205D01*
X56388000Y-63999153D01*
X56388000Y-64516000D01*
X56426669Y-64710403D01*
X56536790Y-64875210D01*
X60346790Y-68685210D01*
X60511597Y-68795331D01*
X60706000Y-68834000D01*
X62516000Y-68834000D01*
X62516000Y-68902500D01*
X62643000Y-69029500D01*
X63399000Y-69029500D01*
X63399000Y-68834000D01*
X64149000Y-68834000D01*
X64149000Y-69029500D01*
X64905000Y-69029500D01*
X65032000Y-68902500D01*
X65032000Y-68834000D01*
X65135536Y-68834000D01*
X65135536Y-69967000D01*
X65162103Y-70108190D01*
X65245546Y-70237865D01*
X65372866Y-70324859D01*
X65524000Y-70355464D01*
X65792746Y-70355464D01*
X65804669Y-70415403D01*
X65914790Y-70580210D01*
X66708579Y-71374000D01*
X64747140Y-71374000D01*
X64552737Y-71412669D01*
X64387930Y-71522789D01*
X63835524Y-72075196D01*
X63566040Y-72075196D01*
X63424850Y-72101763D01*
X63295175Y-72185206D01*
X63277498Y-72211078D01*
X62843210Y-71776790D01*
X62678403Y-71666669D01*
X62484000Y-71628000D01*
X61824464Y-71628000D01*
X61824464Y-71511000D01*
X61797897Y-71369810D01*
X61714454Y-71240135D01*
X61587134Y-71153141D01*
X61436000Y-71122536D01*
X59936000Y-71122536D01*
X59794810Y-71149103D01*
X59665135Y-71232546D01*
X59578141Y-71359866D01*
X59547536Y-71511000D01*
X59547536Y-72761000D01*
X59558470Y-72819110D01*
X59393418Y-72984162D01*
X59444000Y-72862048D01*
X59444000Y-72575500D01*
X59317000Y-72448500D01*
X58561000Y-72448500D01*
X58561000Y-73142000D01*
X58688000Y-73269000D01*
X59037047Y-73269000D01*
X59159161Y-73218419D01*
X57726790Y-74650790D01*
X57724955Y-74653536D01*
X57336000Y-74653536D01*
X57194810Y-74680103D01*
X57065135Y-74763546D01*
X56978141Y-74890866D01*
X56947536Y-75042000D01*
X56947536Y-76342000D01*
X56974103Y-76483190D01*
X57057546Y-76612865D01*
X57184866Y-76699859D01*
X57336000Y-76730464D01*
X58836000Y-76730464D01*
X58977190Y-76703897D01*
X59106865Y-76620454D01*
X59193859Y-76493134D01*
X59224464Y-76342000D01*
X59224464Y-75042000D01*
X59197897Y-74900810D01*
X59114454Y-74771135D01*
X59072174Y-74742246D01*
X60664956Y-73149464D01*
X61436000Y-73149464D01*
X61577190Y-73122897D01*
X61706865Y-73039454D01*
X61793859Y-72912134D01*
X61824464Y-72761000D01*
X61824464Y-72644000D01*
X62273580Y-72644000D01*
X62886790Y-73257210D01*
X63051597Y-73367331D01*
X63177576Y-73392390D01*
X63177576Y-73406000D01*
X61660000Y-73406000D01*
X61465597Y-73444669D01*
X61300790Y-73554790D01*
X60426790Y-74428790D01*
X60316669Y-74593597D01*
X60304746Y-74653536D01*
X60036000Y-74653536D01*
X59894810Y-74680103D01*
X59765135Y-74763546D01*
X59678141Y-74890866D01*
X59647536Y-75042000D01*
X59647536Y-76342000D01*
X59674103Y-76483190D01*
X59757546Y-76612865D01*
X59884866Y-76699859D01*
X60036000Y-76730464D01*
X61536000Y-76730464D01*
X61677190Y-76703897D01*
X61806865Y-76620454D01*
X61848992Y-76558799D01*
X61869950Y-76609521D01*
X62073408Y-76813335D01*
X62339376Y-76923774D01*
X62627361Y-76924025D01*
X62893521Y-76814050D01*
X62999757Y-76708000D01*
X63043200Y-76708000D01*
X63402409Y-77067210D01*
X63505964Y-77136403D01*
X63567217Y-77177331D01*
X63687393Y-77201235D01*
X63737166Y-77278585D01*
X63855202Y-77359236D01*
X63744755Y-77430306D01*
X63657761Y-77557626D01*
X63627156Y-77708760D01*
X63627156Y-77724000D01*
X54820421Y-77724000D01*
X53828000Y-76731580D01*
X53828000Y-75435464D01*
X54070000Y-75435464D01*
X54211190Y-75408897D01*
X54340865Y-75325454D01*
X54427859Y-75198134D01*
X54458464Y-75047000D01*
X54458464Y-73797000D01*
X54431897Y-73655810D01*
X54348454Y-73526135D01*
X54221134Y-73439141D01*
X54070000Y-73408536D01*
X53828000Y-73408536D01*
X53828000Y-72575500D01*
X56928000Y-72575500D01*
X56928000Y-72862048D01*
X57005339Y-73048759D01*
X57148242Y-73191662D01*
X57334953Y-73269000D01*
X57684000Y-73269000D01*
X57811000Y-73142000D01*
X57811000Y-72448500D01*
X57055000Y-72448500D01*
X56928000Y-72575500D01*
X53828000Y-72575500D01*
X53828000Y-71409952D01*
X56928000Y-71409952D01*
X56928000Y-71696500D01*
X57055000Y-71823500D01*
X57811000Y-71823500D01*
X57811000Y-71130000D01*
X58561000Y-71130000D01*
X58561000Y-71823500D01*
X59317000Y-71823500D01*
X59444000Y-71696500D01*
X59444000Y-71409952D01*
X59366661Y-71223241D01*
X59223758Y-71080338D01*
X59037047Y-71003000D01*
X58688000Y-71003000D01*
X58561000Y-71130000D01*
X57811000Y-71130000D01*
X57684000Y-71003000D01*
X57334953Y-71003000D01*
X57148242Y-71080338D01*
X57005339Y-71223241D01*
X56928000Y-71409952D01*
X53828000Y-71409952D01*
X53828000Y-71396464D01*
X54170000Y-71396464D01*
X54311190Y-71369897D01*
X54440865Y-71286454D01*
X54527859Y-71159134D01*
X54558464Y-71008000D01*
X54558464Y-69781500D01*
X62516000Y-69781500D01*
X62516000Y-70068048D01*
X62593339Y-70254759D01*
X62736242Y-70397662D01*
X62922953Y-70475000D01*
X63272000Y-70475000D01*
X63399000Y-70348000D01*
X63399000Y-69654500D01*
X64149000Y-69654500D01*
X64149000Y-70348000D01*
X64276000Y-70475000D01*
X64625047Y-70475000D01*
X64811758Y-70397662D01*
X64954661Y-70254759D01*
X65032000Y-70068048D01*
X65032000Y-69781500D01*
X64905000Y-69654500D01*
X64149000Y-69654500D01*
X63399000Y-69654500D01*
X62643000Y-69654500D01*
X62516000Y-69781500D01*
X54558464Y-69781500D01*
X54558464Y-69708000D01*
X54531897Y-69566810D01*
X54448454Y-69437135D01*
X54321134Y-69350141D01*
X54170000Y-69319536D01*
X53928000Y-69319536D01*
X53928000Y-68406000D01*
X53889331Y-68211597D01*
X53779210Y-68046790D01*
X51921210Y-66188790D01*
X51756403Y-66078669D01*
X51562000Y-66040000D01*
X50537066Y-66040000D01*
X50496794Y-65977415D01*
X50369474Y-65890421D01*
X50218340Y-65859816D01*
X49217580Y-65859816D01*
X49076390Y-65886383D01*
X48946715Y-65969826D01*
X48859721Y-66097146D01*
X48829116Y-66248280D01*
X48829116Y-66847720D01*
X48855683Y-66988910D01*
X48939126Y-67118585D01*
X49066446Y-67205579D01*
X49217580Y-67236184D01*
X50218340Y-67236184D01*
X50359530Y-67209617D01*
X50489205Y-67126174D01*
X50537153Y-67056000D01*
X51351580Y-67056000D01*
X52912000Y-68616420D01*
X52912000Y-69319536D01*
X52670000Y-69319536D01*
X52528810Y-69346103D01*
X52399135Y-69429546D01*
X52312141Y-69556866D01*
X52281536Y-69708000D01*
X52281536Y-71008000D01*
X52308103Y-71149190D01*
X52391546Y-71278865D01*
X52518866Y-71365859D01*
X52670000Y-71396464D01*
X52812000Y-71396464D01*
X52812000Y-73408536D01*
X52570000Y-73408536D01*
X52428810Y-73435103D01*
X52299135Y-73518546D01*
X52212141Y-73645866D01*
X52181536Y-73797000D01*
X52181536Y-75047000D01*
X52208103Y-75188190D01*
X52291546Y-75317865D01*
X52418866Y-75404859D01*
X52570000Y-75435464D01*
X52812000Y-75435464D01*
X52812000Y-76942000D01*
X52850669Y-77136403D01*
X52960790Y-77301210D01*
X54250789Y-78591210D01*
X54324361Y-78640369D01*
X54415597Y-78701331D01*
X54610000Y-78740000D01*
X71120000Y-78740000D01*
X71314403Y-78701331D01*
X71479210Y-78591210D01*
X74124420Y-75946000D01*
X82042000Y-75946000D01*
X82236403Y-75907331D01*
X82401210Y-75797210D01*
X83829420Y-74369000D01*
X98496000Y-74369000D01*
X98496000Y-75740047D01*
X98573338Y-75926758D01*
X98716241Y-76069661D01*
X98902952Y-76147000D01*
X99469000Y-76147000D01*
X99596000Y-76020000D01*
X99596000Y-74242000D01*
X100612000Y-74242000D01*
X100612000Y-76020000D01*
X100739000Y-76147000D01*
X101305048Y-76147000D01*
X101491759Y-76069661D01*
X101634662Y-75926758D01*
X101712000Y-75740047D01*
X101712000Y-74369000D01*
X101585000Y-74242000D01*
X100612000Y-74242000D01*
X99596000Y-74242000D01*
X98623000Y-74242000D01*
X98496000Y-74369000D01*
X83829420Y-74369000D01*
X84030420Y-74168000D01*
X97282000Y-74168000D01*
X97476403Y-74129331D01*
X97641210Y-74019210D01*
X98528710Y-73131710D01*
X98623000Y-73226000D01*
X99596000Y-73226000D01*
X99596000Y-71448000D01*
X100612000Y-71448000D01*
X100612000Y-73226000D01*
X101585000Y-73226000D01*
X101712000Y-73099000D01*
X101712000Y-71727953D01*
X101634662Y-71541242D01*
X101491759Y-71398339D01*
X101305048Y-71321000D01*
X100739000Y-71321000D01*
X100612000Y-71448000D01*
X99596000Y-71448000D01*
X99469000Y-71321000D01*
X98902952Y-71321000D01*
X98806000Y-71361159D01*
X98806000Y-68625078D01*
X98797850Y-68584103D01*
X98767331Y-68430674D01*
X98657210Y-68265868D01*
X98016132Y-67624790D01*
X97892464Y-67542157D01*
X97892464Y-67334000D01*
X97872957Y-67230330D01*
X97892464Y-67134000D01*
X97892464Y-66834000D01*
X97872957Y-66730330D01*
X97892464Y-66634000D01*
X97892464Y-66334000D01*
X97872957Y-66230330D01*
X97892464Y-66134000D01*
X97892464Y-65834000D01*
X97872957Y-65730330D01*
X97892464Y-65634000D01*
X97892464Y-65334000D01*
X97872957Y-65230330D01*
X97892464Y-65134000D01*
X97892464Y-64834000D01*
X97872957Y-64730330D01*
X97892464Y-64634000D01*
X97892464Y-64334000D01*
X97872957Y-64230330D01*
X97892464Y-64134000D01*
X97892464Y-63834000D01*
X97872957Y-63730330D01*
X97892464Y-63634000D01*
X97892464Y-63334000D01*
X97872957Y-63230330D01*
X97892464Y-63134000D01*
X97892464Y-62834000D01*
X97872957Y-62730330D01*
X97892464Y-62634000D01*
X97892464Y-62334000D01*
X97872957Y-62230330D01*
X97892464Y-62134000D01*
X97892464Y-61834000D01*
X97872957Y-61730330D01*
X97892464Y-61634000D01*
X97892464Y-61334000D01*
X97872957Y-61230330D01*
X97892464Y-61134000D01*
X97892464Y-60834000D01*
X97872957Y-60730330D01*
X97892464Y-60634000D01*
X97892464Y-60334000D01*
X97872957Y-60230330D01*
X97892464Y-60134000D01*
X97892464Y-59834000D01*
X97872957Y-59730330D01*
X97892464Y-59634000D01*
X97892464Y-59334000D01*
X97872957Y-59230330D01*
X97892464Y-59134000D01*
X97892464Y-58834000D01*
X97872957Y-58730330D01*
X97892464Y-58634000D01*
X97892464Y-58334000D01*
X97872957Y-58230330D01*
X97892464Y-58134000D01*
X97892464Y-57834000D01*
X97872957Y-57730330D01*
X97892464Y-57634000D01*
X97892464Y-57334000D01*
X97872957Y-57230330D01*
X97892464Y-57134000D01*
X97892464Y-56834000D01*
X97872957Y-56730330D01*
X97892464Y-56634000D01*
X97892464Y-56334000D01*
X97872957Y-56230330D01*
X97892464Y-56134000D01*
X97892464Y-55834000D01*
X97872957Y-55730330D01*
X97892464Y-55634000D01*
X97892464Y-55334000D01*
X97872957Y-55230330D01*
X97892464Y-55134000D01*
X97892464Y-54965254D01*
X97952403Y-54953331D01*
X98117210Y-54843210D01*
X98657210Y-54303210D01*
X98767331Y-54138404D01*
X98781999Y-54064661D01*
X98806000Y-53944000D01*
X98806000Y-53106841D01*
X98902952Y-53147000D01*
X99469000Y-53147000D01*
X99596000Y-53020000D01*
X99596000Y-51242000D01*
X100612000Y-51242000D01*
X100612000Y-53020000D01*
X100739000Y-53147000D01*
X101305048Y-53147000D01*
X101491759Y-53069661D01*
X101634662Y-52926758D01*
X101712000Y-52740047D01*
X101712000Y-51369000D01*
X101585000Y-51242000D01*
X100612000Y-51242000D01*
X99596000Y-51242000D01*
X98623000Y-51242000D01*
X98496000Y-51369000D01*
X98496000Y-51803580D01*
X98098388Y-51405968D01*
X97933581Y-51295847D01*
X97739178Y-51257178D01*
X68042105Y-51257178D01*
X68061331Y-51228404D01*
X68067746Y-51196150D01*
X68073254Y-51168464D01*
X68842000Y-51168464D01*
X68983190Y-51141897D01*
X69112865Y-51058454D01*
X69199859Y-50931134D01*
X69230464Y-50780000D01*
X69230464Y-48280000D01*
X69203897Y-48138810D01*
X69120454Y-48009135D01*
X68993134Y-47922141D01*
X68842000Y-47891536D01*
X66342000Y-47891536D01*
X66200810Y-47918103D01*
X66071135Y-48001546D01*
X65998431Y-48107951D01*
X65892046Y-47850479D01*
X65688588Y-47646665D01*
X65422620Y-47536226D01*
X65134635Y-47535975D01*
X64868475Y-47645950D01*
X64762239Y-47752000D01*
X64388909Y-47752000D01*
X64401464Y-47690000D01*
X64401464Y-47641254D01*
X64461403Y-47629331D01*
X64626210Y-47519210D01*
X65223920Y-46921500D01*
X66834000Y-46921500D01*
X66834000Y-47208048D01*
X66911339Y-47394759D01*
X67054242Y-47537662D01*
X67240953Y-47615000D01*
X67590000Y-47615000D01*
X67717000Y-47488000D01*
X67717000Y-46794500D01*
X68467000Y-46794500D01*
X68467000Y-47488000D01*
X68594000Y-47615000D01*
X68943047Y-47615000D01*
X69129758Y-47537662D01*
X69272661Y-47394759D01*
X69350000Y-47208048D01*
X69350000Y-46921500D01*
X69223000Y-46794500D01*
X68467000Y-46794500D01*
X67717000Y-46794500D01*
X66961000Y-46794500D01*
X66834000Y-46921500D01*
X65223920Y-46921500D01*
X66389468Y-45755952D01*
X66834000Y-45755952D01*
X66834000Y-46042500D01*
X66961000Y-46169500D01*
X67717000Y-46169500D01*
X67717000Y-45476000D01*
X68467000Y-45476000D01*
X68467000Y-46169500D01*
X69223000Y-46169500D01*
X69350000Y-46042500D01*
X69350000Y-45755952D01*
X69272661Y-45569241D01*
X69129758Y-45426338D01*
X68943047Y-45349000D01*
X68594000Y-45349000D01*
X68467000Y-45476000D01*
X67717000Y-45476000D01*
X67590000Y-45349000D01*
X67240953Y-45349000D01*
X67054242Y-45426338D01*
X66911339Y-45569241D01*
X66834000Y-45755952D01*
X66389468Y-45755952D01*
X69097536Y-43047884D01*
X69097536Y-44814000D01*
X69124103Y-44955190D01*
X69207546Y-45084865D01*
X69334866Y-45171859D01*
X69486000Y-45202464D01*
X70084000Y-45202464D01*
X70084000Y-45468536D01*
X69842000Y-45468536D01*
X69700810Y-45495103D01*
X69571135Y-45578546D01*
X69484141Y-45705866D01*
X69453536Y-45857000D01*
X69453536Y-47107000D01*
X69480103Y-47248190D01*
X69563546Y-47377865D01*
X69690866Y-47464859D01*
X69842000Y-47495464D01*
X70084000Y-47495464D01*
X70084000Y-47891536D01*
X69842000Y-47891536D01*
X69700810Y-47918103D01*
X69571135Y-48001546D01*
X69484141Y-48128866D01*
X69453536Y-48280000D01*
X69453536Y-50780000D01*
X69480103Y-50921190D01*
X69563546Y-51050865D01*
X69690866Y-51137859D01*
X69842000Y-51168464D01*
X72342000Y-51168464D01*
X72483190Y-51141897D01*
X72612865Y-51058454D01*
X72699859Y-50931134D01*
X72730464Y-50780000D01*
X72730464Y-48282177D01*
X79944243Y-48282177D01*
X80893025Y-49154502D01*
X83906985Y-50325697D01*
X85433731Y-50292000D01*
X102160000Y-50292000D01*
X102160000Y-74168000D01*
X102194711Y-74342504D01*
X102293559Y-74490441D01*
X102441496Y-74589289D01*
X102616000Y-74624000D01*
X106680000Y-74624000D01*
X106854504Y-74589289D01*
X107002441Y-74490441D01*
X107101289Y-74342504D01*
X107136000Y-74168000D01*
X107136000Y-50292000D01*
X107101289Y-50117496D01*
X107002441Y-49969559D01*
X106854504Y-49870711D01*
X106680000Y-49836000D01*
X102616000Y-49836000D01*
X102441496Y-49870711D01*
X102293559Y-49969559D01*
X102194711Y-50117496D01*
X102160000Y-50292000D01*
X85433731Y-50292000D01*
X87139717Y-50254347D01*
X89794975Y-49154502D01*
X90258909Y-48727953D01*
X98496000Y-48727953D01*
X98496000Y-50099000D01*
X98623000Y-50226000D01*
X99596000Y-50226000D01*
X99596000Y-48448000D01*
X100612000Y-48448000D01*
X100612000Y-50226000D01*
X101585000Y-50226000D01*
X101712000Y-50099000D01*
X101712000Y-48727953D01*
X101634662Y-48541242D01*
X101491759Y-48398339D01*
X101305048Y-48321000D01*
X100739000Y-48321000D01*
X100612000Y-48448000D01*
X99596000Y-48448000D01*
X99469000Y-48321000D01*
X98902952Y-48321000D01*
X98716241Y-48398339D01*
X98573338Y-48541242D01*
X98496000Y-48727953D01*
X90258909Y-48727953D01*
X90743757Y-48282177D01*
X85344000Y-42882420D01*
X79944243Y-48282177D01*
X72730464Y-48282177D01*
X72730464Y-48280000D01*
X72703897Y-48138810D01*
X72620454Y-48009135D01*
X72493134Y-47922141D01*
X72342000Y-47891536D01*
X71100000Y-47891536D01*
X71100000Y-47495464D01*
X71342000Y-47495464D01*
X71483190Y-47468897D01*
X71612865Y-47385454D01*
X71699859Y-47258134D01*
X71730464Y-47107000D01*
X71730464Y-45857000D01*
X71703897Y-45715810D01*
X71620454Y-45586135D01*
X71493134Y-45499141D01*
X71342000Y-45468536D01*
X71100000Y-45468536D01*
X71100000Y-45202464D01*
X74786000Y-45202464D01*
X74927190Y-45175897D01*
X75056865Y-45092454D01*
X75143859Y-44965134D01*
X75174464Y-44814000D01*
X75174464Y-40726985D01*
X77182303Y-40726985D01*
X77253653Y-43959717D01*
X78353498Y-46614975D01*
X79225823Y-47563757D01*
X84625580Y-42164000D01*
X86062420Y-42164000D01*
X91462177Y-47563757D01*
X92334502Y-46614975D01*
X93505697Y-43601015D01*
X93434347Y-40368283D01*
X92334502Y-37713025D01*
X91462177Y-36764243D01*
X86062420Y-42164000D01*
X84625580Y-42164000D01*
X79225823Y-36764243D01*
X78353498Y-37713025D01*
X77182303Y-40726985D01*
X75174464Y-40726985D01*
X75174464Y-39514000D01*
X75147897Y-39372810D01*
X75064454Y-39243135D01*
X74937134Y-39156141D01*
X74786000Y-39125536D01*
X72988884Y-39125536D01*
X76068597Y-36045823D01*
X79944243Y-36045823D01*
X85344000Y-41445580D01*
X90743757Y-36045823D01*
X89794975Y-35173498D01*
X86781015Y-34002303D01*
X83548283Y-34073653D01*
X80893025Y-35173498D01*
X79944243Y-36045823D01*
X76068597Y-36045823D01*
X79348421Y-32766000D01*
X91339580Y-32766000D01*
X97699115Y-39125536D01*
X95902000Y-39125536D01*
X95760810Y-39152103D01*
X95631135Y-39235546D01*
X95544141Y-39362866D01*
X95513536Y-39514000D01*
X95513536Y-44814000D01*
X95540103Y-44955190D01*
X95623546Y-45084865D01*
X95750866Y-45171859D01*
X95902000Y-45202464D01*
X101202000Y-45202464D01*
X101343190Y-45175897D01*
X101472865Y-45092454D01*
X101559859Y-44965134D01*
X101590464Y-44814000D01*
X101590464Y-39514000D01*
X101563897Y-39372810D01*
X101480454Y-39243135D01*
X101353134Y-39156141D01*
X101202000Y-39125536D01*
X99033254Y-39125536D01*
X99021331Y-39065597D01*
X99021331Y-39065596D01*
X98911210Y-38900789D01*
X91909210Y-31898790D01*
X91744403Y-31788669D01*
X91550000Y-31750000D01*
X79138000Y-31750000D01*
X78975850Y-31782254D01*
X78943596Y-31788669D01*
X78778789Y-31898790D01*
X71776791Y-38900789D01*
X71776790Y-38900790D01*
X71666669Y-39065597D01*
X71654746Y-39125536D01*
X69815957Y-39125536D01*
X65637210Y-34946790D01*
X65472403Y-34836669D01*
X65278000Y-34798000D01*
X38354000Y-34798000D01*
X38159597Y-34836669D01*
X37994790Y-34946789D01*
X33166044Y-39775536D01*
X25464000Y-39775536D01*
X25322810Y-39802103D01*
X25193135Y-39885546D01*
X25106141Y-40012866D01*
X25075536Y-40164000D01*
X23951000Y-40164000D01*
X23951000Y-32429911D01*
X24117888Y-31590906D01*
X24567707Y-30917707D01*
X25240906Y-30467888D01*
X26079911Y-30301000D01*
X109810089Y-30301000D01*
X110649094Y-30467888D01*
G36*
X68181339Y-68429241D02*
X68104000Y-68615952D01*
X68104000Y-68902500D01*
X68231000Y-69029500D01*
X68987000Y-69029500D01*
X68987000Y-68814000D01*
X69737000Y-68814000D01*
X69737000Y-69029500D01*
X70493000Y-69029500D01*
X70620000Y-68902500D01*
X70620000Y-68615952D01*
X70542661Y-68429241D01*
X70439420Y-68326000D01*
X71163580Y-68326000D01*
X71166116Y-68328536D01*
X71112000Y-68328536D01*
X70970810Y-68355103D01*
X70841135Y-68438546D01*
X70754141Y-68565866D01*
X70723536Y-68717000D01*
X70723536Y-69967000D01*
X70750103Y-70108190D01*
X70833546Y-70237865D01*
X70960866Y-70324859D01*
X71112000Y-70355464D01*
X71357474Y-70355464D01*
X71392669Y-70532403D01*
X71502790Y-70697210D01*
X71722400Y-70916820D01*
X67688241Y-70916820D01*
X67110591Y-70339171D01*
X67165190Y-70328897D01*
X67294865Y-70245454D01*
X67381859Y-70118134D01*
X67412464Y-69967000D01*
X67412464Y-69781500D01*
X68104000Y-69781500D01*
X68104000Y-70068048D01*
X68181339Y-70254759D01*
X68324242Y-70397662D01*
X68510953Y-70475000D01*
X68860000Y-70475000D01*
X68987000Y-70348000D01*
X68987000Y-69654500D01*
X69737000Y-69654500D01*
X69737000Y-70348000D01*
X69864000Y-70475000D01*
X70213047Y-70475000D01*
X70399758Y-70397662D01*
X70542661Y-70254759D01*
X70620000Y-70068048D01*
X70620000Y-69781500D01*
X70493000Y-69654500D01*
X69737000Y-69654500D01*
X68987000Y-69654500D01*
X68231000Y-69654500D01*
X68104000Y-69781500D01*
X67412464Y-69781500D01*
X67412464Y-68717000D01*
X67385897Y-68575810D01*
X67302454Y-68446135D01*
X67175134Y-68359141D01*
X67024000Y-68328536D01*
X66718568Y-68328536D01*
X66716873Y-68326000D01*
X68284580Y-68326000D01*
X68181339Y-68429241D01*
X68181339Y-68429241D01*
G37*
X68181339Y-68429241D02*
X68104000Y-68615952D01*
X68104000Y-68902500D01*
X68231000Y-69029500D01*
X68987000Y-69029500D01*
X68987000Y-68814000D01*
X69737000Y-68814000D01*
X69737000Y-69029500D01*
X70493000Y-69029500D01*
X70620000Y-68902500D01*
X70620000Y-68615952D01*
X70542661Y-68429241D01*
X70439420Y-68326000D01*
X71163580Y-68326000D01*
X71166116Y-68328536D01*
X71112000Y-68328536D01*
X70970810Y-68355103D01*
X70841135Y-68438546D01*
X70754141Y-68565866D01*
X70723536Y-68717000D01*
X70723536Y-69967000D01*
X70750103Y-70108190D01*
X70833546Y-70237865D01*
X70960866Y-70324859D01*
X71112000Y-70355464D01*
X71357474Y-70355464D01*
X71392669Y-70532403D01*
X71502790Y-70697210D01*
X71722400Y-70916820D01*
X67688241Y-70916820D01*
X67110591Y-70339171D01*
X67165190Y-70328897D01*
X67294865Y-70245454D01*
X67381859Y-70118134D01*
X67412464Y-69967000D01*
X67412464Y-69781500D01*
X68104000Y-69781500D01*
X68104000Y-70068048D01*
X68181339Y-70254759D01*
X68324242Y-70397662D01*
X68510953Y-70475000D01*
X68860000Y-70475000D01*
X68987000Y-70348000D01*
X68987000Y-69654500D01*
X69737000Y-69654500D01*
X69737000Y-70348000D01*
X69864000Y-70475000D01*
X70213047Y-70475000D01*
X70399758Y-70397662D01*
X70542661Y-70254759D01*
X70620000Y-70068048D01*
X70620000Y-69781500D01*
X70493000Y-69654500D01*
X69737000Y-69654500D01*
X68987000Y-69654500D01*
X68231000Y-69654500D01*
X68104000Y-69781500D01*
X67412464Y-69781500D01*
X67412464Y-68717000D01*
X67385897Y-68575810D01*
X67302454Y-68446135D01*
X67175134Y-68359141D01*
X67024000Y-68328536D01*
X66718568Y-68328536D01*
X66716873Y-68326000D01*
X68284580Y-68326000D01*
X68181339Y-68429241D01*
G36*
X76942000Y-68008420D02*
X76942000Y-68328536D01*
X76700000Y-68328536D01*
X76558810Y-68355103D01*
X76429135Y-68438546D01*
X76342141Y-68565866D01*
X76311536Y-68717000D01*
X76311536Y-69967000D01*
X76338103Y-70108190D01*
X76421546Y-70237865D01*
X76548866Y-70324859D01*
X76700000Y-70355464D01*
X76945474Y-70355464D01*
X76976294Y-70510410D01*
X72752830Y-70510410D01*
X72597884Y-70355464D01*
X72612000Y-70355464D01*
X72753190Y-70328897D01*
X72882865Y-70245454D01*
X72969859Y-70118134D01*
X73000464Y-69967000D01*
X73000464Y-69781500D01*
X73692000Y-69781500D01*
X73692000Y-70068048D01*
X73769339Y-70254759D01*
X73912242Y-70397662D01*
X74098953Y-70475000D01*
X74448000Y-70475000D01*
X74575000Y-70348000D01*
X74575000Y-69654500D01*
X75325000Y-69654500D01*
X75325000Y-70348000D01*
X75452000Y-70475000D01*
X75801047Y-70475000D01*
X75987758Y-70397662D01*
X76130661Y-70254759D01*
X76208000Y-70068048D01*
X76208000Y-69781500D01*
X76081000Y-69654500D01*
X75325000Y-69654500D01*
X74575000Y-69654500D01*
X73819000Y-69654500D01*
X73692000Y-69781500D01*
X73000464Y-69781500D01*
X73000464Y-68717000D01*
X72981451Y-68615952D01*
X73692000Y-68615952D01*
X73692000Y-68902500D01*
X73819000Y-69029500D01*
X74575000Y-69029500D01*
X74575000Y-68336000D01*
X75325000Y-68336000D01*
X75325000Y-69029500D01*
X76081000Y-69029500D01*
X76208000Y-68902500D01*
X76208000Y-68615952D01*
X76130661Y-68429241D01*
X75987758Y-68286338D01*
X75801047Y-68209000D01*
X75452000Y-68209000D01*
X75325000Y-68336000D01*
X74575000Y-68336000D01*
X74448000Y-68209000D01*
X74098953Y-68209000D01*
X73912242Y-68286338D01*
X73769339Y-68429241D01*
X73692000Y-68615952D01*
X72981451Y-68615952D01*
X72973897Y-68575810D01*
X72890454Y-68446135D01*
X72763134Y-68359141D01*
X72612000Y-68328536D01*
X72370000Y-68328536D01*
X72370000Y-68306000D01*
X72331331Y-68111597D01*
X72331331Y-68111596D01*
X72221210Y-67946790D01*
X72092420Y-67818000D01*
X76751580Y-67818000D01*
X76942000Y-68008420D01*
X76942000Y-68008420D01*
G37*
X76942000Y-68008420D02*
X76942000Y-68328536D01*
X76700000Y-68328536D01*
X76558810Y-68355103D01*
X76429135Y-68438546D01*
X76342141Y-68565866D01*
X76311536Y-68717000D01*
X76311536Y-69967000D01*
X76338103Y-70108190D01*
X76421546Y-70237865D01*
X76548866Y-70324859D01*
X76700000Y-70355464D01*
X76945474Y-70355464D01*
X76976294Y-70510410D01*
X72752830Y-70510410D01*
X72597884Y-70355464D01*
X72612000Y-70355464D01*
X72753190Y-70328897D01*
X72882865Y-70245454D01*
X72969859Y-70118134D01*
X73000464Y-69967000D01*
X73000464Y-69781500D01*
X73692000Y-69781500D01*
X73692000Y-70068048D01*
X73769339Y-70254759D01*
X73912242Y-70397662D01*
X74098953Y-70475000D01*
X74448000Y-70475000D01*
X74575000Y-70348000D01*
X74575000Y-69654500D01*
X75325000Y-69654500D01*
X75325000Y-70348000D01*
X75452000Y-70475000D01*
X75801047Y-70475000D01*
X75987758Y-70397662D01*
X76130661Y-70254759D01*
X76208000Y-70068048D01*
X76208000Y-69781500D01*
X76081000Y-69654500D01*
X75325000Y-69654500D01*
X74575000Y-69654500D01*
X73819000Y-69654500D01*
X73692000Y-69781500D01*
X73000464Y-69781500D01*
X73000464Y-68717000D01*
X72981451Y-68615952D01*
X73692000Y-68615952D01*
X73692000Y-68902500D01*
X73819000Y-69029500D01*
X74575000Y-69029500D01*
X74575000Y-68336000D01*
X75325000Y-68336000D01*
X75325000Y-69029500D01*
X76081000Y-69029500D01*
X76208000Y-68902500D01*
X76208000Y-68615952D01*
X76130661Y-68429241D01*
X75987758Y-68286338D01*
X75801047Y-68209000D01*
X75452000Y-68209000D01*
X75325000Y-68336000D01*
X74575000Y-68336000D01*
X74448000Y-68209000D01*
X74098953Y-68209000D01*
X73912242Y-68286338D01*
X73769339Y-68429241D01*
X73692000Y-68615952D01*
X72981451Y-68615952D01*
X72973897Y-68575810D01*
X72890454Y-68446135D01*
X72763134Y-68359141D01*
X72612000Y-68328536D01*
X72370000Y-68328536D01*
X72370000Y-68306000D01*
X72331331Y-68111597D01*
X72331331Y-68111596D01*
X72221210Y-67946790D01*
X72092420Y-67818000D01*
X76751580Y-67818000D01*
X76942000Y-68008420D01*
G36*
X94232790Y-68624790D02*
X92753580Y-70104000D01*
X89841784Y-70104000D01*
X89864464Y-69992000D01*
X89864464Y-69850000D01*
X91788992Y-69850000D01*
X91983395Y-69811331D01*
X92148202Y-69701210D01*
X93263823Y-68585589D01*
X94291458Y-68585589D01*
X94232790Y-68624790D01*
X94232790Y-68624790D01*
G37*
X94232790Y-68624790D02*
X92753580Y-70104000D01*
X89841784Y-70104000D01*
X89864464Y-69992000D01*
X89864464Y-69850000D01*
X91788992Y-69850000D01*
X91983395Y-69811331D01*
X92148202Y-69701210D01*
X93263823Y-68585589D01*
X94291458Y-68585589D01*
X94232790Y-68624790D01*
G36*
X80178790Y-65055790D02*
X80068669Y-65220597D01*
X80056746Y-65280536D01*
X79788000Y-65280536D01*
X79646810Y-65307103D01*
X79517135Y-65390546D01*
X79430141Y-65517866D01*
X79399536Y-65669000D01*
X79399536Y-66919000D01*
X79426103Y-67060190D01*
X79509546Y-67189865D01*
X79636866Y-67276859D01*
X79788000Y-67307464D01*
X81288000Y-67307464D01*
X81429190Y-67280897D01*
X81558865Y-67197454D01*
X81645859Y-67070134D01*
X81676464Y-66919000D01*
X81676464Y-65669000D01*
X81649897Y-65527810D01*
X81566454Y-65398135D01*
X81439134Y-65311141D01*
X81373559Y-65297862D01*
X82179421Y-64492000D01*
X83242580Y-64492000D01*
X82678790Y-65055790D01*
X82568669Y-65220597D01*
X82556746Y-65280536D01*
X82288000Y-65280536D01*
X82146810Y-65307103D01*
X82017135Y-65390546D01*
X81930141Y-65517866D01*
X81899536Y-65669000D01*
X81899536Y-66919000D01*
X81926103Y-67060190D01*
X82009546Y-67189865D01*
X82136866Y-67276859D01*
X82288000Y-67307464D01*
X82544784Y-67307464D01*
X82444665Y-67407408D01*
X82334226Y-67673376D01*
X82333975Y-67961361D01*
X82443950Y-68227521D01*
X82544789Y-68328536D01*
X82288000Y-68328536D01*
X82146810Y-68355103D01*
X82017135Y-68438546D01*
X81930141Y-68565866D01*
X81899536Y-68717000D01*
X81899536Y-69967000D01*
X81925315Y-70104000D01*
X81781108Y-70104000D01*
X81796000Y-70068048D01*
X81796000Y-69781500D01*
X81669000Y-69654500D01*
X80913000Y-69654500D01*
X80913000Y-69870000D01*
X80163000Y-69870000D01*
X80163000Y-69654500D01*
X79407000Y-69654500D01*
X79280000Y-69781500D01*
X79280000Y-70068048D01*
X79294892Y-70104000D01*
X78560721Y-70104000D01*
X78588464Y-69967000D01*
X78588464Y-68717000D01*
X78569451Y-68615952D01*
X79280000Y-68615952D01*
X79280000Y-68902500D01*
X79407000Y-69029500D01*
X80163000Y-69029500D01*
X80163000Y-68336000D01*
X80913000Y-68336000D01*
X80913000Y-69029500D01*
X81669000Y-69029500D01*
X81796000Y-68902500D01*
X81796000Y-68615952D01*
X81718661Y-68429241D01*
X81575758Y-68286338D01*
X81389047Y-68209000D01*
X81040000Y-68209000D01*
X80913000Y-68336000D01*
X80163000Y-68336000D01*
X80036000Y-68209000D01*
X79686953Y-68209000D01*
X79500242Y-68286338D01*
X79357339Y-68429241D01*
X79280000Y-68615952D01*
X78569451Y-68615952D01*
X78561897Y-68575810D01*
X78478454Y-68446135D01*
X78351134Y-68359141D01*
X78200000Y-68328536D01*
X77958000Y-68328536D01*
X77958000Y-67798000D01*
X77919331Y-67603597D01*
X77919331Y-67603596D01*
X77809210Y-67438790D01*
X77677884Y-67307464D01*
X78200000Y-67307464D01*
X78341190Y-67280897D01*
X78470865Y-67197454D01*
X78557859Y-67070134D01*
X78588464Y-66919000D01*
X78588464Y-65669000D01*
X78561897Y-65527810D01*
X78478454Y-65398135D01*
X78351134Y-65311141D01*
X78285558Y-65297862D01*
X79591421Y-63992000D01*
X81242579Y-63992000D01*
X80178790Y-65055790D01*
X80178790Y-65055790D01*
G37*
X80178790Y-65055790D02*
X80068669Y-65220597D01*
X80056746Y-65280536D01*
X79788000Y-65280536D01*
X79646810Y-65307103D01*
X79517135Y-65390546D01*
X79430141Y-65517866D01*
X79399536Y-65669000D01*
X79399536Y-66919000D01*
X79426103Y-67060190D01*
X79509546Y-67189865D01*
X79636866Y-67276859D01*
X79788000Y-67307464D01*
X81288000Y-67307464D01*
X81429190Y-67280897D01*
X81558865Y-67197454D01*
X81645859Y-67070134D01*
X81676464Y-66919000D01*
X81676464Y-65669000D01*
X81649897Y-65527810D01*
X81566454Y-65398135D01*
X81439134Y-65311141D01*
X81373559Y-65297862D01*
X82179421Y-64492000D01*
X83242580Y-64492000D01*
X82678790Y-65055790D01*
X82568669Y-65220597D01*
X82556746Y-65280536D01*
X82288000Y-65280536D01*
X82146810Y-65307103D01*
X82017135Y-65390546D01*
X81930141Y-65517866D01*
X81899536Y-65669000D01*
X81899536Y-66919000D01*
X81926103Y-67060190D01*
X82009546Y-67189865D01*
X82136866Y-67276859D01*
X82288000Y-67307464D01*
X82544784Y-67307464D01*
X82444665Y-67407408D01*
X82334226Y-67673376D01*
X82333975Y-67961361D01*
X82443950Y-68227521D01*
X82544789Y-68328536D01*
X82288000Y-68328536D01*
X82146810Y-68355103D01*
X82017135Y-68438546D01*
X81930141Y-68565866D01*
X81899536Y-68717000D01*
X81899536Y-69967000D01*
X81925315Y-70104000D01*
X81781108Y-70104000D01*
X81796000Y-70068048D01*
X81796000Y-69781500D01*
X81669000Y-69654500D01*
X80913000Y-69654500D01*
X80913000Y-69870000D01*
X80163000Y-69870000D01*
X80163000Y-69654500D01*
X79407000Y-69654500D01*
X79280000Y-69781500D01*
X79280000Y-70068048D01*
X79294892Y-70104000D01*
X78560721Y-70104000D01*
X78588464Y-69967000D01*
X78588464Y-68717000D01*
X78569451Y-68615952D01*
X79280000Y-68615952D01*
X79280000Y-68902500D01*
X79407000Y-69029500D01*
X80163000Y-69029500D01*
X80163000Y-68336000D01*
X80913000Y-68336000D01*
X80913000Y-69029500D01*
X81669000Y-69029500D01*
X81796000Y-68902500D01*
X81796000Y-68615952D01*
X81718661Y-68429241D01*
X81575758Y-68286338D01*
X81389047Y-68209000D01*
X81040000Y-68209000D01*
X80913000Y-68336000D01*
X80163000Y-68336000D01*
X80036000Y-68209000D01*
X79686953Y-68209000D01*
X79500242Y-68286338D01*
X79357339Y-68429241D01*
X79280000Y-68615952D01*
X78569451Y-68615952D01*
X78561897Y-68575810D01*
X78478454Y-68446135D01*
X78351134Y-68359141D01*
X78200000Y-68328536D01*
X77958000Y-68328536D01*
X77958000Y-67798000D01*
X77919331Y-67603597D01*
X77919331Y-67603596D01*
X77809210Y-67438790D01*
X77677884Y-67307464D01*
X78200000Y-67307464D01*
X78341190Y-67280897D01*
X78470865Y-67197454D01*
X78557859Y-67070134D01*
X78588464Y-66919000D01*
X78588464Y-65669000D01*
X78561897Y-65527810D01*
X78478454Y-65398135D01*
X78351134Y-65311141D01*
X78285558Y-65297862D01*
X79591421Y-63992000D01*
X81242579Y-63992000D01*
X80178790Y-65055790D01*
G36*
X36835484Y-66255905D02*
X36978789Y-66399210D01*
X37059787Y-66453331D01*
X37143597Y-66509331D01*
X37338000Y-66548000D01*
X37805760Y-66548000D01*
X37742998Y-66610762D01*
X37665660Y-66797473D01*
X37665660Y-66921380D01*
X37792660Y-67048380D01*
X38423850Y-67048380D01*
X38423850Y-66898520D01*
X38924230Y-66898520D01*
X38924230Y-67048380D01*
X39555420Y-67048380D01*
X39682420Y-66921380D01*
X39682420Y-66797473D01*
X39605082Y-66610762D01*
X39462179Y-66467859D01*
X39453312Y-66464186D01*
X39532279Y-66348614D01*
X39543338Y-66294000D01*
X39685116Y-66294000D01*
X39685116Y-66847720D01*
X39711683Y-66988910D01*
X39795126Y-67118585D01*
X39820997Y-67136262D01*
X39582290Y-67374970D01*
X39555420Y-67348100D01*
X38924230Y-67348100D01*
X38924230Y-67878960D01*
X39001265Y-67955995D01*
X38399724Y-68557536D01*
X37016000Y-68557536D01*
X36874810Y-68584103D01*
X36745135Y-68667546D01*
X36690301Y-68747798D01*
X36690301Y-67475100D01*
X37665660Y-67475100D01*
X37665660Y-67599007D01*
X37742998Y-67785718D01*
X37885901Y-67928621D01*
X38072612Y-68005960D01*
X38296850Y-68005960D01*
X38423850Y-67878960D01*
X38423850Y-67348100D01*
X37792660Y-67348100D01*
X37665660Y-67475100D01*
X36690301Y-67475100D01*
X36690301Y-66255778D01*
X36835484Y-66255905D01*
X36835484Y-66255905D01*
G37*
X36835484Y-66255905D02*
X36978789Y-66399210D01*
X37059787Y-66453331D01*
X37143597Y-66509331D01*
X37338000Y-66548000D01*
X37805760Y-66548000D01*
X37742998Y-66610762D01*
X37665660Y-66797473D01*
X37665660Y-66921380D01*
X37792660Y-67048380D01*
X38423850Y-67048380D01*
X38423850Y-66898520D01*
X38924230Y-66898520D01*
X38924230Y-67048380D01*
X39555420Y-67048380D01*
X39682420Y-66921380D01*
X39682420Y-66797473D01*
X39605082Y-66610762D01*
X39462179Y-66467859D01*
X39453312Y-66464186D01*
X39532279Y-66348614D01*
X39543338Y-66294000D01*
X39685116Y-66294000D01*
X39685116Y-66847720D01*
X39711683Y-66988910D01*
X39795126Y-67118585D01*
X39820997Y-67136262D01*
X39582290Y-67374970D01*
X39555420Y-67348100D01*
X38924230Y-67348100D01*
X38924230Y-67878960D01*
X39001265Y-67955995D01*
X38399724Y-68557536D01*
X37016000Y-68557536D01*
X36874810Y-68584103D01*
X36745135Y-68667546D01*
X36690301Y-68747798D01*
X36690301Y-67475100D01*
X37665660Y-67475100D01*
X37665660Y-67599007D01*
X37742998Y-67785718D01*
X37885901Y-67928621D01*
X38072612Y-68005960D01*
X38296850Y-68005960D01*
X38423850Y-67878960D01*
X38423850Y-67348100D01*
X37792660Y-67348100D01*
X37665660Y-67475100D01*
X36690301Y-67475100D01*
X36690301Y-66255778D01*
X36835484Y-66255905D01*
G36*
X51452580Y-57049000D02*
X48553987Y-57049000D01*
X48615473Y-56900925D01*
X48615724Y-56612940D01*
X48505749Y-56346780D01*
X48302291Y-56142966D01*
X48036323Y-56032527D01*
X47748338Y-56032276D01*
X47482178Y-56142251D01*
X47375942Y-56248301D01*
X47205800Y-56248301D01*
X47206025Y-55990639D01*
X47096050Y-55724479D01*
X46892592Y-55520665D01*
X46626624Y-55410226D01*
X46338639Y-55409975D01*
X46072479Y-55519950D01*
X45966243Y-55626000D01*
X44729000Y-55626000D01*
X44640840Y-55643536D01*
X43881000Y-55643536D01*
X43739810Y-55670103D01*
X43688000Y-55703442D01*
X43688000Y-55582420D01*
X44698525Y-54571895D01*
X44847361Y-54572025D01*
X45113521Y-54462050D01*
X45317335Y-54258592D01*
X45427774Y-53992624D01*
X45428025Y-53704639D01*
X45318050Y-53438479D01*
X45114592Y-53234665D01*
X44848624Y-53124226D01*
X44560639Y-53123975D01*
X44294479Y-53233950D01*
X44090665Y-53437408D01*
X43980226Y-53703376D01*
X43980095Y-53853485D01*
X42820790Y-55012790D01*
X42710669Y-55177597D01*
X42672000Y-55372000D01*
X42672000Y-59060000D01*
X42710669Y-59254403D01*
X42820790Y-59419210D01*
X43050579Y-59649000D01*
X42610024Y-59649000D01*
X42415621Y-59687669D01*
X42250814Y-59797789D01*
X39820552Y-62228052D01*
X39812000Y-62219500D01*
X39068500Y-62219500D01*
X39068500Y-62332000D01*
X38343500Y-62332000D01*
X38343500Y-62219500D01*
X37600000Y-62219500D01*
X37473000Y-62346500D01*
X37473000Y-62433048D01*
X37550339Y-62619759D01*
X37693242Y-62762662D01*
X37879953Y-62840000D01*
X38055687Y-62840000D01*
X37944479Y-62885950D01*
X37740665Y-63089408D01*
X37630226Y-63355376D01*
X37629975Y-63643361D01*
X37739950Y-63909521D01*
X37943408Y-64113335D01*
X38209376Y-64223774D01*
X38497361Y-64224025D01*
X38763521Y-64114050D01*
X38967335Y-63910592D01*
X38968081Y-63908795D01*
X38967929Y-64083407D01*
X39041722Y-64262000D01*
X36786421Y-64262000D01*
X36494250Y-63969829D01*
X36719361Y-63970025D01*
X36985521Y-63860050D01*
X37189335Y-63656592D01*
X37299774Y-63390624D01*
X37300025Y-63102639D01*
X37190050Y-62836479D01*
X36986592Y-62632665D01*
X36720624Y-62522226D01*
X36570515Y-62522095D01*
X35953699Y-61905279D01*
X35953699Y-60320896D01*
X36177376Y-60413774D01*
X36465361Y-60414025D01*
X36731521Y-60304050D01*
X36935335Y-60100592D01*
X36970876Y-60015000D01*
X37150580Y-60015000D01*
X36921836Y-60243744D01*
X36674479Y-60345950D01*
X36470665Y-60549408D01*
X36360226Y-60815376D01*
X36359975Y-61103361D01*
X36469950Y-61369521D01*
X36673408Y-61573335D01*
X36939376Y-61683774D01*
X37227361Y-61684025D01*
X37493521Y-61574050D01*
X37592536Y-61475208D01*
X37592536Y-61552044D01*
X37550339Y-61594241D01*
X37473000Y-61780952D01*
X37473000Y-61867500D01*
X37600000Y-61994500D01*
X37763481Y-61994500D01*
X37829866Y-62039859D01*
X37981000Y-62070464D01*
X39431000Y-62070464D01*
X39572190Y-62043897D01*
X39648956Y-61994500D01*
X39812000Y-61994500D01*
X39939000Y-61867500D01*
X39939000Y-61780952D01*
X39919402Y-61733640D01*
X40013731Y-61670611D01*
X42015210Y-59669132D01*
X42125331Y-59504325D01*
X42164000Y-59309922D01*
X42164000Y-54566420D01*
X44050831Y-52679589D01*
X55821991Y-52679589D01*
X51452580Y-57049000D01*
X51452580Y-57049000D01*
G37*
X51452580Y-57049000D02*
X48553987Y-57049000D01*
X48615473Y-56900925D01*
X48615724Y-56612940D01*
X48505749Y-56346780D01*
X48302291Y-56142966D01*
X48036323Y-56032527D01*
X47748338Y-56032276D01*
X47482178Y-56142251D01*
X47375942Y-56248301D01*
X47205800Y-56248301D01*
X47206025Y-55990639D01*
X47096050Y-55724479D01*
X46892592Y-55520665D01*
X46626624Y-55410226D01*
X46338639Y-55409975D01*
X46072479Y-55519950D01*
X45966243Y-55626000D01*
X44729000Y-55626000D01*
X44640840Y-55643536D01*
X43881000Y-55643536D01*
X43739810Y-55670103D01*
X43688000Y-55703442D01*
X43688000Y-55582420D01*
X44698525Y-54571895D01*
X44847361Y-54572025D01*
X45113521Y-54462050D01*
X45317335Y-54258592D01*
X45427774Y-53992624D01*
X45428025Y-53704639D01*
X45318050Y-53438479D01*
X45114592Y-53234665D01*
X44848624Y-53124226D01*
X44560639Y-53123975D01*
X44294479Y-53233950D01*
X44090665Y-53437408D01*
X43980226Y-53703376D01*
X43980095Y-53853485D01*
X42820790Y-55012790D01*
X42710669Y-55177597D01*
X42672000Y-55372000D01*
X42672000Y-59060000D01*
X42710669Y-59254403D01*
X42820790Y-59419210D01*
X43050579Y-59649000D01*
X42610024Y-59649000D01*
X42415621Y-59687669D01*
X42250814Y-59797789D01*
X39820552Y-62228052D01*
X39812000Y-62219500D01*
X39068500Y-62219500D01*
X39068500Y-62332000D01*
X38343500Y-62332000D01*
X38343500Y-62219500D01*
X37600000Y-62219500D01*
X37473000Y-62346500D01*
X37473000Y-62433048D01*
X37550339Y-62619759D01*
X37693242Y-62762662D01*
X37879953Y-62840000D01*
X38055687Y-62840000D01*
X37944479Y-62885950D01*
X37740665Y-63089408D01*
X37630226Y-63355376D01*
X37629975Y-63643361D01*
X37739950Y-63909521D01*
X37943408Y-64113335D01*
X38209376Y-64223774D01*
X38497361Y-64224025D01*
X38763521Y-64114050D01*
X38967335Y-63910592D01*
X38968081Y-63908795D01*
X38967929Y-64083407D01*
X39041722Y-64262000D01*
X36786421Y-64262000D01*
X36494250Y-63969829D01*
X36719361Y-63970025D01*
X36985521Y-63860050D01*
X37189335Y-63656592D01*
X37299774Y-63390624D01*
X37300025Y-63102639D01*
X37190050Y-62836479D01*
X36986592Y-62632665D01*
X36720624Y-62522226D01*
X36570515Y-62522095D01*
X35953699Y-61905279D01*
X35953699Y-60320896D01*
X36177376Y-60413774D01*
X36465361Y-60414025D01*
X36731521Y-60304050D01*
X36935335Y-60100592D01*
X36970876Y-60015000D01*
X37150580Y-60015000D01*
X36921836Y-60243744D01*
X36674479Y-60345950D01*
X36470665Y-60549408D01*
X36360226Y-60815376D01*
X36359975Y-61103361D01*
X36469950Y-61369521D01*
X36673408Y-61573335D01*
X36939376Y-61683774D01*
X37227361Y-61684025D01*
X37493521Y-61574050D01*
X37592536Y-61475208D01*
X37592536Y-61552044D01*
X37550339Y-61594241D01*
X37473000Y-61780952D01*
X37473000Y-61867500D01*
X37600000Y-61994500D01*
X37763481Y-61994500D01*
X37829866Y-62039859D01*
X37981000Y-62070464D01*
X39431000Y-62070464D01*
X39572190Y-62043897D01*
X39648956Y-61994500D01*
X39812000Y-61994500D01*
X39939000Y-61867500D01*
X39939000Y-61780952D01*
X39919402Y-61733640D01*
X40013731Y-61670611D01*
X42015210Y-59669132D01*
X42125331Y-59504325D01*
X42164000Y-59309922D01*
X42164000Y-54566420D01*
X44050831Y-52679589D01*
X55821991Y-52679589D01*
X51452580Y-57049000D01*
G36*
X69097536Y-39843957D02*
X69097536Y-41688913D01*
X69068597Y-41694669D01*
X68903790Y-41804790D01*
X66984000Y-43724580D01*
X66984000Y-42799000D01*
X66857000Y-42672000D01*
X62484000Y-42672000D01*
X62484000Y-44545000D01*
X62611000Y-44672000D01*
X66036580Y-44672000D01*
X64314159Y-46394421D01*
X64291454Y-46359135D01*
X64164134Y-46272141D01*
X64013000Y-46241536D01*
X63363000Y-46241536D01*
X63221810Y-46268103D01*
X63214813Y-46272605D01*
X63214134Y-46272141D01*
X63063000Y-46241536D01*
X62442956Y-46241536D01*
X62400759Y-46199339D01*
X62214048Y-46122000D01*
X62077500Y-46122000D01*
X61950500Y-46249000D01*
X61950500Y-46895000D01*
X62024536Y-46895000D01*
X62024536Y-47425000D01*
X61950500Y-47425000D01*
X61950500Y-47637002D01*
X61899502Y-47688000D01*
X61625500Y-47688000D01*
X61625500Y-47425000D01*
X61082000Y-47425000D01*
X60955000Y-47552000D01*
X60955000Y-47791047D01*
X61032338Y-47977758D01*
X61175241Y-48120661D01*
X61279998Y-48164053D01*
X61279998Y-48198000D01*
X61402538Y-48198000D01*
X61318669Y-48323519D01*
X61285227Y-48491643D01*
X61192135Y-48551546D01*
X61105141Y-48678866D01*
X61074536Y-48830000D01*
X61074536Y-48852000D01*
X59687464Y-48852000D01*
X59687464Y-48760000D01*
X59660897Y-48618810D01*
X59577454Y-48489135D01*
X59450134Y-48402141D01*
X59299000Y-48371536D01*
X58049000Y-48371536D01*
X57907810Y-48398103D01*
X57778135Y-48481546D01*
X57691141Y-48608866D01*
X57660536Y-48760000D01*
X57660536Y-50260000D01*
X57687103Y-50401190D01*
X57770546Y-50530865D01*
X57897866Y-50617859D01*
X58049000Y-50648464D01*
X59299000Y-50648464D01*
X59440190Y-50621897D01*
X59569865Y-50538454D01*
X59656859Y-50411134D01*
X59687464Y-50260000D01*
X59687464Y-49868000D01*
X61074536Y-49868000D01*
X61074536Y-49890000D01*
X61101103Y-50031190D01*
X61184546Y-50160865D01*
X61311866Y-50247859D01*
X61463000Y-50278464D01*
X62113000Y-50278464D01*
X62251560Y-50252392D01*
X62268669Y-50338403D01*
X62378790Y-50503210D01*
X63132757Y-51257178D01*
X43484822Y-51257178D01*
X43322672Y-51289432D01*
X43290418Y-51295847D01*
X43125611Y-51405968D01*
X40788790Y-53742790D01*
X40678669Y-53907597D01*
X40640000Y-54102000D01*
X40640000Y-56471643D01*
X40530624Y-56426226D01*
X40242639Y-56425975D01*
X39976479Y-56535950D01*
X39819464Y-56692691D01*
X39819464Y-56682000D01*
X39799957Y-56578330D01*
X39819464Y-56482000D01*
X39819464Y-56032000D01*
X39792897Y-55890810D01*
X39709454Y-55761135D01*
X39582134Y-55674141D01*
X39431000Y-55643536D01*
X37981000Y-55643536D01*
X37839810Y-55670103D01*
X37717200Y-55749000D01*
X37068426Y-55749000D01*
X36979915Y-55660489D01*
X36815108Y-55550368D01*
X36620705Y-55511699D01*
X35674301Y-55511699D01*
X35479898Y-55550368D01*
X35315091Y-55660489D01*
X35306000Y-55669580D01*
X35306000Y-47512000D01*
X57541000Y-47512000D01*
X57541000Y-47861047D01*
X57618338Y-48047758D01*
X57761241Y-48190661D01*
X57947952Y-48268000D01*
X58234500Y-48268000D01*
X58361500Y-48141000D01*
X58361500Y-47385000D01*
X58986500Y-47385000D01*
X58986500Y-48141000D01*
X59113500Y-48268000D01*
X59400048Y-48268000D01*
X59586759Y-48190661D01*
X59729662Y-48047758D01*
X59807000Y-47861047D01*
X59807000Y-47512000D01*
X59680000Y-47385000D01*
X58986500Y-47385000D01*
X58361500Y-47385000D01*
X57668000Y-47385000D01*
X57541000Y-47512000D01*
X35306000Y-47512000D01*
X35306000Y-46158953D01*
X57541000Y-46158953D01*
X57541000Y-46508000D01*
X57668000Y-46635000D01*
X58361500Y-46635000D01*
X58361500Y-45879000D01*
X58986500Y-45879000D01*
X58986500Y-46635000D01*
X59680000Y-46635000D01*
X59786047Y-46528953D01*
X60955000Y-46528953D01*
X60955000Y-46768000D01*
X61082000Y-46895000D01*
X61625500Y-46895000D01*
X61625500Y-46249000D01*
X61498500Y-46122000D01*
X61361952Y-46122000D01*
X61175241Y-46199339D01*
X61032338Y-46342242D01*
X60955000Y-46528953D01*
X59786047Y-46528953D01*
X59807000Y-46508000D01*
X59807000Y-46158953D01*
X59729662Y-45972242D01*
X59586759Y-45829339D01*
X59400048Y-45752000D01*
X59113500Y-45752000D01*
X58986500Y-45879000D01*
X58361500Y-45879000D01*
X58234500Y-45752000D01*
X57947952Y-45752000D01*
X57761241Y-45829339D01*
X57618338Y-45972242D01*
X57541000Y-46158953D01*
X35306000Y-46158953D01*
X35306000Y-45498000D01*
X35267331Y-45303597D01*
X35157210Y-45138790D01*
X33852464Y-43834044D01*
X33852464Y-42799000D01*
X56968000Y-42799000D01*
X56968000Y-44265048D01*
X57045339Y-44451759D01*
X57188242Y-44594662D01*
X57374953Y-44672000D01*
X61341000Y-44672000D01*
X61468000Y-44545000D01*
X61468000Y-42672000D01*
X57095000Y-42672000D01*
X56968000Y-42799000D01*
X33852464Y-42799000D01*
X33852464Y-40525956D01*
X34315468Y-40062952D01*
X56968000Y-40062952D01*
X56968000Y-41529000D01*
X57095000Y-41656000D01*
X61468000Y-41656000D01*
X61468000Y-39783000D01*
X62484000Y-39783000D01*
X62484000Y-41656000D01*
X66857000Y-41656000D01*
X66984000Y-41529000D01*
X66984000Y-40062952D01*
X66906661Y-39876241D01*
X66763758Y-39733338D01*
X66577047Y-39656000D01*
X62611000Y-39656000D01*
X62484000Y-39783000D01*
X61468000Y-39783000D01*
X61341000Y-39656000D01*
X57374953Y-39656000D01*
X57188242Y-39733338D01*
X57045339Y-39876241D01*
X56968000Y-40062952D01*
X34315468Y-40062952D01*
X38564421Y-35814000D01*
X65067580Y-35814000D01*
X69097536Y-39843957D01*
X69097536Y-39843957D01*
G37*
X69097536Y-39843957D02*
X69097536Y-41688913D01*
X69068597Y-41694669D01*
X68903790Y-41804790D01*
X66984000Y-43724580D01*
X66984000Y-42799000D01*
X66857000Y-42672000D01*
X62484000Y-42672000D01*
X62484000Y-44545000D01*
X62611000Y-44672000D01*
X66036580Y-44672000D01*
X64314159Y-46394421D01*
X64291454Y-46359135D01*
X64164134Y-46272141D01*
X64013000Y-46241536D01*
X63363000Y-46241536D01*
X63221810Y-46268103D01*
X63214813Y-46272605D01*
X63214134Y-46272141D01*
X63063000Y-46241536D01*
X62442956Y-46241536D01*
X62400759Y-46199339D01*
X62214048Y-46122000D01*
X62077500Y-46122000D01*
X61950500Y-46249000D01*
X61950500Y-46895000D01*
X62024536Y-46895000D01*
X62024536Y-47425000D01*
X61950500Y-47425000D01*
X61950500Y-47637002D01*
X61899502Y-47688000D01*
X61625500Y-47688000D01*
X61625500Y-47425000D01*
X61082000Y-47425000D01*
X60955000Y-47552000D01*
X60955000Y-47791047D01*
X61032338Y-47977758D01*
X61175241Y-48120661D01*
X61279998Y-48164053D01*
X61279998Y-48198000D01*
X61402538Y-48198000D01*
X61318669Y-48323519D01*
X61285227Y-48491643D01*
X61192135Y-48551546D01*
X61105141Y-48678866D01*
X61074536Y-48830000D01*
X61074536Y-48852000D01*
X59687464Y-48852000D01*
X59687464Y-48760000D01*
X59660897Y-48618810D01*
X59577454Y-48489135D01*
X59450134Y-48402141D01*
X59299000Y-48371536D01*
X58049000Y-48371536D01*
X57907810Y-48398103D01*
X57778135Y-48481546D01*
X57691141Y-48608866D01*
X57660536Y-48760000D01*
X57660536Y-50260000D01*
X57687103Y-50401190D01*
X57770546Y-50530865D01*
X57897866Y-50617859D01*
X58049000Y-50648464D01*
X59299000Y-50648464D01*
X59440190Y-50621897D01*
X59569865Y-50538454D01*
X59656859Y-50411134D01*
X59687464Y-50260000D01*
X59687464Y-49868000D01*
X61074536Y-49868000D01*
X61074536Y-49890000D01*
X61101103Y-50031190D01*
X61184546Y-50160865D01*
X61311866Y-50247859D01*
X61463000Y-50278464D01*
X62113000Y-50278464D01*
X62251560Y-50252392D01*
X62268669Y-50338403D01*
X62378790Y-50503210D01*
X63132757Y-51257178D01*
X43484822Y-51257178D01*
X43322672Y-51289432D01*
X43290418Y-51295847D01*
X43125611Y-51405968D01*
X40788790Y-53742790D01*
X40678669Y-53907597D01*
X40640000Y-54102000D01*
X40640000Y-56471643D01*
X40530624Y-56426226D01*
X40242639Y-56425975D01*
X39976479Y-56535950D01*
X39819464Y-56692691D01*
X39819464Y-56682000D01*
X39799957Y-56578330D01*
X39819464Y-56482000D01*
X39819464Y-56032000D01*
X39792897Y-55890810D01*
X39709454Y-55761135D01*
X39582134Y-55674141D01*
X39431000Y-55643536D01*
X37981000Y-55643536D01*
X37839810Y-55670103D01*
X37717200Y-55749000D01*
X37068426Y-55749000D01*
X36979915Y-55660489D01*
X36815108Y-55550368D01*
X36620705Y-55511699D01*
X35674301Y-55511699D01*
X35479898Y-55550368D01*
X35315091Y-55660489D01*
X35306000Y-55669580D01*
X35306000Y-47512000D01*
X57541000Y-47512000D01*
X57541000Y-47861047D01*
X57618338Y-48047758D01*
X57761241Y-48190661D01*
X57947952Y-48268000D01*
X58234500Y-48268000D01*
X58361500Y-48141000D01*
X58361500Y-47385000D01*
X58986500Y-47385000D01*
X58986500Y-48141000D01*
X59113500Y-48268000D01*
X59400048Y-48268000D01*
X59586759Y-48190661D01*
X59729662Y-48047758D01*
X59807000Y-47861047D01*
X59807000Y-47512000D01*
X59680000Y-47385000D01*
X58986500Y-47385000D01*
X58361500Y-47385000D01*
X57668000Y-47385000D01*
X57541000Y-47512000D01*
X35306000Y-47512000D01*
X35306000Y-46158953D01*
X57541000Y-46158953D01*
X57541000Y-46508000D01*
X57668000Y-46635000D01*
X58361500Y-46635000D01*
X58361500Y-45879000D01*
X58986500Y-45879000D01*
X58986500Y-46635000D01*
X59680000Y-46635000D01*
X59786047Y-46528953D01*
X60955000Y-46528953D01*
X60955000Y-46768000D01*
X61082000Y-46895000D01*
X61625500Y-46895000D01*
X61625500Y-46249000D01*
X61498500Y-46122000D01*
X61361952Y-46122000D01*
X61175241Y-46199339D01*
X61032338Y-46342242D01*
X60955000Y-46528953D01*
X59786047Y-46528953D01*
X59807000Y-46508000D01*
X59807000Y-46158953D01*
X59729662Y-45972242D01*
X59586759Y-45829339D01*
X59400048Y-45752000D01*
X59113500Y-45752000D01*
X58986500Y-45879000D01*
X58361500Y-45879000D01*
X58234500Y-45752000D01*
X57947952Y-45752000D01*
X57761241Y-45829339D01*
X57618338Y-45972242D01*
X57541000Y-46158953D01*
X35306000Y-46158953D01*
X35306000Y-45498000D01*
X35267331Y-45303597D01*
X35157210Y-45138790D01*
X33852464Y-43834044D01*
X33852464Y-42799000D01*
X56968000Y-42799000D01*
X56968000Y-44265048D01*
X57045339Y-44451759D01*
X57188242Y-44594662D01*
X57374953Y-44672000D01*
X61341000Y-44672000D01*
X61468000Y-44545000D01*
X61468000Y-42672000D01*
X57095000Y-42672000D01*
X56968000Y-42799000D01*
X33852464Y-42799000D01*
X33852464Y-40525956D01*
X34315468Y-40062952D01*
X56968000Y-40062952D01*
X56968000Y-41529000D01*
X57095000Y-41656000D01*
X61468000Y-41656000D01*
X61468000Y-39783000D01*
X62484000Y-39783000D01*
X62484000Y-41656000D01*
X66857000Y-41656000D01*
X66984000Y-41529000D01*
X66984000Y-40062952D01*
X66906661Y-39876241D01*
X66763758Y-39733338D01*
X66577047Y-39656000D01*
X62611000Y-39656000D01*
X62484000Y-39783000D01*
X61468000Y-39783000D01*
X61341000Y-39656000D01*
X57374953Y-39656000D01*
X57188242Y-39733338D01*
X57045339Y-39876241D01*
X56968000Y-40062952D01*
X34315468Y-40062952D01*
X38564421Y-35814000D01*
X65067580Y-35814000D01*
X69097536Y-39843957D01*
G36*
X84868000Y-55153952D02*
X84868000Y-55440500D01*
X84995000Y-55567500D01*
X85751000Y-55567500D01*
X85751000Y-55352000D01*
X86501000Y-55352000D01*
X86501000Y-55567500D01*
X87257000Y-55567500D01*
X87384000Y-55440500D01*
X87384000Y-55153952D01*
X87369108Y-55118000D01*
X87515279Y-55118000D01*
X87487536Y-55255000D01*
X87487536Y-56476000D01*
X87384000Y-56476000D01*
X87384000Y-56319500D01*
X87257000Y-56192500D01*
X86501000Y-56192500D01*
X86501000Y-56408000D01*
X85751000Y-56408000D01*
X85751000Y-56192500D01*
X84995000Y-56192500D01*
X84868000Y-56319500D01*
X84868000Y-56476000D01*
X84176464Y-56476000D01*
X84176464Y-55255000D01*
X84150685Y-55118000D01*
X84882892Y-55118000D01*
X84868000Y-55153952D01*
X84868000Y-55153952D01*
G37*
X84868000Y-55153952D02*
X84868000Y-55440500D01*
X84995000Y-55567500D01*
X85751000Y-55567500D01*
X85751000Y-55352000D01*
X86501000Y-55352000D01*
X86501000Y-55567500D01*
X87257000Y-55567500D01*
X87384000Y-55440500D01*
X87384000Y-55153952D01*
X87369108Y-55118000D01*
X87515279Y-55118000D01*
X87487536Y-55255000D01*
X87487536Y-56476000D01*
X87384000Y-56476000D01*
X87384000Y-56319500D01*
X87257000Y-56192500D01*
X86501000Y-56192500D01*
X86501000Y-56408000D01*
X85751000Y-56408000D01*
X85751000Y-56192500D01*
X84995000Y-56192500D01*
X84868000Y-56319500D01*
X84868000Y-56476000D01*
X84176464Y-56476000D01*
X84176464Y-55255000D01*
X84150685Y-55118000D01*
X84882892Y-55118000D01*
X84868000Y-55153952D01*
G36*
X95621269Y-53272611D02*
X95786076Y-53382732D01*
X95799378Y-53385378D01*
X95823000Y-53409000D01*
X95918135Y-53409000D01*
X95937127Y-53412778D01*
X95938540Y-53413743D01*
X95826642Y-53436001D01*
X95786075Y-53444070D01*
X95621269Y-53554191D01*
X95581460Y-53594000D01*
X93936420Y-53594000D01*
X93428420Y-53086000D01*
X95434658Y-53086000D01*
X95621269Y-53272611D01*
X95621269Y-53272611D01*
G37*
X95621269Y-53272611D02*
X95786076Y-53382732D01*
X95799378Y-53385378D01*
X95823000Y-53409000D01*
X95918135Y-53409000D01*
X95937127Y-53412778D01*
X95938540Y-53413743D01*
X95826642Y-53436001D01*
X95786075Y-53444070D01*
X95621269Y-53554191D01*
X95581460Y-53594000D01*
X93936420Y-53594000D01*
X93428420Y-53086000D01*
X95434658Y-53086000D01*
X95621269Y-53272611D01*
M02*
