M48
;DRILL file {KiCad 4.0.2+e4-6225~38~ubuntu15.10.1-stable} date Sun 14 Aug 2016 02:58:45 PM MDT
;FORMAT={-:-/ absolute / inch / decimal}
FMAT,2
INCH,TZ
T1C0.013
T2C0.040
%
G90
G05
M72
T1
X1.3Y-2.23
X1.4Y-2.6
X1.42Y-2.27
X1.43Y-2.23
X1.43Y-2.35
X1.44Y-2.49
X1.45Y-2.58
X1.4505Y-2.443
X1.46Y-2.4
X1.47Y-2.68
X1.51Y-2.5
X1.5627Y-2.5173
X1.59Y-2.25
X1.6148Y-2.3948
X1.76Y-2.12
X1.8Y-2.53
X1.83Y-2.21
X1.84Y-2.85
X1.87Y-2.39
X1.8855Y-2.2345
X1.92Y-2.48
X1.94Y-2.7
X2.04Y-2.36
X2.16Y-2.27
X2.17Y-2.21
X2.26Y-2.1255
X2.29Y-2.75
X2.39Y-1.8
X2.46Y-3.
X2.53Y-1.99
X2.57Y-1.9
X2.61Y-1.85
X2.67Y-2.73
X2.89Y-2.73
X3.11Y-2.73
X3.16Y-2.92
X3.27Y-2.67
X3.33Y-2.2
X3.66Y-2.73
X3.73Y-2.1
T2
X1.08Y-3.04
X1.18Y-3.04
X1.28Y-3.04
X1.38Y-3.04
X1.48Y-3.04
X1.58Y-3.04
T0
M30
