G04 #@! TF.FileFunction,Copper,L1,Top,Signal*
%FSLAX46Y46*%
G04 Gerber Fmt 4.6, Leading zero omitted, Abs format (unit mm)*
G04 Created by KiCad (PCBNEW 4.0.2+e4-6225~38~ubuntu15.10.1-stable) date Fri 13 May 2016 03:38:29 PM MDT*
%MOMM*%
G01*
G04 APERTURE LIST*
%ADD10C,0.100000*%
%ADD11R,1.000760X0.599440*%
%ADD12R,2.200000X1.800000*%
%ADD13R,1.300000X0.300000*%
%ADD14R,1.500000X1.250000*%
%ADD15R,1.250000X1.500000*%
%ADD16R,2.032000X1.727200*%
%ADD17O,2.032000X1.727200*%
%ADD18R,0.599440X1.000760*%
%ADD19R,1.500000X1.300000*%
%ADD20R,1.300000X1.500000*%
%ADD21R,2.750000X1.000000*%
%ADD22R,1.450000X0.450000*%
%ADD23R,5.300000X5.300000*%
%ADD24C,17.780000*%
%ADD25C,0.685800*%
%ADD26C,0.254000*%
%ADD27C,1.016000*%
%ADD28C,0.508000*%
G04 APERTURE END LIST*
D10*
D11*
X62169040Y-53355240D03*
X62169040Y-52054760D03*
X64068960Y-52705000D03*
D12*
X101247000Y-52893000D03*
D13*
X97997000Y-73143000D03*
X97997000Y-73643000D03*
X97997000Y-74143000D03*
X97997000Y-72643000D03*
X97997000Y-72143000D03*
X97997000Y-71643000D03*
X97997000Y-71143000D03*
X97997000Y-70643000D03*
X97997000Y-70143000D03*
X97997000Y-69643000D03*
X97997000Y-69143000D03*
X97997000Y-68643000D03*
X97997000Y-68143000D03*
X97997000Y-67643000D03*
X97997000Y-67143000D03*
X97997000Y-66643000D03*
X97997000Y-66143000D03*
X97997000Y-65643000D03*
X97997000Y-65143000D03*
X97997000Y-64643000D03*
X97997000Y-64143000D03*
X97997000Y-63643000D03*
X97997000Y-63143000D03*
X97997000Y-62643000D03*
X97997000Y-62143000D03*
X97997000Y-61643000D03*
X97997000Y-61143000D03*
X97997000Y-60643000D03*
X97997000Y-60143000D03*
X97997000Y-59643000D03*
X97997000Y-59143000D03*
X97997000Y-58643000D03*
X97997000Y-58143000D03*
X97997000Y-57643000D03*
X97997000Y-57143000D03*
X97997000Y-56643000D03*
X97997000Y-56143000D03*
X97997000Y-55643000D03*
X97997000Y-55143000D03*
X97997000Y-54643000D03*
D12*
X101247000Y-75893000D03*
D14*
X51415000Y-56261000D03*
X48915000Y-56261000D03*
X54209000Y-53213000D03*
X51709000Y-53213000D03*
D15*
X59817000Y-57043000D03*
X59817000Y-59543000D03*
D14*
X95036000Y-35814000D03*
X97536000Y-35814000D03*
X75545000Y-66167000D03*
X73045000Y-66167000D03*
X86721000Y-62103000D03*
X84221000Y-62103000D03*
X81133000Y-66167000D03*
X78633000Y-66167000D03*
X81133000Y-62103000D03*
X78633000Y-62103000D03*
X69957000Y-58293000D03*
X67457000Y-58293000D03*
D15*
X64135000Y-58059000D03*
X64135000Y-60559000D03*
D14*
X63480000Y-48768000D03*
X60980000Y-48768000D03*
X86721000Y-66167000D03*
X84221000Y-66167000D03*
X75545000Y-62103000D03*
X73045000Y-62103000D03*
D15*
X37744400Y-55798400D03*
X37744400Y-58298400D03*
D14*
X86721000Y-69723000D03*
X84221000Y-69723000D03*
X75545000Y-69723000D03*
X73045000Y-69723000D03*
X86701000Y-58293000D03*
X84201000Y-58293000D03*
X81133000Y-69723000D03*
X78633000Y-69723000D03*
X81133000Y-58293000D03*
X78633000Y-58293000D03*
X49169000Y-74549000D03*
X51669000Y-74549000D03*
D11*
X58988960Y-52562760D03*
X58988960Y-53863240D03*
X57089040Y-53213000D03*
D14*
X56154000Y-72390000D03*
X58654000Y-72390000D03*
D16*
X31877000Y-70993000D03*
D17*
X31877000Y-68453000D03*
X31877000Y-65913000D03*
X31877000Y-63373000D03*
X31877000Y-60833000D03*
X31877000Y-58293000D03*
D18*
X41417240Y-60512960D03*
X40116760Y-60512960D03*
X40767000Y-58613040D03*
D11*
X48066960Y-58912760D03*
X48066960Y-60213240D03*
X46167040Y-59563000D03*
X51247040Y-60213240D03*
X51247040Y-58912760D03*
X53146960Y-59563000D03*
X108772960Y-44942760D03*
X108772960Y-46243240D03*
X106873040Y-45593000D03*
X62169040Y-56149240D03*
X62169040Y-54848760D03*
X64068960Y-55499000D03*
X96133920Y-44053760D03*
X96133920Y-45354240D03*
X94234000Y-44704000D03*
D19*
X45419000Y-56261000D03*
X42719000Y-56261000D03*
D20*
X56007000Y-56943000D03*
X56007000Y-59643000D03*
D19*
X97616000Y-39116000D03*
X94916000Y-39116000D03*
X103585000Y-45593000D03*
X100885000Y-45593000D03*
X96473000Y-52705000D03*
X93773000Y-52705000D03*
X75645000Y-58293000D03*
X72945000Y-58293000D03*
X58754000Y-68580000D03*
X56054000Y-68580000D03*
D20*
X28575000Y-68119000D03*
X28575000Y-70819000D03*
D21*
X37338000Y-75692000D03*
X43088000Y-75692000D03*
X43088000Y-71692000D03*
X37338000Y-71692000D03*
D22*
X52607000Y-71378000D03*
X52607000Y-70728000D03*
X52607000Y-70078000D03*
X52607000Y-69428000D03*
X52607000Y-68778000D03*
X52607000Y-68128000D03*
X52607000Y-67478000D03*
X52607000Y-66828000D03*
X52607000Y-66178000D03*
X52607000Y-65528000D03*
X46707000Y-65528000D03*
X46707000Y-66178000D03*
X46707000Y-66828000D03*
X46707000Y-67478000D03*
X46707000Y-68128000D03*
X46707000Y-68778000D03*
X46707000Y-69428000D03*
X46707000Y-70078000D03*
X46707000Y-70728000D03*
X46707000Y-71378000D03*
D23*
X61746000Y-41910000D03*
X90146000Y-41910000D03*
D24*
X75946000Y-41910000D03*
D23*
X27202000Y-41910000D03*
X55602000Y-41910000D03*
D24*
X41402000Y-41910000D03*
D25*
X29210000Y-47244000D03*
X54356000Y-70358000D03*
X44069000Y-59309000D03*
X49657000Y-61341000D03*
X102362000Y-49784000D03*
X34290000Y-73914000D03*
X70358000Y-66802000D03*
X52324000Y-50038000D03*
X55880000Y-66150310D03*
X93599000Y-54737000D03*
X69957000Y-60559000D03*
X49403000Y-69469000D03*
X50165000Y-70231012D03*
X48641000Y-70993000D03*
X95377000Y-74549000D03*
X64135000Y-67691000D03*
X70485000Y-69469000D03*
X44450000Y-67564000D03*
X106426000Y-47752000D03*
X60960000Y-52070000D03*
X60198000Y-54864000D03*
X57912000Y-60960000D03*
D26*
X29210000Y-47244000D02*
X27202000Y-45236000D01*
X27202000Y-45236000D02*
X27202000Y-41910000D01*
D27*
X90146000Y-41910000D02*
X90146000Y-37237800D01*
X90146000Y-37237800D02*
X84150200Y-31242000D01*
X84150200Y-31242000D02*
X68748000Y-31242000D01*
X68748000Y-31242000D02*
X61746000Y-38244000D01*
X61746000Y-38244000D02*
X61746000Y-41910000D01*
D28*
X51669000Y-74549000D02*
X51943000Y-74549000D01*
X52578000Y-71407000D02*
X52607000Y-71378000D01*
X51943000Y-74549000D02*
X52578000Y-73914000D01*
X52578000Y-73914000D02*
X52578000Y-71407000D01*
D27*
X51669000Y-74549000D02*
X51485800Y-74549000D01*
X51485800Y-74549000D02*
X51587400Y-74650600D01*
X51587400Y-74650600D02*
X51587400Y-76835000D01*
X51587400Y-76835000D02*
X49707800Y-78714600D01*
X49707800Y-78714600D02*
X35255200Y-78714600D01*
X31877000Y-72872600D02*
X31877000Y-70993000D01*
X35255200Y-78714600D02*
X31877000Y-75336400D01*
X31877000Y-75336400D02*
X31877000Y-72872600D01*
X28575000Y-70819000D02*
X31703000Y-70819000D01*
X31703000Y-70819000D02*
X31877000Y-70993000D01*
X28575000Y-70819000D02*
X27181800Y-70819000D01*
X27181800Y-70819000D02*
X25933400Y-69570600D01*
X25933400Y-69570600D02*
X25933400Y-46844600D01*
X25933400Y-46844600D02*
X27202000Y-45576000D01*
X27202000Y-45576000D02*
X27202000Y-41910000D01*
X55602000Y-41910000D02*
X55602000Y-38244000D01*
X55602000Y-38244000D02*
X48574600Y-31216600D01*
X48574600Y-31216600D02*
X34229400Y-31216600D01*
X34229400Y-31216600D02*
X27202000Y-38244000D01*
X27202000Y-38244000D02*
X27202000Y-41910000D01*
X55602000Y-41910000D02*
X61746000Y-41910000D01*
D26*
X54356000Y-70608000D02*
X54356000Y-70358000D01*
X52607000Y-71378000D02*
X53586000Y-71378000D01*
X53586000Y-71378000D02*
X54356000Y-70608000D01*
X45158660Y-59309000D02*
X44069000Y-59309000D01*
X46167040Y-59563000D02*
X45412660Y-59563000D01*
X45412660Y-59563000D02*
X45158660Y-59309000D01*
X50673000Y-61341000D02*
X49657000Y-61341000D01*
X51247040Y-60213240D02*
X51247040Y-60766960D01*
X51247040Y-60766960D02*
X50673000Y-61341000D01*
X101247000Y-52893000D02*
X101247000Y-50899000D01*
X101247000Y-50899000D02*
X102362000Y-49784000D01*
X37338000Y-71692000D02*
X37338000Y-72446000D01*
X37338000Y-72446000D02*
X35870000Y-73914000D01*
X35870000Y-73914000D02*
X34290000Y-73914000D01*
X46707000Y-71378000D02*
X43402000Y-71378000D01*
X43402000Y-71378000D02*
X43088000Y-71692000D01*
X51415000Y-56261000D02*
X51290000Y-56261000D01*
X59928760Y-52562760D02*
X60721240Y-53355240D01*
X60721240Y-53355240D02*
X62169040Y-53355240D01*
X58988960Y-52562760D02*
X59928760Y-52562760D01*
X59817000Y-57043000D02*
X61829000Y-57043000D01*
X61829000Y-57043000D02*
X62169040Y-56702960D01*
X62169040Y-56702960D02*
X62169040Y-56149240D01*
X64135000Y-60559000D02*
X63256000Y-60559000D01*
X63256000Y-60559000D02*
X62169040Y-59472040D01*
X62169040Y-59472040D02*
X62169040Y-56702960D01*
X97997000Y-58143000D02*
X98799922Y-58143000D01*
X98799922Y-58143000D02*
X101247000Y-55695922D01*
X101247000Y-55695922D02*
X101247000Y-54047000D01*
X101247000Y-54047000D02*
X101247000Y-52893000D01*
X84221000Y-69723000D02*
X84221000Y-70602000D01*
X84221000Y-70602000D02*
X83703000Y-71120000D01*
X83703000Y-71120000D02*
X72390000Y-71120000D01*
X71374000Y-70104000D02*
X71374000Y-68326000D01*
X71374000Y-68326000D02*
X70358000Y-67310000D01*
X72390000Y-71120000D02*
X71374000Y-70104000D01*
X70358000Y-67310000D02*
X70358000Y-66802000D01*
X97997000Y-73143000D02*
X99651000Y-73143000D01*
X99651000Y-73143000D02*
X101247000Y-74739000D01*
X101247000Y-74739000D02*
X101247000Y-75893000D01*
X49169000Y-74549000D02*
X49044000Y-74549000D01*
X49044000Y-74549000D02*
X46707000Y-72212000D01*
X46707000Y-72212000D02*
X46707000Y-71378000D01*
X45419000Y-56261000D02*
X45519000Y-56261000D01*
X45519000Y-56261000D02*
X48066960Y-58808960D01*
X48066960Y-58808960D02*
X48066960Y-58912760D01*
X48915000Y-56261000D02*
X48915000Y-58265380D01*
X48915000Y-58265380D02*
X48267620Y-58912760D01*
X48267620Y-58912760D02*
X48066960Y-58912760D01*
X48066960Y-58912760D02*
X51247040Y-58912760D01*
X54209000Y-53213000D02*
X57089040Y-53213000D01*
X52324000Y-50038000D02*
X51709000Y-50653000D01*
X51709000Y-50653000D02*
X51709000Y-53213000D01*
X53702000Y-66294000D02*
X55736310Y-66294000D01*
X55736310Y-66294000D02*
X55880000Y-66150310D01*
X52607000Y-66178000D02*
X53586000Y-66178000D01*
X53586000Y-66178000D02*
X53702000Y-66294000D01*
X98901000Y-58643000D02*
X97997000Y-58643000D01*
X103378000Y-52324000D02*
X103378000Y-54166000D01*
X107188000Y-50800000D02*
X104902000Y-50800000D01*
X110060741Y-47927259D02*
X107188000Y-50800000D01*
X104902000Y-50800000D02*
X103378000Y-52324000D01*
X110060741Y-46029881D02*
X110060741Y-47927259D01*
X108973620Y-44942760D02*
X110060741Y-46029881D01*
X103378000Y-54166000D02*
X98901000Y-58643000D01*
X108772960Y-44942760D02*
X108973620Y-44942760D01*
X59817000Y-59543000D02*
X60696000Y-59543000D01*
X93418865Y-59143000D02*
X97997000Y-59143000D01*
X60696000Y-59543000D02*
X63510000Y-62357000D01*
X64897000Y-62357000D02*
X65659000Y-61595000D01*
X63510000Y-62357000D02*
X64897000Y-62357000D01*
X65659000Y-61595000D02*
X65659000Y-58127398D01*
X65659000Y-58127398D02*
X68515437Y-55270961D01*
X68515437Y-55270961D02*
X89546826Y-55270961D01*
X89546826Y-55270961D02*
X93418865Y-59143000D01*
X97997000Y-58643000D02*
X97997000Y-59143000D01*
X56007000Y-59643000D02*
X59717000Y-59643000D01*
X59717000Y-59643000D02*
X59817000Y-59543000D01*
X53146960Y-59563000D02*
X55927000Y-59563000D01*
X55927000Y-59563000D02*
X56007000Y-59643000D01*
X95036000Y-35814000D02*
X95036000Y-38996000D01*
X95036000Y-38996000D02*
X94916000Y-39116000D01*
X94916000Y-39116000D02*
X95016000Y-39116000D01*
X96540000Y-37592000D02*
X98806000Y-37592000D01*
X95016000Y-39116000D02*
X96540000Y-37592000D01*
X99016820Y-46736000D02*
X98926401Y-46645581D01*
X98806000Y-37592000D02*
X102108000Y-40894000D01*
X102108000Y-40894000D02*
X102108000Y-46482000D01*
X102108000Y-46482000D02*
X101854000Y-46736000D01*
X101854000Y-46736000D02*
X99016820Y-46736000D01*
X98926401Y-56117599D02*
X98926401Y-46645581D01*
X97997000Y-56143000D02*
X98901000Y-56143000D01*
X98901000Y-56143000D02*
X98926401Y-56117599D01*
X98926401Y-46645581D02*
X96334580Y-44053760D01*
X96334580Y-44053760D02*
X96133920Y-44053760D01*
X78863030Y-63852970D02*
X88610902Y-63852970D01*
X88610902Y-63852970D02*
X90400932Y-65643000D01*
X90400932Y-65643000D02*
X97997000Y-65643000D01*
X75545000Y-66167000D02*
X76549000Y-66167000D01*
X76549000Y-66167000D02*
X78863030Y-63852970D01*
X97997000Y-65143000D02*
X90542998Y-65143000D01*
X90542998Y-65143000D02*
X88798959Y-63398960D01*
X88798959Y-63398960D02*
X75938040Y-63398960D01*
X75938040Y-63398960D02*
X73170000Y-66167000D01*
X73170000Y-66167000D02*
X73045000Y-66167000D01*
X97974001Y-65165999D02*
X97997000Y-65143000D01*
X97997000Y-64643000D02*
X90685064Y-64643000D01*
X90685064Y-64643000D02*
X88145064Y-62103000D01*
X88145064Y-62103000D02*
X86721000Y-62103000D01*
X97997000Y-64143000D02*
X91067000Y-64143000D01*
X91067000Y-64143000D02*
X88074999Y-61150999D01*
X88074999Y-61150999D02*
X85298001Y-61150999D01*
X85298001Y-61150999D02*
X84346000Y-62103000D01*
X84346000Y-62103000D02*
X84221000Y-62103000D01*
X81133000Y-66167000D02*
X81133000Y-65288000D01*
X81133000Y-65288000D02*
X81660011Y-64760989D01*
X81660011Y-64760989D02*
X88128989Y-64760989D01*
X88128989Y-64760989D02*
X90011000Y-66643000D01*
X90011000Y-66643000D02*
X97997000Y-66643000D01*
X90258864Y-66143000D02*
X97997000Y-66143000D01*
X80618019Y-64306981D02*
X88422845Y-64306981D01*
X78758000Y-66167000D02*
X80618019Y-64306981D01*
X88422845Y-64306981D02*
X90258864Y-66143000D01*
X78633000Y-66167000D02*
X78758000Y-66167000D01*
X97997000Y-63643000D02*
X91329000Y-63643000D01*
X91329000Y-63643000D02*
X88382989Y-60696989D01*
X88382989Y-60696989D02*
X83543011Y-60696989D01*
X83543011Y-60696989D02*
X82137000Y-62103000D01*
X82137000Y-62103000D02*
X81133000Y-62103000D01*
X97997000Y-63143000D02*
X91471062Y-63143000D01*
X91471062Y-63143000D02*
X88571041Y-60242979D01*
X88571041Y-60242979D02*
X80618021Y-60242979D01*
X80618021Y-60242979D02*
X78758000Y-62103000D01*
X78758000Y-62103000D02*
X78633000Y-62103000D01*
X97997000Y-55143000D02*
X97997000Y-54643000D01*
X93599000Y-54737000D02*
X97903000Y-54737000D01*
X97903000Y-54737000D02*
X97997000Y-54643000D01*
X69957000Y-58293000D02*
X69957000Y-60559000D01*
X97997000Y-55143000D02*
X97997000Y-54129000D01*
X97997000Y-54129000D02*
X96573000Y-52705000D01*
X96573000Y-52705000D02*
X96473000Y-52705000D01*
X72945000Y-58293000D02*
X69957000Y-58293000D01*
X64135000Y-58059000D02*
X64135000Y-55565040D01*
X64135000Y-55565040D02*
X64068960Y-55499000D01*
X64068960Y-55499000D02*
X64823340Y-55499000D01*
X89734881Y-54816949D02*
X92560932Y-57643000D01*
X65505391Y-54816949D02*
X89734881Y-54816949D01*
X92560932Y-57643000D02*
X97997000Y-57643000D01*
X64823340Y-55499000D02*
X65505391Y-54816949D01*
X63480000Y-48768000D02*
X64262000Y-49550000D01*
X64262000Y-49550000D02*
X64262000Y-52511960D01*
X64262000Y-52511960D02*
X64068960Y-52705000D01*
X97997000Y-56643000D02*
X92845066Y-56643000D01*
X92845066Y-56643000D02*
X88907066Y-52705000D01*
X88907066Y-52705000D02*
X64068960Y-52705000D01*
X86721000Y-66167000D02*
X88011000Y-66167000D01*
X88011000Y-66167000D02*
X89487000Y-67643000D01*
X89487000Y-67643000D02*
X97997000Y-67643000D01*
X84221000Y-66167000D02*
X84221000Y-65288000D01*
X84221000Y-65288000D02*
X84294001Y-65214999D01*
X87820999Y-65214999D02*
X89741399Y-67135399D01*
X97093000Y-67143000D02*
X97997000Y-67143000D01*
X84294001Y-65214999D02*
X87820999Y-65214999D01*
X89741399Y-67135399D02*
X97085399Y-67135399D01*
X97085399Y-67135399D02*
X97093000Y-67143000D01*
X97997000Y-62643000D02*
X91853000Y-62643000D01*
X88998969Y-59788969D02*
X78863031Y-59788969D01*
X91853000Y-62643000D02*
X88998969Y-59788969D01*
X76549000Y-62103000D02*
X75545000Y-62103000D01*
X78863031Y-59788969D02*
X76549000Y-62103000D01*
X97997000Y-62143000D02*
X92115000Y-62143000D01*
X92115000Y-62143000D02*
X89306959Y-59334959D01*
X89306959Y-59334959D02*
X75938041Y-59334959D01*
X75938041Y-59334959D02*
X73170000Y-62103000D01*
X73170000Y-62103000D02*
X73045000Y-62103000D01*
X58988960Y-53863240D02*
X58788300Y-53863240D01*
X58788300Y-53863240D02*
X58234580Y-54416960D01*
X58234580Y-54416960D02*
X50574960Y-54416960D01*
X50574960Y-54416960D02*
X49371000Y-53213000D01*
X49371000Y-53213000D02*
X41208800Y-53213000D01*
X38623400Y-55798400D02*
X37744400Y-55798400D01*
X41208800Y-53213000D02*
X38623400Y-55798400D01*
X58988960Y-53863240D02*
X59743340Y-53863240D01*
X59743340Y-53863240D02*
X59855100Y-53975000D01*
X61400098Y-53975000D02*
X61407059Y-53981961D01*
X62937982Y-53975000D02*
X89535000Y-53975000D01*
X59855100Y-53975000D02*
X61400098Y-53975000D01*
X61407059Y-53981961D02*
X62931021Y-53981961D01*
X62931021Y-53981961D02*
X62937982Y-53975000D01*
X89535000Y-53975000D02*
X92703000Y-57143000D01*
X92703000Y-57143000D02*
X97997000Y-57143000D01*
X97997000Y-70143000D02*
X87141000Y-70143000D01*
X87141000Y-70143000D02*
X86721000Y-69723000D01*
X75545000Y-69723000D02*
X75670000Y-69723000D01*
X75670000Y-69723000D02*
X77625822Y-67767178D01*
X77625822Y-67767178D02*
X88087178Y-67767178D01*
X88087178Y-67767178D02*
X88963000Y-68643000D01*
X88963000Y-68643000D02*
X97093000Y-68643000D01*
X97093000Y-68643000D02*
X97997000Y-68643000D01*
X73045000Y-69723000D02*
X73170000Y-69723000D01*
X73170000Y-69723000D02*
X75532233Y-67360767D01*
X75532233Y-67360767D02*
X88442767Y-67360767D01*
X88442767Y-67360767D02*
X89225000Y-68143000D01*
X89225000Y-68143000D02*
X97093000Y-68143000D01*
X97093000Y-68143000D02*
X97997000Y-68143000D01*
X97997000Y-61643000D02*
X92377000Y-61643000D01*
X92377000Y-61643000D02*
X88773000Y-58039000D01*
X88773000Y-58039000D02*
X86721000Y-58039000D01*
X97997000Y-61143000D02*
X92639000Y-61143000D01*
X92639000Y-61143000D02*
X88582999Y-57086999D01*
X88582999Y-57086999D02*
X85298001Y-57086999D01*
X85298001Y-57086999D02*
X84346000Y-58039000D01*
X84346000Y-58039000D02*
X84221000Y-58039000D01*
X97997000Y-69643000D02*
X88604602Y-69643000D01*
X82137000Y-69723000D02*
X81133000Y-69723000D01*
X88604602Y-69643000D02*
X87541602Y-68580000D01*
X87541602Y-68580000D02*
X83280000Y-68580000D01*
X83280000Y-68580000D02*
X82137000Y-69723000D01*
X97997000Y-69143000D02*
X97093000Y-69143000D01*
X97093000Y-69143000D02*
X97070001Y-69165999D01*
X97070001Y-69165999D02*
X88702352Y-69165999D01*
X80162411Y-68173589D02*
X78740000Y-69596000D01*
X78740000Y-69616000D02*
X78633000Y-69723000D01*
X88702352Y-69165999D02*
X87709942Y-68173589D01*
X87709942Y-68173589D02*
X80162411Y-68173589D01*
X78740000Y-69596000D02*
X78740000Y-69616000D01*
X97997000Y-60643000D02*
X92781066Y-60643000D01*
X92781066Y-60643000D02*
X88771056Y-56632989D01*
X88771056Y-56632989D02*
X82918011Y-56632989D01*
X82918011Y-56632989D02*
X81258000Y-58293000D01*
X81258000Y-58293000D02*
X81133000Y-58293000D01*
X78758000Y-58293000D02*
X78633000Y-58293000D01*
X80872018Y-56178982D02*
X78758000Y-58293000D01*
X89170710Y-56178982D02*
X80872018Y-56178982D01*
X97997000Y-60143000D02*
X93134728Y-60143000D01*
X93134728Y-60143000D02*
X89170710Y-56178982D01*
X58654000Y-72390000D02*
X58654000Y-68680000D01*
X58654000Y-68680000D02*
X58754000Y-68580000D01*
X46707000Y-69428000D02*
X45126000Y-69428000D01*
X45126000Y-69428000D02*
X44958000Y-69596000D01*
X44958000Y-69596000D02*
X43688000Y-69596000D01*
X43688000Y-69596000D02*
X40640000Y-66548000D01*
X40640000Y-66548000D02*
X33782000Y-66548000D01*
X33782000Y-66548000D02*
X31877000Y-68453000D01*
X46707000Y-68778000D02*
X46651000Y-68834000D01*
X46651000Y-68834000D02*
X43688000Y-68834000D01*
X43688000Y-68834000D02*
X40767000Y-65913000D01*
X40767000Y-65913000D02*
X31877000Y-65913000D01*
X28575000Y-68119000D02*
X30781000Y-65913000D01*
X30781000Y-65913000D02*
X31877000Y-65913000D01*
X49403000Y-69469000D02*
X49444000Y-69428000D01*
X49444000Y-69428000D02*
X52607000Y-69428000D01*
X50318012Y-70078000D02*
X50165000Y-70231012D01*
X52607000Y-70078000D02*
X50318012Y-70078000D01*
X97997000Y-73643000D02*
X67547000Y-73643000D01*
X60732000Y-66828000D02*
X52607000Y-66828000D01*
X67547000Y-73643000D02*
X60732000Y-66828000D01*
X46707000Y-70728000D02*
X48376000Y-70728000D01*
X48376000Y-70728000D02*
X48641000Y-70993000D01*
X95783000Y-74143000D02*
X97997000Y-74143000D01*
X95377000Y-74549000D02*
X95783000Y-74143000D01*
X97997000Y-72643000D02*
X84479004Y-72643000D01*
X84479004Y-72643000D02*
X84376360Y-72745644D01*
X70459644Y-72745644D02*
X61087000Y-63373000D01*
X84376360Y-72745644D02*
X70459644Y-72745644D01*
X50800000Y-65278000D02*
X50800000Y-66650000D01*
X61087000Y-63373000D02*
X52705000Y-63373000D01*
X52705000Y-63373000D02*
X50800000Y-65278000D01*
X50800000Y-66650000D02*
X51628000Y-67478000D01*
X51628000Y-67478000D02*
X52607000Y-67478000D01*
X52517750Y-62865000D02*
X49149000Y-66233750D01*
X61341000Y-62865000D02*
X52517750Y-62865000D01*
X70815233Y-72339233D02*
X61341000Y-62865000D01*
X84208020Y-72339233D02*
X70815233Y-72339233D01*
X49149000Y-66665000D02*
X47686000Y-68128000D01*
X84404253Y-72143000D02*
X84208020Y-72339233D01*
X49149000Y-66233750D02*
X49149000Y-66665000D01*
X97997000Y-72143000D02*
X84404253Y-72143000D01*
X47686000Y-68128000D02*
X46707000Y-68128000D01*
X84329502Y-71643000D02*
X84039680Y-71932822D01*
X97997000Y-71643000D02*
X84329502Y-71643000D01*
X84039680Y-71932822D02*
X71170822Y-71932822D01*
X71170822Y-71932822D02*
X61595000Y-62357000D01*
X61595000Y-62357000D02*
X52451000Y-62357000D01*
X52451000Y-62357000D02*
X48641000Y-66167000D01*
X48641000Y-66167000D02*
X48641000Y-66523000D01*
X48641000Y-66523000D02*
X47686000Y-67478000D01*
X47686000Y-67478000D02*
X46707000Y-67478000D01*
X72057478Y-71526411D02*
X70485000Y-69953933D01*
X97997000Y-71143000D02*
X84254751Y-71143000D01*
X70485000Y-69953933D02*
X70485000Y-69469000D01*
X83871340Y-71526411D02*
X72057478Y-71526411D01*
X84254751Y-71143000D02*
X83871340Y-71526411D01*
X61972000Y-65528000D02*
X52607000Y-65528000D01*
X64135000Y-67691000D02*
X61972000Y-65528000D01*
X89358767Y-55724971D02*
X79217029Y-55724971D01*
X76649000Y-58293000D02*
X75645000Y-58293000D01*
X79217029Y-55724971D02*
X76649000Y-58293000D01*
X97997000Y-59643000D02*
X93276796Y-59643000D01*
X93276796Y-59643000D02*
X89358767Y-55724971D01*
X97997000Y-55643000D02*
X92727000Y-55643000D01*
X91694000Y-54610000D02*
X91694000Y-53594000D01*
X92727000Y-55643000D02*
X91694000Y-54610000D01*
X91694000Y-53594000D02*
X92583000Y-52705000D01*
X92583000Y-52705000D02*
X93773000Y-52705000D01*
X93773000Y-52705000D02*
X93773000Y-45165000D01*
X93773000Y-45165000D02*
X94234000Y-44704000D01*
X46707000Y-65528000D02*
X48066960Y-64168040D01*
X48066960Y-64168040D02*
X48066960Y-60213240D01*
X40116760Y-60512960D02*
X45131800Y-65528000D01*
X45131800Y-65528000D02*
X46707000Y-65528000D01*
X42719000Y-56261000D02*
X42619000Y-56261000D01*
X42619000Y-56261000D02*
X40767000Y-58113000D01*
X40767000Y-58113000D02*
X40767000Y-58613040D01*
X44450000Y-67564000D02*
X45186000Y-66828000D01*
X45186000Y-66828000D02*
X46707000Y-66828000D01*
X108572300Y-46243240D02*
X107063540Y-47752000D01*
X107063540Y-47752000D02*
X106426000Y-47752000D01*
X108772960Y-46243240D02*
X108572300Y-46243240D01*
X46681000Y-66802000D02*
X46707000Y-66828000D01*
X103585000Y-45593000D02*
X106873040Y-45593000D01*
X60960000Y-52070000D02*
X62153800Y-52070000D01*
X62153800Y-52070000D02*
X62169040Y-52054760D01*
X60198000Y-54864000D02*
X62153800Y-54864000D01*
X62153800Y-54864000D02*
X62169040Y-54848760D01*
X52396000Y-61468000D02*
X57404000Y-61468000D01*
X57404000Y-61468000D02*
X57912000Y-60960000D01*
X46707000Y-66178000D02*
X47686000Y-66178000D01*
X47686000Y-66178000D02*
X52396000Y-61468000D01*
X97616000Y-39116000D02*
X97616000Y-42424000D01*
X97616000Y-42424000D02*
X100785000Y-45593000D01*
X100785000Y-45593000D02*
X100885000Y-45593000D01*
X100885000Y-45593000D02*
X99881000Y-45593000D01*
X99881000Y-45593000D02*
X97214000Y-42926000D01*
X95250000Y-43180000D02*
X95250000Y-44704000D01*
X97214000Y-42926000D02*
X95504000Y-42926000D01*
X95504000Y-42926000D02*
X95250000Y-43180000D01*
X95250000Y-44704000D02*
X95900240Y-45354240D01*
X95900240Y-45354240D02*
X96133920Y-45354240D01*
X52607000Y-70728000D02*
X53586000Y-70728000D01*
X53586000Y-70728000D02*
X53611401Y-70702599D01*
X53611401Y-70702599D02*
X53611401Y-70018599D01*
X53611401Y-70018599D02*
X55050000Y-68580000D01*
X55050000Y-68580000D02*
X56054000Y-68580000D01*
X43088000Y-75692000D02*
X50038000Y-75692000D01*
X48514000Y-69501006D02*
X48514000Y-68834000D01*
X50038000Y-75692000D02*
X50546000Y-75184000D01*
X50546000Y-75184000D02*
X50546000Y-71533006D01*
X50546000Y-71533006D02*
X48514000Y-69501006D01*
X48514000Y-68834000D02*
X49276000Y-68072000D01*
X51628000Y-68778000D02*
X52607000Y-68778000D01*
X49276000Y-68072000D02*
X50922000Y-68072000D01*
X50922000Y-68072000D02*
X51628000Y-68778000D01*
X37338000Y-75692000D02*
X43088000Y-75692000D01*
G36*
X110649094Y-30467888D02*
X111322293Y-30917707D01*
X111772112Y-31590906D01*
X111939000Y-32429911D01*
X111939000Y-78060089D01*
X111772112Y-78899094D01*
X111322293Y-79572293D01*
X110649094Y-80022112D01*
X109810089Y-80189000D01*
X26079911Y-80189000D01*
X25240906Y-80022112D01*
X24567707Y-79572293D01*
X24117888Y-78899094D01*
X23951000Y-78060089D01*
X23951000Y-39260000D01*
X24163536Y-39260000D01*
X24163536Y-44560000D01*
X24190103Y-44701190D01*
X24273546Y-44830865D01*
X24400866Y-44917859D01*
X24552000Y-44948464D01*
X26313000Y-44948464D01*
X26313000Y-45207764D01*
X25304782Y-46215982D01*
X25112071Y-46504394D01*
X25044400Y-46844600D01*
X25044400Y-69570600D01*
X25112071Y-69910806D01*
X25246726Y-70112331D01*
X25304782Y-70199218D01*
X26553182Y-71447618D01*
X26841594Y-71640329D01*
X27181800Y-71708000D01*
X27562691Y-71708000D01*
X27563103Y-71710190D01*
X27646546Y-71839865D01*
X27773866Y-71926859D01*
X27925000Y-71957464D01*
X29225000Y-71957464D01*
X29366190Y-71930897D01*
X29495865Y-71847454D01*
X29582859Y-71720134D01*
X29585316Y-71708000D01*
X30472536Y-71708000D01*
X30472536Y-71856600D01*
X30499103Y-71997790D01*
X30582546Y-72127465D01*
X30709866Y-72214459D01*
X30861000Y-72245064D01*
X30988000Y-72245064D01*
X30988000Y-75336400D01*
X31055671Y-75676606D01*
X31195853Y-75886403D01*
X31248382Y-75965018D01*
X34626582Y-79343218D01*
X34914994Y-79535929D01*
X35255200Y-79603600D01*
X49707800Y-79603600D01*
X50048006Y-79535929D01*
X50336418Y-79343218D01*
X52216018Y-77463618D01*
X52376352Y-77223661D01*
X52408729Y-77175206D01*
X52476400Y-76835000D01*
X52476400Y-76470000D01*
X99639000Y-76470000D01*
X99639000Y-76894047D01*
X99716338Y-77080758D01*
X99859241Y-77223661D01*
X100045952Y-77301000D01*
X100612000Y-77301000D01*
X100739000Y-77174000D01*
X100739000Y-76343000D01*
X101755000Y-76343000D01*
X101755000Y-77174000D01*
X101882000Y-77301000D01*
X102448048Y-77301000D01*
X102634759Y-77223661D01*
X102777662Y-77080758D01*
X102855000Y-76894047D01*
X102855000Y-76470000D01*
X102728000Y-76343000D01*
X101755000Y-76343000D01*
X100739000Y-76343000D01*
X99766000Y-76343000D01*
X99639000Y-76470000D01*
X52476400Y-76470000D01*
X52476400Y-75551663D01*
X52560190Y-75535897D01*
X52689865Y-75452454D01*
X52776859Y-75325134D01*
X52807464Y-75174000D01*
X52807464Y-74582562D01*
X53027013Y-74363013D01*
X53164664Y-74157004D01*
X53213001Y-73914000D01*
X53213000Y-73913995D01*
X53213000Y-72829500D01*
X54896000Y-72829500D01*
X54896000Y-73116048D01*
X54973339Y-73302759D01*
X55116242Y-73445662D01*
X55302953Y-73523000D01*
X55652000Y-73523000D01*
X55779000Y-73396000D01*
X55779000Y-72702500D01*
X56529000Y-72702500D01*
X56529000Y-73396000D01*
X56656000Y-73523000D01*
X57005047Y-73523000D01*
X57191758Y-73445662D01*
X57334661Y-73302759D01*
X57412000Y-73116048D01*
X57412000Y-72829500D01*
X57285000Y-72702500D01*
X56529000Y-72702500D01*
X55779000Y-72702500D01*
X55023000Y-72702500D01*
X54896000Y-72829500D01*
X53213000Y-72829500D01*
X53213000Y-71991464D01*
X53332000Y-71991464D01*
X53473190Y-71964897D01*
X53600185Y-71883178D01*
X53780403Y-71847331D01*
X53945210Y-71737210D01*
X54018468Y-71663952D01*
X54896000Y-71663952D01*
X54896000Y-71950500D01*
X55023000Y-72077500D01*
X55779000Y-72077500D01*
X55779000Y-71384000D01*
X56529000Y-71384000D01*
X56529000Y-72077500D01*
X57285000Y-72077500D01*
X57412000Y-71950500D01*
X57412000Y-71765000D01*
X57515536Y-71765000D01*
X57515536Y-73015000D01*
X57542103Y-73156190D01*
X57625546Y-73285865D01*
X57752866Y-73372859D01*
X57904000Y-73403464D01*
X59404000Y-73403464D01*
X59545190Y-73376897D01*
X59674865Y-73293454D01*
X59761859Y-73166134D01*
X59792464Y-73015000D01*
X59792464Y-71765000D01*
X59765897Y-71623810D01*
X59682454Y-71494135D01*
X59555134Y-71407141D01*
X59404000Y-71376536D01*
X59162000Y-71376536D01*
X59162000Y-69618464D01*
X59504000Y-69618464D01*
X59645190Y-69591897D01*
X59774865Y-69508454D01*
X59861859Y-69381134D01*
X59892464Y-69230000D01*
X59892464Y-67930000D01*
X59865897Y-67788810D01*
X59782454Y-67659135D01*
X59655134Y-67572141D01*
X59504000Y-67541536D01*
X58004000Y-67541536D01*
X57862810Y-67568103D01*
X57733135Y-67651546D01*
X57646141Y-67778866D01*
X57615536Y-67930000D01*
X57615536Y-69230000D01*
X57642103Y-69371190D01*
X57725546Y-69500865D01*
X57852866Y-69587859D01*
X58004000Y-69618464D01*
X58146000Y-69618464D01*
X58146000Y-71376536D01*
X57904000Y-71376536D01*
X57762810Y-71403103D01*
X57633135Y-71486546D01*
X57546141Y-71613866D01*
X57515536Y-71765000D01*
X57412000Y-71765000D01*
X57412000Y-71663952D01*
X57334661Y-71477241D01*
X57191758Y-71334338D01*
X57005047Y-71257000D01*
X56656000Y-71257000D01*
X56529000Y-71384000D01*
X55779000Y-71384000D01*
X55652000Y-71257000D01*
X55302953Y-71257000D01*
X55116242Y-71334338D01*
X54973339Y-71477241D01*
X54896000Y-71663952D01*
X54018468Y-71663952D01*
X54671538Y-71010883D01*
X54765521Y-70972050D01*
X54969335Y-70768592D01*
X55079774Y-70502624D01*
X55080025Y-70214639D01*
X54970050Y-69948479D01*
X54766592Y-69744665D01*
X54651532Y-69696888D01*
X54955856Y-69392564D01*
X55025546Y-69500865D01*
X55152866Y-69587859D01*
X55304000Y-69618464D01*
X56804000Y-69618464D01*
X56945190Y-69591897D01*
X57074865Y-69508454D01*
X57161859Y-69381134D01*
X57192464Y-69230000D01*
X57192464Y-67930000D01*
X57165897Y-67788810D01*
X57082454Y-67659135D01*
X56955134Y-67572141D01*
X56804000Y-67541536D01*
X55304000Y-67541536D01*
X55162810Y-67568103D01*
X55033135Y-67651546D01*
X54946141Y-67778866D01*
X54915536Y-67930000D01*
X54915536Y-68098746D01*
X54855596Y-68110669D01*
X54690790Y-68220790D01*
X53718582Y-69192998D01*
X53700957Y-69099330D01*
X53720464Y-69003000D01*
X53720464Y-68553000D01*
X53700957Y-68449330D01*
X53720464Y-68353000D01*
X53720464Y-67903000D01*
X53700957Y-67799330D01*
X53720464Y-67703000D01*
X53720464Y-67336000D01*
X60521580Y-67336000D01*
X67187789Y-74002210D01*
X67352596Y-74112331D01*
X67384850Y-74118746D01*
X67547000Y-74151000D01*
X94758436Y-74151000D01*
X94653226Y-74404376D01*
X94652975Y-74692361D01*
X94762950Y-74958521D01*
X94966408Y-75162335D01*
X95232376Y-75272774D01*
X95520361Y-75273025D01*
X95786521Y-75163050D01*
X95990335Y-74959592D01*
X96018421Y-74891953D01*
X99639000Y-74891953D01*
X99639000Y-75316000D01*
X99766000Y-75443000D01*
X100739000Y-75443000D01*
X100739000Y-74612000D01*
X101755000Y-74612000D01*
X101755000Y-75443000D01*
X102728000Y-75443000D01*
X102855000Y-75316000D01*
X102855000Y-74891953D01*
X102777662Y-74705242D01*
X102634759Y-74562339D01*
X102448048Y-74485000D01*
X101882000Y-74485000D01*
X101755000Y-74612000D01*
X100739000Y-74612000D01*
X100612000Y-74485000D01*
X100045952Y-74485000D01*
X99859241Y-74562339D01*
X99716338Y-74705242D01*
X99639000Y-74891953D01*
X96018421Y-74891953D01*
X96100774Y-74693624D01*
X96100811Y-74651000D01*
X97196562Y-74651000D01*
X97347000Y-74681464D01*
X98647000Y-74681464D01*
X98788190Y-74654897D01*
X98917865Y-74571454D01*
X99004859Y-74444134D01*
X99035464Y-74293000D01*
X99035464Y-73993000D01*
X99015957Y-73889330D01*
X99035464Y-73793000D01*
X99035464Y-73622956D01*
X99077662Y-73580758D01*
X99155000Y-73394047D01*
X99155000Y-73345000D01*
X99028000Y-73218000D01*
X98919402Y-73218000D01*
X98808202Y-73142020D01*
X98917865Y-73071454D01*
X98920225Y-73068000D01*
X99028000Y-73068000D01*
X99155000Y-72941000D01*
X99155000Y-72891953D01*
X99077662Y-72705242D01*
X99035464Y-72663044D01*
X99035464Y-72493000D01*
X99015957Y-72389330D01*
X99035464Y-72293000D01*
X99035464Y-71993000D01*
X99015957Y-71889330D01*
X99035464Y-71793000D01*
X99035464Y-71493000D01*
X99015957Y-71389330D01*
X99035464Y-71293000D01*
X99035464Y-70993000D01*
X99015957Y-70889330D01*
X99035464Y-70793000D01*
X99035464Y-70493000D01*
X99015957Y-70389330D01*
X99035464Y-70293000D01*
X99035464Y-69993000D01*
X99015957Y-69889330D01*
X99035464Y-69793000D01*
X99035464Y-69493000D01*
X99015957Y-69389330D01*
X99035464Y-69293000D01*
X99035464Y-68993000D01*
X99015957Y-68889330D01*
X99035464Y-68793000D01*
X99035464Y-68493000D01*
X99015957Y-68389330D01*
X99035464Y-68293000D01*
X99035464Y-67993000D01*
X99015957Y-67889330D01*
X99035464Y-67793000D01*
X99035464Y-67493000D01*
X99015957Y-67389330D01*
X99035464Y-67293000D01*
X99035464Y-66993000D01*
X99015957Y-66889330D01*
X99035464Y-66793000D01*
X99035464Y-66493000D01*
X99015957Y-66389330D01*
X99035464Y-66293000D01*
X99035464Y-65993000D01*
X99015957Y-65889330D01*
X99035464Y-65793000D01*
X99035464Y-65493000D01*
X99015957Y-65389330D01*
X99035464Y-65293000D01*
X99035464Y-64993000D01*
X99015957Y-64889330D01*
X99035464Y-64793000D01*
X99035464Y-64493000D01*
X99015957Y-64389330D01*
X99035464Y-64293000D01*
X99035464Y-63993000D01*
X99015957Y-63889330D01*
X99035464Y-63793000D01*
X99035464Y-63493000D01*
X99015957Y-63389330D01*
X99035464Y-63293000D01*
X99035464Y-62993000D01*
X99015957Y-62889330D01*
X99035464Y-62793000D01*
X99035464Y-62493000D01*
X99015957Y-62389330D01*
X99035464Y-62293000D01*
X99035464Y-61993000D01*
X99015957Y-61889330D01*
X99035464Y-61793000D01*
X99035464Y-61493000D01*
X99015957Y-61389330D01*
X99035464Y-61293000D01*
X99035464Y-60993000D01*
X99015957Y-60889330D01*
X99035464Y-60793000D01*
X99035464Y-60493000D01*
X99015957Y-60389330D01*
X99035464Y-60293000D01*
X99035464Y-59993000D01*
X99015957Y-59889330D01*
X99035464Y-59793000D01*
X99035464Y-59493000D01*
X99015957Y-59389330D01*
X99035464Y-59293000D01*
X99035464Y-59124254D01*
X99095403Y-59112331D01*
X99260210Y-59002210D01*
X103684000Y-54578420D01*
X103684000Y-58401571D01*
X103529000Y-58401571D01*
X103529000Y-69106429D01*
X103684000Y-69106429D01*
X103684000Y-76454000D01*
X103718711Y-76628504D01*
X103817559Y-76776441D01*
X103965496Y-76875289D01*
X104140000Y-76910000D01*
X106934000Y-76910000D01*
X107108504Y-76875289D01*
X107256441Y-76776441D01*
X107355289Y-76628504D01*
X107390000Y-76454000D01*
X107390000Y-52324000D01*
X107355289Y-52149496D01*
X107256441Y-52001559D01*
X107108504Y-51902711D01*
X106934000Y-51868000D01*
X104552421Y-51868000D01*
X105112421Y-51308000D01*
X107188000Y-51308000D01*
X107382403Y-51269331D01*
X107547210Y-51159210D01*
X110419951Y-48286469D01*
X110530072Y-48121663D01*
X110545927Y-48041952D01*
X110568741Y-47927259D01*
X110568741Y-46029881D01*
X110530072Y-45835478D01*
X110530072Y-45835477D01*
X110419951Y-45670671D01*
X109661804Y-44912524D01*
X109661804Y-44643040D01*
X109635237Y-44501850D01*
X109551794Y-44372175D01*
X109424474Y-44285181D01*
X109273340Y-44254576D01*
X108272580Y-44254576D01*
X108131390Y-44281143D01*
X108001715Y-44364586D01*
X107914721Y-44491906D01*
X107884116Y-44643040D01*
X107884116Y-45242480D01*
X107910683Y-45383670D01*
X107994126Y-45513345D01*
X108112162Y-45593996D01*
X108001715Y-45665066D01*
X107914721Y-45792386D01*
X107884116Y-45943520D01*
X107884116Y-46213004D01*
X106897470Y-47199650D01*
X106836592Y-47138665D01*
X106570624Y-47028226D01*
X106282639Y-47027975D01*
X106016479Y-47137950D01*
X105812665Y-47341408D01*
X105702226Y-47607376D01*
X105701975Y-47895361D01*
X105811950Y-48161521D01*
X106015408Y-48365335D01*
X106281376Y-48475774D01*
X106569361Y-48476025D01*
X106835521Y-48366050D01*
X106941757Y-48260000D01*
X107063540Y-48260000D01*
X107257943Y-48221331D01*
X107422750Y-48111210D01*
X108602536Y-46931424D01*
X109273340Y-46931424D01*
X109414530Y-46904857D01*
X109544205Y-46821414D01*
X109552741Y-46808921D01*
X109552741Y-47716839D01*
X106977580Y-50292000D01*
X104902000Y-50292000D01*
X104707597Y-50330669D01*
X104707595Y-50330670D01*
X104707596Y-50330670D01*
X104542789Y-50440790D01*
X103018790Y-51964790D01*
X102908669Y-52129597D01*
X102870000Y-52324000D01*
X102870000Y-53955580D01*
X102800883Y-54024697D01*
X102855000Y-53894047D01*
X102855000Y-53470000D01*
X102728000Y-53343000D01*
X101755000Y-53343000D01*
X101755000Y-54174000D01*
X101882000Y-54301000D01*
X102448048Y-54301000D01*
X102578697Y-54246883D01*
X99155000Y-57670580D01*
X99155000Y-57634998D01*
X99035464Y-57634998D01*
X99035464Y-57493000D01*
X99015957Y-57389330D01*
X99035464Y-57293000D01*
X99035464Y-56993000D01*
X99015957Y-56889330D01*
X99035464Y-56793000D01*
X99035464Y-56624254D01*
X99095403Y-56612331D01*
X99260210Y-56502210D01*
X99285611Y-56476810D01*
X99395732Y-56312003D01*
X99411452Y-56232971D01*
X99434401Y-56117599D01*
X99434401Y-53470000D01*
X99639000Y-53470000D01*
X99639000Y-53894047D01*
X99716338Y-54080758D01*
X99859241Y-54223661D01*
X100045952Y-54301000D01*
X100612000Y-54301000D01*
X100739000Y-54174000D01*
X100739000Y-53343000D01*
X99766000Y-53343000D01*
X99639000Y-53470000D01*
X99434401Y-53470000D01*
X99434401Y-51891953D01*
X99639000Y-51891953D01*
X99639000Y-52316000D01*
X99766000Y-52443000D01*
X100739000Y-52443000D01*
X100739000Y-51612000D01*
X101755000Y-51612000D01*
X101755000Y-52443000D01*
X102728000Y-52443000D01*
X102855000Y-52316000D01*
X102855000Y-51891953D01*
X102777662Y-51705242D01*
X102634759Y-51562339D01*
X102448048Y-51485000D01*
X101882000Y-51485000D01*
X101755000Y-51612000D01*
X100739000Y-51612000D01*
X100612000Y-51485000D01*
X100045952Y-51485000D01*
X99859241Y-51562339D01*
X99716338Y-51705242D01*
X99639000Y-51891953D01*
X99434401Y-51891953D01*
X99434401Y-47244000D01*
X101854000Y-47244000D01*
X102048403Y-47205331D01*
X102213210Y-47095210D01*
X102467210Y-46841210D01*
X102577331Y-46676404D01*
X102592041Y-46602450D01*
X102603306Y-46545815D01*
X102683866Y-46600859D01*
X102835000Y-46631464D01*
X104335000Y-46631464D01*
X104476190Y-46604897D01*
X104605865Y-46521454D01*
X104692859Y-46394134D01*
X104723464Y-46243000D01*
X104723464Y-46101000D01*
X106053934Y-46101000D01*
X106094206Y-46163585D01*
X106221526Y-46250579D01*
X106372660Y-46281184D01*
X107373420Y-46281184D01*
X107514610Y-46254617D01*
X107644285Y-46171174D01*
X107731279Y-46043854D01*
X107761884Y-45892720D01*
X107761884Y-45293280D01*
X107735317Y-45152090D01*
X107651874Y-45022415D01*
X107524554Y-44935421D01*
X107373420Y-44904816D01*
X106372660Y-44904816D01*
X106231470Y-44931383D01*
X106101795Y-45014826D01*
X106053847Y-45085000D01*
X104723464Y-45085000D01*
X104723464Y-44943000D01*
X104696897Y-44801810D01*
X104613454Y-44672135D01*
X104486134Y-44585141D01*
X104335000Y-44554536D01*
X102835000Y-44554536D01*
X102693810Y-44581103D01*
X102616000Y-44631172D01*
X102616000Y-40894000D01*
X102577331Y-40699597D01*
X102577331Y-40699596D01*
X102467210Y-40534790D01*
X99165210Y-37232790D01*
X99000403Y-37122669D01*
X98806000Y-37084000D01*
X96540000Y-37084000D01*
X96345597Y-37122669D01*
X96345595Y-37122670D01*
X96345596Y-37122670D01*
X96180789Y-37232790D01*
X95544000Y-37869579D01*
X95544000Y-36827464D01*
X95786000Y-36827464D01*
X95927190Y-36800897D01*
X96056865Y-36717454D01*
X96143859Y-36590134D01*
X96174464Y-36439000D01*
X96174464Y-36253500D01*
X96278000Y-36253500D01*
X96278000Y-36540048D01*
X96355339Y-36726759D01*
X96498242Y-36869662D01*
X96684953Y-36947000D01*
X97034000Y-36947000D01*
X97161000Y-36820000D01*
X97161000Y-36126500D01*
X97911000Y-36126500D01*
X97911000Y-36820000D01*
X98038000Y-36947000D01*
X98387047Y-36947000D01*
X98573758Y-36869662D01*
X98716661Y-36726759D01*
X98794000Y-36540048D01*
X98794000Y-36253500D01*
X98667000Y-36126500D01*
X97911000Y-36126500D01*
X97161000Y-36126500D01*
X96405000Y-36126500D01*
X96278000Y-36253500D01*
X96174464Y-36253500D01*
X96174464Y-35189000D01*
X96155451Y-35087952D01*
X96278000Y-35087952D01*
X96278000Y-35374500D01*
X96405000Y-35501500D01*
X97161000Y-35501500D01*
X97161000Y-34808000D01*
X97911000Y-34808000D01*
X97911000Y-35501500D01*
X98667000Y-35501500D01*
X98794000Y-35374500D01*
X98794000Y-35087952D01*
X98716661Y-34901241D01*
X98573758Y-34758338D01*
X98387047Y-34681000D01*
X98038000Y-34681000D01*
X97911000Y-34808000D01*
X97161000Y-34808000D01*
X97034000Y-34681000D01*
X96684953Y-34681000D01*
X96498242Y-34758338D01*
X96355339Y-34901241D01*
X96278000Y-35087952D01*
X96155451Y-35087952D01*
X96147897Y-35047810D01*
X96064454Y-34918135D01*
X95937134Y-34831141D01*
X95786000Y-34800536D01*
X94286000Y-34800536D01*
X94144810Y-34827103D01*
X94015135Y-34910546D01*
X93928141Y-35037866D01*
X93897536Y-35189000D01*
X93897536Y-36439000D01*
X93924103Y-36580190D01*
X94007546Y-36709865D01*
X94134866Y-36796859D01*
X94286000Y-36827464D01*
X94528000Y-36827464D01*
X94528000Y-38077536D01*
X94166000Y-38077536D01*
X94024810Y-38104103D01*
X93895135Y-38187546D01*
X93808141Y-38314866D01*
X93777536Y-38466000D01*
X93777536Y-39766000D01*
X93804103Y-39907190D01*
X93887546Y-40036865D01*
X94014866Y-40123859D01*
X94166000Y-40154464D01*
X95666000Y-40154464D01*
X95807190Y-40127897D01*
X95936865Y-40044454D01*
X96023859Y-39917134D01*
X96054464Y-39766000D01*
X96054464Y-38795956D01*
X96501180Y-38349241D01*
X96477536Y-38466000D01*
X96477536Y-39766000D01*
X96504103Y-39907190D01*
X96587546Y-40036865D01*
X96714866Y-40123859D01*
X96866000Y-40154464D01*
X97108000Y-40154464D01*
X97108000Y-42418000D01*
X95504000Y-42418000D01*
X95341850Y-42450254D01*
X95309596Y-42456669D01*
X95144790Y-42566790D01*
X94890790Y-42820790D01*
X94780669Y-42985597D01*
X94742000Y-43180000D01*
X94742000Y-44017359D01*
X94734380Y-44015816D01*
X93733620Y-44015816D01*
X93592430Y-44042383D01*
X93462755Y-44125826D01*
X93375761Y-44253146D01*
X93345156Y-44404280D01*
X93345156Y-44908508D01*
X93303669Y-44970597D01*
X93265000Y-45165000D01*
X93265000Y-51666536D01*
X93023000Y-51666536D01*
X92881810Y-51693103D01*
X92752135Y-51776546D01*
X92665141Y-51903866D01*
X92634536Y-52055000D01*
X92634536Y-52197000D01*
X92583000Y-52197000D01*
X92388597Y-52235669D01*
X92223790Y-52345790D01*
X91334790Y-53234790D01*
X91224669Y-53399597D01*
X91186000Y-53594000D01*
X91186000Y-54265514D01*
X89266276Y-52345790D01*
X89101469Y-52235669D01*
X88907066Y-52197000D01*
X64888066Y-52197000D01*
X64847794Y-52134415D01*
X64770000Y-52081261D01*
X64770000Y-49550000D01*
X64731331Y-49355597D01*
X64621210Y-49190790D01*
X64618464Y-49188044D01*
X64618464Y-48945331D01*
X69629089Y-48945331D01*
X70732674Y-49949789D01*
X74206208Y-51332851D01*
X77944610Y-51281368D01*
X81159326Y-49949789D01*
X82262911Y-48945331D01*
X75946000Y-42628420D01*
X69629089Y-48945331D01*
X64618464Y-48945331D01*
X64618464Y-48143000D01*
X64591897Y-48001810D01*
X64508454Y-47872135D01*
X64381134Y-47785141D01*
X64230000Y-47754536D01*
X62730000Y-47754536D01*
X62588810Y-47781103D01*
X62459135Y-47864546D01*
X62372141Y-47991866D01*
X62341536Y-48143000D01*
X62341536Y-49393000D01*
X62368103Y-49534190D01*
X62451546Y-49663865D01*
X62578866Y-49750859D01*
X62730000Y-49781464D01*
X63754000Y-49781464D01*
X63754000Y-52016816D01*
X63568580Y-52016816D01*
X63427390Y-52043383D01*
X63297715Y-52126826D01*
X63210721Y-52254146D01*
X63180116Y-52405280D01*
X63180116Y-53004720D01*
X63206683Y-53145910D01*
X63290126Y-53275585D01*
X63417446Y-53362579D01*
X63568580Y-53393184D01*
X64569340Y-53393184D01*
X64643000Y-53379324D01*
X64643000Y-53467000D01*
X62937982Y-53467000D01*
X62902987Y-53473961D01*
X61435093Y-53473961D01*
X61400098Y-53467000D01*
X60047131Y-53467000D01*
X59937743Y-53393909D01*
X59817567Y-53370005D01*
X59769999Y-53296082D01*
X59777099Y-53293141D01*
X59920002Y-53150238D01*
X59997340Y-52963527D01*
X59997340Y-52839620D01*
X59870340Y-52712620D01*
X59239150Y-52712620D01*
X59239150Y-52862480D01*
X58738770Y-52862480D01*
X58738770Y-52712620D01*
X58107580Y-52712620D01*
X57980580Y-52839620D01*
X57980580Y-52963527D01*
X58057918Y-53150238D01*
X58200821Y-53293141D01*
X58209688Y-53296814D01*
X58130721Y-53412386D01*
X58100116Y-53563520D01*
X58100116Y-53833004D01*
X58024160Y-53908960D01*
X55333094Y-53908960D01*
X55347464Y-53838000D01*
X55347464Y-53721000D01*
X56269934Y-53721000D01*
X56310206Y-53783585D01*
X56437526Y-53870579D01*
X56588660Y-53901184D01*
X57589420Y-53901184D01*
X57730610Y-53874617D01*
X57860285Y-53791174D01*
X57947279Y-53663854D01*
X57977884Y-53512720D01*
X57977884Y-52913280D01*
X57951317Y-52772090D01*
X57867874Y-52642415D01*
X57740554Y-52555421D01*
X57589420Y-52524816D01*
X56588660Y-52524816D01*
X56447470Y-52551383D01*
X56317795Y-52634826D01*
X56269847Y-52705000D01*
X55347464Y-52705000D01*
X55347464Y-52588000D01*
X55320897Y-52446810D01*
X55237454Y-52317135D01*
X55110134Y-52230141D01*
X54959000Y-52199536D01*
X53459000Y-52199536D01*
X53317810Y-52226103D01*
X53188135Y-52309546D01*
X53101141Y-52436866D01*
X53070536Y-52588000D01*
X53070536Y-53838000D01*
X53083888Y-53908960D01*
X52833094Y-53908960D01*
X52847464Y-53838000D01*
X52847464Y-52588000D01*
X52820897Y-52446810D01*
X52737454Y-52317135D01*
X52610134Y-52230141D01*
X52459000Y-52199536D01*
X52217000Y-52199536D01*
X52217000Y-52161993D01*
X57980580Y-52161993D01*
X57980580Y-52285900D01*
X58107580Y-52412900D01*
X58738770Y-52412900D01*
X58738770Y-51882040D01*
X59239150Y-51882040D01*
X59239150Y-52412900D01*
X59870340Y-52412900D01*
X59997340Y-52285900D01*
X59997340Y-52213361D01*
X60235975Y-52213361D01*
X60345950Y-52479521D01*
X60549408Y-52683335D01*
X60815376Y-52793774D01*
X61103361Y-52794025D01*
X61288045Y-52717715D01*
X61237998Y-52767762D01*
X61160660Y-52954473D01*
X61160660Y-53078380D01*
X61287660Y-53205380D01*
X61918850Y-53205380D01*
X61918850Y-53055520D01*
X62419230Y-53055520D01*
X62419230Y-53205380D01*
X63050420Y-53205380D01*
X63177420Y-53078380D01*
X63177420Y-52954473D01*
X63100082Y-52767762D01*
X62957179Y-52624859D01*
X62948312Y-52621186D01*
X63027279Y-52505614D01*
X63057884Y-52354480D01*
X63057884Y-51755040D01*
X63031317Y-51613850D01*
X62947874Y-51484175D01*
X62820554Y-51397181D01*
X62669420Y-51366576D01*
X61668660Y-51366576D01*
X61527470Y-51393143D01*
X61397795Y-51476586D01*
X61394822Y-51480937D01*
X61370592Y-51456665D01*
X61104624Y-51346226D01*
X60816639Y-51345975D01*
X60550479Y-51455950D01*
X60346665Y-51659408D01*
X60236226Y-51925376D01*
X60235975Y-52213361D01*
X59997340Y-52213361D01*
X59997340Y-52161993D01*
X59920002Y-51975282D01*
X59777099Y-51832379D01*
X59590388Y-51755040D01*
X59366150Y-51755040D01*
X59239150Y-51882040D01*
X58738770Y-51882040D01*
X58611770Y-51755040D01*
X58387532Y-51755040D01*
X58200821Y-51832379D01*
X58057918Y-51975282D01*
X57980580Y-52161993D01*
X52217000Y-52161993D01*
X52217000Y-50863420D01*
X52318525Y-50761895D01*
X52467361Y-50762025D01*
X52733521Y-50652050D01*
X52937335Y-50448592D01*
X53047774Y-50182624D01*
X53048025Y-49894639D01*
X52938050Y-49628479D01*
X52734592Y-49424665D01*
X52468624Y-49314226D01*
X52180639Y-49313975D01*
X51914479Y-49423950D01*
X51710665Y-49627408D01*
X51600226Y-49893376D01*
X51600095Y-50043485D01*
X51349790Y-50293790D01*
X51239669Y-50458597D01*
X51201000Y-50653000D01*
X51201000Y-52199536D01*
X50959000Y-52199536D01*
X50817810Y-52226103D01*
X50688135Y-52309546D01*
X50601141Y-52436866D01*
X50570536Y-52588000D01*
X50570536Y-53694115D01*
X49730210Y-52853790D01*
X49565403Y-52743669D01*
X49371000Y-52705000D01*
X41208800Y-52705000D01*
X41014397Y-52743669D01*
X40849590Y-52853790D01*
X38741571Y-54961809D01*
X38731297Y-54907210D01*
X38647854Y-54777535D01*
X38520534Y-54690541D01*
X38369400Y-54659936D01*
X37119400Y-54659936D01*
X36978210Y-54686503D01*
X36848535Y-54769946D01*
X36761541Y-54897266D01*
X36730936Y-55048400D01*
X36730936Y-56548400D01*
X36757503Y-56689590D01*
X36840946Y-56819265D01*
X36968266Y-56906259D01*
X37119400Y-56936864D01*
X38369400Y-56936864D01*
X38510590Y-56910297D01*
X38640265Y-56826854D01*
X38727259Y-56699534D01*
X38757864Y-56548400D01*
X38757864Y-56279654D01*
X38817803Y-56267731D01*
X38982610Y-56157610D01*
X41419220Y-53721000D01*
X49160580Y-53721000D01*
X50215750Y-54776171D01*
X50347196Y-54864000D01*
X50380557Y-54886291D01*
X50574960Y-54924960D01*
X58234580Y-54924960D01*
X58428983Y-54886291D01*
X58593790Y-54776170D01*
X58818536Y-54551424D01*
X59489340Y-54551424D01*
X59548595Y-54540274D01*
X59474226Y-54719376D01*
X59473975Y-55007361D01*
X59583950Y-55273521D01*
X59787408Y-55477335D01*
X60053376Y-55587774D01*
X60341361Y-55588025D01*
X60607521Y-55478050D01*
X60713757Y-55372000D01*
X61359741Y-55372000D01*
X61388001Y-55415918D01*
X61380901Y-55418859D01*
X61237998Y-55561762D01*
X61160660Y-55748473D01*
X61160660Y-55872380D01*
X61287660Y-55999380D01*
X61918850Y-55999380D01*
X61918850Y-55849520D01*
X62419230Y-55849520D01*
X62419230Y-55999380D01*
X63050420Y-55999380D01*
X63177420Y-55872380D01*
X63177420Y-55753000D01*
X63180116Y-55753000D01*
X63180116Y-55798720D01*
X63206683Y-55939910D01*
X63290126Y-56069585D01*
X63417446Y-56156579D01*
X63568580Y-56187184D01*
X63627000Y-56187184D01*
X63627000Y-56920536D01*
X63510000Y-56920536D01*
X63368810Y-56947103D01*
X63239135Y-57030546D01*
X63152141Y-57157866D01*
X63121536Y-57309000D01*
X63121536Y-58809000D01*
X63148103Y-58950190D01*
X63231546Y-59079865D01*
X63358866Y-59166859D01*
X63510000Y-59197464D01*
X64643000Y-59197464D01*
X64643000Y-59301000D01*
X64574500Y-59301000D01*
X64447500Y-59428000D01*
X64447500Y-60184000D01*
X64663000Y-60184000D01*
X64663000Y-60934000D01*
X64447500Y-60934000D01*
X64447500Y-61690000D01*
X64574500Y-61817000D01*
X64718580Y-61817000D01*
X64686580Y-61849000D01*
X63720420Y-61849000D01*
X63688420Y-61817000D01*
X63695500Y-61817000D01*
X63822500Y-61690000D01*
X63822500Y-60934000D01*
X63129000Y-60934000D01*
X63002000Y-61061000D01*
X63002000Y-61130580D01*
X61579373Y-59707953D01*
X63002000Y-59707953D01*
X63002000Y-60057000D01*
X63129000Y-60184000D01*
X63822500Y-60184000D01*
X63822500Y-59428000D01*
X63695500Y-59301000D01*
X63408952Y-59301000D01*
X63222241Y-59378339D01*
X63079338Y-59521242D01*
X63002000Y-59707953D01*
X61579373Y-59707953D01*
X61055210Y-59183790D01*
X60890403Y-59073669D01*
X60830464Y-59061746D01*
X60830464Y-58793000D01*
X60803897Y-58651810D01*
X60720454Y-58522135D01*
X60593134Y-58435141D01*
X60442000Y-58404536D01*
X59192000Y-58404536D01*
X59050810Y-58431103D01*
X58921135Y-58514546D01*
X58834141Y-58641866D01*
X58803536Y-58793000D01*
X58803536Y-59135000D01*
X57045464Y-59135000D01*
X57045464Y-58893000D01*
X57018897Y-58751810D01*
X56935454Y-58622135D01*
X56808134Y-58535141D01*
X56657000Y-58504536D01*
X55357000Y-58504536D01*
X55215810Y-58531103D01*
X55086135Y-58614546D01*
X54999141Y-58741866D01*
X54968536Y-58893000D01*
X54968536Y-59055000D01*
X53966066Y-59055000D01*
X53925794Y-58992415D01*
X53798474Y-58905421D01*
X53647340Y-58874816D01*
X52646580Y-58874816D01*
X52505390Y-58901383D01*
X52375715Y-58984826D01*
X52288721Y-59112146D01*
X52258116Y-59263280D01*
X52258116Y-59862720D01*
X52284683Y-60003910D01*
X52368126Y-60133585D01*
X52495446Y-60220579D01*
X52646580Y-60251184D01*
X53647340Y-60251184D01*
X53788530Y-60224617D01*
X53918205Y-60141174D01*
X53966153Y-60071000D01*
X54968536Y-60071000D01*
X54968536Y-60393000D01*
X54995103Y-60534190D01*
X55078546Y-60663865D01*
X55205866Y-60750859D01*
X55357000Y-60781464D01*
X56657000Y-60781464D01*
X56798190Y-60754897D01*
X56927865Y-60671454D01*
X57014859Y-60544134D01*
X57045464Y-60393000D01*
X57045464Y-60151000D01*
X58803536Y-60151000D01*
X58803536Y-60293000D01*
X58830103Y-60434190D01*
X58913546Y-60563865D01*
X59040866Y-60650859D01*
X59192000Y-60681464D01*
X60442000Y-60681464D01*
X60583190Y-60654897D01*
X60712865Y-60571454D01*
X60799859Y-60444134D01*
X60813138Y-60378558D01*
X63150790Y-62716210D01*
X63315597Y-62826331D01*
X63510000Y-62865000D01*
X64897000Y-62865000D01*
X65091403Y-62826331D01*
X65256210Y-62716210D01*
X66018210Y-61954210D01*
X66128331Y-61789403D01*
X66167000Y-61595000D01*
X66167000Y-58337818D01*
X66199000Y-58305818D01*
X66199000Y-59019048D01*
X66276339Y-59205759D01*
X66419242Y-59348662D01*
X66605953Y-59426000D01*
X66955000Y-59426000D01*
X67082000Y-59299000D01*
X67082000Y-58605500D01*
X67832000Y-58605500D01*
X67832000Y-59299000D01*
X67959000Y-59426000D01*
X68308047Y-59426000D01*
X68494758Y-59348662D01*
X68637661Y-59205759D01*
X68715000Y-59019048D01*
X68715000Y-58732500D01*
X68588000Y-58605500D01*
X67832000Y-58605500D01*
X67082000Y-58605500D01*
X66929000Y-58605500D01*
X66929000Y-57980500D01*
X67082000Y-57980500D01*
X67082000Y-57422818D01*
X67217818Y-57287000D01*
X67832000Y-57287000D01*
X67832000Y-57980500D01*
X68588000Y-57980500D01*
X68715000Y-57853500D01*
X68715000Y-57668000D01*
X68818536Y-57668000D01*
X68818536Y-58918000D01*
X68845103Y-59059190D01*
X68928546Y-59188865D01*
X69055866Y-59275859D01*
X69207000Y-59306464D01*
X69449000Y-59306464D01*
X69449000Y-60043257D01*
X69343665Y-60148408D01*
X69233226Y-60414376D01*
X69232975Y-60702361D01*
X69342950Y-60968521D01*
X69546408Y-61172335D01*
X69812376Y-61282774D01*
X70100361Y-61283025D01*
X70366521Y-61173050D01*
X70570335Y-60969592D01*
X70680774Y-60703624D01*
X70681025Y-60415639D01*
X70571050Y-60149479D01*
X70465000Y-60043243D01*
X70465000Y-59306464D01*
X70707000Y-59306464D01*
X70848190Y-59279897D01*
X70977865Y-59196454D01*
X71064859Y-59069134D01*
X71095464Y-58918000D01*
X71095464Y-58801000D01*
X71806536Y-58801000D01*
X71806536Y-58943000D01*
X71833103Y-59084190D01*
X71916546Y-59213865D01*
X72043866Y-59300859D01*
X72195000Y-59331464D01*
X73695000Y-59331464D01*
X73836190Y-59304897D01*
X73965865Y-59221454D01*
X74052859Y-59094134D01*
X74083464Y-58943000D01*
X74083464Y-57643000D01*
X74056897Y-57501810D01*
X73973454Y-57372135D01*
X73846134Y-57285141D01*
X73695000Y-57254536D01*
X72195000Y-57254536D01*
X72053810Y-57281103D01*
X71924135Y-57364546D01*
X71837141Y-57491866D01*
X71806536Y-57643000D01*
X71806536Y-57785000D01*
X71095464Y-57785000D01*
X71095464Y-57668000D01*
X71068897Y-57526810D01*
X70985454Y-57397135D01*
X70858134Y-57310141D01*
X70707000Y-57279536D01*
X69207000Y-57279536D01*
X69065810Y-57306103D01*
X68936135Y-57389546D01*
X68849141Y-57516866D01*
X68818536Y-57668000D01*
X68715000Y-57668000D01*
X68715000Y-57566952D01*
X68637661Y-57380241D01*
X68494758Y-57237338D01*
X68308047Y-57160000D01*
X67959000Y-57160000D01*
X67832000Y-57287000D01*
X67217818Y-57287000D01*
X68725857Y-55778961D01*
X78444618Y-55778961D01*
X76743144Y-57480436D01*
X76673454Y-57372135D01*
X76546134Y-57285141D01*
X76395000Y-57254536D01*
X74895000Y-57254536D01*
X74753810Y-57281103D01*
X74624135Y-57364546D01*
X74537141Y-57491866D01*
X74506536Y-57643000D01*
X74506536Y-58943000D01*
X74533103Y-59084190D01*
X74616546Y-59213865D01*
X74743866Y-59300859D01*
X74895000Y-59331464D01*
X75223116Y-59331464D01*
X73465044Y-61089536D01*
X72295000Y-61089536D01*
X72153810Y-61116103D01*
X72024135Y-61199546D01*
X71937141Y-61326866D01*
X71906536Y-61478000D01*
X71906536Y-62728000D01*
X71933103Y-62869190D01*
X72016546Y-62998865D01*
X72143866Y-63085859D01*
X72295000Y-63116464D01*
X73795000Y-63116464D01*
X73936190Y-63089897D01*
X74065865Y-63006454D01*
X74152859Y-62879134D01*
X74183464Y-62728000D01*
X74183464Y-61807956D01*
X74406536Y-61584884D01*
X74406536Y-62728000D01*
X74433103Y-62869190D01*
X74516546Y-62998865D01*
X74643866Y-63085859D01*
X74795000Y-63116464D01*
X75502116Y-63116464D01*
X73465044Y-65153536D01*
X72295000Y-65153536D01*
X72153810Y-65180103D01*
X72024135Y-65263546D01*
X71937141Y-65390866D01*
X71906536Y-65542000D01*
X71906536Y-66792000D01*
X71933103Y-66933190D01*
X72016546Y-67062865D01*
X72143866Y-67149859D01*
X72295000Y-67180464D01*
X73795000Y-67180464D01*
X73936190Y-67153897D01*
X74065865Y-67070454D01*
X74152859Y-66943134D01*
X74183464Y-66792000D01*
X74183464Y-65871956D01*
X74406536Y-65648884D01*
X74406536Y-66792000D01*
X74433103Y-66933190D01*
X74516546Y-67062865D01*
X74643866Y-67149859D01*
X74795000Y-67180464D01*
X74994116Y-67180464D01*
X73465044Y-68709536D01*
X72295000Y-68709536D01*
X72153810Y-68736103D01*
X72024135Y-68819546D01*
X71937141Y-68946866D01*
X71906536Y-69098000D01*
X71906536Y-70348000D01*
X71933103Y-70489190D01*
X72016546Y-70618865D01*
X72143866Y-70705859D01*
X72295000Y-70736464D01*
X73795000Y-70736464D01*
X73936190Y-70709897D01*
X74065865Y-70626454D01*
X74152859Y-70499134D01*
X74183464Y-70348000D01*
X74183464Y-69427956D01*
X74406536Y-69204884D01*
X74406536Y-70348000D01*
X74433103Y-70489190D01*
X74516546Y-70618865D01*
X74643866Y-70705859D01*
X74795000Y-70736464D01*
X76295000Y-70736464D01*
X76436190Y-70709897D01*
X76565865Y-70626454D01*
X76652859Y-70499134D01*
X76683464Y-70348000D01*
X76683464Y-69427956D01*
X77836242Y-68275178D01*
X79342402Y-68275178D01*
X78908044Y-68709536D01*
X77883000Y-68709536D01*
X77741810Y-68736103D01*
X77612135Y-68819546D01*
X77525141Y-68946866D01*
X77494536Y-69098000D01*
X77494536Y-70348000D01*
X77521103Y-70489190D01*
X77604546Y-70618865D01*
X77731866Y-70705859D01*
X77883000Y-70736464D01*
X79383000Y-70736464D01*
X79524190Y-70709897D01*
X79653865Y-70626454D01*
X79740859Y-70499134D01*
X79771464Y-70348000D01*
X79771464Y-69282956D01*
X80004215Y-69050205D01*
X79994536Y-69098000D01*
X79994536Y-70348000D01*
X80021103Y-70489190D01*
X80104546Y-70618865D01*
X80231866Y-70705859D01*
X80383000Y-70736464D01*
X81883000Y-70736464D01*
X82024190Y-70709897D01*
X82153865Y-70626454D01*
X82240859Y-70499134D01*
X82271464Y-70348000D01*
X82271464Y-70204254D01*
X82331403Y-70192331D01*
X82496210Y-70082210D01*
X83167920Y-69410500D01*
X83846000Y-69410500D01*
X83846000Y-69195000D01*
X84596000Y-69195000D01*
X84596000Y-69410500D01*
X85352000Y-69410500D01*
X85479000Y-69283500D01*
X85479000Y-69088000D01*
X85584561Y-69088000D01*
X85582536Y-69098000D01*
X85582536Y-70348000D01*
X85609103Y-70489190D01*
X85692546Y-70618865D01*
X85716160Y-70635000D01*
X85401975Y-70635000D01*
X85479000Y-70449048D01*
X85479000Y-70162500D01*
X85352000Y-70035500D01*
X84596000Y-70035500D01*
X84596000Y-70251000D01*
X83846000Y-70251000D01*
X83846000Y-70035500D01*
X83090000Y-70035500D01*
X82963000Y-70162500D01*
X82963000Y-70449048D01*
X83040339Y-70635759D01*
X83183242Y-70778662D01*
X83369953Y-70856000D01*
X83823331Y-70856000D01*
X83660920Y-71018411D01*
X72267898Y-71018411D01*
X71107355Y-69857868D01*
X71208774Y-69613624D01*
X71209025Y-69325639D01*
X71099050Y-69059479D01*
X70895592Y-68855665D01*
X70629624Y-68745226D01*
X70341639Y-68744975D01*
X70075479Y-68854950D01*
X69871665Y-69058408D01*
X69761226Y-69324376D01*
X69760975Y-69612361D01*
X69870950Y-69878521D01*
X69984657Y-69992427D01*
X69993549Y-70037129D01*
X61954210Y-61997790D01*
X61789403Y-61887669D01*
X61595000Y-61849000D01*
X57730599Y-61849000D01*
X57763210Y-61827210D01*
X57906525Y-61683895D01*
X58055361Y-61684025D01*
X58321521Y-61574050D01*
X58525335Y-61370592D01*
X58635774Y-61104624D01*
X58636025Y-60816639D01*
X58526050Y-60550479D01*
X58322592Y-60346665D01*
X58056624Y-60236226D01*
X57768639Y-60235975D01*
X57502479Y-60345950D01*
X57298665Y-60549408D01*
X57188226Y-60815376D01*
X57188100Y-60960000D01*
X52396000Y-60960000D01*
X52201597Y-60998669D01*
X52036790Y-61108790D01*
X47820464Y-65325116D01*
X47820464Y-65303000D01*
X47793897Y-65161810D01*
X47793002Y-65160418D01*
X48426170Y-64527250D01*
X48536291Y-64362443D01*
X48574960Y-64168040D01*
X48574960Y-60899990D01*
X48708530Y-60874857D01*
X48838205Y-60791414D01*
X48925199Y-60664094D01*
X48955804Y-60512960D01*
X48955804Y-59913520D01*
X48929237Y-59772330D01*
X48845794Y-59642655D01*
X48727758Y-59562004D01*
X48838205Y-59490934D01*
X48886153Y-59420760D01*
X50427934Y-59420760D01*
X50468206Y-59483345D01*
X50586242Y-59563996D01*
X50475795Y-59635066D01*
X50388801Y-59762386D01*
X50358196Y-59913520D01*
X50358196Y-60512960D01*
X50384763Y-60654150D01*
X50468206Y-60783825D01*
X50494078Y-60801502D01*
X50462580Y-60833000D01*
X50172743Y-60833000D01*
X50067592Y-60727665D01*
X49801624Y-60617226D01*
X49513639Y-60616975D01*
X49247479Y-60726950D01*
X49043665Y-60930408D01*
X48933226Y-61196376D01*
X48932975Y-61484361D01*
X49042950Y-61750521D01*
X49246408Y-61954335D01*
X49512376Y-62064774D01*
X49800361Y-62065025D01*
X50066521Y-61955050D01*
X50172757Y-61849000D01*
X50673000Y-61849000D01*
X50867403Y-61810331D01*
X51032210Y-61700210D01*
X51606250Y-61126170D01*
X51716371Y-60961364D01*
X51728294Y-60901424D01*
X51747420Y-60901424D01*
X51888610Y-60874857D01*
X52018285Y-60791414D01*
X52105279Y-60664094D01*
X52135884Y-60512960D01*
X52135884Y-59913520D01*
X52109317Y-59772330D01*
X52025874Y-59642655D01*
X51907838Y-59562004D01*
X52018285Y-59490934D01*
X52105279Y-59363614D01*
X52135884Y-59212480D01*
X52135884Y-58613040D01*
X52109317Y-58471850D01*
X52025874Y-58342175D01*
X51898554Y-58255181D01*
X51747420Y-58224576D01*
X50746660Y-58224576D01*
X50605470Y-58251143D01*
X50475795Y-58334586D01*
X50427847Y-58404760D01*
X49395276Y-58404760D01*
X49423000Y-58265380D01*
X49423000Y-57445000D01*
X54849000Y-57445000D01*
X54849000Y-57794047D01*
X54926338Y-57980758D01*
X55069241Y-58123661D01*
X55255952Y-58201000D01*
X55555000Y-58201000D01*
X55682000Y-58074000D01*
X55682000Y-57318000D01*
X56332000Y-57318000D01*
X56332000Y-58074000D01*
X56459000Y-58201000D01*
X56758048Y-58201000D01*
X56944759Y-58123661D01*
X57087662Y-57980758D01*
X57165000Y-57794047D01*
X57165000Y-57545000D01*
X58684000Y-57545000D01*
X58684000Y-57894047D01*
X58761338Y-58080758D01*
X58904241Y-58223661D01*
X59090952Y-58301000D01*
X59377500Y-58301000D01*
X59504500Y-58174000D01*
X59504500Y-57418000D01*
X60129500Y-57418000D01*
X60129500Y-58174000D01*
X60256500Y-58301000D01*
X60543048Y-58301000D01*
X60729759Y-58223661D01*
X60872662Y-58080758D01*
X60950000Y-57894047D01*
X60950000Y-57545000D01*
X60823000Y-57418000D01*
X60129500Y-57418000D01*
X59504500Y-57418000D01*
X58811000Y-57418000D01*
X58684000Y-57545000D01*
X57165000Y-57545000D01*
X57165000Y-57445000D01*
X57038000Y-57318000D01*
X56332000Y-57318000D01*
X55682000Y-57318000D01*
X54976000Y-57318000D01*
X54849000Y-57445000D01*
X49423000Y-57445000D01*
X49423000Y-57274464D01*
X49665000Y-57274464D01*
X49806190Y-57247897D01*
X49935865Y-57164454D01*
X50022859Y-57037134D01*
X50053464Y-56886000D01*
X50053464Y-56700500D01*
X50157000Y-56700500D01*
X50157000Y-56987048D01*
X50234339Y-57173759D01*
X50377242Y-57316662D01*
X50563953Y-57394000D01*
X50913000Y-57394000D01*
X51040000Y-57267000D01*
X51040000Y-56573500D01*
X51790000Y-56573500D01*
X51790000Y-57267000D01*
X51917000Y-57394000D01*
X52266047Y-57394000D01*
X52452758Y-57316662D01*
X52595661Y-57173759D01*
X52673000Y-56987048D01*
X52673000Y-56700500D01*
X52546000Y-56573500D01*
X51790000Y-56573500D01*
X51040000Y-56573500D01*
X50284000Y-56573500D01*
X50157000Y-56700500D01*
X50053464Y-56700500D01*
X50053464Y-56091953D01*
X54849000Y-56091953D01*
X54849000Y-56441000D01*
X54976000Y-56568000D01*
X55682000Y-56568000D01*
X55682000Y-55812000D01*
X56332000Y-55812000D01*
X56332000Y-56568000D01*
X57038000Y-56568000D01*
X57165000Y-56441000D01*
X57165000Y-56191953D01*
X58684000Y-56191953D01*
X58684000Y-56541000D01*
X58811000Y-56668000D01*
X59504500Y-56668000D01*
X59504500Y-55912000D01*
X60129500Y-55912000D01*
X60129500Y-56668000D01*
X60823000Y-56668000D01*
X60950000Y-56541000D01*
X60950000Y-56426100D01*
X61160660Y-56426100D01*
X61160660Y-56550007D01*
X61237998Y-56736718D01*
X61380901Y-56879621D01*
X61567612Y-56956960D01*
X61791850Y-56956960D01*
X61918850Y-56829960D01*
X61918850Y-56299100D01*
X62419230Y-56299100D01*
X62419230Y-56829960D01*
X62546230Y-56956960D01*
X62770468Y-56956960D01*
X62957179Y-56879621D01*
X63100082Y-56736718D01*
X63177420Y-56550007D01*
X63177420Y-56426100D01*
X63050420Y-56299100D01*
X62419230Y-56299100D01*
X61918850Y-56299100D01*
X61287660Y-56299100D01*
X61160660Y-56426100D01*
X60950000Y-56426100D01*
X60950000Y-56191953D01*
X60872662Y-56005242D01*
X60729759Y-55862339D01*
X60543048Y-55785000D01*
X60256500Y-55785000D01*
X60129500Y-55912000D01*
X59504500Y-55912000D01*
X59377500Y-55785000D01*
X59090952Y-55785000D01*
X58904241Y-55862339D01*
X58761338Y-56005242D01*
X58684000Y-56191953D01*
X57165000Y-56191953D01*
X57165000Y-56091953D01*
X57087662Y-55905242D01*
X56944759Y-55762339D01*
X56758048Y-55685000D01*
X56459000Y-55685000D01*
X56332000Y-55812000D01*
X55682000Y-55812000D01*
X55555000Y-55685000D01*
X55255952Y-55685000D01*
X55069241Y-55762339D01*
X54926338Y-55905242D01*
X54849000Y-56091953D01*
X50053464Y-56091953D01*
X50053464Y-55636000D01*
X50034451Y-55534952D01*
X50157000Y-55534952D01*
X50157000Y-55821500D01*
X50284000Y-55948500D01*
X51040000Y-55948500D01*
X51040000Y-55255000D01*
X51790000Y-55255000D01*
X51790000Y-55948500D01*
X52546000Y-55948500D01*
X52673000Y-55821500D01*
X52673000Y-55534952D01*
X52595661Y-55348241D01*
X52452758Y-55205338D01*
X52266047Y-55128000D01*
X51917000Y-55128000D01*
X51790000Y-55255000D01*
X51040000Y-55255000D01*
X50913000Y-55128000D01*
X50563953Y-55128000D01*
X50377242Y-55205338D01*
X50234339Y-55348241D01*
X50157000Y-55534952D01*
X50034451Y-55534952D01*
X50026897Y-55494810D01*
X49943454Y-55365135D01*
X49816134Y-55278141D01*
X49665000Y-55247536D01*
X48165000Y-55247536D01*
X48023810Y-55274103D01*
X47894135Y-55357546D01*
X47807141Y-55484866D01*
X47776536Y-55636000D01*
X47776536Y-56886000D01*
X47803103Y-57027190D01*
X47886546Y-57156865D01*
X48013866Y-57243859D01*
X48165000Y-57274464D01*
X48407000Y-57274464D01*
X48407000Y-58054959D01*
X48237383Y-58224576D01*
X48200997Y-58224576D01*
X46557464Y-56581044D01*
X46557464Y-55611000D01*
X46530897Y-55469810D01*
X46447454Y-55340135D01*
X46320134Y-55253141D01*
X46169000Y-55222536D01*
X44669000Y-55222536D01*
X44527810Y-55249103D01*
X44398135Y-55332546D01*
X44311141Y-55459866D01*
X44280536Y-55611000D01*
X44280536Y-56911000D01*
X44307103Y-57052190D01*
X44390546Y-57181865D01*
X44517866Y-57268859D01*
X44669000Y-57299464D01*
X45839044Y-57299464D01*
X47178116Y-58638537D01*
X47178116Y-59212480D01*
X47204683Y-59353670D01*
X47288126Y-59483345D01*
X47406162Y-59563996D01*
X47295715Y-59635066D01*
X47208721Y-59762386D01*
X47178116Y-59913520D01*
X47178116Y-60512960D01*
X47204683Y-60654150D01*
X47288126Y-60783825D01*
X47415446Y-60870819D01*
X47558960Y-60899881D01*
X47558960Y-63957620D01*
X46602044Y-64914536D01*
X45982000Y-64914536D01*
X45840810Y-64941103D01*
X45718200Y-65020000D01*
X45342221Y-65020000D01*
X41843560Y-61521340D01*
X41925242Y-61521340D01*
X41925242Y-61476922D01*
X42004718Y-61444002D01*
X42147621Y-61301099D01*
X42224960Y-61114388D01*
X42224960Y-60890150D01*
X42097960Y-60763150D01*
X41567100Y-60763150D01*
X41567100Y-61013340D01*
X41335560Y-61013340D01*
X41267380Y-60945160D01*
X41267380Y-60763150D01*
X41117520Y-60763150D01*
X41117520Y-60262770D01*
X41267380Y-60262770D01*
X41267380Y-59631580D01*
X41567100Y-59631580D01*
X41567100Y-60262770D01*
X42097960Y-60262770D01*
X42224960Y-60135770D01*
X42224960Y-59911532D01*
X42147621Y-59724821D01*
X42004718Y-59581918D01*
X41818007Y-59504580D01*
X41694100Y-59504580D01*
X41567100Y-59631580D01*
X41267380Y-59631580D01*
X41140380Y-59504580D01*
X41016473Y-59504580D01*
X40829762Y-59581918D01*
X40686859Y-59724821D01*
X40683186Y-59733688D01*
X40567614Y-59654721D01*
X40416480Y-59624116D01*
X39817040Y-59624116D01*
X39675850Y-59650683D01*
X39546175Y-59734126D01*
X39459181Y-59861446D01*
X39428576Y-60012580D01*
X39428576Y-61013340D01*
X39455143Y-61154530D01*
X39538586Y-61284205D01*
X39665906Y-61371199D01*
X39817040Y-61401804D01*
X40287184Y-61401804D01*
X44772590Y-65887211D01*
X44900380Y-65972597D01*
X44937397Y-65997331D01*
X45131800Y-66036000D01*
X45593536Y-66036000D01*
X45593536Y-66320000D01*
X45186000Y-66320000D01*
X44991596Y-66358669D01*
X44826790Y-66468790D01*
X44455475Y-66840105D01*
X44306639Y-66839975D01*
X44040479Y-66949950D01*
X43836665Y-67153408D01*
X43726226Y-67419376D01*
X43725975Y-67707361D01*
X43835950Y-67973521D01*
X44039408Y-68177335D01*
X44305376Y-68287774D01*
X44593361Y-68288025D01*
X44859521Y-68178050D01*
X45063335Y-67974592D01*
X45173774Y-67708624D01*
X45173905Y-67558515D01*
X45396420Y-67336000D01*
X45593536Y-67336000D01*
X45593536Y-67703000D01*
X45613043Y-67806670D01*
X45593536Y-67903000D01*
X45593536Y-68326000D01*
X43898420Y-68326000D01*
X41126210Y-65553790D01*
X40961403Y-65443669D01*
X40767000Y-65405000D01*
X33185440Y-65405000D01*
X32936834Y-65032935D01*
X32533057Y-64763140D01*
X32056769Y-64668400D01*
X31697231Y-64668400D01*
X31220943Y-64763140D01*
X30817166Y-65032935D01*
X30547371Y-65436712D01*
X30539762Y-65474962D01*
X30421790Y-65553790D01*
X28995044Y-66980536D01*
X27925000Y-66980536D01*
X27783810Y-67007103D01*
X27654135Y-67090546D01*
X27567141Y-67217866D01*
X27536536Y-67369000D01*
X27536536Y-68869000D01*
X27563103Y-69010190D01*
X27646546Y-69139865D01*
X27773866Y-69226859D01*
X27925000Y-69257464D01*
X29225000Y-69257464D01*
X29366190Y-69230897D01*
X29495865Y-69147454D01*
X29582859Y-69020134D01*
X29613464Y-68869000D01*
X29613464Y-67798956D01*
X30737934Y-66674486D01*
X30817166Y-66793065D01*
X31220943Y-67062860D01*
X31697231Y-67157600D01*
X32056769Y-67157600D01*
X32533057Y-67062860D01*
X32580260Y-67031320D01*
X32345706Y-67265874D01*
X32056769Y-67208400D01*
X31697231Y-67208400D01*
X31220943Y-67303140D01*
X30817166Y-67572935D01*
X30547371Y-67976712D01*
X30452631Y-68453000D01*
X30547371Y-68929288D01*
X30817166Y-69333065D01*
X31220943Y-69602860D01*
X31697231Y-69697600D01*
X32056769Y-69697600D01*
X32533057Y-69602860D01*
X32936834Y-69333065D01*
X33206629Y-68929288D01*
X33301369Y-68453000D01*
X33206629Y-67976712D01*
X33152587Y-67895833D01*
X33992420Y-67056000D01*
X40429580Y-67056000D01*
X43328790Y-69955210D01*
X43493597Y-70065331D01*
X43688000Y-70104000D01*
X44958000Y-70104000D01*
X45152403Y-70065331D01*
X45317210Y-69955210D01*
X45336420Y-69936000D01*
X45593536Y-69936000D01*
X45593536Y-70303000D01*
X45613043Y-70406670D01*
X45593536Y-70503000D01*
X45593536Y-70823044D01*
X45551339Y-70865241D01*
X45474000Y-71051952D01*
X45474000Y-71138500D01*
X45601000Y-71265500D01*
X45764481Y-71265500D01*
X45830866Y-71310859D01*
X45982000Y-71341464D01*
X47432000Y-71341464D01*
X47573190Y-71314897D01*
X47649956Y-71265500D01*
X47813000Y-71265500D01*
X47842500Y-71236000D01*
X47958145Y-71236000D01*
X48026950Y-71402521D01*
X48230408Y-71606335D01*
X48496376Y-71716774D01*
X48784361Y-71717025D01*
X49050521Y-71607050D01*
X49254335Y-71403592D01*
X49364774Y-71137624D01*
X49364833Y-71070259D01*
X50038000Y-71743426D01*
X50038000Y-73423436D01*
X50020047Y-73416000D01*
X49671000Y-73416000D01*
X49544000Y-73543000D01*
X49544000Y-74236500D01*
X49697000Y-74236500D01*
X49697000Y-74861500D01*
X49544000Y-74861500D01*
X49544000Y-75077000D01*
X48794000Y-75077000D01*
X48794000Y-74861500D01*
X48038000Y-74861500D01*
X47911000Y-74988500D01*
X47911000Y-75184000D01*
X44849959Y-75184000D01*
X44824897Y-75050810D01*
X44741454Y-74921135D01*
X44614134Y-74834141D01*
X44463000Y-74803536D01*
X41713000Y-74803536D01*
X41571810Y-74830103D01*
X41442135Y-74913546D01*
X41355141Y-75040866D01*
X41326156Y-75184000D01*
X39099959Y-75184000D01*
X39074897Y-75050810D01*
X38991454Y-74921135D01*
X38864134Y-74834141D01*
X38713000Y-74803536D01*
X35963000Y-74803536D01*
X35821810Y-74830103D01*
X35692135Y-74913546D01*
X35605141Y-75040866D01*
X35574536Y-75192000D01*
X35574536Y-76192000D01*
X35601103Y-76333190D01*
X35684546Y-76462865D01*
X35811866Y-76549859D01*
X35963000Y-76580464D01*
X38713000Y-76580464D01*
X38854190Y-76553897D01*
X38983865Y-76470454D01*
X39070859Y-76343134D01*
X39099844Y-76200000D01*
X41326041Y-76200000D01*
X41351103Y-76333190D01*
X41434546Y-76462865D01*
X41561866Y-76549859D01*
X41713000Y-76580464D01*
X44463000Y-76580464D01*
X44604190Y-76553897D01*
X44733865Y-76470454D01*
X44820859Y-76343134D01*
X44849844Y-76200000D01*
X50038000Y-76200000D01*
X50232403Y-76161331D01*
X50397210Y-76051210D01*
X50698400Y-75750021D01*
X50698400Y-76466764D01*
X49339564Y-77825600D01*
X35623436Y-77825600D01*
X32766000Y-74968164D01*
X32766000Y-73822952D01*
X47911000Y-73822952D01*
X47911000Y-74109500D01*
X48038000Y-74236500D01*
X48794000Y-74236500D01*
X48794000Y-73543000D01*
X48667000Y-73416000D01*
X48317953Y-73416000D01*
X48131242Y-73493338D01*
X47988339Y-73636241D01*
X47911000Y-73822952D01*
X32766000Y-73822952D01*
X32766000Y-72245064D01*
X32893000Y-72245064D01*
X33034190Y-72218497D01*
X33163865Y-72135054D01*
X33208997Y-72069000D01*
X35455000Y-72069000D01*
X35455000Y-72293048D01*
X35532339Y-72479759D01*
X35675242Y-72622662D01*
X35861953Y-72700000D01*
X36703000Y-72700000D01*
X36830000Y-72573000D01*
X36830000Y-71942000D01*
X37846000Y-71942000D01*
X37846000Y-72573000D01*
X37973000Y-72700000D01*
X38814047Y-72700000D01*
X39000758Y-72622662D01*
X39143661Y-72479759D01*
X39221000Y-72293048D01*
X39221000Y-72069000D01*
X41205000Y-72069000D01*
X41205000Y-72293048D01*
X41282339Y-72479759D01*
X41425242Y-72622662D01*
X41611953Y-72700000D01*
X42453000Y-72700000D01*
X42580000Y-72573000D01*
X42580000Y-71942000D01*
X43596000Y-71942000D01*
X43596000Y-72573000D01*
X43723000Y-72700000D01*
X44564047Y-72700000D01*
X44750758Y-72622662D01*
X44893661Y-72479759D01*
X44971000Y-72293048D01*
X44971000Y-72069000D01*
X44844000Y-71942000D01*
X43596000Y-71942000D01*
X42580000Y-71942000D01*
X41332000Y-71942000D01*
X41205000Y-72069000D01*
X39221000Y-72069000D01*
X39094000Y-71942000D01*
X37846000Y-71942000D01*
X36830000Y-71942000D01*
X35582000Y-71942000D01*
X35455000Y-72069000D01*
X33208997Y-72069000D01*
X33250859Y-72007734D01*
X33281464Y-71856600D01*
X33281464Y-71617500D01*
X45474000Y-71617500D01*
X45474000Y-71704048D01*
X45551339Y-71890759D01*
X45694242Y-72033662D01*
X45880953Y-72111000D01*
X46217500Y-72111000D01*
X46344500Y-71984000D01*
X46344500Y-71490500D01*
X47069500Y-71490500D01*
X47069500Y-71984000D01*
X47196500Y-72111000D01*
X47533047Y-72111000D01*
X47719758Y-72033662D01*
X47862661Y-71890759D01*
X47940000Y-71704048D01*
X47940000Y-71617500D01*
X47813000Y-71490500D01*
X47069500Y-71490500D01*
X46344500Y-71490500D01*
X45601000Y-71490500D01*
X45474000Y-71617500D01*
X33281464Y-71617500D01*
X33281464Y-71090952D01*
X35455000Y-71090952D01*
X35455000Y-71315000D01*
X35582000Y-71442000D01*
X36830000Y-71442000D01*
X36830000Y-70811000D01*
X37846000Y-70811000D01*
X37846000Y-71442000D01*
X39094000Y-71442000D01*
X39221000Y-71315000D01*
X39221000Y-71090952D01*
X41205000Y-71090952D01*
X41205000Y-71315000D01*
X41332000Y-71442000D01*
X42580000Y-71442000D01*
X42580000Y-70811000D01*
X43596000Y-70811000D01*
X43596000Y-71442000D01*
X44844000Y-71442000D01*
X44971000Y-71315000D01*
X44971000Y-71090952D01*
X44893661Y-70904241D01*
X44750758Y-70761338D01*
X44564047Y-70684000D01*
X43723000Y-70684000D01*
X43596000Y-70811000D01*
X42580000Y-70811000D01*
X42453000Y-70684000D01*
X41611953Y-70684000D01*
X41425242Y-70761338D01*
X41282339Y-70904241D01*
X41205000Y-71090952D01*
X39221000Y-71090952D01*
X39143661Y-70904241D01*
X39000758Y-70761338D01*
X38814047Y-70684000D01*
X37973000Y-70684000D01*
X37846000Y-70811000D01*
X36830000Y-70811000D01*
X36703000Y-70684000D01*
X35861953Y-70684000D01*
X35675242Y-70761338D01*
X35532339Y-70904241D01*
X35455000Y-71090952D01*
X33281464Y-71090952D01*
X33281464Y-70129400D01*
X33254897Y-69988210D01*
X33171454Y-69858535D01*
X33044134Y-69771541D01*
X32893000Y-69740936D01*
X30861000Y-69740936D01*
X30719810Y-69767503D01*
X30590135Y-69850946D01*
X30536120Y-69930000D01*
X29587309Y-69930000D01*
X29586897Y-69927810D01*
X29503454Y-69798135D01*
X29376134Y-69711141D01*
X29225000Y-69680536D01*
X27925000Y-69680536D01*
X27783810Y-69707103D01*
X27654135Y-69790546D01*
X27567141Y-69917866D01*
X27564684Y-69930000D01*
X27550036Y-69930000D01*
X26822400Y-69202364D01*
X26822400Y-63373000D01*
X30452631Y-63373000D01*
X30547371Y-63849288D01*
X30817166Y-64253065D01*
X31220943Y-64522860D01*
X31697231Y-64617600D01*
X32056769Y-64617600D01*
X32533057Y-64522860D01*
X32936834Y-64253065D01*
X33206629Y-63849288D01*
X33301369Y-63373000D01*
X33206629Y-62896712D01*
X32936834Y-62492935D01*
X32533057Y-62223140D01*
X32056769Y-62128400D01*
X31697231Y-62128400D01*
X31220943Y-62223140D01*
X30817166Y-62492935D01*
X30547371Y-62896712D01*
X30452631Y-63373000D01*
X26822400Y-63373000D01*
X26822400Y-60833000D01*
X30452631Y-60833000D01*
X30547371Y-61309288D01*
X30817166Y-61713065D01*
X31220943Y-61982860D01*
X31697231Y-62077600D01*
X32056769Y-62077600D01*
X32533057Y-61982860D01*
X32936834Y-61713065D01*
X33206629Y-61309288D01*
X33301369Y-60833000D01*
X33206629Y-60356712D01*
X32936834Y-59952935D01*
X32533057Y-59683140D01*
X32385002Y-59653690D01*
X32385002Y-59470118D01*
X32584631Y-59525433D01*
X33013998Y-59219142D01*
X33247682Y-58923139D01*
X33216130Y-58800400D01*
X36611400Y-58800400D01*
X36611400Y-59149447D01*
X36688738Y-59336158D01*
X36831641Y-59479061D01*
X37018352Y-59556400D01*
X37304900Y-59556400D01*
X37431900Y-59429400D01*
X37431900Y-58673400D01*
X38056900Y-58673400D01*
X38056900Y-59429400D01*
X38183900Y-59556400D01*
X38470448Y-59556400D01*
X38657159Y-59479061D01*
X38800062Y-59336158D01*
X38877400Y-59149447D01*
X38877400Y-58800400D01*
X38750400Y-58673400D01*
X38056900Y-58673400D01*
X37431900Y-58673400D01*
X36738400Y-58673400D01*
X36611400Y-58800400D01*
X33216130Y-58800400D01*
X33196695Y-58724800D01*
X32385000Y-58724800D01*
X32385000Y-58821000D01*
X31369000Y-58821000D01*
X31369000Y-58724800D01*
X30557305Y-58724800D01*
X30506318Y-58923139D01*
X30740002Y-59219142D01*
X31169369Y-59525433D01*
X31368998Y-59470118D01*
X31368998Y-59653690D01*
X31220943Y-59683140D01*
X30817166Y-59952935D01*
X30547371Y-60356712D01*
X30452631Y-60833000D01*
X26822400Y-60833000D01*
X26822400Y-58112660D01*
X40078816Y-58112660D01*
X40078816Y-59113420D01*
X40105383Y-59254610D01*
X40188826Y-59384285D01*
X40316146Y-59471279D01*
X40467280Y-59501884D01*
X41066720Y-59501884D01*
X41207910Y-59475317D01*
X41243584Y-59452361D01*
X43344975Y-59452361D01*
X43454950Y-59718521D01*
X43658408Y-59922335D01*
X43924376Y-60032774D01*
X44212361Y-60033025D01*
X44478521Y-59923050D01*
X44584757Y-59817000D01*
X44948240Y-59817000D01*
X45053450Y-59922210D01*
X45218256Y-60032331D01*
X45250510Y-60038746D01*
X45338433Y-60056235D01*
X45388206Y-60133585D01*
X45515526Y-60220579D01*
X45666660Y-60251184D01*
X46667420Y-60251184D01*
X46808610Y-60224617D01*
X46938285Y-60141174D01*
X47025279Y-60013854D01*
X47055884Y-59862720D01*
X47055884Y-59263280D01*
X47029317Y-59122090D01*
X46945874Y-58992415D01*
X46818554Y-58905421D01*
X46667420Y-58874816D01*
X45666660Y-58874816D01*
X45525470Y-58901383D01*
X45484693Y-58927622D01*
X45353063Y-58839669D01*
X45158660Y-58801000D01*
X44584743Y-58801000D01*
X44479592Y-58695665D01*
X44213624Y-58585226D01*
X43925639Y-58584975D01*
X43659479Y-58694950D01*
X43455665Y-58898408D01*
X43345226Y-59164376D01*
X43344975Y-59452361D01*
X41243584Y-59452361D01*
X41337585Y-59391874D01*
X41424579Y-59264554D01*
X41455184Y-59113420D01*
X41455184Y-58143236D01*
X42298957Y-57299464D01*
X43469000Y-57299464D01*
X43610190Y-57272897D01*
X43739865Y-57189454D01*
X43826859Y-57062134D01*
X43857464Y-56911000D01*
X43857464Y-55611000D01*
X43830897Y-55469810D01*
X43747454Y-55340135D01*
X43620134Y-55253141D01*
X43469000Y-55222536D01*
X41969000Y-55222536D01*
X41827810Y-55249103D01*
X41698135Y-55332546D01*
X41611141Y-55459866D01*
X41580536Y-55611000D01*
X41580536Y-56581043D01*
X40430455Y-57731125D01*
X40326090Y-57750763D01*
X40196415Y-57834206D01*
X40109421Y-57961526D01*
X40078816Y-58112660D01*
X26822400Y-58112660D01*
X26822400Y-57662861D01*
X30506318Y-57662861D01*
X30557305Y-57861200D01*
X31369000Y-57861200D01*
X31369000Y-57115883D01*
X32385000Y-57115883D01*
X32385000Y-57861200D01*
X33196695Y-57861200D01*
X33247682Y-57662861D01*
X33077546Y-57447353D01*
X36611400Y-57447353D01*
X36611400Y-57796400D01*
X36738400Y-57923400D01*
X37431900Y-57923400D01*
X37431900Y-57167400D01*
X38056900Y-57167400D01*
X38056900Y-57923400D01*
X38750400Y-57923400D01*
X38877400Y-57796400D01*
X38877400Y-57447353D01*
X38800062Y-57260642D01*
X38657159Y-57117739D01*
X38470448Y-57040400D01*
X38183900Y-57040400D01*
X38056900Y-57167400D01*
X37431900Y-57167400D01*
X37304900Y-57040400D01*
X37018352Y-57040400D01*
X36831641Y-57117739D01*
X36688738Y-57260642D01*
X36611400Y-57447353D01*
X33077546Y-57447353D01*
X33013998Y-57366858D01*
X32584631Y-57060567D01*
X32385000Y-57115883D01*
X31369000Y-57115883D01*
X31169369Y-57060567D01*
X30740002Y-57366858D01*
X30506318Y-57662861D01*
X26822400Y-57662861D01*
X26822400Y-48945331D01*
X35085089Y-48945331D01*
X36188674Y-49949789D01*
X39662208Y-51332851D01*
X43400610Y-51281368D01*
X46615326Y-49949789D01*
X47430869Y-49207500D01*
X59722000Y-49207500D01*
X59722000Y-49494048D01*
X59799339Y-49680759D01*
X59942242Y-49823662D01*
X60128953Y-49901000D01*
X60478000Y-49901000D01*
X60605000Y-49774000D01*
X60605000Y-49080500D01*
X61355000Y-49080500D01*
X61355000Y-49774000D01*
X61482000Y-49901000D01*
X61831047Y-49901000D01*
X62017758Y-49823662D01*
X62160661Y-49680759D01*
X62238000Y-49494048D01*
X62238000Y-49207500D01*
X62111000Y-49080500D01*
X61355000Y-49080500D01*
X60605000Y-49080500D01*
X59849000Y-49080500D01*
X59722000Y-49207500D01*
X47430869Y-49207500D01*
X47718911Y-48945331D01*
X41402000Y-42628420D01*
X35085089Y-48945331D01*
X26822400Y-48945331D01*
X26822400Y-47212836D01*
X27641408Y-46393828D01*
X28486105Y-47238525D01*
X28485975Y-47387361D01*
X28595950Y-47653521D01*
X28799408Y-47857335D01*
X29065376Y-47967774D01*
X29353361Y-47968025D01*
X29619521Y-47858050D01*
X29823335Y-47654592D01*
X29933774Y-47388624D01*
X29934025Y-47100639D01*
X29824050Y-46834479D01*
X29620592Y-46630665D01*
X29354624Y-46520226D01*
X29204515Y-46520095D01*
X28091000Y-45406580D01*
X28091000Y-44948464D01*
X29852000Y-44948464D01*
X29993190Y-44921897D01*
X30122865Y-44838454D01*
X30209859Y-44711134D01*
X30240464Y-44560000D01*
X30240464Y-40170208D01*
X31979149Y-40170208D01*
X32030632Y-43908610D01*
X33362211Y-47123326D01*
X34366669Y-48226911D01*
X40683580Y-41910000D01*
X42120420Y-41910000D01*
X48437331Y-48226911D01*
X48605676Y-48041952D01*
X59722000Y-48041952D01*
X59722000Y-48328500D01*
X59849000Y-48455500D01*
X60605000Y-48455500D01*
X60605000Y-47762000D01*
X61355000Y-47762000D01*
X61355000Y-48455500D01*
X62111000Y-48455500D01*
X62238000Y-48328500D01*
X62238000Y-48041952D01*
X62160661Y-47855241D01*
X62017758Y-47712338D01*
X61831047Y-47635000D01*
X61482000Y-47635000D01*
X61355000Y-47762000D01*
X60605000Y-47762000D01*
X60478000Y-47635000D01*
X60128953Y-47635000D01*
X59942242Y-47712338D01*
X59799339Y-47855241D01*
X59722000Y-48041952D01*
X48605676Y-48041952D01*
X49441789Y-47123326D01*
X50824851Y-43649792D01*
X50773368Y-39911390D01*
X49441789Y-36696674D01*
X48437331Y-35593089D01*
X42120420Y-41910000D01*
X40683580Y-41910000D01*
X34366669Y-35593089D01*
X33362211Y-36696674D01*
X31979149Y-40170208D01*
X30240464Y-40170208D01*
X30240464Y-39260000D01*
X30213897Y-39118810D01*
X30130454Y-38989135D01*
X30003134Y-38902141D01*
X29852000Y-38871536D01*
X28091000Y-38871536D01*
X28091000Y-38612236D01*
X31828567Y-34874669D01*
X35085089Y-34874669D01*
X41402000Y-41191580D01*
X47718911Y-34874669D01*
X46615326Y-33870211D01*
X43141792Y-32487149D01*
X39403390Y-32538632D01*
X36188674Y-33870211D01*
X35085089Y-34874669D01*
X31828567Y-34874669D01*
X34597636Y-32105600D01*
X48206364Y-32105600D01*
X54713000Y-38612236D01*
X54713000Y-38871536D01*
X52952000Y-38871536D01*
X52810810Y-38898103D01*
X52681135Y-38981546D01*
X52594141Y-39108866D01*
X52563536Y-39260000D01*
X52563536Y-44560000D01*
X52590103Y-44701190D01*
X52673546Y-44830865D01*
X52800866Y-44917859D01*
X52952000Y-44948464D01*
X58252000Y-44948464D01*
X58393190Y-44921897D01*
X58522865Y-44838454D01*
X58609859Y-44711134D01*
X58640464Y-44560000D01*
X58640464Y-42799000D01*
X58707536Y-42799000D01*
X58707536Y-44560000D01*
X58734103Y-44701190D01*
X58817546Y-44830865D01*
X58944866Y-44917859D01*
X59096000Y-44948464D01*
X64396000Y-44948464D01*
X64537190Y-44921897D01*
X64666865Y-44838454D01*
X64753859Y-44711134D01*
X64784464Y-44560000D01*
X64784464Y-40170208D01*
X66523149Y-40170208D01*
X66574632Y-43908610D01*
X67906211Y-47123326D01*
X68910669Y-48226911D01*
X75227580Y-41910000D01*
X76664420Y-41910000D01*
X82981331Y-48226911D01*
X83985789Y-47123326D01*
X85368851Y-43649792D01*
X85317368Y-39911390D01*
X83985789Y-36696674D01*
X82981331Y-35593089D01*
X76664420Y-41910000D01*
X75227580Y-41910000D01*
X68910669Y-35593089D01*
X67906211Y-36696674D01*
X66523149Y-40170208D01*
X64784464Y-40170208D01*
X64784464Y-39260000D01*
X64757897Y-39118810D01*
X64674454Y-38989135D01*
X64547134Y-38902141D01*
X64396000Y-38871536D01*
X62635000Y-38871536D01*
X62635000Y-38612236D01*
X66372567Y-34874669D01*
X69629089Y-34874669D01*
X75946000Y-41191580D01*
X82262911Y-34874669D01*
X81159326Y-33870211D01*
X77685792Y-32487149D01*
X73947390Y-32538632D01*
X70732674Y-33870211D01*
X69629089Y-34874669D01*
X66372567Y-34874669D01*
X69116236Y-32131000D01*
X83781964Y-32131000D01*
X89257000Y-37606036D01*
X89257000Y-38871536D01*
X87496000Y-38871536D01*
X87354810Y-38898103D01*
X87225135Y-38981546D01*
X87138141Y-39108866D01*
X87107536Y-39260000D01*
X87107536Y-44560000D01*
X87134103Y-44701190D01*
X87217546Y-44830865D01*
X87344866Y-44917859D01*
X87496000Y-44948464D01*
X92796000Y-44948464D01*
X92937190Y-44921897D01*
X93066865Y-44838454D01*
X93153859Y-44711134D01*
X93184464Y-44560000D01*
X93184464Y-39260000D01*
X93157897Y-39118810D01*
X93074454Y-38989135D01*
X92947134Y-38902141D01*
X92796000Y-38871536D01*
X91035000Y-38871536D01*
X91035000Y-37237800D01*
X91034003Y-37232790D01*
X90967330Y-36897595D01*
X90774618Y-36609182D01*
X84778818Y-30613382D01*
X84609112Y-30499988D01*
X84490406Y-30420671D01*
X84150200Y-30353000D01*
X68748000Y-30353000D01*
X68407794Y-30420671D01*
X68119382Y-30613382D01*
X61117382Y-37615382D01*
X60924671Y-37903794D01*
X60857000Y-38244000D01*
X60857000Y-38871536D01*
X59096000Y-38871536D01*
X58954810Y-38898103D01*
X58825135Y-38981546D01*
X58738141Y-39108866D01*
X58707536Y-39260000D01*
X58707536Y-41021000D01*
X58640464Y-41021000D01*
X58640464Y-39260000D01*
X58613897Y-39118810D01*
X58530454Y-38989135D01*
X58403134Y-38902141D01*
X58252000Y-38871536D01*
X56491000Y-38871536D01*
X56491000Y-38244000D01*
X56423329Y-37903794D01*
X56230618Y-37615382D01*
X49203218Y-30587982D01*
X48914806Y-30395271D01*
X48574600Y-30327600D01*
X34229400Y-30327600D01*
X33889194Y-30395271D01*
X33600782Y-30587982D01*
X26573382Y-37615382D01*
X26380671Y-37903794D01*
X26313000Y-38244000D01*
X26313000Y-38871536D01*
X24552000Y-38871536D01*
X24410810Y-38898103D01*
X24281135Y-38981546D01*
X24194141Y-39108866D01*
X24163536Y-39260000D01*
X23951000Y-39260000D01*
X23951000Y-32429911D01*
X24117888Y-31590906D01*
X24567707Y-30917707D01*
X25240906Y-30467888D01*
X26079911Y-30301000D01*
X109810089Y-30301000D01*
X110649094Y-30467888D01*
X110649094Y-30467888D01*
G37*
X110649094Y-30467888D02*
X111322293Y-30917707D01*
X111772112Y-31590906D01*
X111939000Y-32429911D01*
X111939000Y-78060089D01*
X111772112Y-78899094D01*
X111322293Y-79572293D01*
X110649094Y-80022112D01*
X109810089Y-80189000D01*
X26079911Y-80189000D01*
X25240906Y-80022112D01*
X24567707Y-79572293D01*
X24117888Y-78899094D01*
X23951000Y-78060089D01*
X23951000Y-39260000D01*
X24163536Y-39260000D01*
X24163536Y-44560000D01*
X24190103Y-44701190D01*
X24273546Y-44830865D01*
X24400866Y-44917859D01*
X24552000Y-44948464D01*
X26313000Y-44948464D01*
X26313000Y-45207764D01*
X25304782Y-46215982D01*
X25112071Y-46504394D01*
X25044400Y-46844600D01*
X25044400Y-69570600D01*
X25112071Y-69910806D01*
X25246726Y-70112331D01*
X25304782Y-70199218D01*
X26553182Y-71447618D01*
X26841594Y-71640329D01*
X27181800Y-71708000D01*
X27562691Y-71708000D01*
X27563103Y-71710190D01*
X27646546Y-71839865D01*
X27773866Y-71926859D01*
X27925000Y-71957464D01*
X29225000Y-71957464D01*
X29366190Y-71930897D01*
X29495865Y-71847454D01*
X29582859Y-71720134D01*
X29585316Y-71708000D01*
X30472536Y-71708000D01*
X30472536Y-71856600D01*
X30499103Y-71997790D01*
X30582546Y-72127465D01*
X30709866Y-72214459D01*
X30861000Y-72245064D01*
X30988000Y-72245064D01*
X30988000Y-75336400D01*
X31055671Y-75676606D01*
X31195853Y-75886403D01*
X31248382Y-75965018D01*
X34626582Y-79343218D01*
X34914994Y-79535929D01*
X35255200Y-79603600D01*
X49707800Y-79603600D01*
X50048006Y-79535929D01*
X50336418Y-79343218D01*
X52216018Y-77463618D01*
X52376352Y-77223661D01*
X52408729Y-77175206D01*
X52476400Y-76835000D01*
X52476400Y-76470000D01*
X99639000Y-76470000D01*
X99639000Y-76894047D01*
X99716338Y-77080758D01*
X99859241Y-77223661D01*
X100045952Y-77301000D01*
X100612000Y-77301000D01*
X100739000Y-77174000D01*
X100739000Y-76343000D01*
X101755000Y-76343000D01*
X101755000Y-77174000D01*
X101882000Y-77301000D01*
X102448048Y-77301000D01*
X102634759Y-77223661D01*
X102777662Y-77080758D01*
X102855000Y-76894047D01*
X102855000Y-76470000D01*
X102728000Y-76343000D01*
X101755000Y-76343000D01*
X100739000Y-76343000D01*
X99766000Y-76343000D01*
X99639000Y-76470000D01*
X52476400Y-76470000D01*
X52476400Y-75551663D01*
X52560190Y-75535897D01*
X52689865Y-75452454D01*
X52776859Y-75325134D01*
X52807464Y-75174000D01*
X52807464Y-74582562D01*
X53027013Y-74363013D01*
X53164664Y-74157004D01*
X53213001Y-73914000D01*
X53213000Y-73913995D01*
X53213000Y-72829500D01*
X54896000Y-72829500D01*
X54896000Y-73116048D01*
X54973339Y-73302759D01*
X55116242Y-73445662D01*
X55302953Y-73523000D01*
X55652000Y-73523000D01*
X55779000Y-73396000D01*
X55779000Y-72702500D01*
X56529000Y-72702500D01*
X56529000Y-73396000D01*
X56656000Y-73523000D01*
X57005047Y-73523000D01*
X57191758Y-73445662D01*
X57334661Y-73302759D01*
X57412000Y-73116048D01*
X57412000Y-72829500D01*
X57285000Y-72702500D01*
X56529000Y-72702500D01*
X55779000Y-72702500D01*
X55023000Y-72702500D01*
X54896000Y-72829500D01*
X53213000Y-72829500D01*
X53213000Y-71991464D01*
X53332000Y-71991464D01*
X53473190Y-71964897D01*
X53600185Y-71883178D01*
X53780403Y-71847331D01*
X53945210Y-71737210D01*
X54018468Y-71663952D01*
X54896000Y-71663952D01*
X54896000Y-71950500D01*
X55023000Y-72077500D01*
X55779000Y-72077500D01*
X55779000Y-71384000D01*
X56529000Y-71384000D01*
X56529000Y-72077500D01*
X57285000Y-72077500D01*
X57412000Y-71950500D01*
X57412000Y-71765000D01*
X57515536Y-71765000D01*
X57515536Y-73015000D01*
X57542103Y-73156190D01*
X57625546Y-73285865D01*
X57752866Y-73372859D01*
X57904000Y-73403464D01*
X59404000Y-73403464D01*
X59545190Y-73376897D01*
X59674865Y-73293454D01*
X59761859Y-73166134D01*
X59792464Y-73015000D01*
X59792464Y-71765000D01*
X59765897Y-71623810D01*
X59682454Y-71494135D01*
X59555134Y-71407141D01*
X59404000Y-71376536D01*
X59162000Y-71376536D01*
X59162000Y-69618464D01*
X59504000Y-69618464D01*
X59645190Y-69591897D01*
X59774865Y-69508454D01*
X59861859Y-69381134D01*
X59892464Y-69230000D01*
X59892464Y-67930000D01*
X59865897Y-67788810D01*
X59782454Y-67659135D01*
X59655134Y-67572141D01*
X59504000Y-67541536D01*
X58004000Y-67541536D01*
X57862810Y-67568103D01*
X57733135Y-67651546D01*
X57646141Y-67778866D01*
X57615536Y-67930000D01*
X57615536Y-69230000D01*
X57642103Y-69371190D01*
X57725546Y-69500865D01*
X57852866Y-69587859D01*
X58004000Y-69618464D01*
X58146000Y-69618464D01*
X58146000Y-71376536D01*
X57904000Y-71376536D01*
X57762810Y-71403103D01*
X57633135Y-71486546D01*
X57546141Y-71613866D01*
X57515536Y-71765000D01*
X57412000Y-71765000D01*
X57412000Y-71663952D01*
X57334661Y-71477241D01*
X57191758Y-71334338D01*
X57005047Y-71257000D01*
X56656000Y-71257000D01*
X56529000Y-71384000D01*
X55779000Y-71384000D01*
X55652000Y-71257000D01*
X55302953Y-71257000D01*
X55116242Y-71334338D01*
X54973339Y-71477241D01*
X54896000Y-71663952D01*
X54018468Y-71663952D01*
X54671538Y-71010883D01*
X54765521Y-70972050D01*
X54969335Y-70768592D01*
X55079774Y-70502624D01*
X55080025Y-70214639D01*
X54970050Y-69948479D01*
X54766592Y-69744665D01*
X54651532Y-69696888D01*
X54955856Y-69392564D01*
X55025546Y-69500865D01*
X55152866Y-69587859D01*
X55304000Y-69618464D01*
X56804000Y-69618464D01*
X56945190Y-69591897D01*
X57074865Y-69508454D01*
X57161859Y-69381134D01*
X57192464Y-69230000D01*
X57192464Y-67930000D01*
X57165897Y-67788810D01*
X57082454Y-67659135D01*
X56955134Y-67572141D01*
X56804000Y-67541536D01*
X55304000Y-67541536D01*
X55162810Y-67568103D01*
X55033135Y-67651546D01*
X54946141Y-67778866D01*
X54915536Y-67930000D01*
X54915536Y-68098746D01*
X54855596Y-68110669D01*
X54690790Y-68220790D01*
X53718582Y-69192998D01*
X53700957Y-69099330D01*
X53720464Y-69003000D01*
X53720464Y-68553000D01*
X53700957Y-68449330D01*
X53720464Y-68353000D01*
X53720464Y-67903000D01*
X53700957Y-67799330D01*
X53720464Y-67703000D01*
X53720464Y-67336000D01*
X60521580Y-67336000D01*
X67187789Y-74002210D01*
X67352596Y-74112331D01*
X67384850Y-74118746D01*
X67547000Y-74151000D01*
X94758436Y-74151000D01*
X94653226Y-74404376D01*
X94652975Y-74692361D01*
X94762950Y-74958521D01*
X94966408Y-75162335D01*
X95232376Y-75272774D01*
X95520361Y-75273025D01*
X95786521Y-75163050D01*
X95990335Y-74959592D01*
X96018421Y-74891953D01*
X99639000Y-74891953D01*
X99639000Y-75316000D01*
X99766000Y-75443000D01*
X100739000Y-75443000D01*
X100739000Y-74612000D01*
X101755000Y-74612000D01*
X101755000Y-75443000D01*
X102728000Y-75443000D01*
X102855000Y-75316000D01*
X102855000Y-74891953D01*
X102777662Y-74705242D01*
X102634759Y-74562339D01*
X102448048Y-74485000D01*
X101882000Y-74485000D01*
X101755000Y-74612000D01*
X100739000Y-74612000D01*
X100612000Y-74485000D01*
X100045952Y-74485000D01*
X99859241Y-74562339D01*
X99716338Y-74705242D01*
X99639000Y-74891953D01*
X96018421Y-74891953D01*
X96100774Y-74693624D01*
X96100811Y-74651000D01*
X97196562Y-74651000D01*
X97347000Y-74681464D01*
X98647000Y-74681464D01*
X98788190Y-74654897D01*
X98917865Y-74571454D01*
X99004859Y-74444134D01*
X99035464Y-74293000D01*
X99035464Y-73993000D01*
X99015957Y-73889330D01*
X99035464Y-73793000D01*
X99035464Y-73622956D01*
X99077662Y-73580758D01*
X99155000Y-73394047D01*
X99155000Y-73345000D01*
X99028000Y-73218000D01*
X98919402Y-73218000D01*
X98808202Y-73142020D01*
X98917865Y-73071454D01*
X98920225Y-73068000D01*
X99028000Y-73068000D01*
X99155000Y-72941000D01*
X99155000Y-72891953D01*
X99077662Y-72705242D01*
X99035464Y-72663044D01*
X99035464Y-72493000D01*
X99015957Y-72389330D01*
X99035464Y-72293000D01*
X99035464Y-71993000D01*
X99015957Y-71889330D01*
X99035464Y-71793000D01*
X99035464Y-71493000D01*
X99015957Y-71389330D01*
X99035464Y-71293000D01*
X99035464Y-70993000D01*
X99015957Y-70889330D01*
X99035464Y-70793000D01*
X99035464Y-70493000D01*
X99015957Y-70389330D01*
X99035464Y-70293000D01*
X99035464Y-69993000D01*
X99015957Y-69889330D01*
X99035464Y-69793000D01*
X99035464Y-69493000D01*
X99015957Y-69389330D01*
X99035464Y-69293000D01*
X99035464Y-68993000D01*
X99015957Y-68889330D01*
X99035464Y-68793000D01*
X99035464Y-68493000D01*
X99015957Y-68389330D01*
X99035464Y-68293000D01*
X99035464Y-67993000D01*
X99015957Y-67889330D01*
X99035464Y-67793000D01*
X99035464Y-67493000D01*
X99015957Y-67389330D01*
X99035464Y-67293000D01*
X99035464Y-66993000D01*
X99015957Y-66889330D01*
X99035464Y-66793000D01*
X99035464Y-66493000D01*
X99015957Y-66389330D01*
X99035464Y-66293000D01*
X99035464Y-65993000D01*
X99015957Y-65889330D01*
X99035464Y-65793000D01*
X99035464Y-65493000D01*
X99015957Y-65389330D01*
X99035464Y-65293000D01*
X99035464Y-64993000D01*
X99015957Y-64889330D01*
X99035464Y-64793000D01*
X99035464Y-64493000D01*
X99015957Y-64389330D01*
X99035464Y-64293000D01*
X99035464Y-63993000D01*
X99015957Y-63889330D01*
X99035464Y-63793000D01*
X99035464Y-63493000D01*
X99015957Y-63389330D01*
X99035464Y-63293000D01*
X99035464Y-62993000D01*
X99015957Y-62889330D01*
X99035464Y-62793000D01*
X99035464Y-62493000D01*
X99015957Y-62389330D01*
X99035464Y-62293000D01*
X99035464Y-61993000D01*
X99015957Y-61889330D01*
X99035464Y-61793000D01*
X99035464Y-61493000D01*
X99015957Y-61389330D01*
X99035464Y-61293000D01*
X99035464Y-60993000D01*
X99015957Y-60889330D01*
X99035464Y-60793000D01*
X99035464Y-60493000D01*
X99015957Y-60389330D01*
X99035464Y-60293000D01*
X99035464Y-59993000D01*
X99015957Y-59889330D01*
X99035464Y-59793000D01*
X99035464Y-59493000D01*
X99015957Y-59389330D01*
X99035464Y-59293000D01*
X99035464Y-59124254D01*
X99095403Y-59112331D01*
X99260210Y-59002210D01*
X103684000Y-54578420D01*
X103684000Y-58401571D01*
X103529000Y-58401571D01*
X103529000Y-69106429D01*
X103684000Y-69106429D01*
X103684000Y-76454000D01*
X103718711Y-76628504D01*
X103817559Y-76776441D01*
X103965496Y-76875289D01*
X104140000Y-76910000D01*
X106934000Y-76910000D01*
X107108504Y-76875289D01*
X107256441Y-76776441D01*
X107355289Y-76628504D01*
X107390000Y-76454000D01*
X107390000Y-52324000D01*
X107355289Y-52149496D01*
X107256441Y-52001559D01*
X107108504Y-51902711D01*
X106934000Y-51868000D01*
X104552421Y-51868000D01*
X105112421Y-51308000D01*
X107188000Y-51308000D01*
X107382403Y-51269331D01*
X107547210Y-51159210D01*
X110419951Y-48286469D01*
X110530072Y-48121663D01*
X110545927Y-48041952D01*
X110568741Y-47927259D01*
X110568741Y-46029881D01*
X110530072Y-45835478D01*
X110530072Y-45835477D01*
X110419951Y-45670671D01*
X109661804Y-44912524D01*
X109661804Y-44643040D01*
X109635237Y-44501850D01*
X109551794Y-44372175D01*
X109424474Y-44285181D01*
X109273340Y-44254576D01*
X108272580Y-44254576D01*
X108131390Y-44281143D01*
X108001715Y-44364586D01*
X107914721Y-44491906D01*
X107884116Y-44643040D01*
X107884116Y-45242480D01*
X107910683Y-45383670D01*
X107994126Y-45513345D01*
X108112162Y-45593996D01*
X108001715Y-45665066D01*
X107914721Y-45792386D01*
X107884116Y-45943520D01*
X107884116Y-46213004D01*
X106897470Y-47199650D01*
X106836592Y-47138665D01*
X106570624Y-47028226D01*
X106282639Y-47027975D01*
X106016479Y-47137950D01*
X105812665Y-47341408D01*
X105702226Y-47607376D01*
X105701975Y-47895361D01*
X105811950Y-48161521D01*
X106015408Y-48365335D01*
X106281376Y-48475774D01*
X106569361Y-48476025D01*
X106835521Y-48366050D01*
X106941757Y-48260000D01*
X107063540Y-48260000D01*
X107257943Y-48221331D01*
X107422750Y-48111210D01*
X108602536Y-46931424D01*
X109273340Y-46931424D01*
X109414530Y-46904857D01*
X109544205Y-46821414D01*
X109552741Y-46808921D01*
X109552741Y-47716839D01*
X106977580Y-50292000D01*
X104902000Y-50292000D01*
X104707597Y-50330669D01*
X104707595Y-50330670D01*
X104707596Y-50330670D01*
X104542789Y-50440790D01*
X103018790Y-51964790D01*
X102908669Y-52129597D01*
X102870000Y-52324000D01*
X102870000Y-53955580D01*
X102800883Y-54024697D01*
X102855000Y-53894047D01*
X102855000Y-53470000D01*
X102728000Y-53343000D01*
X101755000Y-53343000D01*
X101755000Y-54174000D01*
X101882000Y-54301000D01*
X102448048Y-54301000D01*
X102578697Y-54246883D01*
X99155000Y-57670580D01*
X99155000Y-57634998D01*
X99035464Y-57634998D01*
X99035464Y-57493000D01*
X99015957Y-57389330D01*
X99035464Y-57293000D01*
X99035464Y-56993000D01*
X99015957Y-56889330D01*
X99035464Y-56793000D01*
X99035464Y-56624254D01*
X99095403Y-56612331D01*
X99260210Y-56502210D01*
X99285611Y-56476810D01*
X99395732Y-56312003D01*
X99411452Y-56232971D01*
X99434401Y-56117599D01*
X99434401Y-53470000D01*
X99639000Y-53470000D01*
X99639000Y-53894047D01*
X99716338Y-54080758D01*
X99859241Y-54223661D01*
X100045952Y-54301000D01*
X100612000Y-54301000D01*
X100739000Y-54174000D01*
X100739000Y-53343000D01*
X99766000Y-53343000D01*
X99639000Y-53470000D01*
X99434401Y-53470000D01*
X99434401Y-51891953D01*
X99639000Y-51891953D01*
X99639000Y-52316000D01*
X99766000Y-52443000D01*
X100739000Y-52443000D01*
X100739000Y-51612000D01*
X101755000Y-51612000D01*
X101755000Y-52443000D01*
X102728000Y-52443000D01*
X102855000Y-52316000D01*
X102855000Y-51891953D01*
X102777662Y-51705242D01*
X102634759Y-51562339D01*
X102448048Y-51485000D01*
X101882000Y-51485000D01*
X101755000Y-51612000D01*
X100739000Y-51612000D01*
X100612000Y-51485000D01*
X100045952Y-51485000D01*
X99859241Y-51562339D01*
X99716338Y-51705242D01*
X99639000Y-51891953D01*
X99434401Y-51891953D01*
X99434401Y-47244000D01*
X101854000Y-47244000D01*
X102048403Y-47205331D01*
X102213210Y-47095210D01*
X102467210Y-46841210D01*
X102577331Y-46676404D01*
X102592041Y-46602450D01*
X102603306Y-46545815D01*
X102683866Y-46600859D01*
X102835000Y-46631464D01*
X104335000Y-46631464D01*
X104476190Y-46604897D01*
X104605865Y-46521454D01*
X104692859Y-46394134D01*
X104723464Y-46243000D01*
X104723464Y-46101000D01*
X106053934Y-46101000D01*
X106094206Y-46163585D01*
X106221526Y-46250579D01*
X106372660Y-46281184D01*
X107373420Y-46281184D01*
X107514610Y-46254617D01*
X107644285Y-46171174D01*
X107731279Y-46043854D01*
X107761884Y-45892720D01*
X107761884Y-45293280D01*
X107735317Y-45152090D01*
X107651874Y-45022415D01*
X107524554Y-44935421D01*
X107373420Y-44904816D01*
X106372660Y-44904816D01*
X106231470Y-44931383D01*
X106101795Y-45014826D01*
X106053847Y-45085000D01*
X104723464Y-45085000D01*
X104723464Y-44943000D01*
X104696897Y-44801810D01*
X104613454Y-44672135D01*
X104486134Y-44585141D01*
X104335000Y-44554536D01*
X102835000Y-44554536D01*
X102693810Y-44581103D01*
X102616000Y-44631172D01*
X102616000Y-40894000D01*
X102577331Y-40699597D01*
X102577331Y-40699596D01*
X102467210Y-40534790D01*
X99165210Y-37232790D01*
X99000403Y-37122669D01*
X98806000Y-37084000D01*
X96540000Y-37084000D01*
X96345597Y-37122669D01*
X96345595Y-37122670D01*
X96345596Y-37122670D01*
X96180789Y-37232790D01*
X95544000Y-37869579D01*
X95544000Y-36827464D01*
X95786000Y-36827464D01*
X95927190Y-36800897D01*
X96056865Y-36717454D01*
X96143859Y-36590134D01*
X96174464Y-36439000D01*
X96174464Y-36253500D01*
X96278000Y-36253500D01*
X96278000Y-36540048D01*
X96355339Y-36726759D01*
X96498242Y-36869662D01*
X96684953Y-36947000D01*
X97034000Y-36947000D01*
X97161000Y-36820000D01*
X97161000Y-36126500D01*
X97911000Y-36126500D01*
X97911000Y-36820000D01*
X98038000Y-36947000D01*
X98387047Y-36947000D01*
X98573758Y-36869662D01*
X98716661Y-36726759D01*
X98794000Y-36540048D01*
X98794000Y-36253500D01*
X98667000Y-36126500D01*
X97911000Y-36126500D01*
X97161000Y-36126500D01*
X96405000Y-36126500D01*
X96278000Y-36253500D01*
X96174464Y-36253500D01*
X96174464Y-35189000D01*
X96155451Y-35087952D01*
X96278000Y-35087952D01*
X96278000Y-35374500D01*
X96405000Y-35501500D01*
X97161000Y-35501500D01*
X97161000Y-34808000D01*
X97911000Y-34808000D01*
X97911000Y-35501500D01*
X98667000Y-35501500D01*
X98794000Y-35374500D01*
X98794000Y-35087952D01*
X98716661Y-34901241D01*
X98573758Y-34758338D01*
X98387047Y-34681000D01*
X98038000Y-34681000D01*
X97911000Y-34808000D01*
X97161000Y-34808000D01*
X97034000Y-34681000D01*
X96684953Y-34681000D01*
X96498242Y-34758338D01*
X96355339Y-34901241D01*
X96278000Y-35087952D01*
X96155451Y-35087952D01*
X96147897Y-35047810D01*
X96064454Y-34918135D01*
X95937134Y-34831141D01*
X95786000Y-34800536D01*
X94286000Y-34800536D01*
X94144810Y-34827103D01*
X94015135Y-34910546D01*
X93928141Y-35037866D01*
X93897536Y-35189000D01*
X93897536Y-36439000D01*
X93924103Y-36580190D01*
X94007546Y-36709865D01*
X94134866Y-36796859D01*
X94286000Y-36827464D01*
X94528000Y-36827464D01*
X94528000Y-38077536D01*
X94166000Y-38077536D01*
X94024810Y-38104103D01*
X93895135Y-38187546D01*
X93808141Y-38314866D01*
X93777536Y-38466000D01*
X93777536Y-39766000D01*
X93804103Y-39907190D01*
X93887546Y-40036865D01*
X94014866Y-40123859D01*
X94166000Y-40154464D01*
X95666000Y-40154464D01*
X95807190Y-40127897D01*
X95936865Y-40044454D01*
X96023859Y-39917134D01*
X96054464Y-39766000D01*
X96054464Y-38795956D01*
X96501180Y-38349241D01*
X96477536Y-38466000D01*
X96477536Y-39766000D01*
X96504103Y-39907190D01*
X96587546Y-40036865D01*
X96714866Y-40123859D01*
X96866000Y-40154464D01*
X97108000Y-40154464D01*
X97108000Y-42418000D01*
X95504000Y-42418000D01*
X95341850Y-42450254D01*
X95309596Y-42456669D01*
X95144790Y-42566790D01*
X94890790Y-42820790D01*
X94780669Y-42985597D01*
X94742000Y-43180000D01*
X94742000Y-44017359D01*
X94734380Y-44015816D01*
X93733620Y-44015816D01*
X93592430Y-44042383D01*
X93462755Y-44125826D01*
X93375761Y-44253146D01*
X93345156Y-44404280D01*
X93345156Y-44908508D01*
X93303669Y-44970597D01*
X93265000Y-45165000D01*
X93265000Y-51666536D01*
X93023000Y-51666536D01*
X92881810Y-51693103D01*
X92752135Y-51776546D01*
X92665141Y-51903866D01*
X92634536Y-52055000D01*
X92634536Y-52197000D01*
X92583000Y-52197000D01*
X92388597Y-52235669D01*
X92223790Y-52345790D01*
X91334790Y-53234790D01*
X91224669Y-53399597D01*
X91186000Y-53594000D01*
X91186000Y-54265514D01*
X89266276Y-52345790D01*
X89101469Y-52235669D01*
X88907066Y-52197000D01*
X64888066Y-52197000D01*
X64847794Y-52134415D01*
X64770000Y-52081261D01*
X64770000Y-49550000D01*
X64731331Y-49355597D01*
X64621210Y-49190790D01*
X64618464Y-49188044D01*
X64618464Y-48945331D01*
X69629089Y-48945331D01*
X70732674Y-49949789D01*
X74206208Y-51332851D01*
X77944610Y-51281368D01*
X81159326Y-49949789D01*
X82262911Y-48945331D01*
X75946000Y-42628420D01*
X69629089Y-48945331D01*
X64618464Y-48945331D01*
X64618464Y-48143000D01*
X64591897Y-48001810D01*
X64508454Y-47872135D01*
X64381134Y-47785141D01*
X64230000Y-47754536D01*
X62730000Y-47754536D01*
X62588810Y-47781103D01*
X62459135Y-47864546D01*
X62372141Y-47991866D01*
X62341536Y-48143000D01*
X62341536Y-49393000D01*
X62368103Y-49534190D01*
X62451546Y-49663865D01*
X62578866Y-49750859D01*
X62730000Y-49781464D01*
X63754000Y-49781464D01*
X63754000Y-52016816D01*
X63568580Y-52016816D01*
X63427390Y-52043383D01*
X63297715Y-52126826D01*
X63210721Y-52254146D01*
X63180116Y-52405280D01*
X63180116Y-53004720D01*
X63206683Y-53145910D01*
X63290126Y-53275585D01*
X63417446Y-53362579D01*
X63568580Y-53393184D01*
X64569340Y-53393184D01*
X64643000Y-53379324D01*
X64643000Y-53467000D01*
X62937982Y-53467000D01*
X62902987Y-53473961D01*
X61435093Y-53473961D01*
X61400098Y-53467000D01*
X60047131Y-53467000D01*
X59937743Y-53393909D01*
X59817567Y-53370005D01*
X59769999Y-53296082D01*
X59777099Y-53293141D01*
X59920002Y-53150238D01*
X59997340Y-52963527D01*
X59997340Y-52839620D01*
X59870340Y-52712620D01*
X59239150Y-52712620D01*
X59239150Y-52862480D01*
X58738770Y-52862480D01*
X58738770Y-52712620D01*
X58107580Y-52712620D01*
X57980580Y-52839620D01*
X57980580Y-52963527D01*
X58057918Y-53150238D01*
X58200821Y-53293141D01*
X58209688Y-53296814D01*
X58130721Y-53412386D01*
X58100116Y-53563520D01*
X58100116Y-53833004D01*
X58024160Y-53908960D01*
X55333094Y-53908960D01*
X55347464Y-53838000D01*
X55347464Y-53721000D01*
X56269934Y-53721000D01*
X56310206Y-53783585D01*
X56437526Y-53870579D01*
X56588660Y-53901184D01*
X57589420Y-53901184D01*
X57730610Y-53874617D01*
X57860285Y-53791174D01*
X57947279Y-53663854D01*
X57977884Y-53512720D01*
X57977884Y-52913280D01*
X57951317Y-52772090D01*
X57867874Y-52642415D01*
X57740554Y-52555421D01*
X57589420Y-52524816D01*
X56588660Y-52524816D01*
X56447470Y-52551383D01*
X56317795Y-52634826D01*
X56269847Y-52705000D01*
X55347464Y-52705000D01*
X55347464Y-52588000D01*
X55320897Y-52446810D01*
X55237454Y-52317135D01*
X55110134Y-52230141D01*
X54959000Y-52199536D01*
X53459000Y-52199536D01*
X53317810Y-52226103D01*
X53188135Y-52309546D01*
X53101141Y-52436866D01*
X53070536Y-52588000D01*
X53070536Y-53838000D01*
X53083888Y-53908960D01*
X52833094Y-53908960D01*
X52847464Y-53838000D01*
X52847464Y-52588000D01*
X52820897Y-52446810D01*
X52737454Y-52317135D01*
X52610134Y-52230141D01*
X52459000Y-52199536D01*
X52217000Y-52199536D01*
X52217000Y-52161993D01*
X57980580Y-52161993D01*
X57980580Y-52285900D01*
X58107580Y-52412900D01*
X58738770Y-52412900D01*
X58738770Y-51882040D01*
X59239150Y-51882040D01*
X59239150Y-52412900D01*
X59870340Y-52412900D01*
X59997340Y-52285900D01*
X59997340Y-52213361D01*
X60235975Y-52213361D01*
X60345950Y-52479521D01*
X60549408Y-52683335D01*
X60815376Y-52793774D01*
X61103361Y-52794025D01*
X61288045Y-52717715D01*
X61237998Y-52767762D01*
X61160660Y-52954473D01*
X61160660Y-53078380D01*
X61287660Y-53205380D01*
X61918850Y-53205380D01*
X61918850Y-53055520D01*
X62419230Y-53055520D01*
X62419230Y-53205380D01*
X63050420Y-53205380D01*
X63177420Y-53078380D01*
X63177420Y-52954473D01*
X63100082Y-52767762D01*
X62957179Y-52624859D01*
X62948312Y-52621186D01*
X63027279Y-52505614D01*
X63057884Y-52354480D01*
X63057884Y-51755040D01*
X63031317Y-51613850D01*
X62947874Y-51484175D01*
X62820554Y-51397181D01*
X62669420Y-51366576D01*
X61668660Y-51366576D01*
X61527470Y-51393143D01*
X61397795Y-51476586D01*
X61394822Y-51480937D01*
X61370592Y-51456665D01*
X61104624Y-51346226D01*
X60816639Y-51345975D01*
X60550479Y-51455950D01*
X60346665Y-51659408D01*
X60236226Y-51925376D01*
X60235975Y-52213361D01*
X59997340Y-52213361D01*
X59997340Y-52161993D01*
X59920002Y-51975282D01*
X59777099Y-51832379D01*
X59590388Y-51755040D01*
X59366150Y-51755040D01*
X59239150Y-51882040D01*
X58738770Y-51882040D01*
X58611770Y-51755040D01*
X58387532Y-51755040D01*
X58200821Y-51832379D01*
X58057918Y-51975282D01*
X57980580Y-52161993D01*
X52217000Y-52161993D01*
X52217000Y-50863420D01*
X52318525Y-50761895D01*
X52467361Y-50762025D01*
X52733521Y-50652050D01*
X52937335Y-50448592D01*
X53047774Y-50182624D01*
X53048025Y-49894639D01*
X52938050Y-49628479D01*
X52734592Y-49424665D01*
X52468624Y-49314226D01*
X52180639Y-49313975D01*
X51914479Y-49423950D01*
X51710665Y-49627408D01*
X51600226Y-49893376D01*
X51600095Y-50043485D01*
X51349790Y-50293790D01*
X51239669Y-50458597D01*
X51201000Y-50653000D01*
X51201000Y-52199536D01*
X50959000Y-52199536D01*
X50817810Y-52226103D01*
X50688135Y-52309546D01*
X50601141Y-52436866D01*
X50570536Y-52588000D01*
X50570536Y-53694115D01*
X49730210Y-52853790D01*
X49565403Y-52743669D01*
X49371000Y-52705000D01*
X41208800Y-52705000D01*
X41014397Y-52743669D01*
X40849590Y-52853790D01*
X38741571Y-54961809D01*
X38731297Y-54907210D01*
X38647854Y-54777535D01*
X38520534Y-54690541D01*
X38369400Y-54659936D01*
X37119400Y-54659936D01*
X36978210Y-54686503D01*
X36848535Y-54769946D01*
X36761541Y-54897266D01*
X36730936Y-55048400D01*
X36730936Y-56548400D01*
X36757503Y-56689590D01*
X36840946Y-56819265D01*
X36968266Y-56906259D01*
X37119400Y-56936864D01*
X38369400Y-56936864D01*
X38510590Y-56910297D01*
X38640265Y-56826854D01*
X38727259Y-56699534D01*
X38757864Y-56548400D01*
X38757864Y-56279654D01*
X38817803Y-56267731D01*
X38982610Y-56157610D01*
X41419220Y-53721000D01*
X49160580Y-53721000D01*
X50215750Y-54776171D01*
X50347196Y-54864000D01*
X50380557Y-54886291D01*
X50574960Y-54924960D01*
X58234580Y-54924960D01*
X58428983Y-54886291D01*
X58593790Y-54776170D01*
X58818536Y-54551424D01*
X59489340Y-54551424D01*
X59548595Y-54540274D01*
X59474226Y-54719376D01*
X59473975Y-55007361D01*
X59583950Y-55273521D01*
X59787408Y-55477335D01*
X60053376Y-55587774D01*
X60341361Y-55588025D01*
X60607521Y-55478050D01*
X60713757Y-55372000D01*
X61359741Y-55372000D01*
X61388001Y-55415918D01*
X61380901Y-55418859D01*
X61237998Y-55561762D01*
X61160660Y-55748473D01*
X61160660Y-55872380D01*
X61287660Y-55999380D01*
X61918850Y-55999380D01*
X61918850Y-55849520D01*
X62419230Y-55849520D01*
X62419230Y-55999380D01*
X63050420Y-55999380D01*
X63177420Y-55872380D01*
X63177420Y-55753000D01*
X63180116Y-55753000D01*
X63180116Y-55798720D01*
X63206683Y-55939910D01*
X63290126Y-56069585D01*
X63417446Y-56156579D01*
X63568580Y-56187184D01*
X63627000Y-56187184D01*
X63627000Y-56920536D01*
X63510000Y-56920536D01*
X63368810Y-56947103D01*
X63239135Y-57030546D01*
X63152141Y-57157866D01*
X63121536Y-57309000D01*
X63121536Y-58809000D01*
X63148103Y-58950190D01*
X63231546Y-59079865D01*
X63358866Y-59166859D01*
X63510000Y-59197464D01*
X64643000Y-59197464D01*
X64643000Y-59301000D01*
X64574500Y-59301000D01*
X64447500Y-59428000D01*
X64447500Y-60184000D01*
X64663000Y-60184000D01*
X64663000Y-60934000D01*
X64447500Y-60934000D01*
X64447500Y-61690000D01*
X64574500Y-61817000D01*
X64718580Y-61817000D01*
X64686580Y-61849000D01*
X63720420Y-61849000D01*
X63688420Y-61817000D01*
X63695500Y-61817000D01*
X63822500Y-61690000D01*
X63822500Y-60934000D01*
X63129000Y-60934000D01*
X63002000Y-61061000D01*
X63002000Y-61130580D01*
X61579373Y-59707953D01*
X63002000Y-59707953D01*
X63002000Y-60057000D01*
X63129000Y-60184000D01*
X63822500Y-60184000D01*
X63822500Y-59428000D01*
X63695500Y-59301000D01*
X63408952Y-59301000D01*
X63222241Y-59378339D01*
X63079338Y-59521242D01*
X63002000Y-59707953D01*
X61579373Y-59707953D01*
X61055210Y-59183790D01*
X60890403Y-59073669D01*
X60830464Y-59061746D01*
X60830464Y-58793000D01*
X60803897Y-58651810D01*
X60720454Y-58522135D01*
X60593134Y-58435141D01*
X60442000Y-58404536D01*
X59192000Y-58404536D01*
X59050810Y-58431103D01*
X58921135Y-58514546D01*
X58834141Y-58641866D01*
X58803536Y-58793000D01*
X58803536Y-59135000D01*
X57045464Y-59135000D01*
X57045464Y-58893000D01*
X57018897Y-58751810D01*
X56935454Y-58622135D01*
X56808134Y-58535141D01*
X56657000Y-58504536D01*
X55357000Y-58504536D01*
X55215810Y-58531103D01*
X55086135Y-58614546D01*
X54999141Y-58741866D01*
X54968536Y-58893000D01*
X54968536Y-59055000D01*
X53966066Y-59055000D01*
X53925794Y-58992415D01*
X53798474Y-58905421D01*
X53647340Y-58874816D01*
X52646580Y-58874816D01*
X52505390Y-58901383D01*
X52375715Y-58984826D01*
X52288721Y-59112146D01*
X52258116Y-59263280D01*
X52258116Y-59862720D01*
X52284683Y-60003910D01*
X52368126Y-60133585D01*
X52495446Y-60220579D01*
X52646580Y-60251184D01*
X53647340Y-60251184D01*
X53788530Y-60224617D01*
X53918205Y-60141174D01*
X53966153Y-60071000D01*
X54968536Y-60071000D01*
X54968536Y-60393000D01*
X54995103Y-60534190D01*
X55078546Y-60663865D01*
X55205866Y-60750859D01*
X55357000Y-60781464D01*
X56657000Y-60781464D01*
X56798190Y-60754897D01*
X56927865Y-60671454D01*
X57014859Y-60544134D01*
X57045464Y-60393000D01*
X57045464Y-60151000D01*
X58803536Y-60151000D01*
X58803536Y-60293000D01*
X58830103Y-60434190D01*
X58913546Y-60563865D01*
X59040866Y-60650859D01*
X59192000Y-60681464D01*
X60442000Y-60681464D01*
X60583190Y-60654897D01*
X60712865Y-60571454D01*
X60799859Y-60444134D01*
X60813138Y-60378558D01*
X63150790Y-62716210D01*
X63315597Y-62826331D01*
X63510000Y-62865000D01*
X64897000Y-62865000D01*
X65091403Y-62826331D01*
X65256210Y-62716210D01*
X66018210Y-61954210D01*
X66128331Y-61789403D01*
X66167000Y-61595000D01*
X66167000Y-58337818D01*
X66199000Y-58305818D01*
X66199000Y-59019048D01*
X66276339Y-59205759D01*
X66419242Y-59348662D01*
X66605953Y-59426000D01*
X66955000Y-59426000D01*
X67082000Y-59299000D01*
X67082000Y-58605500D01*
X67832000Y-58605500D01*
X67832000Y-59299000D01*
X67959000Y-59426000D01*
X68308047Y-59426000D01*
X68494758Y-59348662D01*
X68637661Y-59205759D01*
X68715000Y-59019048D01*
X68715000Y-58732500D01*
X68588000Y-58605500D01*
X67832000Y-58605500D01*
X67082000Y-58605500D01*
X66929000Y-58605500D01*
X66929000Y-57980500D01*
X67082000Y-57980500D01*
X67082000Y-57422818D01*
X67217818Y-57287000D01*
X67832000Y-57287000D01*
X67832000Y-57980500D01*
X68588000Y-57980500D01*
X68715000Y-57853500D01*
X68715000Y-57668000D01*
X68818536Y-57668000D01*
X68818536Y-58918000D01*
X68845103Y-59059190D01*
X68928546Y-59188865D01*
X69055866Y-59275859D01*
X69207000Y-59306464D01*
X69449000Y-59306464D01*
X69449000Y-60043257D01*
X69343665Y-60148408D01*
X69233226Y-60414376D01*
X69232975Y-60702361D01*
X69342950Y-60968521D01*
X69546408Y-61172335D01*
X69812376Y-61282774D01*
X70100361Y-61283025D01*
X70366521Y-61173050D01*
X70570335Y-60969592D01*
X70680774Y-60703624D01*
X70681025Y-60415639D01*
X70571050Y-60149479D01*
X70465000Y-60043243D01*
X70465000Y-59306464D01*
X70707000Y-59306464D01*
X70848190Y-59279897D01*
X70977865Y-59196454D01*
X71064859Y-59069134D01*
X71095464Y-58918000D01*
X71095464Y-58801000D01*
X71806536Y-58801000D01*
X71806536Y-58943000D01*
X71833103Y-59084190D01*
X71916546Y-59213865D01*
X72043866Y-59300859D01*
X72195000Y-59331464D01*
X73695000Y-59331464D01*
X73836190Y-59304897D01*
X73965865Y-59221454D01*
X74052859Y-59094134D01*
X74083464Y-58943000D01*
X74083464Y-57643000D01*
X74056897Y-57501810D01*
X73973454Y-57372135D01*
X73846134Y-57285141D01*
X73695000Y-57254536D01*
X72195000Y-57254536D01*
X72053810Y-57281103D01*
X71924135Y-57364546D01*
X71837141Y-57491866D01*
X71806536Y-57643000D01*
X71806536Y-57785000D01*
X71095464Y-57785000D01*
X71095464Y-57668000D01*
X71068897Y-57526810D01*
X70985454Y-57397135D01*
X70858134Y-57310141D01*
X70707000Y-57279536D01*
X69207000Y-57279536D01*
X69065810Y-57306103D01*
X68936135Y-57389546D01*
X68849141Y-57516866D01*
X68818536Y-57668000D01*
X68715000Y-57668000D01*
X68715000Y-57566952D01*
X68637661Y-57380241D01*
X68494758Y-57237338D01*
X68308047Y-57160000D01*
X67959000Y-57160000D01*
X67832000Y-57287000D01*
X67217818Y-57287000D01*
X68725857Y-55778961D01*
X78444618Y-55778961D01*
X76743144Y-57480436D01*
X76673454Y-57372135D01*
X76546134Y-57285141D01*
X76395000Y-57254536D01*
X74895000Y-57254536D01*
X74753810Y-57281103D01*
X74624135Y-57364546D01*
X74537141Y-57491866D01*
X74506536Y-57643000D01*
X74506536Y-58943000D01*
X74533103Y-59084190D01*
X74616546Y-59213865D01*
X74743866Y-59300859D01*
X74895000Y-59331464D01*
X75223116Y-59331464D01*
X73465044Y-61089536D01*
X72295000Y-61089536D01*
X72153810Y-61116103D01*
X72024135Y-61199546D01*
X71937141Y-61326866D01*
X71906536Y-61478000D01*
X71906536Y-62728000D01*
X71933103Y-62869190D01*
X72016546Y-62998865D01*
X72143866Y-63085859D01*
X72295000Y-63116464D01*
X73795000Y-63116464D01*
X73936190Y-63089897D01*
X74065865Y-63006454D01*
X74152859Y-62879134D01*
X74183464Y-62728000D01*
X74183464Y-61807956D01*
X74406536Y-61584884D01*
X74406536Y-62728000D01*
X74433103Y-62869190D01*
X74516546Y-62998865D01*
X74643866Y-63085859D01*
X74795000Y-63116464D01*
X75502116Y-63116464D01*
X73465044Y-65153536D01*
X72295000Y-65153536D01*
X72153810Y-65180103D01*
X72024135Y-65263546D01*
X71937141Y-65390866D01*
X71906536Y-65542000D01*
X71906536Y-66792000D01*
X71933103Y-66933190D01*
X72016546Y-67062865D01*
X72143866Y-67149859D01*
X72295000Y-67180464D01*
X73795000Y-67180464D01*
X73936190Y-67153897D01*
X74065865Y-67070454D01*
X74152859Y-66943134D01*
X74183464Y-66792000D01*
X74183464Y-65871956D01*
X74406536Y-65648884D01*
X74406536Y-66792000D01*
X74433103Y-66933190D01*
X74516546Y-67062865D01*
X74643866Y-67149859D01*
X74795000Y-67180464D01*
X74994116Y-67180464D01*
X73465044Y-68709536D01*
X72295000Y-68709536D01*
X72153810Y-68736103D01*
X72024135Y-68819546D01*
X71937141Y-68946866D01*
X71906536Y-69098000D01*
X71906536Y-70348000D01*
X71933103Y-70489190D01*
X72016546Y-70618865D01*
X72143866Y-70705859D01*
X72295000Y-70736464D01*
X73795000Y-70736464D01*
X73936190Y-70709897D01*
X74065865Y-70626454D01*
X74152859Y-70499134D01*
X74183464Y-70348000D01*
X74183464Y-69427956D01*
X74406536Y-69204884D01*
X74406536Y-70348000D01*
X74433103Y-70489190D01*
X74516546Y-70618865D01*
X74643866Y-70705859D01*
X74795000Y-70736464D01*
X76295000Y-70736464D01*
X76436190Y-70709897D01*
X76565865Y-70626454D01*
X76652859Y-70499134D01*
X76683464Y-70348000D01*
X76683464Y-69427956D01*
X77836242Y-68275178D01*
X79342402Y-68275178D01*
X78908044Y-68709536D01*
X77883000Y-68709536D01*
X77741810Y-68736103D01*
X77612135Y-68819546D01*
X77525141Y-68946866D01*
X77494536Y-69098000D01*
X77494536Y-70348000D01*
X77521103Y-70489190D01*
X77604546Y-70618865D01*
X77731866Y-70705859D01*
X77883000Y-70736464D01*
X79383000Y-70736464D01*
X79524190Y-70709897D01*
X79653865Y-70626454D01*
X79740859Y-70499134D01*
X79771464Y-70348000D01*
X79771464Y-69282956D01*
X80004215Y-69050205D01*
X79994536Y-69098000D01*
X79994536Y-70348000D01*
X80021103Y-70489190D01*
X80104546Y-70618865D01*
X80231866Y-70705859D01*
X80383000Y-70736464D01*
X81883000Y-70736464D01*
X82024190Y-70709897D01*
X82153865Y-70626454D01*
X82240859Y-70499134D01*
X82271464Y-70348000D01*
X82271464Y-70204254D01*
X82331403Y-70192331D01*
X82496210Y-70082210D01*
X83167920Y-69410500D01*
X83846000Y-69410500D01*
X83846000Y-69195000D01*
X84596000Y-69195000D01*
X84596000Y-69410500D01*
X85352000Y-69410500D01*
X85479000Y-69283500D01*
X85479000Y-69088000D01*
X85584561Y-69088000D01*
X85582536Y-69098000D01*
X85582536Y-70348000D01*
X85609103Y-70489190D01*
X85692546Y-70618865D01*
X85716160Y-70635000D01*
X85401975Y-70635000D01*
X85479000Y-70449048D01*
X85479000Y-70162500D01*
X85352000Y-70035500D01*
X84596000Y-70035500D01*
X84596000Y-70251000D01*
X83846000Y-70251000D01*
X83846000Y-70035500D01*
X83090000Y-70035500D01*
X82963000Y-70162500D01*
X82963000Y-70449048D01*
X83040339Y-70635759D01*
X83183242Y-70778662D01*
X83369953Y-70856000D01*
X83823331Y-70856000D01*
X83660920Y-71018411D01*
X72267898Y-71018411D01*
X71107355Y-69857868D01*
X71208774Y-69613624D01*
X71209025Y-69325639D01*
X71099050Y-69059479D01*
X70895592Y-68855665D01*
X70629624Y-68745226D01*
X70341639Y-68744975D01*
X70075479Y-68854950D01*
X69871665Y-69058408D01*
X69761226Y-69324376D01*
X69760975Y-69612361D01*
X69870950Y-69878521D01*
X69984657Y-69992427D01*
X69993549Y-70037129D01*
X61954210Y-61997790D01*
X61789403Y-61887669D01*
X61595000Y-61849000D01*
X57730599Y-61849000D01*
X57763210Y-61827210D01*
X57906525Y-61683895D01*
X58055361Y-61684025D01*
X58321521Y-61574050D01*
X58525335Y-61370592D01*
X58635774Y-61104624D01*
X58636025Y-60816639D01*
X58526050Y-60550479D01*
X58322592Y-60346665D01*
X58056624Y-60236226D01*
X57768639Y-60235975D01*
X57502479Y-60345950D01*
X57298665Y-60549408D01*
X57188226Y-60815376D01*
X57188100Y-60960000D01*
X52396000Y-60960000D01*
X52201597Y-60998669D01*
X52036790Y-61108790D01*
X47820464Y-65325116D01*
X47820464Y-65303000D01*
X47793897Y-65161810D01*
X47793002Y-65160418D01*
X48426170Y-64527250D01*
X48536291Y-64362443D01*
X48574960Y-64168040D01*
X48574960Y-60899990D01*
X48708530Y-60874857D01*
X48838205Y-60791414D01*
X48925199Y-60664094D01*
X48955804Y-60512960D01*
X48955804Y-59913520D01*
X48929237Y-59772330D01*
X48845794Y-59642655D01*
X48727758Y-59562004D01*
X48838205Y-59490934D01*
X48886153Y-59420760D01*
X50427934Y-59420760D01*
X50468206Y-59483345D01*
X50586242Y-59563996D01*
X50475795Y-59635066D01*
X50388801Y-59762386D01*
X50358196Y-59913520D01*
X50358196Y-60512960D01*
X50384763Y-60654150D01*
X50468206Y-60783825D01*
X50494078Y-60801502D01*
X50462580Y-60833000D01*
X50172743Y-60833000D01*
X50067592Y-60727665D01*
X49801624Y-60617226D01*
X49513639Y-60616975D01*
X49247479Y-60726950D01*
X49043665Y-60930408D01*
X48933226Y-61196376D01*
X48932975Y-61484361D01*
X49042950Y-61750521D01*
X49246408Y-61954335D01*
X49512376Y-62064774D01*
X49800361Y-62065025D01*
X50066521Y-61955050D01*
X50172757Y-61849000D01*
X50673000Y-61849000D01*
X50867403Y-61810331D01*
X51032210Y-61700210D01*
X51606250Y-61126170D01*
X51716371Y-60961364D01*
X51728294Y-60901424D01*
X51747420Y-60901424D01*
X51888610Y-60874857D01*
X52018285Y-60791414D01*
X52105279Y-60664094D01*
X52135884Y-60512960D01*
X52135884Y-59913520D01*
X52109317Y-59772330D01*
X52025874Y-59642655D01*
X51907838Y-59562004D01*
X52018285Y-59490934D01*
X52105279Y-59363614D01*
X52135884Y-59212480D01*
X52135884Y-58613040D01*
X52109317Y-58471850D01*
X52025874Y-58342175D01*
X51898554Y-58255181D01*
X51747420Y-58224576D01*
X50746660Y-58224576D01*
X50605470Y-58251143D01*
X50475795Y-58334586D01*
X50427847Y-58404760D01*
X49395276Y-58404760D01*
X49423000Y-58265380D01*
X49423000Y-57445000D01*
X54849000Y-57445000D01*
X54849000Y-57794047D01*
X54926338Y-57980758D01*
X55069241Y-58123661D01*
X55255952Y-58201000D01*
X55555000Y-58201000D01*
X55682000Y-58074000D01*
X55682000Y-57318000D01*
X56332000Y-57318000D01*
X56332000Y-58074000D01*
X56459000Y-58201000D01*
X56758048Y-58201000D01*
X56944759Y-58123661D01*
X57087662Y-57980758D01*
X57165000Y-57794047D01*
X57165000Y-57545000D01*
X58684000Y-57545000D01*
X58684000Y-57894047D01*
X58761338Y-58080758D01*
X58904241Y-58223661D01*
X59090952Y-58301000D01*
X59377500Y-58301000D01*
X59504500Y-58174000D01*
X59504500Y-57418000D01*
X60129500Y-57418000D01*
X60129500Y-58174000D01*
X60256500Y-58301000D01*
X60543048Y-58301000D01*
X60729759Y-58223661D01*
X60872662Y-58080758D01*
X60950000Y-57894047D01*
X60950000Y-57545000D01*
X60823000Y-57418000D01*
X60129500Y-57418000D01*
X59504500Y-57418000D01*
X58811000Y-57418000D01*
X58684000Y-57545000D01*
X57165000Y-57545000D01*
X57165000Y-57445000D01*
X57038000Y-57318000D01*
X56332000Y-57318000D01*
X55682000Y-57318000D01*
X54976000Y-57318000D01*
X54849000Y-57445000D01*
X49423000Y-57445000D01*
X49423000Y-57274464D01*
X49665000Y-57274464D01*
X49806190Y-57247897D01*
X49935865Y-57164454D01*
X50022859Y-57037134D01*
X50053464Y-56886000D01*
X50053464Y-56700500D01*
X50157000Y-56700500D01*
X50157000Y-56987048D01*
X50234339Y-57173759D01*
X50377242Y-57316662D01*
X50563953Y-57394000D01*
X50913000Y-57394000D01*
X51040000Y-57267000D01*
X51040000Y-56573500D01*
X51790000Y-56573500D01*
X51790000Y-57267000D01*
X51917000Y-57394000D01*
X52266047Y-57394000D01*
X52452758Y-57316662D01*
X52595661Y-57173759D01*
X52673000Y-56987048D01*
X52673000Y-56700500D01*
X52546000Y-56573500D01*
X51790000Y-56573500D01*
X51040000Y-56573500D01*
X50284000Y-56573500D01*
X50157000Y-56700500D01*
X50053464Y-56700500D01*
X50053464Y-56091953D01*
X54849000Y-56091953D01*
X54849000Y-56441000D01*
X54976000Y-56568000D01*
X55682000Y-56568000D01*
X55682000Y-55812000D01*
X56332000Y-55812000D01*
X56332000Y-56568000D01*
X57038000Y-56568000D01*
X57165000Y-56441000D01*
X57165000Y-56191953D01*
X58684000Y-56191953D01*
X58684000Y-56541000D01*
X58811000Y-56668000D01*
X59504500Y-56668000D01*
X59504500Y-55912000D01*
X60129500Y-55912000D01*
X60129500Y-56668000D01*
X60823000Y-56668000D01*
X60950000Y-56541000D01*
X60950000Y-56426100D01*
X61160660Y-56426100D01*
X61160660Y-56550007D01*
X61237998Y-56736718D01*
X61380901Y-56879621D01*
X61567612Y-56956960D01*
X61791850Y-56956960D01*
X61918850Y-56829960D01*
X61918850Y-56299100D01*
X62419230Y-56299100D01*
X62419230Y-56829960D01*
X62546230Y-56956960D01*
X62770468Y-56956960D01*
X62957179Y-56879621D01*
X63100082Y-56736718D01*
X63177420Y-56550007D01*
X63177420Y-56426100D01*
X63050420Y-56299100D01*
X62419230Y-56299100D01*
X61918850Y-56299100D01*
X61287660Y-56299100D01*
X61160660Y-56426100D01*
X60950000Y-56426100D01*
X60950000Y-56191953D01*
X60872662Y-56005242D01*
X60729759Y-55862339D01*
X60543048Y-55785000D01*
X60256500Y-55785000D01*
X60129500Y-55912000D01*
X59504500Y-55912000D01*
X59377500Y-55785000D01*
X59090952Y-55785000D01*
X58904241Y-55862339D01*
X58761338Y-56005242D01*
X58684000Y-56191953D01*
X57165000Y-56191953D01*
X57165000Y-56091953D01*
X57087662Y-55905242D01*
X56944759Y-55762339D01*
X56758048Y-55685000D01*
X56459000Y-55685000D01*
X56332000Y-55812000D01*
X55682000Y-55812000D01*
X55555000Y-55685000D01*
X55255952Y-55685000D01*
X55069241Y-55762339D01*
X54926338Y-55905242D01*
X54849000Y-56091953D01*
X50053464Y-56091953D01*
X50053464Y-55636000D01*
X50034451Y-55534952D01*
X50157000Y-55534952D01*
X50157000Y-55821500D01*
X50284000Y-55948500D01*
X51040000Y-55948500D01*
X51040000Y-55255000D01*
X51790000Y-55255000D01*
X51790000Y-55948500D01*
X52546000Y-55948500D01*
X52673000Y-55821500D01*
X52673000Y-55534952D01*
X52595661Y-55348241D01*
X52452758Y-55205338D01*
X52266047Y-55128000D01*
X51917000Y-55128000D01*
X51790000Y-55255000D01*
X51040000Y-55255000D01*
X50913000Y-55128000D01*
X50563953Y-55128000D01*
X50377242Y-55205338D01*
X50234339Y-55348241D01*
X50157000Y-55534952D01*
X50034451Y-55534952D01*
X50026897Y-55494810D01*
X49943454Y-55365135D01*
X49816134Y-55278141D01*
X49665000Y-55247536D01*
X48165000Y-55247536D01*
X48023810Y-55274103D01*
X47894135Y-55357546D01*
X47807141Y-55484866D01*
X47776536Y-55636000D01*
X47776536Y-56886000D01*
X47803103Y-57027190D01*
X47886546Y-57156865D01*
X48013866Y-57243859D01*
X48165000Y-57274464D01*
X48407000Y-57274464D01*
X48407000Y-58054959D01*
X48237383Y-58224576D01*
X48200997Y-58224576D01*
X46557464Y-56581044D01*
X46557464Y-55611000D01*
X46530897Y-55469810D01*
X46447454Y-55340135D01*
X46320134Y-55253141D01*
X46169000Y-55222536D01*
X44669000Y-55222536D01*
X44527810Y-55249103D01*
X44398135Y-55332546D01*
X44311141Y-55459866D01*
X44280536Y-55611000D01*
X44280536Y-56911000D01*
X44307103Y-57052190D01*
X44390546Y-57181865D01*
X44517866Y-57268859D01*
X44669000Y-57299464D01*
X45839044Y-57299464D01*
X47178116Y-58638537D01*
X47178116Y-59212480D01*
X47204683Y-59353670D01*
X47288126Y-59483345D01*
X47406162Y-59563996D01*
X47295715Y-59635066D01*
X47208721Y-59762386D01*
X47178116Y-59913520D01*
X47178116Y-60512960D01*
X47204683Y-60654150D01*
X47288126Y-60783825D01*
X47415446Y-60870819D01*
X47558960Y-60899881D01*
X47558960Y-63957620D01*
X46602044Y-64914536D01*
X45982000Y-64914536D01*
X45840810Y-64941103D01*
X45718200Y-65020000D01*
X45342221Y-65020000D01*
X41843560Y-61521340D01*
X41925242Y-61521340D01*
X41925242Y-61476922D01*
X42004718Y-61444002D01*
X42147621Y-61301099D01*
X42224960Y-61114388D01*
X42224960Y-60890150D01*
X42097960Y-60763150D01*
X41567100Y-60763150D01*
X41567100Y-61013340D01*
X41335560Y-61013340D01*
X41267380Y-60945160D01*
X41267380Y-60763150D01*
X41117520Y-60763150D01*
X41117520Y-60262770D01*
X41267380Y-60262770D01*
X41267380Y-59631580D01*
X41567100Y-59631580D01*
X41567100Y-60262770D01*
X42097960Y-60262770D01*
X42224960Y-60135770D01*
X42224960Y-59911532D01*
X42147621Y-59724821D01*
X42004718Y-59581918D01*
X41818007Y-59504580D01*
X41694100Y-59504580D01*
X41567100Y-59631580D01*
X41267380Y-59631580D01*
X41140380Y-59504580D01*
X41016473Y-59504580D01*
X40829762Y-59581918D01*
X40686859Y-59724821D01*
X40683186Y-59733688D01*
X40567614Y-59654721D01*
X40416480Y-59624116D01*
X39817040Y-59624116D01*
X39675850Y-59650683D01*
X39546175Y-59734126D01*
X39459181Y-59861446D01*
X39428576Y-60012580D01*
X39428576Y-61013340D01*
X39455143Y-61154530D01*
X39538586Y-61284205D01*
X39665906Y-61371199D01*
X39817040Y-61401804D01*
X40287184Y-61401804D01*
X44772590Y-65887211D01*
X44900380Y-65972597D01*
X44937397Y-65997331D01*
X45131800Y-66036000D01*
X45593536Y-66036000D01*
X45593536Y-66320000D01*
X45186000Y-66320000D01*
X44991596Y-66358669D01*
X44826790Y-66468790D01*
X44455475Y-66840105D01*
X44306639Y-66839975D01*
X44040479Y-66949950D01*
X43836665Y-67153408D01*
X43726226Y-67419376D01*
X43725975Y-67707361D01*
X43835950Y-67973521D01*
X44039408Y-68177335D01*
X44305376Y-68287774D01*
X44593361Y-68288025D01*
X44859521Y-68178050D01*
X45063335Y-67974592D01*
X45173774Y-67708624D01*
X45173905Y-67558515D01*
X45396420Y-67336000D01*
X45593536Y-67336000D01*
X45593536Y-67703000D01*
X45613043Y-67806670D01*
X45593536Y-67903000D01*
X45593536Y-68326000D01*
X43898420Y-68326000D01*
X41126210Y-65553790D01*
X40961403Y-65443669D01*
X40767000Y-65405000D01*
X33185440Y-65405000D01*
X32936834Y-65032935D01*
X32533057Y-64763140D01*
X32056769Y-64668400D01*
X31697231Y-64668400D01*
X31220943Y-64763140D01*
X30817166Y-65032935D01*
X30547371Y-65436712D01*
X30539762Y-65474962D01*
X30421790Y-65553790D01*
X28995044Y-66980536D01*
X27925000Y-66980536D01*
X27783810Y-67007103D01*
X27654135Y-67090546D01*
X27567141Y-67217866D01*
X27536536Y-67369000D01*
X27536536Y-68869000D01*
X27563103Y-69010190D01*
X27646546Y-69139865D01*
X27773866Y-69226859D01*
X27925000Y-69257464D01*
X29225000Y-69257464D01*
X29366190Y-69230897D01*
X29495865Y-69147454D01*
X29582859Y-69020134D01*
X29613464Y-68869000D01*
X29613464Y-67798956D01*
X30737934Y-66674486D01*
X30817166Y-66793065D01*
X31220943Y-67062860D01*
X31697231Y-67157600D01*
X32056769Y-67157600D01*
X32533057Y-67062860D01*
X32580260Y-67031320D01*
X32345706Y-67265874D01*
X32056769Y-67208400D01*
X31697231Y-67208400D01*
X31220943Y-67303140D01*
X30817166Y-67572935D01*
X30547371Y-67976712D01*
X30452631Y-68453000D01*
X30547371Y-68929288D01*
X30817166Y-69333065D01*
X31220943Y-69602860D01*
X31697231Y-69697600D01*
X32056769Y-69697600D01*
X32533057Y-69602860D01*
X32936834Y-69333065D01*
X33206629Y-68929288D01*
X33301369Y-68453000D01*
X33206629Y-67976712D01*
X33152587Y-67895833D01*
X33992420Y-67056000D01*
X40429580Y-67056000D01*
X43328790Y-69955210D01*
X43493597Y-70065331D01*
X43688000Y-70104000D01*
X44958000Y-70104000D01*
X45152403Y-70065331D01*
X45317210Y-69955210D01*
X45336420Y-69936000D01*
X45593536Y-69936000D01*
X45593536Y-70303000D01*
X45613043Y-70406670D01*
X45593536Y-70503000D01*
X45593536Y-70823044D01*
X45551339Y-70865241D01*
X45474000Y-71051952D01*
X45474000Y-71138500D01*
X45601000Y-71265500D01*
X45764481Y-71265500D01*
X45830866Y-71310859D01*
X45982000Y-71341464D01*
X47432000Y-71341464D01*
X47573190Y-71314897D01*
X47649956Y-71265500D01*
X47813000Y-71265500D01*
X47842500Y-71236000D01*
X47958145Y-71236000D01*
X48026950Y-71402521D01*
X48230408Y-71606335D01*
X48496376Y-71716774D01*
X48784361Y-71717025D01*
X49050521Y-71607050D01*
X49254335Y-71403592D01*
X49364774Y-71137624D01*
X49364833Y-71070259D01*
X50038000Y-71743426D01*
X50038000Y-73423436D01*
X50020047Y-73416000D01*
X49671000Y-73416000D01*
X49544000Y-73543000D01*
X49544000Y-74236500D01*
X49697000Y-74236500D01*
X49697000Y-74861500D01*
X49544000Y-74861500D01*
X49544000Y-75077000D01*
X48794000Y-75077000D01*
X48794000Y-74861500D01*
X48038000Y-74861500D01*
X47911000Y-74988500D01*
X47911000Y-75184000D01*
X44849959Y-75184000D01*
X44824897Y-75050810D01*
X44741454Y-74921135D01*
X44614134Y-74834141D01*
X44463000Y-74803536D01*
X41713000Y-74803536D01*
X41571810Y-74830103D01*
X41442135Y-74913546D01*
X41355141Y-75040866D01*
X41326156Y-75184000D01*
X39099959Y-75184000D01*
X39074897Y-75050810D01*
X38991454Y-74921135D01*
X38864134Y-74834141D01*
X38713000Y-74803536D01*
X35963000Y-74803536D01*
X35821810Y-74830103D01*
X35692135Y-74913546D01*
X35605141Y-75040866D01*
X35574536Y-75192000D01*
X35574536Y-76192000D01*
X35601103Y-76333190D01*
X35684546Y-76462865D01*
X35811866Y-76549859D01*
X35963000Y-76580464D01*
X38713000Y-76580464D01*
X38854190Y-76553897D01*
X38983865Y-76470454D01*
X39070859Y-76343134D01*
X39099844Y-76200000D01*
X41326041Y-76200000D01*
X41351103Y-76333190D01*
X41434546Y-76462865D01*
X41561866Y-76549859D01*
X41713000Y-76580464D01*
X44463000Y-76580464D01*
X44604190Y-76553897D01*
X44733865Y-76470454D01*
X44820859Y-76343134D01*
X44849844Y-76200000D01*
X50038000Y-76200000D01*
X50232403Y-76161331D01*
X50397210Y-76051210D01*
X50698400Y-75750021D01*
X50698400Y-76466764D01*
X49339564Y-77825600D01*
X35623436Y-77825600D01*
X32766000Y-74968164D01*
X32766000Y-73822952D01*
X47911000Y-73822952D01*
X47911000Y-74109500D01*
X48038000Y-74236500D01*
X48794000Y-74236500D01*
X48794000Y-73543000D01*
X48667000Y-73416000D01*
X48317953Y-73416000D01*
X48131242Y-73493338D01*
X47988339Y-73636241D01*
X47911000Y-73822952D01*
X32766000Y-73822952D01*
X32766000Y-72245064D01*
X32893000Y-72245064D01*
X33034190Y-72218497D01*
X33163865Y-72135054D01*
X33208997Y-72069000D01*
X35455000Y-72069000D01*
X35455000Y-72293048D01*
X35532339Y-72479759D01*
X35675242Y-72622662D01*
X35861953Y-72700000D01*
X36703000Y-72700000D01*
X36830000Y-72573000D01*
X36830000Y-71942000D01*
X37846000Y-71942000D01*
X37846000Y-72573000D01*
X37973000Y-72700000D01*
X38814047Y-72700000D01*
X39000758Y-72622662D01*
X39143661Y-72479759D01*
X39221000Y-72293048D01*
X39221000Y-72069000D01*
X41205000Y-72069000D01*
X41205000Y-72293048D01*
X41282339Y-72479759D01*
X41425242Y-72622662D01*
X41611953Y-72700000D01*
X42453000Y-72700000D01*
X42580000Y-72573000D01*
X42580000Y-71942000D01*
X43596000Y-71942000D01*
X43596000Y-72573000D01*
X43723000Y-72700000D01*
X44564047Y-72700000D01*
X44750758Y-72622662D01*
X44893661Y-72479759D01*
X44971000Y-72293048D01*
X44971000Y-72069000D01*
X44844000Y-71942000D01*
X43596000Y-71942000D01*
X42580000Y-71942000D01*
X41332000Y-71942000D01*
X41205000Y-72069000D01*
X39221000Y-72069000D01*
X39094000Y-71942000D01*
X37846000Y-71942000D01*
X36830000Y-71942000D01*
X35582000Y-71942000D01*
X35455000Y-72069000D01*
X33208997Y-72069000D01*
X33250859Y-72007734D01*
X33281464Y-71856600D01*
X33281464Y-71617500D01*
X45474000Y-71617500D01*
X45474000Y-71704048D01*
X45551339Y-71890759D01*
X45694242Y-72033662D01*
X45880953Y-72111000D01*
X46217500Y-72111000D01*
X46344500Y-71984000D01*
X46344500Y-71490500D01*
X47069500Y-71490500D01*
X47069500Y-71984000D01*
X47196500Y-72111000D01*
X47533047Y-72111000D01*
X47719758Y-72033662D01*
X47862661Y-71890759D01*
X47940000Y-71704048D01*
X47940000Y-71617500D01*
X47813000Y-71490500D01*
X47069500Y-71490500D01*
X46344500Y-71490500D01*
X45601000Y-71490500D01*
X45474000Y-71617500D01*
X33281464Y-71617500D01*
X33281464Y-71090952D01*
X35455000Y-71090952D01*
X35455000Y-71315000D01*
X35582000Y-71442000D01*
X36830000Y-71442000D01*
X36830000Y-70811000D01*
X37846000Y-70811000D01*
X37846000Y-71442000D01*
X39094000Y-71442000D01*
X39221000Y-71315000D01*
X39221000Y-71090952D01*
X41205000Y-71090952D01*
X41205000Y-71315000D01*
X41332000Y-71442000D01*
X42580000Y-71442000D01*
X42580000Y-70811000D01*
X43596000Y-70811000D01*
X43596000Y-71442000D01*
X44844000Y-71442000D01*
X44971000Y-71315000D01*
X44971000Y-71090952D01*
X44893661Y-70904241D01*
X44750758Y-70761338D01*
X44564047Y-70684000D01*
X43723000Y-70684000D01*
X43596000Y-70811000D01*
X42580000Y-70811000D01*
X42453000Y-70684000D01*
X41611953Y-70684000D01*
X41425242Y-70761338D01*
X41282339Y-70904241D01*
X41205000Y-71090952D01*
X39221000Y-71090952D01*
X39143661Y-70904241D01*
X39000758Y-70761338D01*
X38814047Y-70684000D01*
X37973000Y-70684000D01*
X37846000Y-70811000D01*
X36830000Y-70811000D01*
X36703000Y-70684000D01*
X35861953Y-70684000D01*
X35675242Y-70761338D01*
X35532339Y-70904241D01*
X35455000Y-71090952D01*
X33281464Y-71090952D01*
X33281464Y-70129400D01*
X33254897Y-69988210D01*
X33171454Y-69858535D01*
X33044134Y-69771541D01*
X32893000Y-69740936D01*
X30861000Y-69740936D01*
X30719810Y-69767503D01*
X30590135Y-69850946D01*
X30536120Y-69930000D01*
X29587309Y-69930000D01*
X29586897Y-69927810D01*
X29503454Y-69798135D01*
X29376134Y-69711141D01*
X29225000Y-69680536D01*
X27925000Y-69680536D01*
X27783810Y-69707103D01*
X27654135Y-69790546D01*
X27567141Y-69917866D01*
X27564684Y-69930000D01*
X27550036Y-69930000D01*
X26822400Y-69202364D01*
X26822400Y-63373000D01*
X30452631Y-63373000D01*
X30547371Y-63849288D01*
X30817166Y-64253065D01*
X31220943Y-64522860D01*
X31697231Y-64617600D01*
X32056769Y-64617600D01*
X32533057Y-64522860D01*
X32936834Y-64253065D01*
X33206629Y-63849288D01*
X33301369Y-63373000D01*
X33206629Y-62896712D01*
X32936834Y-62492935D01*
X32533057Y-62223140D01*
X32056769Y-62128400D01*
X31697231Y-62128400D01*
X31220943Y-62223140D01*
X30817166Y-62492935D01*
X30547371Y-62896712D01*
X30452631Y-63373000D01*
X26822400Y-63373000D01*
X26822400Y-60833000D01*
X30452631Y-60833000D01*
X30547371Y-61309288D01*
X30817166Y-61713065D01*
X31220943Y-61982860D01*
X31697231Y-62077600D01*
X32056769Y-62077600D01*
X32533057Y-61982860D01*
X32936834Y-61713065D01*
X33206629Y-61309288D01*
X33301369Y-60833000D01*
X33206629Y-60356712D01*
X32936834Y-59952935D01*
X32533057Y-59683140D01*
X32385002Y-59653690D01*
X32385002Y-59470118D01*
X32584631Y-59525433D01*
X33013998Y-59219142D01*
X33247682Y-58923139D01*
X33216130Y-58800400D01*
X36611400Y-58800400D01*
X36611400Y-59149447D01*
X36688738Y-59336158D01*
X36831641Y-59479061D01*
X37018352Y-59556400D01*
X37304900Y-59556400D01*
X37431900Y-59429400D01*
X37431900Y-58673400D01*
X38056900Y-58673400D01*
X38056900Y-59429400D01*
X38183900Y-59556400D01*
X38470448Y-59556400D01*
X38657159Y-59479061D01*
X38800062Y-59336158D01*
X38877400Y-59149447D01*
X38877400Y-58800400D01*
X38750400Y-58673400D01*
X38056900Y-58673400D01*
X37431900Y-58673400D01*
X36738400Y-58673400D01*
X36611400Y-58800400D01*
X33216130Y-58800400D01*
X33196695Y-58724800D01*
X32385000Y-58724800D01*
X32385000Y-58821000D01*
X31369000Y-58821000D01*
X31369000Y-58724800D01*
X30557305Y-58724800D01*
X30506318Y-58923139D01*
X30740002Y-59219142D01*
X31169369Y-59525433D01*
X31368998Y-59470118D01*
X31368998Y-59653690D01*
X31220943Y-59683140D01*
X30817166Y-59952935D01*
X30547371Y-60356712D01*
X30452631Y-60833000D01*
X26822400Y-60833000D01*
X26822400Y-58112660D01*
X40078816Y-58112660D01*
X40078816Y-59113420D01*
X40105383Y-59254610D01*
X40188826Y-59384285D01*
X40316146Y-59471279D01*
X40467280Y-59501884D01*
X41066720Y-59501884D01*
X41207910Y-59475317D01*
X41243584Y-59452361D01*
X43344975Y-59452361D01*
X43454950Y-59718521D01*
X43658408Y-59922335D01*
X43924376Y-60032774D01*
X44212361Y-60033025D01*
X44478521Y-59923050D01*
X44584757Y-59817000D01*
X44948240Y-59817000D01*
X45053450Y-59922210D01*
X45218256Y-60032331D01*
X45250510Y-60038746D01*
X45338433Y-60056235D01*
X45388206Y-60133585D01*
X45515526Y-60220579D01*
X45666660Y-60251184D01*
X46667420Y-60251184D01*
X46808610Y-60224617D01*
X46938285Y-60141174D01*
X47025279Y-60013854D01*
X47055884Y-59862720D01*
X47055884Y-59263280D01*
X47029317Y-59122090D01*
X46945874Y-58992415D01*
X46818554Y-58905421D01*
X46667420Y-58874816D01*
X45666660Y-58874816D01*
X45525470Y-58901383D01*
X45484693Y-58927622D01*
X45353063Y-58839669D01*
X45158660Y-58801000D01*
X44584743Y-58801000D01*
X44479592Y-58695665D01*
X44213624Y-58585226D01*
X43925639Y-58584975D01*
X43659479Y-58694950D01*
X43455665Y-58898408D01*
X43345226Y-59164376D01*
X43344975Y-59452361D01*
X41243584Y-59452361D01*
X41337585Y-59391874D01*
X41424579Y-59264554D01*
X41455184Y-59113420D01*
X41455184Y-58143236D01*
X42298957Y-57299464D01*
X43469000Y-57299464D01*
X43610190Y-57272897D01*
X43739865Y-57189454D01*
X43826859Y-57062134D01*
X43857464Y-56911000D01*
X43857464Y-55611000D01*
X43830897Y-55469810D01*
X43747454Y-55340135D01*
X43620134Y-55253141D01*
X43469000Y-55222536D01*
X41969000Y-55222536D01*
X41827810Y-55249103D01*
X41698135Y-55332546D01*
X41611141Y-55459866D01*
X41580536Y-55611000D01*
X41580536Y-56581043D01*
X40430455Y-57731125D01*
X40326090Y-57750763D01*
X40196415Y-57834206D01*
X40109421Y-57961526D01*
X40078816Y-58112660D01*
X26822400Y-58112660D01*
X26822400Y-57662861D01*
X30506318Y-57662861D01*
X30557305Y-57861200D01*
X31369000Y-57861200D01*
X31369000Y-57115883D01*
X32385000Y-57115883D01*
X32385000Y-57861200D01*
X33196695Y-57861200D01*
X33247682Y-57662861D01*
X33077546Y-57447353D01*
X36611400Y-57447353D01*
X36611400Y-57796400D01*
X36738400Y-57923400D01*
X37431900Y-57923400D01*
X37431900Y-57167400D01*
X38056900Y-57167400D01*
X38056900Y-57923400D01*
X38750400Y-57923400D01*
X38877400Y-57796400D01*
X38877400Y-57447353D01*
X38800062Y-57260642D01*
X38657159Y-57117739D01*
X38470448Y-57040400D01*
X38183900Y-57040400D01*
X38056900Y-57167400D01*
X37431900Y-57167400D01*
X37304900Y-57040400D01*
X37018352Y-57040400D01*
X36831641Y-57117739D01*
X36688738Y-57260642D01*
X36611400Y-57447353D01*
X33077546Y-57447353D01*
X33013998Y-57366858D01*
X32584631Y-57060567D01*
X32385000Y-57115883D01*
X31369000Y-57115883D01*
X31169369Y-57060567D01*
X30740002Y-57366858D01*
X30506318Y-57662861D01*
X26822400Y-57662861D01*
X26822400Y-48945331D01*
X35085089Y-48945331D01*
X36188674Y-49949789D01*
X39662208Y-51332851D01*
X43400610Y-51281368D01*
X46615326Y-49949789D01*
X47430869Y-49207500D01*
X59722000Y-49207500D01*
X59722000Y-49494048D01*
X59799339Y-49680759D01*
X59942242Y-49823662D01*
X60128953Y-49901000D01*
X60478000Y-49901000D01*
X60605000Y-49774000D01*
X60605000Y-49080500D01*
X61355000Y-49080500D01*
X61355000Y-49774000D01*
X61482000Y-49901000D01*
X61831047Y-49901000D01*
X62017758Y-49823662D01*
X62160661Y-49680759D01*
X62238000Y-49494048D01*
X62238000Y-49207500D01*
X62111000Y-49080500D01*
X61355000Y-49080500D01*
X60605000Y-49080500D01*
X59849000Y-49080500D01*
X59722000Y-49207500D01*
X47430869Y-49207500D01*
X47718911Y-48945331D01*
X41402000Y-42628420D01*
X35085089Y-48945331D01*
X26822400Y-48945331D01*
X26822400Y-47212836D01*
X27641408Y-46393828D01*
X28486105Y-47238525D01*
X28485975Y-47387361D01*
X28595950Y-47653521D01*
X28799408Y-47857335D01*
X29065376Y-47967774D01*
X29353361Y-47968025D01*
X29619521Y-47858050D01*
X29823335Y-47654592D01*
X29933774Y-47388624D01*
X29934025Y-47100639D01*
X29824050Y-46834479D01*
X29620592Y-46630665D01*
X29354624Y-46520226D01*
X29204515Y-46520095D01*
X28091000Y-45406580D01*
X28091000Y-44948464D01*
X29852000Y-44948464D01*
X29993190Y-44921897D01*
X30122865Y-44838454D01*
X30209859Y-44711134D01*
X30240464Y-44560000D01*
X30240464Y-40170208D01*
X31979149Y-40170208D01*
X32030632Y-43908610D01*
X33362211Y-47123326D01*
X34366669Y-48226911D01*
X40683580Y-41910000D01*
X42120420Y-41910000D01*
X48437331Y-48226911D01*
X48605676Y-48041952D01*
X59722000Y-48041952D01*
X59722000Y-48328500D01*
X59849000Y-48455500D01*
X60605000Y-48455500D01*
X60605000Y-47762000D01*
X61355000Y-47762000D01*
X61355000Y-48455500D01*
X62111000Y-48455500D01*
X62238000Y-48328500D01*
X62238000Y-48041952D01*
X62160661Y-47855241D01*
X62017758Y-47712338D01*
X61831047Y-47635000D01*
X61482000Y-47635000D01*
X61355000Y-47762000D01*
X60605000Y-47762000D01*
X60478000Y-47635000D01*
X60128953Y-47635000D01*
X59942242Y-47712338D01*
X59799339Y-47855241D01*
X59722000Y-48041952D01*
X48605676Y-48041952D01*
X49441789Y-47123326D01*
X50824851Y-43649792D01*
X50773368Y-39911390D01*
X49441789Y-36696674D01*
X48437331Y-35593089D01*
X42120420Y-41910000D01*
X40683580Y-41910000D01*
X34366669Y-35593089D01*
X33362211Y-36696674D01*
X31979149Y-40170208D01*
X30240464Y-40170208D01*
X30240464Y-39260000D01*
X30213897Y-39118810D01*
X30130454Y-38989135D01*
X30003134Y-38902141D01*
X29852000Y-38871536D01*
X28091000Y-38871536D01*
X28091000Y-38612236D01*
X31828567Y-34874669D01*
X35085089Y-34874669D01*
X41402000Y-41191580D01*
X47718911Y-34874669D01*
X46615326Y-33870211D01*
X43141792Y-32487149D01*
X39403390Y-32538632D01*
X36188674Y-33870211D01*
X35085089Y-34874669D01*
X31828567Y-34874669D01*
X34597636Y-32105600D01*
X48206364Y-32105600D01*
X54713000Y-38612236D01*
X54713000Y-38871536D01*
X52952000Y-38871536D01*
X52810810Y-38898103D01*
X52681135Y-38981546D01*
X52594141Y-39108866D01*
X52563536Y-39260000D01*
X52563536Y-44560000D01*
X52590103Y-44701190D01*
X52673546Y-44830865D01*
X52800866Y-44917859D01*
X52952000Y-44948464D01*
X58252000Y-44948464D01*
X58393190Y-44921897D01*
X58522865Y-44838454D01*
X58609859Y-44711134D01*
X58640464Y-44560000D01*
X58640464Y-42799000D01*
X58707536Y-42799000D01*
X58707536Y-44560000D01*
X58734103Y-44701190D01*
X58817546Y-44830865D01*
X58944866Y-44917859D01*
X59096000Y-44948464D01*
X64396000Y-44948464D01*
X64537190Y-44921897D01*
X64666865Y-44838454D01*
X64753859Y-44711134D01*
X64784464Y-44560000D01*
X64784464Y-40170208D01*
X66523149Y-40170208D01*
X66574632Y-43908610D01*
X67906211Y-47123326D01*
X68910669Y-48226911D01*
X75227580Y-41910000D01*
X76664420Y-41910000D01*
X82981331Y-48226911D01*
X83985789Y-47123326D01*
X85368851Y-43649792D01*
X85317368Y-39911390D01*
X83985789Y-36696674D01*
X82981331Y-35593089D01*
X76664420Y-41910000D01*
X75227580Y-41910000D01*
X68910669Y-35593089D01*
X67906211Y-36696674D01*
X66523149Y-40170208D01*
X64784464Y-40170208D01*
X64784464Y-39260000D01*
X64757897Y-39118810D01*
X64674454Y-38989135D01*
X64547134Y-38902141D01*
X64396000Y-38871536D01*
X62635000Y-38871536D01*
X62635000Y-38612236D01*
X66372567Y-34874669D01*
X69629089Y-34874669D01*
X75946000Y-41191580D01*
X82262911Y-34874669D01*
X81159326Y-33870211D01*
X77685792Y-32487149D01*
X73947390Y-32538632D01*
X70732674Y-33870211D01*
X69629089Y-34874669D01*
X66372567Y-34874669D01*
X69116236Y-32131000D01*
X83781964Y-32131000D01*
X89257000Y-37606036D01*
X89257000Y-38871536D01*
X87496000Y-38871536D01*
X87354810Y-38898103D01*
X87225135Y-38981546D01*
X87138141Y-39108866D01*
X87107536Y-39260000D01*
X87107536Y-44560000D01*
X87134103Y-44701190D01*
X87217546Y-44830865D01*
X87344866Y-44917859D01*
X87496000Y-44948464D01*
X92796000Y-44948464D01*
X92937190Y-44921897D01*
X93066865Y-44838454D01*
X93153859Y-44711134D01*
X93184464Y-44560000D01*
X93184464Y-39260000D01*
X93157897Y-39118810D01*
X93074454Y-38989135D01*
X92947134Y-38902141D01*
X92796000Y-38871536D01*
X91035000Y-38871536D01*
X91035000Y-37237800D01*
X91034003Y-37232790D01*
X90967330Y-36897595D01*
X90774618Y-36609182D01*
X84778818Y-30613382D01*
X84609112Y-30499988D01*
X84490406Y-30420671D01*
X84150200Y-30353000D01*
X68748000Y-30353000D01*
X68407794Y-30420671D01*
X68119382Y-30613382D01*
X61117382Y-37615382D01*
X60924671Y-37903794D01*
X60857000Y-38244000D01*
X60857000Y-38871536D01*
X59096000Y-38871536D01*
X58954810Y-38898103D01*
X58825135Y-38981546D01*
X58738141Y-39108866D01*
X58707536Y-39260000D01*
X58707536Y-41021000D01*
X58640464Y-41021000D01*
X58640464Y-39260000D01*
X58613897Y-39118810D01*
X58530454Y-38989135D01*
X58403134Y-38902141D01*
X58252000Y-38871536D01*
X56491000Y-38871536D01*
X56491000Y-38244000D01*
X56423329Y-37903794D01*
X56230618Y-37615382D01*
X49203218Y-30587982D01*
X48914806Y-30395271D01*
X48574600Y-30327600D01*
X34229400Y-30327600D01*
X33889194Y-30395271D01*
X33600782Y-30587982D01*
X26573382Y-37615382D01*
X26380671Y-37903794D01*
X26313000Y-38244000D01*
X26313000Y-38871536D01*
X24552000Y-38871536D01*
X24410810Y-38898103D01*
X24281135Y-38981546D01*
X24194141Y-39108866D01*
X24163536Y-39260000D01*
X23951000Y-39260000D01*
X23951000Y-32429911D01*
X24117888Y-31590906D01*
X24567707Y-30917707D01*
X25240906Y-30467888D01*
X26079911Y-30301000D01*
X109810089Y-30301000D01*
X110649094Y-30467888D01*
M02*
