M48
;DRILL file {KiCad 4.0.2+e4-6225~38~ubuntu15.10.1-stable} date Fri 13 May 2016 04:34:41 PM MDT
;FORMAT={-:-/ absolute / inch / decimal}
FMAT,2
INCH,TZ
T1C0.013
T2C0.040
%
G90
G05
M72
T1
X1.15Y-1.86
X1.35Y-2.91
X1.735Y-2.335
X1.75Y-2.66
X1.915Y-2.795
X1.945Y-2.735
X1.955Y-2.415
X1.975Y-2.765
X2.06Y-1.97
X2.14Y-2.77
X2.2Y-2.6043
X2.28Y-2.4
X2.37Y-2.16
X2.4Y-2.05
X2.525Y-2.665
X2.7542Y-2.3842
X2.77Y-2.63
X2.775Y-2.735
X3.685Y-2.155
X3.755Y-2.935
X4.03Y-1.96
X4.19Y-1.88
T2
X1.255Y-2.295
X1.255Y-2.395
X1.255Y-2.495
X1.255Y-2.595
X1.255Y-2.695
X1.255Y-2.795
T0
M30
