G04 #@! TF.FileFunction,Legend,Bot*
%FSLAX46Y46*%
G04 Gerber Fmt 4.6, Leading zero omitted, Abs format (unit mm)*
G04 Created by KiCad (PCBNEW 4.0.2+e4-6225~38~ubuntu15.10.1-stable) date Sun 14 Aug 2016 02:58:43 PM MDT*
%MOMM*%
G01*
G04 APERTURE LIST*
%ADD10C,0.100000*%
%ADD11C,0.381000*%
%ADD12C,0.762000*%
G04 APERTURE END LIST*
D10*
D11*
X109582856Y-40095714D02*
X109582856Y-42635714D01*
X109582856Y-40216667D02*
X109340951Y-40095714D01*
X108857142Y-40095714D01*
X108615237Y-40216667D01*
X108494285Y-40337619D01*
X108373332Y-40579524D01*
X108373332Y-41305238D01*
X108494285Y-41547143D01*
X108615237Y-41668095D01*
X108857142Y-41789048D01*
X109340951Y-41789048D01*
X109582856Y-41668095D01*
X106196190Y-41789048D02*
X106196190Y-40458571D01*
X106317142Y-40216667D01*
X106559047Y-40095714D01*
X107042856Y-40095714D01*
X107284761Y-40216667D01*
X106196190Y-41668095D02*
X106438094Y-41789048D01*
X107042856Y-41789048D01*
X107284761Y-41668095D01*
X107405713Y-41426190D01*
X107405713Y-41184286D01*
X107284761Y-40942381D01*
X107042856Y-40821429D01*
X106438094Y-40821429D01*
X106196190Y-40700476D01*
X103898095Y-40095714D02*
X103898095Y-41789048D01*
X104986666Y-40095714D02*
X104986666Y-41426190D01*
X104865714Y-41668095D01*
X104623809Y-41789048D01*
X104260952Y-41789048D01*
X104019047Y-41668095D01*
X103898095Y-41547143D01*
X102325714Y-41789048D02*
X102567619Y-41668095D01*
X102688571Y-41426190D01*
X102688571Y-39249048D01*
X101479047Y-41668095D02*
X101237143Y-41789048D01*
X100753333Y-41789048D01*
X100511428Y-41668095D01*
X100390476Y-41426190D01*
X100390476Y-41305238D01*
X100511428Y-41063333D01*
X100753333Y-40942381D01*
X101116190Y-40942381D01*
X101358095Y-40821429D01*
X101479047Y-40579524D01*
X101479047Y-40458571D01*
X101358095Y-40216667D01*
X101116190Y-40095714D01*
X100753333Y-40095714D01*
X100511428Y-40216667D01*
X98213334Y-41668095D02*
X98455238Y-41789048D01*
X98939048Y-41789048D01*
X99180953Y-41668095D01*
X99301905Y-41547143D01*
X99422857Y-41305238D01*
X99422857Y-40579524D01*
X99301905Y-40337619D01*
X99180953Y-40216667D01*
X98939048Y-40095714D01*
X98455238Y-40095714D01*
X98213334Y-40216667D01*
X97124762Y-41789048D02*
X97124762Y-39249048D01*
X96036191Y-41789048D02*
X96036191Y-40458571D01*
X96157143Y-40216667D01*
X96399048Y-40095714D01*
X96761905Y-40095714D01*
X97003810Y-40216667D01*
X97124762Y-40337619D01*
X94463810Y-41789048D02*
X94705715Y-41668095D01*
X94826667Y-41547143D01*
X94947619Y-41305238D01*
X94947619Y-40579524D01*
X94826667Y-40337619D01*
X94705715Y-40216667D01*
X94463810Y-40095714D01*
X94100953Y-40095714D01*
X93859048Y-40216667D01*
X93738096Y-40337619D01*
X93617143Y-40579524D01*
X93617143Y-41305238D01*
X93738096Y-41547143D01*
X93859048Y-41668095D01*
X94100953Y-41789048D01*
X94463810Y-41789048D01*
X92770477Y-40095714D02*
X92286667Y-41789048D01*
X91802858Y-40579524D01*
X91319048Y-41789048D01*
X90835239Y-40095714D01*
X88295239Y-40579524D02*
X88416192Y-40458571D01*
X88658096Y-40337619D01*
X88900001Y-40337619D01*
X89141906Y-40458571D01*
X89262858Y-40579524D01*
X89383811Y-40821429D01*
X89383811Y-41063333D01*
X89262858Y-41305238D01*
X89141906Y-41426190D01*
X88900001Y-41547143D01*
X88658096Y-41547143D01*
X88416192Y-41426190D01*
X88295239Y-41305238D01*
X88295239Y-40337619D02*
X88295239Y-41305238D01*
X88174287Y-41426190D01*
X88053334Y-41426190D01*
X87811430Y-41305238D01*
X87690477Y-41063333D01*
X87690477Y-40458571D01*
X87932382Y-40095714D01*
X88295239Y-39853810D01*
X88779049Y-39732857D01*
X89262858Y-39853810D01*
X89625715Y-40095714D01*
X89867620Y-40458571D01*
X89988572Y-40942381D01*
X89867620Y-41426190D01*
X89625715Y-41789048D01*
X89262858Y-42030952D01*
X88779049Y-42151905D01*
X88295239Y-42030952D01*
X87932382Y-41789048D01*
X85513335Y-40095714D02*
X85513335Y-42151905D01*
X85634287Y-42393810D01*
X85755239Y-42514762D01*
X85997144Y-42635714D01*
X86360001Y-42635714D01*
X86601906Y-42514762D01*
X85513335Y-41668095D02*
X85755239Y-41789048D01*
X86239049Y-41789048D01*
X86480954Y-41668095D01*
X86601906Y-41547143D01*
X86722858Y-41305238D01*
X86722858Y-40579524D01*
X86601906Y-40337619D01*
X86480954Y-40216667D01*
X86239049Y-40095714D01*
X85755239Y-40095714D01*
X85513335Y-40216667D01*
X84303811Y-41789048D02*
X84303811Y-40095714D01*
X84303811Y-40337619D02*
X84182859Y-40216667D01*
X83940954Y-40095714D01*
X83578097Y-40095714D01*
X83336192Y-40216667D01*
X83215240Y-40458571D01*
X83215240Y-41789048D01*
X83215240Y-40458571D02*
X83094287Y-40216667D01*
X82852383Y-40095714D01*
X82489525Y-40095714D01*
X82247621Y-40216667D01*
X82126668Y-40458571D01*
X82126668Y-41789048D01*
X79828573Y-41789048D02*
X79828573Y-40458571D01*
X79949525Y-40216667D01*
X80191430Y-40095714D01*
X80675239Y-40095714D01*
X80917144Y-40216667D01*
X79828573Y-41668095D02*
X80070477Y-41789048D01*
X80675239Y-41789048D01*
X80917144Y-41668095D01*
X81038096Y-41426190D01*
X81038096Y-41184286D01*
X80917144Y-40942381D01*
X80675239Y-40821429D01*
X80070477Y-40821429D01*
X79828573Y-40700476D01*
X78619049Y-41789048D02*
X78619049Y-40095714D01*
X78619049Y-39249048D02*
X78740001Y-39370000D01*
X78619049Y-39490952D01*
X78498097Y-39370000D01*
X78619049Y-39249048D01*
X78619049Y-39490952D01*
X77046668Y-41789048D02*
X77288573Y-41668095D01*
X77409525Y-41426190D01*
X77409525Y-39249048D01*
X76079049Y-41547143D02*
X75958097Y-41668095D01*
X76079049Y-41789048D01*
X76200001Y-41668095D01*
X76079049Y-41547143D01*
X76079049Y-41789048D01*
X73780954Y-41668095D02*
X74022858Y-41789048D01*
X74506668Y-41789048D01*
X74748573Y-41668095D01*
X74869525Y-41547143D01*
X74990477Y-41305238D01*
X74990477Y-40579524D01*
X74869525Y-40337619D01*
X74748573Y-40216667D01*
X74506668Y-40095714D01*
X74022858Y-40095714D01*
X73780954Y-40216667D01*
X72329525Y-41789048D02*
X72571430Y-41668095D01*
X72692382Y-41547143D01*
X72813334Y-41305238D01*
X72813334Y-40579524D01*
X72692382Y-40337619D01*
X72571430Y-40216667D01*
X72329525Y-40095714D01*
X71966668Y-40095714D01*
X71724763Y-40216667D01*
X71603811Y-40337619D01*
X71482858Y-40579524D01*
X71482858Y-41305238D01*
X71603811Y-41547143D01*
X71724763Y-41668095D01*
X71966668Y-41789048D01*
X72329525Y-41789048D01*
X70394287Y-41789048D02*
X70394287Y-40095714D01*
X70394287Y-40337619D02*
X70273335Y-40216667D01*
X70031430Y-40095714D01*
X69668573Y-40095714D01*
X69426668Y-40216667D01*
X69305716Y-40458571D01*
X69305716Y-41789048D01*
X69305716Y-40458571D02*
X69184763Y-40216667D01*
X68942859Y-40095714D01*
X68580001Y-40095714D01*
X68338097Y-40216667D01*
X68217144Y-40458571D01*
X68217144Y-41789048D01*
X60488285Y-34398857D02*
X60488285Y-37446857D01*
X60488285Y-34544000D02*
X60197999Y-34398857D01*
X59617428Y-34398857D01*
X59327142Y-34544000D01*
X59181999Y-34689143D01*
X59036856Y-34979429D01*
X59036856Y-35850286D01*
X59181999Y-36140571D01*
X59327142Y-36285714D01*
X59617428Y-36430857D01*
X60197999Y-36430857D01*
X60488285Y-36285714D01*
X56424285Y-36430857D02*
X56424285Y-34834286D01*
X56569428Y-34544000D01*
X56859714Y-34398857D01*
X57440285Y-34398857D01*
X57730571Y-34544000D01*
X56424285Y-36285714D02*
X56714571Y-36430857D01*
X57440285Y-36430857D01*
X57730571Y-36285714D01*
X57875714Y-35995429D01*
X57875714Y-35705143D01*
X57730571Y-35414857D01*
X57440285Y-35269714D01*
X56714571Y-35269714D01*
X56424285Y-35124571D01*
X53666571Y-34398857D02*
X53666571Y-36430857D01*
X54972857Y-34398857D02*
X54972857Y-35995429D01*
X54827714Y-36285714D01*
X54537428Y-36430857D01*
X54102000Y-36430857D01*
X53811714Y-36285714D01*
X53666571Y-36140571D01*
X51779714Y-36430857D02*
X52070000Y-36285714D01*
X52215143Y-35995429D01*
X52215143Y-33382857D01*
X50763715Y-36285714D02*
X50473429Y-36430857D01*
X49892857Y-36430857D01*
X49602572Y-36285714D01*
X49457429Y-35995429D01*
X49457429Y-35850286D01*
X49602572Y-35560000D01*
X49892857Y-35414857D01*
X50328286Y-35414857D01*
X50618572Y-35269714D01*
X50763715Y-34979429D01*
X50763715Y-34834286D01*
X50618572Y-34544000D01*
X50328286Y-34398857D01*
X49892857Y-34398857D01*
X49602572Y-34544000D01*
X46844857Y-36285714D02*
X47135143Y-36430857D01*
X47715714Y-36430857D01*
X48006000Y-36285714D01*
X48151143Y-36140571D01*
X48296286Y-35850286D01*
X48296286Y-34979429D01*
X48151143Y-34689143D01*
X48006000Y-34544000D01*
X47715714Y-34398857D01*
X47135143Y-34398857D01*
X46844857Y-34544000D01*
X45538572Y-36430857D02*
X45538572Y-33382857D01*
X44232286Y-36430857D02*
X44232286Y-34834286D01*
X44377429Y-34544000D01*
X44667715Y-34398857D01*
X45103143Y-34398857D01*
X45393429Y-34544000D01*
X45538572Y-34689143D01*
X42345429Y-36430857D02*
X42635715Y-36285714D01*
X42780858Y-36140571D01*
X42926001Y-35850286D01*
X42926001Y-34979429D01*
X42780858Y-34689143D01*
X42635715Y-34544000D01*
X42345429Y-34398857D01*
X41910001Y-34398857D01*
X41619715Y-34544000D01*
X41474572Y-34689143D01*
X41329429Y-34979429D01*
X41329429Y-35850286D01*
X41474572Y-36140571D01*
X41619715Y-36285714D01*
X41910001Y-36430857D01*
X42345429Y-36430857D01*
X40313429Y-34398857D02*
X39732858Y-36430857D01*
X39152287Y-34979429D01*
X38571715Y-36430857D01*
X37991144Y-34398857D01*
X36830001Y-36140571D02*
X36684858Y-36285714D01*
X36830001Y-36430857D01*
X36975144Y-36285714D01*
X36830001Y-36140571D01*
X36830001Y-36430857D01*
X34072286Y-36285714D02*
X34362572Y-36430857D01*
X34943143Y-36430857D01*
X35233429Y-36285714D01*
X35378572Y-36140571D01*
X35523715Y-35850286D01*
X35523715Y-34979429D01*
X35378572Y-34689143D01*
X35233429Y-34544000D01*
X34943143Y-34398857D01*
X34362572Y-34398857D01*
X34072286Y-34544000D01*
X32330572Y-36430857D02*
X32620858Y-36285714D01*
X32766001Y-36140571D01*
X32911144Y-35850286D01*
X32911144Y-34979429D01*
X32766001Y-34689143D01*
X32620858Y-34544000D01*
X32330572Y-34398857D01*
X31895144Y-34398857D01*
X31604858Y-34544000D01*
X31459715Y-34689143D01*
X31314572Y-34979429D01*
X31314572Y-35850286D01*
X31459715Y-36140571D01*
X31604858Y-36285714D01*
X31895144Y-36430857D01*
X32330572Y-36430857D01*
X30008287Y-36430857D02*
X30008287Y-34398857D01*
X30008287Y-34689143D02*
X29863144Y-34544000D01*
X29572858Y-34398857D01*
X29137430Y-34398857D01*
X28847144Y-34544000D01*
X28702001Y-34834286D01*
X28702001Y-36430857D01*
X28702001Y-34834286D02*
X28556858Y-34544000D01*
X28266572Y-34398857D01*
X27831144Y-34398857D01*
X27540858Y-34544000D01*
X27395715Y-34834286D01*
X27395715Y-36430857D01*
D12*
X109437713Y-37096095D02*
X109437713Y-32016095D01*
X107502475Y-32016095D01*
X107018666Y-32258000D01*
X106776761Y-32499905D01*
X106534856Y-32983714D01*
X106534856Y-33709429D01*
X106776761Y-34193238D01*
X107018666Y-34435143D01*
X107502475Y-34677048D01*
X109437713Y-34677048D01*
X102180570Y-37096095D02*
X102180570Y-34435143D01*
X102422475Y-33951333D01*
X102906285Y-33709429D01*
X103873904Y-33709429D01*
X104357713Y-33951333D01*
X102180570Y-36854190D02*
X102664380Y-37096095D01*
X103873904Y-37096095D01*
X104357713Y-36854190D01*
X104599618Y-36370381D01*
X104599618Y-35886571D01*
X104357713Y-35402762D01*
X103873904Y-35160857D01*
X102664380Y-35160857D01*
X102180570Y-34918952D01*
X97584380Y-33709429D02*
X97584380Y-37096095D01*
X99761523Y-33709429D02*
X99761523Y-36370381D01*
X99519618Y-36854190D01*
X99035809Y-37096095D01*
X98310095Y-37096095D01*
X97826285Y-36854190D01*
X97584380Y-36612286D01*
X94439619Y-37096095D02*
X94923428Y-36854190D01*
X95165333Y-36370381D01*
X95165333Y-32016095D01*
X88875810Y-36854190D02*
X88150096Y-37096095D01*
X86940572Y-37096095D01*
X86456762Y-36854190D01*
X86214858Y-36612286D01*
X85972953Y-36128476D01*
X85972953Y-35644667D01*
X86214858Y-35160857D01*
X86456762Y-34918952D01*
X86940572Y-34677048D01*
X87908191Y-34435143D01*
X88392000Y-34193238D01*
X88633905Y-33951333D01*
X88875810Y-33467524D01*
X88875810Y-32983714D01*
X88633905Y-32499905D01*
X88392000Y-32258000D01*
X87908191Y-32016095D01*
X86698667Y-32016095D01*
X85972953Y-32258000D01*
X81618667Y-36854190D02*
X82102477Y-37096095D01*
X83070096Y-37096095D01*
X83553905Y-36854190D01*
X83795810Y-36612286D01*
X84037715Y-36128476D01*
X84037715Y-34677048D01*
X83795810Y-34193238D01*
X83553905Y-33951333D01*
X83070096Y-33709429D01*
X82102477Y-33709429D01*
X81618667Y-33951333D01*
X79441524Y-37096095D02*
X79441524Y-32016095D01*
X77264381Y-37096095D02*
X77264381Y-34435143D01*
X77506286Y-33951333D01*
X77990096Y-33709429D01*
X78715810Y-33709429D01*
X79199619Y-33951333D01*
X79441524Y-34193238D01*
X74119620Y-37096095D02*
X74603429Y-36854190D01*
X74845334Y-36612286D01*
X75087239Y-36128476D01*
X75087239Y-34677048D01*
X74845334Y-34193238D01*
X74603429Y-33951333D01*
X74119620Y-33709429D01*
X73393906Y-33709429D01*
X72910096Y-33951333D01*
X72668191Y-34193238D01*
X72426287Y-34677048D01*
X72426287Y-36128476D01*
X72668191Y-36612286D01*
X72910096Y-36854190D01*
X73393906Y-37096095D01*
X74119620Y-37096095D01*
X70732954Y-33709429D02*
X69765335Y-37096095D01*
X68797716Y-34677048D01*
X67830097Y-37096095D01*
X66862478Y-33709429D01*
M02*
