G04 #@! TF.FileFunction,Paste,Top*
%FSLAX46Y46*%
G04 Gerber Fmt 4.6, Leading zero omitted, Abs format (unit mm)*
G04 Created by KiCad (PCBNEW 4.0.2+e4-6225~38~ubuntu15.10.1-stable) date Sun 14 Aug 2016 02:58:43 PM MDT*
%MOMM*%
G01*
G04 APERTURE LIST*
%ADD10C,0.100000*%
%ADD11R,8.000000X4.000000*%
%ADD12R,9.000000X4.000000*%
%ADD13R,1.450000X0.450000*%
%ADD14R,1.500000X1.250000*%
%ADD15R,1.500000X1.300000*%
%ADD16R,1.000000X2.750000*%
%ADD17R,0.599440X1.000760*%
%ADD18R,1.000760X0.599440*%
%ADD19R,1.300000X1.500000*%
%ADD20R,5.300000X5.300000*%
%ADD21R,1.250000X1.500000*%
%ADD22R,2.500000X2.500000*%
%ADD23R,0.650000X1.060000*%
G04 APERTURE END LIST*
D10*
D11*
X29464000Y-42164000D03*
D12*
X61976000Y-42164000D03*
D13*
X44606000Y-62107000D03*
X44606000Y-61457000D03*
X44606000Y-60807000D03*
X44606000Y-60157000D03*
X44606000Y-59507000D03*
X44606000Y-58857000D03*
X44606000Y-58207000D03*
X44606000Y-57557000D03*
X44606000Y-56907000D03*
X44606000Y-56257000D03*
X38706000Y-56257000D03*
X38706000Y-56907000D03*
X38706000Y-57557000D03*
X38706000Y-58207000D03*
X38706000Y-58857000D03*
X38706000Y-59507000D03*
X38706000Y-60157000D03*
X38706000Y-60807000D03*
X38706000Y-61457000D03*
X38706000Y-62107000D03*
D14*
X47732000Y-74422000D03*
X45232000Y-74422000D03*
X50566000Y-64516000D03*
X53066000Y-64516000D03*
D15*
X53166000Y-61722000D03*
X50466000Y-61722000D03*
X37766000Y-72390000D03*
X40466000Y-72390000D03*
D16*
X30956000Y-62057000D03*
X30956000Y-56307000D03*
X26956000Y-56307000D03*
X26956000Y-62057000D03*
D14*
X47732000Y-70358000D03*
X45232000Y-70358000D03*
X59670000Y-57658000D03*
X57170000Y-57658000D03*
X50820000Y-74422000D03*
X53320000Y-74422000D03*
X60686000Y-72136000D03*
X58186000Y-72136000D03*
X63774000Y-66294000D03*
X66274000Y-66294000D03*
X69362000Y-66294000D03*
X71862000Y-66294000D03*
X66274000Y-55880000D03*
X63774000Y-55880000D03*
X74950000Y-66294000D03*
X77450000Y-66294000D03*
X83038000Y-69342000D03*
X80538000Y-69342000D03*
X77450000Y-69342000D03*
X74950000Y-69342000D03*
X66274000Y-69342000D03*
X63774000Y-69342000D03*
X71862000Y-55880000D03*
X69362000Y-55880000D03*
X80538000Y-66294000D03*
X83038000Y-66294000D03*
X71862000Y-69342000D03*
X69362000Y-69342000D03*
X88626000Y-55880000D03*
X86126000Y-55880000D03*
X77450000Y-55880000D03*
X74950000Y-55880000D03*
X86126000Y-66294000D03*
X88626000Y-66294000D03*
X83038000Y-55880000D03*
X80538000Y-55880000D03*
X91460000Y-67056000D03*
X93960000Y-67056000D03*
D17*
X59039760Y-63312040D03*
X60340240Y-63312040D03*
X59690000Y-65211960D03*
D18*
X38674040Y-67198240D03*
X38674040Y-65897760D03*
X40573960Y-66548000D03*
X43246040Y-67198240D03*
X43246040Y-65897760D03*
X45145960Y-66548000D03*
X47818040Y-67198240D03*
X47818040Y-65897760D03*
X49717960Y-66548000D03*
X64516000Y-78008480D03*
X64516000Y-76708000D03*
X66415920Y-77358240D03*
X61026040Y-61356240D03*
X61026040Y-60055760D03*
X62925960Y-60706000D03*
D17*
X56245760Y-61280040D03*
X57546240Y-61280040D03*
X56896000Y-63179960D03*
X63865760Y-72964040D03*
X65166240Y-72964040D03*
X64516000Y-74863960D03*
D15*
X40466000Y-69596000D03*
X37766000Y-69596000D03*
X50720000Y-70358000D03*
X53420000Y-70358000D03*
X60786000Y-75692000D03*
X58086000Y-75692000D03*
D19*
X68834000Y-76788000D03*
X68834000Y-74088000D03*
D15*
X77550000Y-74168000D03*
X74850000Y-74168000D03*
X88726000Y-69342000D03*
X86026000Y-69342000D03*
D20*
X72136000Y-42164000D03*
X98552000Y-42164000D03*
D14*
X68092000Y-46482000D03*
X70592000Y-46482000D03*
D21*
X58674000Y-47010000D03*
X58674000Y-49510000D03*
D22*
X71092000Y-49530000D03*
X67592000Y-49530000D03*
D23*
X63688000Y-47160000D03*
X62738000Y-47160000D03*
X61788000Y-47160000D03*
X61788000Y-49360000D03*
X63688000Y-49360000D03*
X62738000Y-49360000D03*
M02*
