G04 #@! TF.FileFunction,Legend,Top*
%FSLAX46Y46*%
G04 Gerber Fmt 4.6, Leading zero omitted, Abs format (unit mm)*
G04 Created by KiCad (PCBNEW 4.0.2+e4-6225~38~ubuntu15.10.1-stable) date Fri 13 May 2016 03:38:29 PM MDT*
%MOMM*%
G01*
G04 APERTURE LIST*
%ADD10C,0.100000*%
%ADD11C,0.152400*%
%ADD12C,0.150000*%
%ADD13C,0.177800*%
G04 APERTURE END LIST*
D10*
D11*
X33842477Y-69801619D02*
X34471429Y-69801619D01*
X34132763Y-70188667D01*
X34277905Y-70188667D01*
X34374667Y-70237048D01*
X34423048Y-70285429D01*
X34471429Y-70382190D01*
X34471429Y-70624095D01*
X34423048Y-70720857D01*
X34374667Y-70769238D01*
X34277905Y-70817619D01*
X33987620Y-70817619D01*
X33890858Y-70769238D01*
X33842477Y-70720857D01*
X34810096Y-70140286D02*
X35052001Y-70817619D01*
X35293905Y-70140286D01*
X35584191Y-69801619D02*
X36213143Y-69801619D01*
X35874477Y-70188667D01*
X36019619Y-70188667D01*
X36116381Y-70237048D01*
X36164762Y-70285429D01*
X36213143Y-70382190D01*
X36213143Y-70624095D01*
X36164762Y-70720857D01*
X36116381Y-70769238D01*
X36019619Y-70817619D01*
X35729334Y-70817619D01*
X35632572Y-70769238D01*
X35584191Y-70720857D01*
X33624763Y-67769619D02*
X34205334Y-67769619D01*
X33915049Y-68785619D02*
X33915049Y-67769619D01*
X34931048Y-68737238D02*
X34834286Y-68785619D01*
X34640763Y-68785619D01*
X34544001Y-68737238D01*
X34495620Y-68640476D01*
X34495620Y-68253429D01*
X34544001Y-68156667D01*
X34640763Y-68108286D01*
X34834286Y-68108286D01*
X34931048Y-68156667D01*
X34979429Y-68253429D01*
X34979429Y-68350190D01*
X34495620Y-68446952D01*
X35366477Y-68737238D02*
X35463239Y-68785619D01*
X35656763Y-68785619D01*
X35753524Y-68737238D01*
X35801905Y-68640476D01*
X35801905Y-68592095D01*
X35753524Y-68495333D01*
X35656763Y-68446952D01*
X35511620Y-68446952D01*
X35414858Y-68398571D01*
X35366477Y-68301810D01*
X35366477Y-68253429D01*
X35414858Y-68156667D01*
X35511620Y-68108286D01*
X35656763Y-68108286D01*
X35753524Y-68156667D01*
X36092191Y-68108286D02*
X36479239Y-68108286D01*
X36237334Y-67769619D02*
X36237334Y-68640476D01*
X36285715Y-68737238D01*
X36382477Y-68785619D01*
X36479239Y-68785619D01*
X28568953Y-66245619D02*
X28230287Y-65761810D01*
X27988382Y-66245619D02*
X27988382Y-65229619D01*
X28375429Y-65229619D01*
X28472191Y-65278000D01*
X28520572Y-65326381D01*
X28568953Y-65423143D01*
X28568953Y-65568286D01*
X28520572Y-65665048D01*
X28472191Y-65713429D01*
X28375429Y-65761810D01*
X27988382Y-65761810D01*
X28956001Y-66197238D02*
X29052763Y-66245619D01*
X29246287Y-66245619D01*
X29343048Y-66197238D01*
X29391429Y-66100476D01*
X29391429Y-66052095D01*
X29343048Y-65955333D01*
X29246287Y-65906952D01*
X29101144Y-65906952D01*
X29004382Y-65858571D01*
X28956001Y-65761810D01*
X28956001Y-65713429D01*
X29004382Y-65616667D01*
X29101144Y-65568286D01*
X29246287Y-65568286D01*
X29343048Y-65616667D01*
X29681715Y-65568286D02*
X30068763Y-65568286D01*
X29826858Y-65229619D02*
X29826858Y-66100476D01*
X29875239Y-66197238D01*
X29972001Y-66245619D01*
X30068763Y-66245619D01*
X28399619Y-63705619D02*
X28060953Y-63221810D01*
X27819048Y-63705619D02*
X27819048Y-62689619D01*
X28206095Y-62689619D01*
X28302857Y-62738000D01*
X28351238Y-62786381D01*
X28399619Y-62883143D01*
X28399619Y-63028286D01*
X28351238Y-63125048D01*
X28302857Y-63173429D01*
X28206095Y-63221810D01*
X27819048Y-63221810D01*
X28738286Y-63705619D02*
X29270476Y-63028286D01*
X28738286Y-63028286D02*
X29270476Y-63705619D01*
X30092952Y-63705619D02*
X30092952Y-62689619D01*
X30092952Y-63657238D02*
X29996190Y-63705619D01*
X29802667Y-63705619D01*
X29705905Y-63657238D01*
X29657524Y-63608857D01*
X29609143Y-63512095D01*
X29609143Y-63221810D01*
X29657524Y-63125048D01*
X29705905Y-63076667D01*
X29802667Y-63028286D01*
X29996190Y-63028286D01*
X30092952Y-63076667D01*
X27794858Y-60149619D02*
X28375429Y-60149619D01*
X28085144Y-61165619D02*
X28085144Y-60149619D01*
X28617334Y-61165619D02*
X29149524Y-60488286D01*
X28617334Y-60488286D02*
X29149524Y-61165619D01*
X29972000Y-61165619D02*
X29972000Y-60149619D01*
X29972000Y-61117238D02*
X29875238Y-61165619D01*
X29681715Y-61165619D01*
X29584953Y-61117238D01*
X29536572Y-61068857D01*
X29488191Y-60972095D01*
X29488191Y-60681810D01*
X29536572Y-60585048D01*
X29584953Y-60536667D01*
X29681715Y-60488286D01*
X29875238Y-60488286D01*
X29972000Y-60536667D01*
X28302857Y-57658000D02*
X28206095Y-57609619D01*
X28060952Y-57609619D01*
X27915810Y-57658000D01*
X27819048Y-57754762D01*
X27770667Y-57851524D01*
X27722286Y-58045048D01*
X27722286Y-58190190D01*
X27770667Y-58383714D01*
X27819048Y-58480476D01*
X27915810Y-58577238D01*
X28060952Y-58625619D01*
X28157714Y-58625619D01*
X28302857Y-58577238D01*
X28351238Y-58528857D01*
X28351238Y-58190190D01*
X28157714Y-58190190D01*
X28786667Y-57948286D02*
X28786667Y-58625619D01*
X28786667Y-58045048D02*
X28835048Y-57996667D01*
X28931810Y-57948286D01*
X29076952Y-57948286D01*
X29173714Y-57996667D01*
X29222095Y-58093429D01*
X29222095Y-58625619D01*
X30141333Y-58625619D02*
X30141333Y-57609619D01*
X30141333Y-58577238D02*
X30044571Y-58625619D01*
X29851048Y-58625619D01*
X29754286Y-58577238D01*
X29705905Y-58528857D01*
X29657524Y-58432095D01*
X29657524Y-58141810D01*
X29705905Y-58045048D01*
X29754286Y-57996667D01*
X29851048Y-57948286D01*
X30044571Y-57948286D01*
X30141333Y-57996667D01*
D12*
X63627000Y-52451000D02*
X63627000Y-51816000D01*
X63627000Y-51816000D02*
X62611000Y-51816000D01*
X62611000Y-53594000D02*
X63627000Y-53594000D01*
X63627000Y-53594000D02*
X63627000Y-52959000D01*
X63754000Y-52451000D02*
X63627000Y-52451000D01*
X63627000Y-52959000D02*
X63754000Y-52959000D01*
X62611000Y-51816000D02*
X62611000Y-53594000D01*
X63754000Y-52959000D02*
X63754000Y-52451000D01*
X100097000Y-52443000D02*
X103597000Y-52443000D01*
X103597000Y-52443000D02*
X103597000Y-76343000D01*
X103597000Y-76343000D02*
X100197000Y-76343000D01*
X100197000Y-76343000D02*
X99997000Y-76343000D01*
X99997000Y-76343000D02*
X99897000Y-76343000D01*
X98697000Y-76343000D02*
X98697000Y-53143000D01*
X98697000Y-53243000D02*
X98697000Y-52443000D01*
X98697000Y-52443000D02*
X100097000Y-52443000D01*
X98697000Y-76343000D02*
X100097000Y-76343000D01*
X49665000Y-57111000D02*
X50665000Y-57111000D01*
X50665000Y-55411000D02*
X49665000Y-55411000D01*
X52459000Y-54063000D02*
X53459000Y-54063000D01*
X53459000Y-52363000D02*
X52459000Y-52363000D01*
X60667000Y-58793000D02*
X60667000Y-57793000D01*
X58967000Y-57793000D02*
X58967000Y-58793000D01*
X96786000Y-34964000D02*
X95786000Y-34964000D01*
X95786000Y-36664000D02*
X96786000Y-36664000D01*
X73795000Y-67017000D02*
X74795000Y-67017000D01*
X74795000Y-65317000D02*
X73795000Y-65317000D01*
X84971000Y-62953000D02*
X85971000Y-62953000D01*
X85971000Y-61253000D02*
X84971000Y-61253000D01*
X79383000Y-67017000D02*
X80383000Y-67017000D01*
X80383000Y-65317000D02*
X79383000Y-65317000D01*
X79383000Y-62953000D02*
X80383000Y-62953000D01*
X80383000Y-61253000D02*
X79383000Y-61253000D01*
X68207000Y-59143000D02*
X69207000Y-59143000D01*
X69207000Y-57443000D02*
X68207000Y-57443000D01*
X64985000Y-59809000D02*
X64985000Y-58809000D01*
X63285000Y-58809000D02*
X63285000Y-59809000D01*
X61730000Y-49618000D02*
X62730000Y-49618000D01*
X62730000Y-47918000D02*
X61730000Y-47918000D01*
X84971000Y-67017000D02*
X85971000Y-67017000D01*
X85971000Y-65317000D02*
X84971000Y-65317000D01*
X73795000Y-62953000D02*
X74795000Y-62953000D01*
X74795000Y-61253000D02*
X73795000Y-61253000D01*
X38594400Y-57548400D02*
X38594400Y-56548400D01*
X36894400Y-56548400D02*
X36894400Y-57548400D01*
X84971000Y-70573000D02*
X85971000Y-70573000D01*
X85971000Y-68873000D02*
X84971000Y-68873000D01*
X73795000Y-70573000D02*
X74795000Y-70573000D01*
X74795000Y-68873000D02*
X73795000Y-68873000D01*
X84951000Y-59143000D02*
X85951000Y-59143000D01*
X85951000Y-57443000D02*
X84951000Y-57443000D01*
X79383000Y-70573000D02*
X80383000Y-70573000D01*
X80383000Y-68873000D02*
X79383000Y-68873000D01*
X79383000Y-59143000D02*
X80383000Y-59143000D01*
X80383000Y-57443000D02*
X79383000Y-57443000D01*
X50919000Y-73699000D02*
X49919000Y-73699000D01*
X49919000Y-75399000D02*
X50919000Y-75399000D01*
X57531000Y-53467000D02*
X57531000Y-54102000D01*
X57531000Y-54102000D02*
X58547000Y-54102000D01*
X58547000Y-52324000D02*
X57531000Y-52324000D01*
X57531000Y-52324000D02*
X57531000Y-52959000D01*
X57404000Y-53467000D02*
X57531000Y-53467000D01*
X57531000Y-52959000D02*
X57404000Y-52959000D01*
X58547000Y-54102000D02*
X58547000Y-52324000D01*
X57404000Y-52959000D02*
X57404000Y-53467000D01*
X57904000Y-71540000D02*
X56904000Y-71540000D01*
X56904000Y-73240000D02*
X57904000Y-73240000D01*
X30607000Y-69723000D02*
X30607000Y-57023000D01*
X30607000Y-57023000D02*
X33147000Y-57023000D01*
X33147000Y-57023000D02*
X33147000Y-69723000D01*
X30327000Y-72543000D02*
X30327000Y-70993000D01*
X30607000Y-69723000D02*
X33147000Y-69723000D01*
X33427000Y-70993000D02*
X33427000Y-72543000D01*
X33427000Y-72543000D02*
X30327000Y-72543000D01*
X40513000Y-59055000D02*
X39878000Y-59055000D01*
X39878000Y-59055000D02*
X39878000Y-60071000D01*
X41656000Y-60071000D02*
X41656000Y-59055000D01*
X41656000Y-59055000D02*
X41021000Y-59055000D01*
X40513000Y-58928000D02*
X40513000Y-59055000D01*
X41021000Y-59055000D02*
X41021000Y-58928000D01*
X39878000Y-60071000D02*
X41656000Y-60071000D01*
X41021000Y-58928000D02*
X40513000Y-58928000D01*
X46609000Y-59817000D02*
X46609000Y-60452000D01*
X46609000Y-60452000D02*
X47625000Y-60452000D01*
X47625000Y-58674000D02*
X46609000Y-58674000D01*
X46609000Y-58674000D02*
X46609000Y-59309000D01*
X46482000Y-59817000D02*
X46609000Y-59817000D01*
X46609000Y-59309000D02*
X46482000Y-59309000D01*
X47625000Y-60452000D02*
X47625000Y-58674000D01*
X46482000Y-59309000D02*
X46482000Y-59817000D01*
X52705000Y-59309000D02*
X52705000Y-58674000D01*
X52705000Y-58674000D02*
X51689000Y-58674000D01*
X51689000Y-60452000D02*
X52705000Y-60452000D01*
X52705000Y-60452000D02*
X52705000Y-59817000D01*
X52832000Y-59309000D02*
X52705000Y-59309000D01*
X52705000Y-59817000D02*
X52832000Y-59817000D01*
X51689000Y-58674000D02*
X51689000Y-60452000D01*
X52832000Y-59817000D02*
X52832000Y-59309000D01*
X107315000Y-45847000D02*
X107315000Y-46482000D01*
X107315000Y-46482000D02*
X108331000Y-46482000D01*
X108331000Y-44704000D02*
X107315000Y-44704000D01*
X107315000Y-44704000D02*
X107315000Y-45339000D01*
X107188000Y-45847000D02*
X107315000Y-45847000D01*
X107315000Y-45339000D02*
X107188000Y-45339000D01*
X108331000Y-46482000D02*
X108331000Y-44704000D01*
X107188000Y-45339000D02*
X107188000Y-45847000D01*
X63627000Y-55245000D02*
X63627000Y-54610000D01*
X63627000Y-54610000D02*
X62611000Y-54610000D01*
X62611000Y-56388000D02*
X63627000Y-56388000D01*
X63627000Y-56388000D02*
X63627000Y-55753000D01*
X63754000Y-55245000D02*
X63627000Y-55245000D01*
X63627000Y-55753000D02*
X63754000Y-55753000D01*
X62611000Y-54610000D02*
X62611000Y-56388000D01*
X63754000Y-55753000D02*
X63754000Y-55245000D01*
X94675960Y-44958000D02*
X94675960Y-45593000D01*
X94675960Y-45593000D02*
X95691960Y-45593000D01*
X95691960Y-43815000D02*
X94675960Y-43815000D01*
X94675960Y-43815000D02*
X94675960Y-44450000D01*
X94548960Y-44958000D02*
X94675960Y-44958000D01*
X94675960Y-44450000D02*
X94548960Y-44450000D01*
X95691960Y-45593000D02*
X95691960Y-43815000D01*
X94548960Y-44450000D02*
X94548960Y-44958000D01*
X43469000Y-55386000D02*
X44669000Y-55386000D01*
X44669000Y-57136000D02*
X43469000Y-57136000D01*
X55132000Y-58893000D02*
X55132000Y-57693000D01*
X56882000Y-57693000D02*
X56882000Y-58893000D01*
X95666000Y-38241000D02*
X96866000Y-38241000D01*
X96866000Y-39991000D02*
X95666000Y-39991000D01*
X101635000Y-44718000D02*
X102835000Y-44718000D01*
X102835000Y-46468000D02*
X101635000Y-46468000D01*
X94523000Y-51830000D02*
X95723000Y-51830000D01*
X95723000Y-53580000D02*
X94523000Y-53580000D01*
X73695000Y-57418000D02*
X74895000Y-57418000D01*
X74895000Y-59168000D02*
X73695000Y-59168000D01*
X56804000Y-67705000D02*
X58004000Y-67705000D01*
X58004000Y-69455000D02*
X56804000Y-69455000D01*
X27700000Y-70069000D02*
X27700000Y-68869000D01*
X29450000Y-68869000D02*
X29450000Y-70069000D01*
X37213000Y-76692000D02*
X37213000Y-76492000D01*
X37213000Y-70692000D02*
X37213000Y-70892000D01*
X43213000Y-70692000D02*
X43213000Y-70892000D01*
X43213000Y-76692000D02*
X43213000Y-76492000D01*
X43213000Y-74892000D02*
X43213000Y-72492000D01*
X37213000Y-74892000D02*
X37213000Y-72492000D01*
X37213000Y-76692000D02*
X43213000Y-76692000D01*
X43213000Y-70692000D02*
X37213000Y-70692000D01*
X41913000Y-73692000D02*
G75*
G03X41913000Y-73692000I-1700000J0D01*
G01*
X51882000Y-65078000D02*
X47432000Y-65078000D01*
X53407000Y-71828000D02*
X47432000Y-71828000D01*
X87767697Y-41910000D02*
G75*
G03X87767697Y-41910000I-11821697J0D01*
G01*
X53223697Y-41910000D02*
G75*
G03X53223697Y-41910000I-11821697J0D01*
G01*
X66198762Y-52871619D02*
X66103524Y-52824000D01*
X66008286Y-52728762D01*
X65865429Y-52585905D01*
X65770190Y-52538286D01*
X65674952Y-52538286D01*
X65722571Y-52776381D02*
X65627333Y-52728762D01*
X65532095Y-52633524D01*
X65484476Y-52443048D01*
X65484476Y-52109714D01*
X65532095Y-51919238D01*
X65627333Y-51824000D01*
X65722571Y-51776381D01*
X65913048Y-51776381D01*
X66008286Y-51824000D01*
X66103524Y-51919238D01*
X66151143Y-52109714D01*
X66151143Y-52443048D01*
X66103524Y-52633524D01*
X66008286Y-52728762D01*
X65913048Y-52776381D01*
X65722571Y-52776381D01*
X67008286Y-51776381D02*
X66817809Y-51776381D01*
X66722571Y-51824000D01*
X66674952Y-51871619D01*
X66579714Y-52014476D01*
X66532095Y-52204952D01*
X66532095Y-52585905D01*
X66579714Y-52681143D01*
X66627333Y-52728762D01*
X66722571Y-52776381D01*
X66913048Y-52776381D01*
X67008286Y-52728762D01*
X67055905Y-52681143D01*
X67103524Y-52585905D01*
X67103524Y-52347810D01*
X67055905Y-52252571D01*
X67008286Y-52204952D01*
X66913048Y-52157333D01*
X66722571Y-52157333D01*
X66627333Y-52204952D01*
X66579714Y-52252571D01*
X66532095Y-52347810D01*
X67842286Y-52379619D02*
X67889905Y-52332000D01*
X67985143Y-52284381D01*
X68223239Y-52284381D01*
X68318477Y-52332000D01*
X68366096Y-52379619D01*
X68413715Y-52474857D01*
X68413715Y-52570095D01*
X68366096Y-52712952D01*
X67794667Y-53284381D01*
X68413715Y-53284381D01*
X68842286Y-53284381D02*
X68842286Y-52284381D01*
X69413715Y-53284381D01*
X69413715Y-52284381D01*
X69794667Y-52284381D02*
X70461334Y-52284381D01*
X70032762Y-53284381D01*
X71032762Y-52284381D02*
X71128001Y-52284381D01*
X71223239Y-52332000D01*
X71270858Y-52379619D01*
X71318477Y-52474857D01*
X71366096Y-52665333D01*
X71366096Y-52903429D01*
X71318477Y-53093905D01*
X71270858Y-53189143D01*
X71223239Y-53236762D01*
X71128001Y-53284381D01*
X71032762Y-53284381D01*
X70937524Y-53236762D01*
X70889905Y-53189143D01*
X70842286Y-53093905D01*
X70794667Y-52903429D01*
X70794667Y-52665333D01*
X70842286Y-52474857D01*
X70889905Y-52379619D01*
X70937524Y-52332000D01*
X71032762Y-52284381D01*
X71985143Y-52284381D02*
X72080382Y-52284381D01*
X72175620Y-52332000D01*
X72223239Y-52379619D01*
X72270858Y-52474857D01*
X72318477Y-52665333D01*
X72318477Y-52903429D01*
X72270858Y-53093905D01*
X72223239Y-53189143D01*
X72175620Y-53236762D01*
X72080382Y-53284381D01*
X71985143Y-53284381D01*
X71889905Y-53236762D01*
X71842286Y-53189143D01*
X71794667Y-53093905D01*
X71747048Y-52903429D01*
X71747048Y-52665333D01*
X71794667Y-52474857D01*
X71842286Y-52379619D01*
X71889905Y-52332000D01*
X71985143Y-52284381D01*
X72699429Y-52379619D02*
X72747048Y-52332000D01*
X72842286Y-52284381D01*
X73080382Y-52284381D01*
X73175620Y-52332000D01*
X73223239Y-52379619D01*
X73270858Y-52474857D01*
X73270858Y-52570095D01*
X73223239Y-52712952D01*
X72651810Y-53284381D01*
X73270858Y-53284381D01*
X73699429Y-53284381D02*
X73699429Y-52284381D01*
X74270858Y-53284381D02*
X73842286Y-52712952D01*
X74270858Y-52284381D02*
X73699429Y-52855810D01*
X74604191Y-52284381D02*
X74842286Y-53284381D01*
X75032763Y-52570095D01*
X75223239Y-53284381D01*
X75461334Y-52284381D01*
X102149381Y-65381095D02*
X101149381Y-65381095D01*
X101149381Y-65000142D01*
X101197000Y-64904904D01*
X101244619Y-64857285D01*
X101339857Y-64809666D01*
X101482714Y-64809666D01*
X101577952Y-64857285D01*
X101625571Y-64904904D01*
X101673190Y-65000142D01*
X101673190Y-65381095D01*
X101244619Y-64428714D02*
X101197000Y-64381095D01*
X101149381Y-64285857D01*
X101149381Y-64047761D01*
X101197000Y-63952523D01*
X101244619Y-63904904D01*
X101339857Y-63857285D01*
X101435095Y-63857285D01*
X101577952Y-63904904D01*
X102149381Y-64476333D01*
X102149381Y-63857285D01*
X99863667Y-68619191D02*
X99863667Y-68143000D01*
X100149381Y-68714429D02*
X99149381Y-68381096D01*
X100149381Y-68047762D01*
X100149381Y-67190619D02*
X100149381Y-67762048D01*
X100149381Y-67476334D02*
X99149381Y-67476334D01*
X99292238Y-67571572D01*
X99387476Y-67666810D01*
X99435095Y-67762048D01*
X99244619Y-66809667D02*
X99197000Y-66762048D01*
X99149381Y-66666810D01*
X99149381Y-66428714D01*
X99197000Y-66333476D01*
X99244619Y-66285857D01*
X99339857Y-66238238D01*
X99435095Y-66238238D01*
X99577952Y-66285857D01*
X100149381Y-66857286D01*
X100149381Y-66238238D01*
X99149381Y-65619191D02*
X99149381Y-65523952D01*
X99197000Y-65428714D01*
X99244619Y-65381095D01*
X99339857Y-65333476D01*
X99530333Y-65285857D01*
X99768429Y-65285857D01*
X99958905Y-65333476D01*
X100054143Y-65381095D01*
X100101762Y-65428714D01*
X100149381Y-65523952D01*
X100149381Y-65619191D01*
X100101762Y-65714429D01*
X100054143Y-65762048D01*
X99958905Y-65809667D01*
X99768429Y-65857286D01*
X99530333Y-65857286D01*
X99339857Y-65809667D01*
X99244619Y-65762048D01*
X99197000Y-65714429D01*
X99149381Y-65619191D01*
X99149381Y-64428714D02*
X99149381Y-64619191D01*
X99197000Y-64714429D01*
X99244619Y-64762048D01*
X99387476Y-64857286D01*
X99577952Y-64904905D01*
X99958905Y-64904905D01*
X100054143Y-64857286D01*
X100101762Y-64809667D01*
X100149381Y-64714429D01*
X100149381Y-64523952D01*
X100101762Y-64428714D01*
X100054143Y-64381095D01*
X99958905Y-64333476D01*
X99720810Y-64333476D01*
X99625571Y-64381095D01*
X99577952Y-64428714D01*
X99530333Y-64523952D01*
X99530333Y-64714429D01*
X99577952Y-64809667D01*
X99625571Y-64857286D01*
X99720810Y-64904905D01*
X100149381Y-63857286D02*
X100149381Y-63666810D01*
X100101762Y-63571571D01*
X100054143Y-63523952D01*
X99911286Y-63428714D01*
X99720810Y-63381095D01*
X99339857Y-63381095D01*
X99244619Y-63428714D01*
X99197000Y-63476333D01*
X99149381Y-63571571D01*
X99149381Y-63762048D01*
X99197000Y-63857286D01*
X99244619Y-63904905D01*
X99339857Y-63952524D01*
X99577952Y-63952524D01*
X99673190Y-63904905D01*
X99720810Y-63857286D01*
X99768429Y-63762048D01*
X99768429Y-63571571D01*
X99720810Y-63476333D01*
X99673190Y-63428714D01*
X99577952Y-63381095D01*
X100149381Y-62904905D02*
X100149381Y-62714429D01*
X100101762Y-62619190D01*
X100054143Y-62571571D01*
X99911286Y-62476333D01*
X99720810Y-62428714D01*
X99339857Y-62428714D01*
X99244619Y-62476333D01*
X99197000Y-62523952D01*
X99149381Y-62619190D01*
X99149381Y-62809667D01*
X99197000Y-62904905D01*
X99244619Y-62952524D01*
X99339857Y-63000143D01*
X99577952Y-63000143D01*
X99673190Y-62952524D01*
X99720810Y-62904905D01*
X99768429Y-62809667D01*
X99768429Y-62619190D01*
X99720810Y-62523952D01*
X99673190Y-62476333D01*
X99577952Y-62428714D01*
X100054143Y-61428714D02*
X100101762Y-61476333D01*
X100149381Y-61619190D01*
X100149381Y-61714428D01*
X100101762Y-61857286D01*
X100006524Y-61952524D01*
X99911286Y-62000143D01*
X99720810Y-62047762D01*
X99577952Y-62047762D01*
X99387476Y-62000143D01*
X99292238Y-61952524D01*
X99197000Y-61857286D01*
X99149381Y-61714428D01*
X99149381Y-61619190D01*
X99197000Y-61476333D01*
X99244619Y-61428714D01*
X99149381Y-61143000D02*
X99149381Y-60571571D01*
X100149381Y-60857286D02*
X99149381Y-60857286D01*
X47839334Y-54967143D02*
X47791715Y-55014762D01*
X47648858Y-55062381D01*
X47553620Y-55062381D01*
X47410762Y-55014762D01*
X47315524Y-54919524D01*
X47267905Y-54824286D01*
X47220286Y-54633810D01*
X47220286Y-54490952D01*
X47267905Y-54300476D01*
X47315524Y-54205238D01*
X47410762Y-54110000D01*
X47553620Y-54062381D01*
X47648858Y-54062381D01*
X47791715Y-54110000D01*
X47839334Y-54157619D01*
X48791715Y-55062381D02*
X48220286Y-55062381D01*
X48506000Y-55062381D02*
X48506000Y-54062381D01*
X48410762Y-54205238D01*
X48315524Y-54300476D01*
X48220286Y-54348095D01*
X49839714Y-54062381D02*
X49934953Y-54062381D01*
X50030191Y-54110000D01*
X50077810Y-54157619D01*
X50125429Y-54252857D01*
X50173048Y-54443333D01*
X50173048Y-54681429D01*
X50125429Y-54871905D01*
X50077810Y-54967143D01*
X50030191Y-55014762D01*
X49934953Y-55062381D01*
X49839714Y-55062381D01*
X49744476Y-55014762D01*
X49696857Y-54967143D01*
X49649238Y-54871905D01*
X49601619Y-54681429D01*
X49601619Y-54443333D01*
X49649238Y-54252857D01*
X49696857Y-54157619D01*
X49744476Y-54110000D01*
X49839714Y-54062381D01*
X50601619Y-54967143D02*
X50649238Y-55014762D01*
X50601619Y-55062381D01*
X50554000Y-55014762D01*
X50601619Y-54967143D01*
X50601619Y-55062381D01*
X51601619Y-55062381D02*
X51030190Y-55062381D01*
X51315904Y-55062381D02*
X51315904Y-54062381D01*
X51220666Y-54205238D01*
X51125428Y-54300476D01*
X51030190Y-54348095D01*
X52458762Y-54395714D02*
X52458762Y-55062381D01*
X52030190Y-54395714D02*
X52030190Y-54919524D01*
X52077809Y-55014762D01*
X52173047Y-55062381D01*
X52315905Y-55062381D01*
X52411143Y-55014762D01*
X52458762Y-54967143D01*
X53681334Y-51919143D02*
X53633715Y-51966762D01*
X53490858Y-52014381D01*
X53395620Y-52014381D01*
X53252762Y-51966762D01*
X53157524Y-51871524D01*
X53109905Y-51776286D01*
X53062286Y-51585810D01*
X53062286Y-51442952D01*
X53109905Y-51252476D01*
X53157524Y-51157238D01*
X53252762Y-51062000D01*
X53395620Y-51014381D01*
X53490858Y-51014381D01*
X53633715Y-51062000D01*
X53681334Y-51109619D01*
X54062286Y-51109619D02*
X54109905Y-51062000D01*
X54205143Y-51014381D01*
X54443239Y-51014381D01*
X54538477Y-51062000D01*
X54586096Y-51109619D01*
X54633715Y-51204857D01*
X54633715Y-51300095D01*
X54586096Y-51442952D01*
X54014667Y-52014381D01*
X54633715Y-52014381D01*
X49680953Y-52014381D02*
X49109524Y-52014381D01*
X49395238Y-52014381D02*
X49395238Y-51014381D01*
X49300000Y-51157238D01*
X49204762Y-51252476D01*
X49109524Y-51300095D01*
X50300000Y-51014381D02*
X50395239Y-51014381D01*
X50490477Y-51062000D01*
X50538096Y-51109619D01*
X50585715Y-51204857D01*
X50633334Y-51395333D01*
X50633334Y-51633429D01*
X50585715Y-51823905D01*
X50538096Y-51919143D01*
X50490477Y-51966762D01*
X50395239Y-52014381D01*
X50300000Y-52014381D01*
X50204762Y-51966762D01*
X50157143Y-51919143D01*
X50109524Y-51823905D01*
X50061905Y-51633429D01*
X50061905Y-51395333D01*
X50109524Y-51204857D01*
X50157143Y-51109619D01*
X50204762Y-51062000D01*
X50300000Y-51014381D01*
X51252381Y-51014381D02*
X51347620Y-51014381D01*
X51442858Y-51062000D01*
X51490477Y-51109619D01*
X51538096Y-51204857D01*
X51585715Y-51395333D01*
X51585715Y-51633429D01*
X51538096Y-51823905D01*
X51490477Y-51919143D01*
X51442858Y-51966762D01*
X51347620Y-52014381D01*
X51252381Y-52014381D01*
X51157143Y-51966762D01*
X51109524Y-51919143D01*
X51061905Y-51823905D01*
X51014286Y-51633429D01*
X51014286Y-51395333D01*
X51061905Y-51204857D01*
X51109524Y-51109619D01*
X51157143Y-51062000D01*
X51252381Y-51014381D01*
X52014286Y-51347714D02*
X52014286Y-52014381D01*
X52014286Y-51442952D02*
X52061905Y-51395333D01*
X52157143Y-51347714D01*
X52300001Y-51347714D01*
X52395239Y-51395333D01*
X52442858Y-51490571D01*
X52442858Y-52014381D01*
X59523334Y-61825143D02*
X59475715Y-61872762D01*
X59332858Y-61920381D01*
X59237620Y-61920381D01*
X59094762Y-61872762D01*
X58999524Y-61777524D01*
X58951905Y-61682286D01*
X58904286Y-61491810D01*
X58904286Y-61348952D01*
X58951905Y-61158476D01*
X58999524Y-61063238D01*
X59094762Y-60968000D01*
X59237620Y-60920381D01*
X59332858Y-60920381D01*
X59475715Y-60968000D01*
X59523334Y-61015619D01*
X59856667Y-60920381D02*
X60475715Y-60920381D01*
X60142381Y-61301333D01*
X60285239Y-61301333D01*
X60380477Y-61348952D01*
X60428096Y-61396571D01*
X60475715Y-61491810D01*
X60475715Y-61729905D01*
X60428096Y-61825143D01*
X60380477Y-61872762D01*
X60285239Y-61920381D01*
X59999524Y-61920381D01*
X59904286Y-61872762D01*
X59856667Y-61825143D01*
X58491619Y-62539619D02*
X58539238Y-62492000D01*
X58634476Y-62444381D01*
X58872572Y-62444381D01*
X58967810Y-62492000D01*
X59015429Y-62539619D01*
X59063048Y-62634857D01*
X59063048Y-62730095D01*
X59015429Y-62872952D01*
X58444000Y-63444381D01*
X59063048Y-63444381D01*
X59491619Y-63349143D02*
X59539238Y-63396762D01*
X59491619Y-63444381D01*
X59444000Y-63396762D01*
X59491619Y-63349143D01*
X59491619Y-63444381D01*
X59920190Y-62539619D02*
X59967809Y-62492000D01*
X60063047Y-62444381D01*
X60301143Y-62444381D01*
X60396381Y-62492000D01*
X60444000Y-62539619D01*
X60491619Y-62634857D01*
X60491619Y-62730095D01*
X60444000Y-62872952D01*
X59872571Y-63444381D01*
X60491619Y-63444381D01*
X61348762Y-62777714D02*
X61348762Y-63444381D01*
X60920190Y-62777714D02*
X60920190Y-63301524D01*
X60967809Y-63396762D01*
X61063047Y-63444381D01*
X61205905Y-63444381D01*
X61301143Y-63396762D01*
X61348762Y-63349143D01*
X93051334Y-34647143D02*
X93003715Y-34694762D01*
X92860858Y-34742381D01*
X92765620Y-34742381D01*
X92622762Y-34694762D01*
X92527524Y-34599524D01*
X92479905Y-34504286D01*
X92432286Y-34313810D01*
X92432286Y-34170952D01*
X92479905Y-33980476D01*
X92527524Y-33885238D01*
X92622762Y-33790000D01*
X92765620Y-33742381D01*
X92860858Y-33742381D01*
X93003715Y-33790000D01*
X93051334Y-33837619D01*
X93908477Y-34075714D02*
X93908477Y-34742381D01*
X93670381Y-33694762D02*
X93432286Y-34409048D01*
X94051334Y-34409048D01*
X98877619Y-35361619D02*
X98925238Y-35314000D01*
X99020476Y-35266381D01*
X99258572Y-35266381D01*
X99353810Y-35314000D01*
X99401429Y-35361619D01*
X99449048Y-35456857D01*
X99449048Y-35552095D01*
X99401429Y-35694952D01*
X98830000Y-36266381D01*
X99449048Y-36266381D01*
X99877619Y-36171143D02*
X99925238Y-36218762D01*
X99877619Y-36266381D01*
X99830000Y-36218762D01*
X99877619Y-36171143D01*
X99877619Y-36266381D01*
X100306190Y-35361619D02*
X100353809Y-35314000D01*
X100449047Y-35266381D01*
X100687143Y-35266381D01*
X100782381Y-35314000D01*
X100830000Y-35361619D01*
X100877619Y-35456857D01*
X100877619Y-35552095D01*
X100830000Y-35694952D01*
X100258571Y-36266381D01*
X100877619Y-36266381D01*
X101734762Y-35599714D02*
X101734762Y-36266381D01*
X101306190Y-35599714D02*
X101306190Y-36123524D01*
X101353809Y-36218762D01*
X101449047Y-36266381D01*
X101591905Y-36266381D01*
X101687143Y-36218762D01*
X101734762Y-36171143D01*
X74255334Y-68429143D02*
X74207715Y-68476762D01*
X74064858Y-68524381D01*
X73969620Y-68524381D01*
X73826762Y-68476762D01*
X73731524Y-68381524D01*
X73683905Y-68286286D01*
X73636286Y-68095810D01*
X73636286Y-67952952D01*
X73683905Y-67762476D01*
X73731524Y-67667238D01*
X73826762Y-67572000D01*
X73969620Y-67524381D01*
X74064858Y-67524381D01*
X74207715Y-67572000D01*
X74255334Y-67619619D01*
X75160096Y-67524381D02*
X74683905Y-67524381D01*
X74636286Y-68000571D01*
X74683905Y-67952952D01*
X74779143Y-67905333D01*
X75017239Y-67905333D01*
X75112477Y-67952952D01*
X75160096Y-68000571D01*
X75207715Y-68095810D01*
X75207715Y-68333905D01*
X75160096Y-68429143D01*
X75112477Y-68476762D01*
X75017239Y-68524381D01*
X74779143Y-68524381D01*
X74683905Y-68476762D01*
X74636286Y-68429143D01*
X68905619Y-65333619D02*
X68953238Y-65286000D01*
X69048476Y-65238381D01*
X69286572Y-65238381D01*
X69381810Y-65286000D01*
X69429429Y-65333619D01*
X69477048Y-65428857D01*
X69477048Y-65524095D01*
X69429429Y-65666952D01*
X68858000Y-66238381D01*
X69477048Y-66238381D01*
X69905619Y-66143143D02*
X69953238Y-66190762D01*
X69905619Y-66238381D01*
X69858000Y-66190762D01*
X69905619Y-66143143D01*
X69905619Y-66238381D01*
X70334190Y-65333619D02*
X70381809Y-65286000D01*
X70477047Y-65238381D01*
X70715143Y-65238381D01*
X70810381Y-65286000D01*
X70858000Y-65333619D01*
X70905619Y-65428857D01*
X70905619Y-65524095D01*
X70858000Y-65666952D01*
X70286571Y-66238381D01*
X70905619Y-66238381D01*
X71762762Y-65571714D02*
X71762762Y-66238381D01*
X71334190Y-65571714D02*
X71334190Y-66095524D01*
X71381809Y-66190762D01*
X71477047Y-66238381D01*
X71619905Y-66238381D01*
X71715143Y-66190762D01*
X71762762Y-66143143D01*
X85177334Y-64365143D02*
X85129715Y-64412762D01*
X84986858Y-64460381D01*
X84891620Y-64460381D01*
X84748762Y-64412762D01*
X84653524Y-64317524D01*
X84605905Y-64222286D01*
X84558286Y-64031810D01*
X84558286Y-63888952D01*
X84605905Y-63698476D01*
X84653524Y-63603238D01*
X84748762Y-63508000D01*
X84891620Y-63460381D01*
X84986858Y-63460381D01*
X85129715Y-63508000D01*
X85177334Y-63555619D01*
X86034477Y-63460381D02*
X85844000Y-63460381D01*
X85748762Y-63508000D01*
X85701143Y-63555619D01*
X85605905Y-63698476D01*
X85558286Y-63888952D01*
X85558286Y-64269905D01*
X85605905Y-64365143D01*
X85653524Y-64412762D01*
X85748762Y-64460381D01*
X85939239Y-64460381D01*
X86034477Y-64412762D01*
X86082096Y-64365143D01*
X86129715Y-64269905D01*
X86129715Y-64031810D01*
X86082096Y-63936571D01*
X86034477Y-63888952D01*
X85939239Y-63841333D01*
X85748762Y-63841333D01*
X85653524Y-63888952D01*
X85605905Y-63936571D01*
X85558286Y-64031810D01*
X87955619Y-61777619D02*
X88003238Y-61730000D01*
X88098476Y-61682381D01*
X88336572Y-61682381D01*
X88431810Y-61730000D01*
X88479429Y-61777619D01*
X88527048Y-61872857D01*
X88527048Y-61968095D01*
X88479429Y-62110952D01*
X87908000Y-62682381D01*
X88527048Y-62682381D01*
X88955619Y-62587143D02*
X89003238Y-62634762D01*
X88955619Y-62682381D01*
X88908000Y-62634762D01*
X88955619Y-62587143D01*
X88955619Y-62682381D01*
X89384190Y-61777619D02*
X89431809Y-61730000D01*
X89527047Y-61682381D01*
X89765143Y-61682381D01*
X89860381Y-61730000D01*
X89908000Y-61777619D01*
X89955619Y-61872857D01*
X89955619Y-61968095D01*
X89908000Y-62110952D01*
X89336571Y-62682381D01*
X89955619Y-62682381D01*
X90812762Y-62015714D02*
X90812762Y-62682381D01*
X90384190Y-62015714D02*
X90384190Y-62539524D01*
X90431809Y-62634762D01*
X90527047Y-62682381D01*
X90669905Y-62682381D01*
X90765143Y-62634762D01*
X90812762Y-62587143D01*
X79843334Y-68429143D02*
X79795715Y-68476762D01*
X79652858Y-68524381D01*
X79557620Y-68524381D01*
X79414762Y-68476762D01*
X79319524Y-68381524D01*
X79271905Y-68286286D01*
X79224286Y-68095810D01*
X79224286Y-67952952D01*
X79271905Y-67762476D01*
X79319524Y-67667238D01*
X79414762Y-67572000D01*
X79557620Y-67524381D01*
X79652858Y-67524381D01*
X79795715Y-67572000D01*
X79843334Y-67619619D01*
X80176667Y-67524381D02*
X80843334Y-67524381D01*
X80414762Y-68524381D01*
X68905619Y-63555619D02*
X68953238Y-63508000D01*
X69048476Y-63460381D01*
X69286572Y-63460381D01*
X69381810Y-63508000D01*
X69429429Y-63555619D01*
X69477048Y-63650857D01*
X69477048Y-63746095D01*
X69429429Y-63888952D01*
X68858000Y-64460381D01*
X69477048Y-64460381D01*
X69905619Y-64365143D02*
X69953238Y-64412762D01*
X69905619Y-64460381D01*
X69858000Y-64412762D01*
X69905619Y-64365143D01*
X69905619Y-64460381D01*
X70334190Y-63555619D02*
X70381809Y-63508000D01*
X70477047Y-63460381D01*
X70715143Y-63460381D01*
X70810381Y-63508000D01*
X70858000Y-63555619D01*
X70905619Y-63650857D01*
X70905619Y-63746095D01*
X70858000Y-63888952D01*
X70286571Y-64460381D01*
X70905619Y-64460381D01*
X71762762Y-63793714D02*
X71762762Y-64460381D01*
X71334190Y-63793714D02*
X71334190Y-64317524D01*
X71381809Y-64412762D01*
X71477047Y-64460381D01*
X71619905Y-64460381D01*
X71715143Y-64412762D01*
X71762762Y-64365143D01*
X79589334Y-64365143D02*
X79541715Y-64412762D01*
X79398858Y-64460381D01*
X79303620Y-64460381D01*
X79160762Y-64412762D01*
X79065524Y-64317524D01*
X79017905Y-64222286D01*
X78970286Y-64031810D01*
X78970286Y-63888952D01*
X79017905Y-63698476D01*
X79065524Y-63603238D01*
X79160762Y-63508000D01*
X79303620Y-63460381D01*
X79398858Y-63460381D01*
X79541715Y-63508000D01*
X79589334Y-63555619D01*
X80160762Y-63888952D02*
X80065524Y-63841333D01*
X80017905Y-63793714D01*
X79970286Y-63698476D01*
X79970286Y-63650857D01*
X80017905Y-63555619D01*
X80065524Y-63508000D01*
X80160762Y-63460381D01*
X80351239Y-63460381D01*
X80446477Y-63508000D01*
X80494096Y-63555619D01*
X80541715Y-63650857D01*
X80541715Y-63698476D01*
X80494096Y-63793714D01*
X80446477Y-63841333D01*
X80351239Y-63888952D01*
X80160762Y-63888952D01*
X80065524Y-63936571D01*
X80017905Y-63984190D01*
X79970286Y-64079429D01*
X79970286Y-64269905D01*
X80017905Y-64365143D01*
X80065524Y-64412762D01*
X80160762Y-64460381D01*
X80351239Y-64460381D01*
X80446477Y-64412762D01*
X80494096Y-64365143D01*
X80541715Y-64269905D01*
X80541715Y-64079429D01*
X80494096Y-63984190D01*
X80446477Y-63936571D01*
X80351239Y-63888952D01*
X87955619Y-59999619D02*
X88003238Y-59952000D01*
X88098476Y-59904381D01*
X88336572Y-59904381D01*
X88431810Y-59952000D01*
X88479429Y-59999619D01*
X88527048Y-60094857D01*
X88527048Y-60190095D01*
X88479429Y-60332952D01*
X87908000Y-60904381D01*
X88527048Y-60904381D01*
X88955619Y-60809143D02*
X89003238Y-60856762D01*
X88955619Y-60904381D01*
X88908000Y-60856762D01*
X88955619Y-60809143D01*
X88955619Y-60904381D01*
X89384190Y-59999619D02*
X89431809Y-59952000D01*
X89527047Y-59904381D01*
X89765143Y-59904381D01*
X89860381Y-59952000D01*
X89908000Y-59999619D01*
X89955619Y-60094857D01*
X89955619Y-60190095D01*
X89908000Y-60332952D01*
X89336571Y-60904381D01*
X89955619Y-60904381D01*
X90812762Y-60237714D02*
X90812762Y-60904381D01*
X90384190Y-60237714D02*
X90384190Y-60761524D01*
X90431809Y-60856762D01*
X90527047Y-60904381D01*
X90669905Y-60904381D01*
X90765143Y-60856762D01*
X90812762Y-60809143D01*
X67143334Y-56745143D02*
X67095715Y-56792762D01*
X66952858Y-56840381D01*
X66857620Y-56840381D01*
X66714762Y-56792762D01*
X66619524Y-56697524D01*
X66571905Y-56602286D01*
X66524286Y-56411810D01*
X66524286Y-56268952D01*
X66571905Y-56078476D01*
X66619524Y-55983238D01*
X66714762Y-55888000D01*
X66857620Y-55840381D01*
X66952858Y-55840381D01*
X67095715Y-55888000D01*
X67143334Y-55935619D01*
X67619524Y-56840381D02*
X67810000Y-56840381D01*
X67905239Y-56792762D01*
X67952858Y-56745143D01*
X68048096Y-56602286D01*
X68095715Y-56411810D01*
X68095715Y-56030857D01*
X68048096Y-55935619D01*
X68000477Y-55888000D01*
X67905239Y-55840381D01*
X67714762Y-55840381D01*
X67619524Y-55888000D01*
X67571905Y-55935619D01*
X67524286Y-56030857D01*
X67524286Y-56268952D01*
X67571905Y-56364190D01*
X67619524Y-56411810D01*
X67714762Y-56459429D01*
X67905239Y-56459429D01*
X68000477Y-56411810D01*
X68048096Y-56364190D01*
X68095715Y-56268952D01*
X69937334Y-56840381D02*
X69365905Y-56840381D01*
X69651619Y-56840381D02*
X69651619Y-55840381D01*
X69556381Y-55983238D01*
X69461143Y-56078476D01*
X69365905Y-56126095D01*
X70794477Y-56173714D02*
X70794477Y-56840381D01*
X70365905Y-56173714D02*
X70365905Y-56697524D01*
X70413524Y-56792762D01*
X70508762Y-56840381D01*
X70651620Y-56840381D01*
X70746858Y-56792762D01*
X70794477Y-56745143D01*
X63619143Y-62841143D02*
X63571524Y-62888762D01*
X63428667Y-62936381D01*
X63333429Y-62936381D01*
X63190571Y-62888762D01*
X63095333Y-62793524D01*
X63047714Y-62698286D01*
X63000095Y-62507810D01*
X63000095Y-62364952D01*
X63047714Y-62174476D01*
X63095333Y-62079238D01*
X63190571Y-61984000D01*
X63333429Y-61936381D01*
X63428667Y-61936381D01*
X63571524Y-61984000D01*
X63619143Y-62031619D01*
X64571524Y-62936381D02*
X64000095Y-62936381D01*
X64285809Y-62936381D02*
X64285809Y-61936381D01*
X64190571Y-62079238D01*
X64095333Y-62174476D01*
X64000095Y-62222095D01*
X65190571Y-61936381D02*
X65285810Y-61936381D01*
X65381048Y-61984000D01*
X65428667Y-62031619D01*
X65476286Y-62126857D01*
X65523905Y-62317333D01*
X65523905Y-62555429D01*
X65476286Y-62745905D01*
X65428667Y-62841143D01*
X65381048Y-62888762D01*
X65285810Y-62936381D01*
X65190571Y-62936381D01*
X65095333Y-62888762D01*
X65047714Y-62841143D01*
X65000095Y-62745905D01*
X64952476Y-62555429D01*
X64952476Y-62317333D01*
X65000095Y-62126857D01*
X65047714Y-62031619D01*
X65095333Y-61984000D01*
X65190571Y-61936381D01*
X63063619Y-63555619D02*
X63111238Y-63508000D01*
X63206476Y-63460381D01*
X63444572Y-63460381D01*
X63539810Y-63508000D01*
X63587429Y-63555619D01*
X63635048Y-63650857D01*
X63635048Y-63746095D01*
X63587429Y-63888952D01*
X63016000Y-64460381D01*
X63635048Y-64460381D01*
X64063619Y-64365143D02*
X64111238Y-64412762D01*
X64063619Y-64460381D01*
X64016000Y-64412762D01*
X64063619Y-64365143D01*
X64063619Y-64460381D01*
X64492190Y-63555619D02*
X64539809Y-63508000D01*
X64635047Y-63460381D01*
X64873143Y-63460381D01*
X64968381Y-63508000D01*
X65016000Y-63555619D01*
X65063619Y-63650857D01*
X65063619Y-63746095D01*
X65016000Y-63888952D01*
X64444571Y-64460381D01*
X65063619Y-64460381D01*
X65920762Y-63793714D02*
X65920762Y-64460381D01*
X65492190Y-63793714D02*
X65492190Y-64317524D01*
X65539809Y-64412762D01*
X65635047Y-64460381D01*
X65777905Y-64460381D01*
X65873143Y-64412762D01*
X65920762Y-64365143D01*
X59301143Y-47347143D02*
X59253524Y-47394762D01*
X59110667Y-47442381D01*
X59015429Y-47442381D01*
X58872571Y-47394762D01*
X58777333Y-47299524D01*
X58729714Y-47204286D01*
X58682095Y-47013810D01*
X58682095Y-46870952D01*
X58729714Y-46680476D01*
X58777333Y-46585238D01*
X58872571Y-46490000D01*
X59015429Y-46442381D01*
X59110667Y-46442381D01*
X59253524Y-46490000D01*
X59301143Y-46537619D01*
X60253524Y-47442381D02*
X59682095Y-47442381D01*
X59967809Y-47442381D02*
X59967809Y-46442381D01*
X59872571Y-46585238D01*
X59777333Y-46680476D01*
X59682095Y-46728095D01*
X61205905Y-47442381D02*
X60634476Y-47442381D01*
X60920190Y-47442381D02*
X60920190Y-46442381D01*
X60824952Y-46585238D01*
X60729714Y-46680476D01*
X60634476Y-46728095D01*
X61793619Y-46537619D02*
X61841238Y-46490000D01*
X61936476Y-46442381D01*
X62174572Y-46442381D01*
X62269810Y-46490000D01*
X62317429Y-46537619D01*
X62365048Y-46632857D01*
X62365048Y-46728095D01*
X62317429Y-46870952D01*
X61746000Y-47442381D01*
X62365048Y-47442381D01*
X62793619Y-47347143D02*
X62841238Y-47394762D01*
X62793619Y-47442381D01*
X62746000Y-47394762D01*
X62793619Y-47347143D01*
X62793619Y-47442381D01*
X63222190Y-46537619D02*
X63269809Y-46490000D01*
X63365047Y-46442381D01*
X63603143Y-46442381D01*
X63698381Y-46490000D01*
X63746000Y-46537619D01*
X63793619Y-46632857D01*
X63793619Y-46728095D01*
X63746000Y-46870952D01*
X63174571Y-47442381D01*
X63793619Y-47442381D01*
X64650762Y-46775714D02*
X64650762Y-47442381D01*
X64222190Y-46775714D02*
X64222190Y-47299524D01*
X64269809Y-47394762D01*
X64365047Y-47442381D01*
X64507905Y-47442381D01*
X64603143Y-47394762D01*
X64650762Y-47347143D01*
X84701143Y-68429143D02*
X84653524Y-68476762D01*
X84510667Y-68524381D01*
X84415429Y-68524381D01*
X84272571Y-68476762D01*
X84177333Y-68381524D01*
X84129714Y-68286286D01*
X84082095Y-68095810D01*
X84082095Y-67952952D01*
X84129714Y-67762476D01*
X84177333Y-67667238D01*
X84272571Y-67572000D01*
X84415429Y-67524381D01*
X84510667Y-67524381D01*
X84653524Y-67572000D01*
X84701143Y-67619619D01*
X85653524Y-68524381D02*
X85082095Y-68524381D01*
X85367809Y-68524381D02*
X85367809Y-67524381D01*
X85272571Y-67667238D01*
X85177333Y-67762476D01*
X85082095Y-67810095D01*
X86034476Y-67619619D02*
X86082095Y-67572000D01*
X86177333Y-67524381D01*
X86415429Y-67524381D01*
X86510667Y-67572000D01*
X86558286Y-67619619D01*
X86605905Y-67714857D01*
X86605905Y-67810095D01*
X86558286Y-67952952D01*
X85986857Y-68524381D01*
X86605905Y-68524381D01*
X88209619Y-65841619D02*
X88257238Y-65794000D01*
X88352476Y-65746381D01*
X88590572Y-65746381D01*
X88685810Y-65794000D01*
X88733429Y-65841619D01*
X88781048Y-65936857D01*
X88781048Y-66032095D01*
X88733429Y-66174952D01*
X88162000Y-66746381D01*
X88781048Y-66746381D01*
X89209619Y-66651143D02*
X89257238Y-66698762D01*
X89209619Y-66746381D01*
X89162000Y-66698762D01*
X89209619Y-66651143D01*
X89209619Y-66746381D01*
X89638190Y-65841619D02*
X89685809Y-65794000D01*
X89781047Y-65746381D01*
X90019143Y-65746381D01*
X90114381Y-65794000D01*
X90162000Y-65841619D01*
X90209619Y-65936857D01*
X90209619Y-66032095D01*
X90162000Y-66174952D01*
X89590571Y-66746381D01*
X90209619Y-66746381D01*
X91066762Y-66079714D02*
X91066762Y-66746381D01*
X90638190Y-66079714D02*
X90638190Y-66603524D01*
X90685809Y-66698762D01*
X90781047Y-66746381D01*
X90923905Y-66746381D01*
X91019143Y-66698762D01*
X91066762Y-66651143D01*
X73525143Y-64365143D02*
X73477524Y-64412762D01*
X73334667Y-64460381D01*
X73239429Y-64460381D01*
X73096571Y-64412762D01*
X73001333Y-64317524D01*
X72953714Y-64222286D01*
X72906095Y-64031810D01*
X72906095Y-63888952D01*
X72953714Y-63698476D01*
X73001333Y-63603238D01*
X73096571Y-63508000D01*
X73239429Y-63460381D01*
X73334667Y-63460381D01*
X73477524Y-63508000D01*
X73525143Y-63555619D01*
X74477524Y-64460381D02*
X73906095Y-64460381D01*
X74191809Y-64460381D02*
X74191809Y-63460381D01*
X74096571Y-63603238D01*
X74001333Y-63698476D01*
X73906095Y-63746095D01*
X74810857Y-63460381D02*
X75429905Y-63460381D01*
X75096571Y-63841333D01*
X75239429Y-63841333D01*
X75334667Y-63888952D01*
X75382286Y-63936571D01*
X75429905Y-64031810D01*
X75429905Y-64269905D01*
X75382286Y-64365143D01*
X75334667Y-64412762D01*
X75239429Y-64460381D01*
X74953714Y-64460381D01*
X74858476Y-64412762D01*
X74810857Y-64365143D01*
X68905619Y-61777619D02*
X68953238Y-61730000D01*
X69048476Y-61682381D01*
X69286572Y-61682381D01*
X69381810Y-61730000D01*
X69429429Y-61777619D01*
X69477048Y-61872857D01*
X69477048Y-61968095D01*
X69429429Y-62110952D01*
X68858000Y-62682381D01*
X69477048Y-62682381D01*
X69905619Y-62587143D02*
X69953238Y-62634762D01*
X69905619Y-62682381D01*
X69858000Y-62634762D01*
X69905619Y-62587143D01*
X69905619Y-62682381D01*
X70334190Y-61777619D02*
X70381809Y-61730000D01*
X70477047Y-61682381D01*
X70715143Y-61682381D01*
X70810381Y-61730000D01*
X70858000Y-61777619D01*
X70905619Y-61872857D01*
X70905619Y-61968095D01*
X70858000Y-62110952D01*
X70286571Y-62682381D01*
X70905619Y-62682381D01*
X71762762Y-62015714D02*
X71762762Y-62682381D01*
X71334190Y-62015714D02*
X71334190Y-62539524D01*
X71381809Y-62634762D01*
X71477047Y-62682381D01*
X71619905Y-62682381D01*
X71715143Y-62634762D01*
X71762762Y-62587143D01*
X34663143Y-58015143D02*
X34615524Y-58062762D01*
X34472667Y-58110381D01*
X34377429Y-58110381D01*
X34234571Y-58062762D01*
X34139333Y-57967524D01*
X34091714Y-57872286D01*
X34044095Y-57681810D01*
X34044095Y-57538952D01*
X34091714Y-57348476D01*
X34139333Y-57253238D01*
X34234571Y-57158000D01*
X34377429Y-57110381D01*
X34472667Y-57110381D01*
X34615524Y-57158000D01*
X34663143Y-57205619D01*
X35615524Y-58110381D02*
X35044095Y-58110381D01*
X35329809Y-58110381D02*
X35329809Y-57110381D01*
X35234571Y-57253238D01*
X35139333Y-57348476D01*
X35044095Y-57396095D01*
X36472667Y-57443714D02*
X36472667Y-58110381D01*
X36234571Y-57062762D02*
X35996476Y-57777048D01*
X36615524Y-57777048D01*
X33853619Y-55173619D02*
X33901238Y-55126000D01*
X33996476Y-55078381D01*
X34234572Y-55078381D01*
X34329810Y-55126000D01*
X34377429Y-55173619D01*
X34425048Y-55268857D01*
X34425048Y-55364095D01*
X34377429Y-55506952D01*
X33806000Y-56078381D01*
X34425048Y-56078381D01*
X34853619Y-55983143D02*
X34901238Y-56030762D01*
X34853619Y-56078381D01*
X34806000Y-56030762D01*
X34853619Y-55983143D01*
X34853619Y-56078381D01*
X35282190Y-55173619D02*
X35329809Y-55126000D01*
X35425047Y-55078381D01*
X35663143Y-55078381D01*
X35758381Y-55126000D01*
X35806000Y-55173619D01*
X35853619Y-55268857D01*
X35853619Y-55364095D01*
X35806000Y-55506952D01*
X35234571Y-56078381D01*
X35853619Y-56078381D01*
X36710762Y-55411714D02*
X36710762Y-56078381D01*
X36282190Y-55411714D02*
X36282190Y-55935524D01*
X36329809Y-56030762D01*
X36425047Y-56078381D01*
X36567905Y-56078381D01*
X36663143Y-56030762D01*
X36710762Y-55983143D01*
X84828143Y-72180143D02*
X84780524Y-72227762D01*
X84637667Y-72275381D01*
X84542429Y-72275381D01*
X84399571Y-72227762D01*
X84304333Y-72132524D01*
X84256714Y-72037286D01*
X84209095Y-71846810D01*
X84209095Y-71703952D01*
X84256714Y-71513476D01*
X84304333Y-71418238D01*
X84399571Y-71323000D01*
X84542429Y-71275381D01*
X84637667Y-71275381D01*
X84780524Y-71323000D01*
X84828143Y-71370619D01*
X85780524Y-72275381D02*
X85209095Y-72275381D01*
X85494809Y-72275381D02*
X85494809Y-71275381D01*
X85399571Y-71418238D01*
X85304333Y-71513476D01*
X85209095Y-71561095D01*
X86685286Y-71275381D02*
X86209095Y-71275381D01*
X86161476Y-71751571D01*
X86209095Y-71703952D01*
X86304333Y-71656333D01*
X86542429Y-71656333D01*
X86637667Y-71703952D01*
X86685286Y-71751571D01*
X86732905Y-71846810D01*
X86732905Y-72084905D01*
X86685286Y-72180143D01*
X86637667Y-72227762D01*
X86542429Y-72275381D01*
X86304333Y-72275381D01*
X86209095Y-72227762D01*
X86161476Y-72180143D01*
X88209619Y-69397619D02*
X88257238Y-69350000D01*
X88352476Y-69302381D01*
X88590572Y-69302381D01*
X88685810Y-69350000D01*
X88733429Y-69397619D01*
X88781048Y-69492857D01*
X88781048Y-69588095D01*
X88733429Y-69730952D01*
X88162000Y-70302381D01*
X88781048Y-70302381D01*
X89209619Y-70207143D02*
X89257238Y-70254762D01*
X89209619Y-70302381D01*
X89162000Y-70254762D01*
X89209619Y-70207143D01*
X89209619Y-70302381D01*
X89638190Y-69397619D02*
X89685809Y-69350000D01*
X89781047Y-69302381D01*
X90019143Y-69302381D01*
X90114381Y-69350000D01*
X90162000Y-69397619D01*
X90209619Y-69492857D01*
X90209619Y-69588095D01*
X90162000Y-69730952D01*
X89590571Y-70302381D01*
X90209619Y-70302381D01*
X91066762Y-69635714D02*
X91066762Y-70302381D01*
X90638190Y-69635714D02*
X90638190Y-70159524D01*
X90685809Y-70254762D01*
X90781047Y-70302381D01*
X90923905Y-70302381D01*
X91019143Y-70254762D01*
X91066762Y-70207143D01*
X73652143Y-72180143D02*
X73604524Y-72227762D01*
X73461667Y-72275381D01*
X73366429Y-72275381D01*
X73223571Y-72227762D01*
X73128333Y-72132524D01*
X73080714Y-72037286D01*
X73033095Y-71846810D01*
X73033095Y-71703952D01*
X73080714Y-71513476D01*
X73128333Y-71418238D01*
X73223571Y-71323000D01*
X73366429Y-71275381D01*
X73461667Y-71275381D01*
X73604524Y-71323000D01*
X73652143Y-71370619D01*
X74604524Y-72275381D02*
X74033095Y-72275381D01*
X74318809Y-72275381D02*
X74318809Y-71275381D01*
X74223571Y-71418238D01*
X74128333Y-71513476D01*
X74033095Y-71561095D01*
X75461667Y-71275381D02*
X75271190Y-71275381D01*
X75175952Y-71323000D01*
X75128333Y-71370619D01*
X75033095Y-71513476D01*
X74985476Y-71703952D01*
X74985476Y-72084905D01*
X75033095Y-72180143D01*
X75080714Y-72227762D01*
X75175952Y-72275381D01*
X75366429Y-72275381D01*
X75461667Y-72227762D01*
X75509286Y-72180143D01*
X75556905Y-72084905D01*
X75556905Y-71846810D01*
X75509286Y-71751571D01*
X75461667Y-71703952D01*
X75366429Y-71656333D01*
X75175952Y-71656333D01*
X75080714Y-71703952D01*
X75033095Y-71751571D01*
X74985476Y-71846810D01*
X69413619Y-71175619D02*
X69461238Y-71128000D01*
X69556476Y-71080381D01*
X69794572Y-71080381D01*
X69889810Y-71128000D01*
X69937429Y-71175619D01*
X69985048Y-71270857D01*
X69985048Y-71366095D01*
X69937429Y-71508952D01*
X69366000Y-72080381D01*
X69985048Y-72080381D01*
X70413619Y-71985143D02*
X70461238Y-72032762D01*
X70413619Y-72080381D01*
X70366000Y-72032762D01*
X70413619Y-71985143D01*
X70413619Y-72080381D01*
X70842190Y-71175619D02*
X70889809Y-71128000D01*
X70985047Y-71080381D01*
X71223143Y-71080381D01*
X71318381Y-71128000D01*
X71366000Y-71175619D01*
X71413619Y-71270857D01*
X71413619Y-71366095D01*
X71366000Y-71508952D01*
X70794571Y-72080381D01*
X71413619Y-72080381D01*
X72270762Y-71413714D02*
X72270762Y-72080381D01*
X71842190Y-71413714D02*
X71842190Y-71937524D01*
X71889809Y-72032762D01*
X71985047Y-72080381D01*
X72127905Y-72080381D01*
X72223143Y-72032762D01*
X72270762Y-71985143D01*
X84701143Y-60555143D02*
X84653524Y-60602762D01*
X84510667Y-60650381D01*
X84415429Y-60650381D01*
X84272571Y-60602762D01*
X84177333Y-60507524D01*
X84129714Y-60412286D01*
X84082095Y-60221810D01*
X84082095Y-60078952D01*
X84129714Y-59888476D01*
X84177333Y-59793238D01*
X84272571Y-59698000D01*
X84415429Y-59650381D01*
X84510667Y-59650381D01*
X84653524Y-59698000D01*
X84701143Y-59745619D01*
X85653524Y-60650381D02*
X85082095Y-60650381D01*
X85367809Y-60650381D02*
X85367809Y-59650381D01*
X85272571Y-59793238D01*
X85177333Y-59888476D01*
X85082095Y-59936095D01*
X85986857Y-59650381D02*
X86653524Y-59650381D01*
X86224952Y-60650381D01*
X83891619Y-55681619D02*
X83939238Y-55634000D01*
X84034476Y-55586381D01*
X84272572Y-55586381D01*
X84367810Y-55634000D01*
X84415429Y-55681619D01*
X84463048Y-55776857D01*
X84463048Y-55872095D01*
X84415429Y-56014952D01*
X83844000Y-56586381D01*
X84463048Y-56586381D01*
X84891619Y-56491143D02*
X84939238Y-56538762D01*
X84891619Y-56586381D01*
X84844000Y-56538762D01*
X84891619Y-56491143D01*
X84891619Y-56586381D01*
X85320190Y-55681619D02*
X85367809Y-55634000D01*
X85463047Y-55586381D01*
X85701143Y-55586381D01*
X85796381Y-55634000D01*
X85844000Y-55681619D01*
X85891619Y-55776857D01*
X85891619Y-55872095D01*
X85844000Y-56014952D01*
X85272571Y-56586381D01*
X85891619Y-56586381D01*
X86748762Y-55919714D02*
X86748762Y-56586381D01*
X86320190Y-55919714D02*
X86320190Y-56443524D01*
X86367809Y-56538762D01*
X86463047Y-56586381D01*
X86605905Y-56586381D01*
X86701143Y-56538762D01*
X86748762Y-56491143D01*
X79240143Y-72180143D02*
X79192524Y-72227762D01*
X79049667Y-72275381D01*
X78954429Y-72275381D01*
X78811571Y-72227762D01*
X78716333Y-72132524D01*
X78668714Y-72037286D01*
X78621095Y-71846810D01*
X78621095Y-71703952D01*
X78668714Y-71513476D01*
X78716333Y-71418238D01*
X78811571Y-71323000D01*
X78954429Y-71275381D01*
X79049667Y-71275381D01*
X79192524Y-71323000D01*
X79240143Y-71370619D01*
X80192524Y-72275381D02*
X79621095Y-72275381D01*
X79906809Y-72275381D02*
X79906809Y-71275381D01*
X79811571Y-71418238D01*
X79716333Y-71513476D01*
X79621095Y-71561095D01*
X80763952Y-71703952D02*
X80668714Y-71656333D01*
X80621095Y-71608714D01*
X80573476Y-71513476D01*
X80573476Y-71465857D01*
X80621095Y-71370619D01*
X80668714Y-71323000D01*
X80763952Y-71275381D01*
X80954429Y-71275381D01*
X81049667Y-71323000D01*
X81097286Y-71370619D01*
X81144905Y-71465857D01*
X81144905Y-71513476D01*
X81097286Y-71608714D01*
X81049667Y-71656333D01*
X80954429Y-71703952D01*
X80763952Y-71703952D01*
X80668714Y-71751571D01*
X80621095Y-71799190D01*
X80573476Y-71894429D01*
X80573476Y-72084905D01*
X80621095Y-72180143D01*
X80668714Y-72227762D01*
X80763952Y-72275381D01*
X80954429Y-72275381D01*
X81049667Y-72227762D01*
X81097286Y-72180143D01*
X81144905Y-72084905D01*
X81144905Y-71894429D01*
X81097286Y-71799190D01*
X81049667Y-71751571D01*
X80954429Y-71703952D01*
X68905619Y-67619619D02*
X68953238Y-67572000D01*
X69048476Y-67524381D01*
X69286572Y-67524381D01*
X69381810Y-67572000D01*
X69429429Y-67619619D01*
X69477048Y-67714857D01*
X69477048Y-67810095D01*
X69429429Y-67952952D01*
X68858000Y-68524381D01*
X69477048Y-68524381D01*
X69905619Y-68429143D02*
X69953238Y-68476762D01*
X69905619Y-68524381D01*
X69858000Y-68476762D01*
X69905619Y-68429143D01*
X69905619Y-68524381D01*
X70334190Y-67619619D02*
X70381809Y-67572000D01*
X70477047Y-67524381D01*
X70715143Y-67524381D01*
X70810381Y-67572000D01*
X70858000Y-67619619D01*
X70905619Y-67714857D01*
X70905619Y-67810095D01*
X70858000Y-67952952D01*
X70286571Y-68524381D01*
X70905619Y-68524381D01*
X71762762Y-67857714D02*
X71762762Y-68524381D01*
X71334190Y-67857714D02*
X71334190Y-68381524D01*
X71381809Y-68476762D01*
X71477047Y-68524381D01*
X71619905Y-68524381D01*
X71715143Y-68476762D01*
X71762762Y-68429143D01*
X79113143Y-60555143D02*
X79065524Y-60602762D01*
X78922667Y-60650381D01*
X78827429Y-60650381D01*
X78684571Y-60602762D01*
X78589333Y-60507524D01*
X78541714Y-60412286D01*
X78494095Y-60221810D01*
X78494095Y-60078952D01*
X78541714Y-59888476D01*
X78589333Y-59793238D01*
X78684571Y-59698000D01*
X78827429Y-59650381D01*
X78922667Y-59650381D01*
X79065524Y-59698000D01*
X79113143Y-59745619D01*
X80065524Y-60650381D02*
X79494095Y-60650381D01*
X79779809Y-60650381D02*
X79779809Y-59650381D01*
X79684571Y-59793238D01*
X79589333Y-59888476D01*
X79494095Y-59936095D01*
X80541714Y-60650381D02*
X80732190Y-60650381D01*
X80827429Y-60602762D01*
X80875048Y-60555143D01*
X80970286Y-60412286D01*
X81017905Y-60221810D01*
X81017905Y-59840857D01*
X80970286Y-59745619D01*
X80922667Y-59698000D01*
X80827429Y-59650381D01*
X80636952Y-59650381D01*
X80541714Y-59698000D01*
X80494095Y-59745619D01*
X80446476Y-59840857D01*
X80446476Y-60078952D01*
X80494095Y-60174190D01*
X80541714Y-60221810D01*
X80636952Y-60269429D01*
X80827429Y-60269429D01*
X80922667Y-60221810D01*
X80970286Y-60174190D01*
X81017905Y-60078952D01*
X78430619Y-55740619D02*
X78478238Y-55693000D01*
X78573476Y-55645381D01*
X78811572Y-55645381D01*
X78906810Y-55693000D01*
X78954429Y-55740619D01*
X79002048Y-55835857D01*
X79002048Y-55931095D01*
X78954429Y-56073952D01*
X78383000Y-56645381D01*
X79002048Y-56645381D01*
X79430619Y-56550143D02*
X79478238Y-56597762D01*
X79430619Y-56645381D01*
X79383000Y-56597762D01*
X79430619Y-56550143D01*
X79430619Y-56645381D01*
X79859190Y-55740619D02*
X79906809Y-55693000D01*
X80002047Y-55645381D01*
X80240143Y-55645381D01*
X80335381Y-55693000D01*
X80383000Y-55740619D01*
X80430619Y-55835857D01*
X80430619Y-55931095D01*
X80383000Y-56073952D01*
X79811571Y-56645381D01*
X80430619Y-56645381D01*
X81287762Y-55978714D02*
X81287762Y-56645381D01*
X80859190Y-55978714D02*
X80859190Y-56502524D01*
X80906809Y-56597762D01*
X81002047Y-56645381D01*
X81144905Y-56645381D01*
X81240143Y-56597762D01*
X81287762Y-56550143D01*
X51427143Y-76811143D02*
X51379524Y-76858762D01*
X51236667Y-76906381D01*
X51141429Y-76906381D01*
X50998571Y-76858762D01*
X50903333Y-76763524D01*
X50855714Y-76668286D01*
X50808095Y-76477810D01*
X50808095Y-76334952D01*
X50855714Y-76144476D01*
X50903333Y-76049238D01*
X50998571Y-75954000D01*
X51141429Y-75906381D01*
X51236667Y-75906381D01*
X51379524Y-75954000D01*
X51427143Y-76001619D01*
X51808095Y-76001619D02*
X51855714Y-75954000D01*
X51950952Y-75906381D01*
X52189048Y-75906381D01*
X52284286Y-75954000D01*
X52331905Y-76001619D01*
X52379524Y-76096857D01*
X52379524Y-76192095D01*
X52331905Y-76334952D01*
X51760476Y-76906381D01*
X52379524Y-76906381D01*
X53331905Y-76906381D02*
X52760476Y-76906381D01*
X53046190Y-76906381D02*
X53046190Y-75906381D01*
X52950952Y-76049238D01*
X52855714Y-76144476D01*
X52760476Y-76192095D01*
X47315619Y-76001619D02*
X47363238Y-75954000D01*
X47458476Y-75906381D01*
X47696572Y-75906381D01*
X47791810Y-75954000D01*
X47839429Y-76001619D01*
X47887048Y-76096857D01*
X47887048Y-76192095D01*
X47839429Y-76334952D01*
X47268000Y-76906381D01*
X47887048Y-76906381D01*
X48315619Y-76811143D02*
X48363238Y-76858762D01*
X48315619Y-76906381D01*
X48268000Y-76858762D01*
X48315619Y-76811143D01*
X48315619Y-76906381D01*
X48744190Y-76001619D02*
X48791809Y-75954000D01*
X48887047Y-75906381D01*
X49125143Y-75906381D01*
X49220381Y-75954000D01*
X49268000Y-76001619D01*
X49315619Y-76096857D01*
X49315619Y-76192095D01*
X49268000Y-76334952D01*
X48696571Y-76906381D01*
X49315619Y-76906381D01*
X50172762Y-76239714D02*
X50172762Y-76906381D01*
X49744190Y-76239714D02*
X49744190Y-76763524D01*
X49791809Y-76858762D01*
X49887047Y-76906381D01*
X50029905Y-76906381D01*
X50125143Y-76858762D01*
X50172762Y-76811143D01*
X57427905Y-55570381D02*
X57427905Y-54570381D01*
X57666000Y-54570381D01*
X57808858Y-54618000D01*
X57904096Y-54713238D01*
X57951715Y-54808476D01*
X57999334Y-54998952D01*
X57999334Y-55141810D01*
X57951715Y-55332286D01*
X57904096Y-55427524D01*
X57808858Y-55522762D01*
X57666000Y-55570381D01*
X57427905Y-55570381D01*
X58951715Y-55570381D02*
X58380286Y-55570381D01*
X58666000Y-55570381D02*
X58666000Y-54570381D01*
X58570762Y-54713238D01*
X58475524Y-54808476D01*
X58380286Y-54856095D01*
X55681905Y-50728571D02*
X55824762Y-50776190D01*
X55872381Y-50823810D01*
X55920000Y-50919048D01*
X55920000Y-51061905D01*
X55872381Y-51157143D01*
X55824762Y-51204762D01*
X55729524Y-51252381D01*
X55348571Y-51252381D01*
X55348571Y-50252381D01*
X55681905Y-50252381D01*
X55777143Y-50300000D01*
X55824762Y-50347619D01*
X55872381Y-50442857D01*
X55872381Y-50538095D01*
X55824762Y-50633333D01*
X55777143Y-50680952D01*
X55681905Y-50728571D01*
X55348571Y-50728571D01*
X56300952Y-50966667D02*
X56777143Y-50966667D01*
X56205714Y-51252381D02*
X56539047Y-50252381D01*
X56872381Y-51252381D01*
X57062857Y-50252381D02*
X57634286Y-50252381D01*
X57348571Y-51252381D02*
X57348571Y-50252381D01*
X58443810Y-50252381D02*
X57967619Y-50252381D01*
X57920000Y-50728571D01*
X57967619Y-50680952D01*
X58062857Y-50633333D01*
X58300953Y-50633333D01*
X58396191Y-50680952D01*
X58443810Y-50728571D01*
X58491429Y-50823810D01*
X58491429Y-51061905D01*
X58443810Y-51157143D01*
X58396191Y-51204762D01*
X58300953Y-51252381D01*
X58062857Y-51252381D01*
X57967619Y-51204762D01*
X57920000Y-51157143D01*
X59348572Y-50585714D02*
X59348572Y-51252381D01*
X59110476Y-50204762D02*
X58872381Y-50919048D01*
X59491429Y-50919048D01*
X59824762Y-51204762D02*
X59967619Y-51252381D01*
X60205715Y-51252381D01*
X60300953Y-51204762D01*
X60348572Y-51157143D01*
X60396191Y-51061905D01*
X60396191Y-50966667D01*
X60348572Y-50871429D01*
X60300953Y-50823810D01*
X60205715Y-50776190D01*
X60015238Y-50728571D01*
X59920000Y-50680952D01*
X59872381Y-50633333D01*
X59824762Y-50538095D01*
X59824762Y-50442857D01*
X59872381Y-50347619D01*
X59920000Y-50300000D01*
X60015238Y-50252381D01*
X60253334Y-50252381D01*
X60396191Y-50300000D01*
X60729524Y-50252381D02*
X60967619Y-51252381D01*
X61158096Y-50538095D01*
X61348572Y-51252381D01*
X61586667Y-50252381D01*
X56665905Y-74874381D02*
X56665905Y-73874381D01*
X56904000Y-73874381D01*
X57046858Y-73922000D01*
X57142096Y-74017238D01*
X57189715Y-74112476D01*
X57237334Y-74302952D01*
X57237334Y-74445810D01*
X57189715Y-74636286D01*
X57142096Y-74731524D01*
X57046858Y-74826762D01*
X56904000Y-74874381D01*
X56665905Y-74874381D01*
X57618286Y-73969619D02*
X57665905Y-73922000D01*
X57761143Y-73874381D01*
X57999239Y-73874381D01*
X58094477Y-73922000D01*
X58142096Y-73969619D01*
X58189715Y-74064857D01*
X58189715Y-74160095D01*
X58142096Y-74302952D01*
X57570667Y-74874381D01*
X58189715Y-74874381D01*
X60571143Y-72842381D02*
X60094952Y-72842381D01*
X60094952Y-71842381D01*
X60904476Y-72318571D02*
X61237810Y-72318571D01*
X61380667Y-72842381D02*
X60904476Y-72842381D01*
X60904476Y-71842381D01*
X61380667Y-71842381D01*
X61809238Y-72842381D02*
X61809238Y-71842381D01*
X62047333Y-71842381D01*
X62190191Y-71890000D01*
X62285429Y-71985238D01*
X62333048Y-72080476D01*
X62380667Y-72270952D01*
X62380667Y-72413810D01*
X62333048Y-72604286D01*
X62285429Y-72699524D01*
X62190191Y-72794762D01*
X62047333Y-72842381D01*
X61809238Y-72842381D01*
X30503905Y-75890381D02*
X30503905Y-74890381D01*
X30884858Y-74890381D01*
X30980096Y-74938000D01*
X31027715Y-74985619D01*
X31075334Y-75080857D01*
X31075334Y-75223714D01*
X31027715Y-75318952D01*
X30980096Y-75366571D01*
X30884858Y-75414190D01*
X30503905Y-75414190D01*
X32027715Y-75890381D02*
X31456286Y-75890381D01*
X31742000Y-75890381D02*
X31742000Y-74890381D01*
X31646762Y-75033238D01*
X31551524Y-75128476D01*
X31456286Y-75176095D01*
X29456286Y-74366381D02*
X29456286Y-73366381D01*
X29837239Y-73366381D01*
X29932477Y-73414000D01*
X29980096Y-73461619D01*
X30027715Y-73556857D01*
X30027715Y-73699714D01*
X29980096Y-73794952D01*
X29932477Y-73842571D01*
X29837239Y-73890190D01*
X29456286Y-73890190D01*
X31027715Y-74366381D02*
X30694381Y-73890190D01*
X30456286Y-74366381D02*
X30456286Y-73366381D01*
X30837239Y-73366381D01*
X30932477Y-73414000D01*
X30980096Y-73461619D01*
X31027715Y-73556857D01*
X31027715Y-73699714D01*
X30980096Y-73794952D01*
X30932477Y-73842571D01*
X30837239Y-73890190D01*
X30456286Y-73890190D01*
X31646762Y-73366381D02*
X31837239Y-73366381D01*
X31932477Y-73414000D01*
X32027715Y-73509238D01*
X32075334Y-73699714D01*
X32075334Y-74033048D01*
X32027715Y-74223524D01*
X31932477Y-74318762D01*
X31837239Y-74366381D01*
X31646762Y-74366381D01*
X31551524Y-74318762D01*
X31456286Y-74223524D01*
X31408667Y-74033048D01*
X31408667Y-73699714D01*
X31456286Y-73509238D01*
X31551524Y-73414000D01*
X31646762Y-73366381D01*
X33027715Y-73414000D02*
X32932477Y-73366381D01*
X32789620Y-73366381D01*
X32646762Y-73414000D01*
X32551524Y-73509238D01*
X32503905Y-73604476D01*
X32456286Y-73794952D01*
X32456286Y-73937810D01*
X32503905Y-74128286D01*
X32551524Y-74223524D01*
X32646762Y-74318762D01*
X32789620Y-74366381D01*
X32884858Y-74366381D01*
X33027715Y-74318762D01*
X33075334Y-74271143D01*
X33075334Y-73937810D01*
X32884858Y-73937810D01*
X38512762Y-60745619D02*
X38417524Y-60698000D01*
X38322286Y-60602762D01*
X38179429Y-60459905D01*
X38084190Y-60412286D01*
X37988952Y-60412286D01*
X38036571Y-60650381D02*
X37941333Y-60602762D01*
X37846095Y-60507524D01*
X37798476Y-60317048D01*
X37798476Y-59983714D01*
X37846095Y-59793238D01*
X37941333Y-59698000D01*
X38036571Y-59650381D01*
X38227048Y-59650381D01*
X38322286Y-59698000D01*
X38417524Y-59793238D01*
X38465143Y-59983714D01*
X38465143Y-60317048D01*
X38417524Y-60507524D01*
X38322286Y-60602762D01*
X38227048Y-60650381D01*
X38036571Y-60650381D01*
X39417524Y-60650381D02*
X38846095Y-60650381D01*
X39131809Y-60650381D02*
X39131809Y-59650381D01*
X39036571Y-59793238D01*
X38941333Y-59888476D01*
X38846095Y-59936095D01*
X34822286Y-61523619D02*
X34869905Y-61476000D01*
X34965143Y-61428381D01*
X35203239Y-61428381D01*
X35298477Y-61476000D01*
X35346096Y-61523619D01*
X35393715Y-61618857D01*
X35393715Y-61714095D01*
X35346096Y-61856952D01*
X34774667Y-62428381D01*
X35393715Y-62428381D01*
X35822286Y-62428381D02*
X35822286Y-61428381D01*
X36393715Y-62428381D01*
X36393715Y-61428381D01*
X36774667Y-61428381D02*
X37441334Y-61428381D01*
X37012762Y-62428381D01*
X38012762Y-61428381D02*
X38108001Y-61428381D01*
X38203239Y-61476000D01*
X38250858Y-61523619D01*
X38298477Y-61618857D01*
X38346096Y-61809333D01*
X38346096Y-62047429D01*
X38298477Y-62237905D01*
X38250858Y-62333143D01*
X38203239Y-62380762D01*
X38108001Y-62428381D01*
X38012762Y-62428381D01*
X37917524Y-62380762D01*
X37869905Y-62333143D01*
X37822286Y-62237905D01*
X37774667Y-62047429D01*
X37774667Y-61809333D01*
X37822286Y-61618857D01*
X37869905Y-61523619D01*
X37917524Y-61476000D01*
X38012762Y-61428381D01*
X38965143Y-61428381D02*
X39060382Y-61428381D01*
X39155620Y-61476000D01*
X39203239Y-61523619D01*
X39250858Y-61618857D01*
X39298477Y-61809333D01*
X39298477Y-62047429D01*
X39250858Y-62237905D01*
X39203239Y-62333143D01*
X39155620Y-62380762D01*
X39060382Y-62428381D01*
X38965143Y-62428381D01*
X38869905Y-62380762D01*
X38822286Y-62333143D01*
X38774667Y-62237905D01*
X38727048Y-62047429D01*
X38727048Y-61809333D01*
X38774667Y-61618857D01*
X38822286Y-61523619D01*
X38869905Y-61476000D01*
X38965143Y-61428381D01*
X39679429Y-61523619D02*
X39727048Y-61476000D01*
X39822286Y-61428381D01*
X40060382Y-61428381D01*
X40155620Y-61476000D01*
X40203239Y-61523619D01*
X40250858Y-61618857D01*
X40250858Y-61714095D01*
X40203239Y-61856952D01*
X39631810Y-62428381D01*
X40250858Y-62428381D01*
X40679429Y-62428381D02*
X40679429Y-61428381D01*
X41250858Y-62428381D02*
X40822286Y-61856952D01*
X41250858Y-61428381D02*
X40679429Y-61999810D01*
X41584191Y-61428381D02*
X41822286Y-62428381D01*
X42012763Y-61714095D01*
X42203239Y-62428381D01*
X42441334Y-61428381D01*
X45370762Y-61253619D02*
X45275524Y-61206000D01*
X45180286Y-61110762D01*
X45037429Y-60967905D01*
X44942190Y-60920286D01*
X44846952Y-60920286D01*
X44894571Y-61158381D02*
X44799333Y-61110762D01*
X44704095Y-61015524D01*
X44656476Y-60825048D01*
X44656476Y-60491714D01*
X44704095Y-60301238D01*
X44799333Y-60206000D01*
X44894571Y-60158381D01*
X45085048Y-60158381D01*
X45180286Y-60206000D01*
X45275524Y-60301238D01*
X45323143Y-60491714D01*
X45323143Y-60825048D01*
X45275524Y-61015524D01*
X45180286Y-61110762D01*
X45085048Y-61158381D01*
X44894571Y-61158381D01*
X45704095Y-60253619D02*
X45751714Y-60206000D01*
X45846952Y-60158381D01*
X46085048Y-60158381D01*
X46180286Y-60206000D01*
X46227905Y-60253619D01*
X46275524Y-60348857D01*
X46275524Y-60444095D01*
X46227905Y-60586952D01*
X45656476Y-61158381D01*
X46275524Y-61158381D01*
X44331239Y-62412571D02*
X44474096Y-62460190D01*
X44521715Y-62507810D01*
X44569334Y-62603048D01*
X44569334Y-62745905D01*
X44521715Y-62841143D01*
X44474096Y-62888762D01*
X44378858Y-62936381D01*
X43997905Y-62936381D01*
X43997905Y-61936381D01*
X44331239Y-61936381D01*
X44426477Y-61984000D01*
X44474096Y-62031619D01*
X44521715Y-62126857D01*
X44521715Y-62222095D01*
X44474096Y-62317333D01*
X44426477Y-62364952D01*
X44331239Y-62412571D01*
X43997905Y-62412571D01*
X44950286Y-62888762D02*
X45093143Y-62936381D01*
X45331239Y-62936381D01*
X45426477Y-62888762D01*
X45474096Y-62841143D01*
X45521715Y-62745905D01*
X45521715Y-62650667D01*
X45474096Y-62555429D01*
X45426477Y-62507810D01*
X45331239Y-62460190D01*
X45140762Y-62412571D01*
X45045524Y-62364952D01*
X44997905Y-62317333D01*
X44950286Y-62222095D01*
X44950286Y-62126857D01*
X44997905Y-62031619D01*
X45045524Y-61984000D01*
X45140762Y-61936381D01*
X45378858Y-61936381D01*
X45521715Y-61984000D01*
X45902667Y-62888762D02*
X46045524Y-62936381D01*
X46283620Y-62936381D01*
X46378858Y-62888762D01*
X46426477Y-62841143D01*
X46474096Y-62745905D01*
X46474096Y-62650667D01*
X46426477Y-62555429D01*
X46378858Y-62507810D01*
X46283620Y-62460190D01*
X46093143Y-62412571D01*
X45997905Y-62364952D01*
X45950286Y-62317333D01*
X45902667Y-62222095D01*
X45902667Y-62126857D01*
X45950286Y-62031619D01*
X45997905Y-61984000D01*
X46093143Y-61936381D01*
X46331239Y-61936381D01*
X46474096Y-61984000D01*
X47045524Y-62364952D02*
X46950286Y-62317333D01*
X46902667Y-62269714D01*
X46855048Y-62174476D01*
X46855048Y-62126857D01*
X46902667Y-62031619D01*
X46950286Y-61984000D01*
X47045524Y-61936381D01*
X47236001Y-61936381D01*
X47331239Y-61984000D01*
X47378858Y-62031619D01*
X47426477Y-62126857D01*
X47426477Y-62174476D01*
X47378858Y-62269714D01*
X47331239Y-62317333D01*
X47236001Y-62364952D01*
X47045524Y-62364952D01*
X46950286Y-62412571D01*
X46902667Y-62460190D01*
X46855048Y-62555429D01*
X46855048Y-62745905D01*
X46902667Y-62841143D01*
X46950286Y-62888762D01*
X47045524Y-62936381D01*
X47236001Y-62936381D01*
X47331239Y-62888762D01*
X47378858Y-62841143D01*
X47426477Y-62745905D01*
X47426477Y-62555429D01*
X47378858Y-62460190D01*
X47331239Y-62412571D01*
X47236001Y-62364952D01*
X48283620Y-62269714D02*
X48283620Y-62936381D01*
X48045524Y-61888762D02*
X47807429Y-62603048D01*
X48426477Y-62603048D01*
X48712191Y-61936381D02*
X48950286Y-62936381D01*
X49140763Y-62222095D01*
X49331239Y-62936381D01*
X49569334Y-61936381D01*
X51974762Y-62015619D02*
X51879524Y-61968000D01*
X51784286Y-61872762D01*
X51641429Y-61729905D01*
X51546190Y-61682286D01*
X51450952Y-61682286D01*
X51498571Y-61920381D02*
X51403333Y-61872762D01*
X51308095Y-61777524D01*
X51260476Y-61587048D01*
X51260476Y-61253714D01*
X51308095Y-61063238D01*
X51403333Y-60968000D01*
X51498571Y-60920381D01*
X51689048Y-60920381D01*
X51784286Y-60968000D01*
X51879524Y-61063238D01*
X51927143Y-61253714D01*
X51927143Y-61587048D01*
X51879524Y-61777524D01*
X51784286Y-61872762D01*
X51689048Y-61920381D01*
X51498571Y-61920381D01*
X52260476Y-60920381D02*
X52879524Y-60920381D01*
X52546190Y-61301333D01*
X52689048Y-61301333D01*
X52784286Y-61348952D01*
X52831905Y-61396571D01*
X52879524Y-61491810D01*
X52879524Y-61729905D01*
X52831905Y-61825143D01*
X52784286Y-61872762D01*
X52689048Y-61920381D01*
X52403333Y-61920381D01*
X52308095Y-61872762D01*
X52260476Y-61825143D01*
X49173143Y-58078667D02*
X49649334Y-58078667D01*
X49077905Y-58364381D02*
X49411238Y-57364381D01*
X49744572Y-58364381D01*
X50077905Y-58364381D02*
X50077905Y-57364381D01*
X50458858Y-57364381D01*
X50554096Y-57412000D01*
X50601715Y-57459619D01*
X50649334Y-57554857D01*
X50649334Y-57697714D01*
X50601715Y-57792952D01*
X50554096Y-57840571D01*
X50458858Y-57888190D01*
X50077905Y-57888190D01*
X51030286Y-57459619D02*
X51077905Y-57412000D01*
X51173143Y-57364381D01*
X51411239Y-57364381D01*
X51506477Y-57412000D01*
X51554096Y-57459619D01*
X51601715Y-57554857D01*
X51601715Y-57650095D01*
X51554096Y-57792952D01*
X50982667Y-58364381D01*
X51601715Y-58364381D01*
X51935048Y-57364381D02*
X52554096Y-57364381D01*
X52220762Y-57745333D01*
X52363620Y-57745333D01*
X52458858Y-57792952D01*
X52506477Y-57840571D01*
X52554096Y-57935810D01*
X52554096Y-58173905D01*
X52506477Y-58269143D01*
X52458858Y-58316762D01*
X52363620Y-58364381D01*
X52077905Y-58364381D01*
X51982667Y-58316762D01*
X51935048Y-58269143D01*
X53173143Y-57364381D02*
X53268382Y-57364381D01*
X53363620Y-57412000D01*
X53411239Y-57459619D01*
X53458858Y-57554857D01*
X53506477Y-57745333D01*
X53506477Y-57983429D01*
X53458858Y-58173905D01*
X53411239Y-58269143D01*
X53363620Y-58316762D01*
X53268382Y-58364381D01*
X53173143Y-58364381D01*
X53077905Y-58316762D01*
X53030286Y-58269143D01*
X52982667Y-58173905D01*
X52935048Y-57983429D01*
X52935048Y-57745333D01*
X52982667Y-57554857D01*
X53030286Y-57459619D01*
X53077905Y-57412000D01*
X53173143Y-57364381D01*
X54411239Y-57364381D02*
X53935048Y-57364381D01*
X53887429Y-57840571D01*
X53935048Y-57792952D01*
X54030286Y-57745333D01*
X54268382Y-57745333D01*
X54363620Y-57792952D01*
X54411239Y-57840571D01*
X54458858Y-57935810D01*
X54458858Y-58173905D01*
X54411239Y-58269143D01*
X54363620Y-58316762D01*
X54268382Y-58364381D01*
X54030286Y-58364381D01*
X53935048Y-58316762D01*
X53887429Y-58269143D01*
X108362762Y-48299619D02*
X108267524Y-48252000D01*
X108172286Y-48156762D01*
X108029429Y-48013905D01*
X107934190Y-47966286D01*
X107838952Y-47966286D01*
X107886571Y-48204381D02*
X107791333Y-48156762D01*
X107696095Y-48061524D01*
X107648476Y-47871048D01*
X107648476Y-47537714D01*
X107696095Y-47347238D01*
X107791333Y-47252000D01*
X107886571Y-47204381D01*
X108077048Y-47204381D01*
X108172286Y-47252000D01*
X108267524Y-47347238D01*
X108315143Y-47537714D01*
X108315143Y-47871048D01*
X108267524Y-48061524D01*
X108172286Y-48156762D01*
X108077048Y-48204381D01*
X107886571Y-48204381D01*
X109172286Y-47537714D02*
X109172286Y-48204381D01*
X108934190Y-47156762D02*
X108696095Y-47871048D01*
X109315143Y-47871048D01*
X105799239Y-43616571D02*
X105942096Y-43664190D01*
X105989715Y-43711810D01*
X106037334Y-43807048D01*
X106037334Y-43949905D01*
X105989715Y-44045143D01*
X105942096Y-44092762D01*
X105846858Y-44140381D01*
X105465905Y-44140381D01*
X105465905Y-43140381D01*
X105799239Y-43140381D01*
X105894477Y-43188000D01*
X105942096Y-43235619D01*
X105989715Y-43330857D01*
X105989715Y-43426095D01*
X105942096Y-43521333D01*
X105894477Y-43568952D01*
X105799239Y-43616571D01*
X105465905Y-43616571D01*
X106418286Y-44092762D02*
X106561143Y-44140381D01*
X106799239Y-44140381D01*
X106894477Y-44092762D01*
X106942096Y-44045143D01*
X106989715Y-43949905D01*
X106989715Y-43854667D01*
X106942096Y-43759429D01*
X106894477Y-43711810D01*
X106799239Y-43664190D01*
X106608762Y-43616571D01*
X106513524Y-43568952D01*
X106465905Y-43521333D01*
X106418286Y-43426095D01*
X106418286Y-43330857D01*
X106465905Y-43235619D01*
X106513524Y-43188000D01*
X106608762Y-43140381D01*
X106846858Y-43140381D01*
X106989715Y-43188000D01*
X107370667Y-44092762D02*
X107513524Y-44140381D01*
X107751620Y-44140381D01*
X107846858Y-44092762D01*
X107894477Y-44045143D01*
X107942096Y-43949905D01*
X107942096Y-43854667D01*
X107894477Y-43759429D01*
X107846858Y-43711810D01*
X107751620Y-43664190D01*
X107561143Y-43616571D01*
X107465905Y-43568952D01*
X107418286Y-43521333D01*
X107370667Y-43426095D01*
X107370667Y-43330857D01*
X107418286Y-43235619D01*
X107465905Y-43188000D01*
X107561143Y-43140381D01*
X107799239Y-43140381D01*
X107942096Y-43188000D01*
X108513524Y-43568952D02*
X108418286Y-43521333D01*
X108370667Y-43473714D01*
X108323048Y-43378476D01*
X108323048Y-43330857D01*
X108370667Y-43235619D01*
X108418286Y-43188000D01*
X108513524Y-43140381D01*
X108704001Y-43140381D01*
X108799239Y-43188000D01*
X108846858Y-43235619D01*
X108894477Y-43330857D01*
X108894477Y-43378476D01*
X108846858Y-43473714D01*
X108799239Y-43521333D01*
X108704001Y-43568952D01*
X108513524Y-43568952D01*
X108418286Y-43616571D01*
X108370667Y-43664190D01*
X108323048Y-43759429D01*
X108323048Y-43949905D01*
X108370667Y-44045143D01*
X108418286Y-44092762D01*
X108513524Y-44140381D01*
X108704001Y-44140381D01*
X108799239Y-44092762D01*
X108846858Y-44045143D01*
X108894477Y-43949905D01*
X108894477Y-43759429D01*
X108846858Y-43664190D01*
X108799239Y-43616571D01*
X108704001Y-43568952D01*
X109751620Y-43473714D02*
X109751620Y-44140381D01*
X109513524Y-43092762D02*
X109275429Y-43807048D01*
X109894477Y-43807048D01*
X110180191Y-43140381D02*
X110418286Y-44140381D01*
X110608763Y-43426095D01*
X110799239Y-44140381D01*
X111037334Y-43140381D01*
X66198762Y-55411619D02*
X66103524Y-55364000D01*
X66008286Y-55268762D01*
X65865429Y-55125905D01*
X65770190Y-55078286D01*
X65674952Y-55078286D01*
X65722571Y-55316381D02*
X65627333Y-55268762D01*
X65532095Y-55173524D01*
X65484476Y-54983048D01*
X65484476Y-54649714D01*
X65532095Y-54459238D01*
X65627333Y-54364000D01*
X65722571Y-54316381D01*
X65913048Y-54316381D01*
X66008286Y-54364000D01*
X66103524Y-54459238D01*
X66151143Y-54649714D01*
X66151143Y-54983048D01*
X66103524Y-55173524D01*
X66008286Y-55268762D01*
X65913048Y-55316381D01*
X65722571Y-55316381D01*
X67055905Y-54316381D02*
X66579714Y-54316381D01*
X66532095Y-54792571D01*
X66579714Y-54744952D01*
X66674952Y-54697333D01*
X66913048Y-54697333D01*
X67008286Y-54744952D01*
X67055905Y-54792571D01*
X67103524Y-54887810D01*
X67103524Y-55125905D01*
X67055905Y-55221143D01*
X67008286Y-55268762D01*
X66913048Y-55316381D01*
X66674952Y-55316381D01*
X66579714Y-55268762D01*
X66532095Y-55221143D01*
X67842286Y-54411619D02*
X67889905Y-54364000D01*
X67985143Y-54316381D01*
X68223239Y-54316381D01*
X68318477Y-54364000D01*
X68366096Y-54411619D01*
X68413715Y-54506857D01*
X68413715Y-54602095D01*
X68366096Y-54744952D01*
X67794667Y-55316381D01*
X68413715Y-55316381D01*
X68842286Y-55316381D02*
X68842286Y-54316381D01*
X69413715Y-55316381D01*
X69413715Y-54316381D01*
X69794667Y-54316381D02*
X70461334Y-54316381D01*
X70032762Y-55316381D01*
X71032762Y-54316381D02*
X71128001Y-54316381D01*
X71223239Y-54364000D01*
X71270858Y-54411619D01*
X71318477Y-54506857D01*
X71366096Y-54697333D01*
X71366096Y-54935429D01*
X71318477Y-55125905D01*
X71270858Y-55221143D01*
X71223239Y-55268762D01*
X71128001Y-55316381D01*
X71032762Y-55316381D01*
X70937524Y-55268762D01*
X70889905Y-55221143D01*
X70842286Y-55125905D01*
X70794667Y-54935429D01*
X70794667Y-54697333D01*
X70842286Y-54506857D01*
X70889905Y-54411619D01*
X70937524Y-54364000D01*
X71032762Y-54316381D01*
X71985143Y-54316381D02*
X72080382Y-54316381D01*
X72175620Y-54364000D01*
X72223239Y-54411619D01*
X72270858Y-54506857D01*
X72318477Y-54697333D01*
X72318477Y-54935429D01*
X72270858Y-55125905D01*
X72223239Y-55221143D01*
X72175620Y-55268762D01*
X72080382Y-55316381D01*
X71985143Y-55316381D01*
X71889905Y-55268762D01*
X71842286Y-55221143D01*
X71794667Y-55125905D01*
X71747048Y-54935429D01*
X71747048Y-54697333D01*
X71794667Y-54506857D01*
X71842286Y-54411619D01*
X71889905Y-54364000D01*
X71985143Y-54316381D01*
X72699429Y-54411619D02*
X72747048Y-54364000D01*
X72842286Y-54316381D01*
X73080382Y-54316381D01*
X73175620Y-54364000D01*
X73223239Y-54411619D01*
X73270858Y-54506857D01*
X73270858Y-54602095D01*
X73223239Y-54744952D01*
X72651810Y-55316381D01*
X73270858Y-55316381D01*
X73699429Y-55316381D02*
X73699429Y-54316381D01*
X74270858Y-55316381D02*
X73842286Y-54744952D01*
X74270858Y-54316381D02*
X73699429Y-54887810D01*
X74604191Y-54316381D02*
X74842286Y-55316381D01*
X75032763Y-54602095D01*
X75223239Y-55316381D01*
X75461334Y-54316381D01*
X95154762Y-43219619D02*
X95059524Y-43172000D01*
X94964286Y-43076762D01*
X94821429Y-42933905D01*
X94726190Y-42886286D01*
X94630952Y-42886286D01*
X94678571Y-43124381D02*
X94583333Y-43076762D01*
X94488095Y-42981524D01*
X94440476Y-42791048D01*
X94440476Y-42457714D01*
X94488095Y-42267238D01*
X94583333Y-42172000D01*
X94678571Y-42124381D01*
X94869048Y-42124381D01*
X94964286Y-42172000D01*
X95059524Y-42267238D01*
X95107143Y-42457714D01*
X95107143Y-42791048D01*
X95059524Y-42981524D01*
X94964286Y-43076762D01*
X94869048Y-43124381D01*
X94678571Y-43124381D01*
X95440476Y-42124381D02*
X96107143Y-42124381D01*
X95678571Y-43124381D01*
X91464286Y-46283619D02*
X91511905Y-46236000D01*
X91607143Y-46188381D01*
X91845239Y-46188381D01*
X91940477Y-46236000D01*
X91988096Y-46283619D01*
X92035715Y-46378857D01*
X92035715Y-46474095D01*
X91988096Y-46616952D01*
X91416667Y-47188381D01*
X92035715Y-47188381D01*
X92464286Y-47188381D02*
X92464286Y-46188381D01*
X93035715Y-47188381D01*
X93035715Y-46188381D01*
X93416667Y-46188381D02*
X94083334Y-46188381D01*
X93654762Y-47188381D01*
X94654762Y-46188381D02*
X94750001Y-46188381D01*
X94845239Y-46236000D01*
X94892858Y-46283619D01*
X94940477Y-46378857D01*
X94988096Y-46569333D01*
X94988096Y-46807429D01*
X94940477Y-46997905D01*
X94892858Y-47093143D01*
X94845239Y-47140762D01*
X94750001Y-47188381D01*
X94654762Y-47188381D01*
X94559524Y-47140762D01*
X94511905Y-47093143D01*
X94464286Y-46997905D01*
X94416667Y-46807429D01*
X94416667Y-46569333D01*
X94464286Y-46378857D01*
X94511905Y-46283619D01*
X94559524Y-46236000D01*
X94654762Y-46188381D01*
X95607143Y-46188381D02*
X95702382Y-46188381D01*
X95797620Y-46236000D01*
X95845239Y-46283619D01*
X95892858Y-46378857D01*
X95940477Y-46569333D01*
X95940477Y-46807429D01*
X95892858Y-46997905D01*
X95845239Y-47093143D01*
X95797620Y-47140762D01*
X95702382Y-47188381D01*
X95607143Y-47188381D01*
X95511905Y-47140762D01*
X95464286Y-47093143D01*
X95416667Y-46997905D01*
X95369048Y-46807429D01*
X95369048Y-46569333D01*
X95416667Y-46378857D01*
X95464286Y-46283619D01*
X95511905Y-46236000D01*
X95607143Y-46188381D01*
X96321429Y-46283619D02*
X96369048Y-46236000D01*
X96464286Y-46188381D01*
X96702382Y-46188381D01*
X96797620Y-46236000D01*
X96845239Y-46283619D01*
X96892858Y-46378857D01*
X96892858Y-46474095D01*
X96845239Y-46616952D01*
X96273810Y-47188381D01*
X96892858Y-47188381D01*
X97321429Y-47188381D02*
X97321429Y-46188381D01*
X97892858Y-47188381D02*
X97464286Y-46616952D01*
X97892858Y-46188381D02*
X97321429Y-46759810D01*
X98226191Y-46188381D02*
X98464286Y-47188381D01*
X98654763Y-46474095D01*
X98845239Y-47188381D01*
X99083334Y-46188381D01*
X42505334Y-55062381D02*
X42172000Y-54586190D01*
X41933905Y-55062381D02*
X41933905Y-54062381D01*
X42314858Y-54062381D01*
X42410096Y-54110000D01*
X42457715Y-54157619D01*
X42505334Y-54252857D01*
X42505334Y-54395714D01*
X42457715Y-54490952D01*
X42410096Y-54538571D01*
X42314858Y-54586190D01*
X41933905Y-54586190D01*
X43457715Y-55062381D02*
X42886286Y-55062381D01*
X43172000Y-55062381D02*
X43172000Y-54062381D01*
X43076762Y-54205238D01*
X42981524Y-54300476D01*
X42886286Y-54348095D01*
X44251714Y-54062381D02*
X44870762Y-54062381D01*
X44537428Y-54443333D01*
X44680286Y-54443333D01*
X44775524Y-54490952D01*
X44823143Y-54538571D01*
X44870762Y-54633810D01*
X44870762Y-54871905D01*
X44823143Y-54967143D01*
X44775524Y-55014762D01*
X44680286Y-55062381D01*
X44394571Y-55062381D01*
X44299333Y-55014762D01*
X44251714Y-54967143D01*
X45204095Y-54062381D02*
X45823143Y-54062381D01*
X45489809Y-54443333D01*
X45632667Y-54443333D01*
X45727905Y-54490952D01*
X45775524Y-54538571D01*
X45823143Y-54633810D01*
X45823143Y-54871905D01*
X45775524Y-54967143D01*
X45727905Y-55014762D01*
X45632667Y-55062381D01*
X45346952Y-55062381D01*
X45251714Y-55014762D01*
X45204095Y-54967143D01*
X46251714Y-55062381D02*
X46251714Y-54062381D01*
X46346952Y-54681429D02*
X46632667Y-55062381D01*
X46632667Y-54395714D02*
X46251714Y-54776667D01*
X55967334Y-61920381D02*
X55634000Y-61444190D01*
X55395905Y-61920381D02*
X55395905Y-60920381D01*
X55776858Y-60920381D01*
X55872096Y-60968000D01*
X55919715Y-61015619D01*
X55967334Y-61110857D01*
X55967334Y-61253714D01*
X55919715Y-61348952D01*
X55872096Y-61396571D01*
X55776858Y-61444190D01*
X55395905Y-61444190D01*
X56348286Y-61015619D02*
X56395905Y-60968000D01*
X56491143Y-60920381D01*
X56729239Y-60920381D01*
X56824477Y-60968000D01*
X56872096Y-61015619D01*
X56919715Y-61110857D01*
X56919715Y-61206095D01*
X56872096Y-61348952D01*
X56300667Y-61920381D01*
X56919715Y-61920381D01*
X54411714Y-54824381D02*
X55030762Y-54824381D01*
X54697428Y-55205333D01*
X54840286Y-55205333D01*
X54935524Y-55252952D01*
X54983143Y-55300571D01*
X55030762Y-55395810D01*
X55030762Y-55633905D01*
X54983143Y-55729143D01*
X54935524Y-55776762D01*
X54840286Y-55824381D01*
X54554571Y-55824381D01*
X54459333Y-55776762D01*
X54411714Y-55729143D01*
X55364095Y-54824381D02*
X55983143Y-54824381D01*
X55649809Y-55205333D01*
X55792667Y-55205333D01*
X55887905Y-55252952D01*
X55935524Y-55300571D01*
X55983143Y-55395810D01*
X55983143Y-55633905D01*
X55935524Y-55729143D01*
X55887905Y-55776762D01*
X55792667Y-55824381D01*
X55506952Y-55824381D01*
X55411714Y-55776762D01*
X55364095Y-55729143D01*
X56411714Y-55824381D02*
X56411714Y-54824381D01*
X56506952Y-55443429D02*
X56792667Y-55824381D01*
X56792667Y-55157714D02*
X56411714Y-55538667D01*
X93051334Y-38044381D02*
X92718000Y-37568190D01*
X92479905Y-38044381D02*
X92479905Y-37044381D01*
X92860858Y-37044381D01*
X92956096Y-37092000D01*
X93003715Y-37139619D01*
X93051334Y-37234857D01*
X93051334Y-37377714D01*
X93003715Y-37472952D01*
X92956096Y-37520571D01*
X92860858Y-37568190D01*
X92479905Y-37568190D01*
X93384667Y-37044381D02*
X94003715Y-37044381D01*
X93670381Y-37425333D01*
X93813239Y-37425333D01*
X93908477Y-37472952D01*
X93956096Y-37520571D01*
X94003715Y-37615810D01*
X94003715Y-37853905D01*
X93956096Y-37949143D01*
X93908477Y-37996762D01*
X93813239Y-38044381D01*
X93527524Y-38044381D01*
X93432286Y-37996762D01*
X93384667Y-37949143D01*
X99512572Y-39568381D02*
X98941143Y-39568381D01*
X99226857Y-39568381D02*
X99226857Y-38568381D01*
X99131619Y-38711238D01*
X99036381Y-38806476D01*
X98941143Y-38854095D01*
X100131619Y-38568381D02*
X100226858Y-38568381D01*
X100322096Y-38616000D01*
X100369715Y-38663619D01*
X100417334Y-38758857D01*
X100464953Y-38949333D01*
X100464953Y-39187429D01*
X100417334Y-39377905D01*
X100369715Y-39473143D01*
X100322096Y-39520762D01*
X100226858Y-39568381D01*
X100131619Y-39568381D01*
X100036381Y-39520762D01*
X99988762Y-39473143D01*
X99941143Y-39377905D01*
X99893524Y-39187429D01*
X99893524Y-38949333D01*
X99941143Y-38758857D01*
X99988762Y-38663619D01*
X100036381Y-38616000D01*
X100131619Y-38568381D01*
X101084000Y-38568381D02*
X101179239Y-38568381D01*
X101274477Y-38616000D01*
X101322096Y-38663619D01*
X101369715Y-38758857D01*
X101417334Y-38949333D01*
X101417334Y-39187429D01*
X101369715Y-39377905D01*
X101322096Y-39473143D01*
X101274477Y-39520762D01*
X101179239Y-39568381D01*
X101084000Y-39568381D01*
X100988762Y-39520762D01*
X100941143Y-39473143D01*
X100893524Y-39377905D01*
X100845905Y-39187429D01*
X100845905Y-38949333D01*
X100893524Y-38758857D01*
X100941143Y-38663619D01*
X100988762Y-38616000D01*
X101084000Y-38568381D01*
X101845905Y-39568381D02*
X101845905Y-38568381D01*
X101941143Y-39187429D02*
X102226858Y-39568381D01*
X102226858Y-38901714D02*
X101845905Y-39282667D01*
X102068334Y-48145381D02*
X101735000Y-47669190D01*
X101496905Y-48145381D02*
X101496905Y-47145381D01*
X101877858Y-47145381D01*
X101973096Y-47193000D01*
X102020715Y-47240619D01*
X102068334Y-47335857D01*
X102068334Y-47478714D01*
X102020715Y-47573952D01*
X101973096Y-47621571D01*
X101877858Y-47669190D01*
X101496905Y-47669190D01*
X102925477Y-47478714D02*
X102925477Y-48145381D01*
X102687381Y-47097762D02*
X102449286Y-47812048D01*
X103068334Y-47812048D01*
X101163572Y-43945381D02*
X100592143Y-43945381D01*
X100877857Y-43945381D02*
X100877857Y-42945381D01*
X100782619Y-43088238D01*
X100687381Y-43183476D01*
X100592143Y-43231095D01*
X101782619Y-42945381D02*
X101877858Y-42945381D01*
X101973096Y-42993000D01*
X102020715Y-43040619D01*
X102068334Y-43135857D01*
X102115953Y-43326333D01*
X102115953Y-43564429D01*
X102068334Y-43754905D01*
X102020715Y-43850143D01*
X101973096Y-43897762D01*
X101877858Y-43945381D01*
X101782619Y-43945381D01*
X101687381Y-43897762D01*
X101639762Y-43850143D01*
X101592143Y-43754905D01*
X101544524Y-43564429D01*
X101544524Y-43326333D01*
X101592143Y-43135857D01*
X101639762Y-43040619D01*
X101687381Y-42993000D01*
X101782619Y-42945381D01*
X102735000Y-42945381D02*
X102830239Y-42945381D01*
X102925477Y-42993000D01*
X102973096Y-43040619D01*
X103020715Y-43135857D01*
X103068334Y-43326333D01*
X103068334Y-43564429D01*
X103020715Y-43754905D01*
X102973096Y-43850143D01*
X102925477Y-43897762D01*
X102830239Y-43945381D01*
X102735000Y-43945381D01*
X102639762Y-43897762D01*
X102592143Y-43850143D01*
X102544524Y-43754905D01*
X102496905Y-43564429D01*
X102496905Y-43326333D01*
X102544524Y-43135857D01*
X102592143Y-43040619D01*
X102639762Y-42993000D01*
X102735000Y-42945381D01*
X103496905Y-43945381D02*
X103496905Y-42945381D01*
X103592143Y-43564429D02*
X103877858Y-43945381D01*
X103877858Y-43278714D02*
X103496905Y-43659667D01*
X94956334Y-55257381D02*
X94623000Y-54781190D01*
X94384905Y-55257381D02*
X94384905Y-54257381D01*
X94765858Y-54257381D01*
X94861096Y-54305000D01*
X94908715Y-54352619D01*
X94956334Y-54447857D01*
X94956334Y-54590714D01*
X94908715Y-54685952D01*
X94861096Y-54733571D01*
X94765858Y-54781190D01*
X94384905Y-54781190D01*
X95861096Y-54257381D02*
X95384905Y-54257381D01*
X95337286Y-54733571D01*
X95384905Y-54685952D01*
X95480143Y-54638333D01*
X95718239Y-54638333D01*
X95813477Y-54685952D01*
X95861096Y-54733571D01*
X95908715Y-54828810D01*
X95908715Y-55066905D01*
X95861096Y-55162143D01*
X95813477Y-55209762D01*
X95718239Y-55257381D01*
X95480143Y-55257381D01*
X95384905Y-55209762D01*
X95337286Y-55162143D01*
X94051572Y-51057381D02*
X93480143Y-51057381D01*
X93765857Y-51057381D02*
X93765857Y-50057381D01*
X93670619Y-50200238D01*
X93575381Y-50295476D01*
X93480143Y-50343095D01*
X94670619Y-50057381D02*
X94765858Y-50057381D01*
X94861096Y-50105000D01*
X94908715Y-50152619D01*
X94956334Y-50247857D01*
X95003953Y-50438333D01*
X95003953Y-50676429D01*
X94956334Y-50866905D01*
X94908715Y-50962143D01*
X94861096Y-51009762D01*
X94765858Y-51057381D01*
X94670619Y-51057381D01*
X94575381Y-51009762D01*
X94527762Y-50962143D01*
X94480143Y-50866905D01*
X94432524Y-50676429D01*
X94432524Y-50438333D01*
X94480143Y-50247857D01*
X94527762Y-50152619D01*
X94575381Y-50105000D01*
X94670619Y-50057381D01*
X95623000Y-50057381D02*
X95718239Y-50057381D01*
X95813477Y-50105000D01*
X95861096Y-50152619D01*
X95908715Y-50247857D01*
X95956334Y-50438333D01*
X95956334Y-50676429D01*
X95908715Y-50866905D01*
X95861096Y-50962143D01*
X95813477Y-51009762D01*
X95718239Y-51057381D01*
X95623000Y-51057381D01*
X95527762Y-51009762D01*
X95480143Y-50962143D01*
X95432524Y-50866905D01*
X95384905Y-50676429D01*
X95384905Y-50438333D01*
X95432524Y-50247857D01*
X95480143Y-50152619D01*
X95527762Y-50105000D01*
X95623000Y-50057381D01*
X96384905Y-51057381D02*
X96384905Y-50057381D01*
X96480143Y-50676429D02*
X96765858Y-51057381D01*
X96765858Y-50390714D02*
X96384905Y-50771667D01*
X72731334Y-56840381D02*
X72398000Y-56364190D01*
X72159905Y-56840381D02*
X72159905Y-55840381D01*
X72540858Y-55840381D01*
X72636096Y-55888000D01*
X72683715Y-55935619D01*
X72731334Y-56030857D01*
X72731334Y-56173714D01*
X72683715Y-56268952D01*
X72636096Y-56316571D01*
X72540858Y-56364190D01*
X72159905Y-56364190D01*
X73588477Y-55840381D02*
X73398000Y-55840381D01*
X73302762Y-55888000D01*
X73255143Y-55935619D01*
X73159905Y-56078476D01*
X73112286Y-56268952D01*
X73112286Y-56649905D01*
X73159905Y-56745143D01*
X73207524Y-56792762D01*
X73302762Y-56840381D01*
X73493239Y-56840381D01*
X73588477Y-56792762D01*
X73636096Y-56745143D01*
X73683715Y-56649905D01*
X73683715Y-56411810D01*
X73636096Y-56316571D01*
X73588477Y-56268952D01*
X73493239Y-56221333D01*
X73302762Y-56221333D01*
X73207524Y-56268952D01*
X73159905Y-56316571D01*
X73112286Y-56411810D01*
X75001524Y-55935619D02*
X75049143Y-55888000D01*
X75144381Y-55840381D01*
X75382477Y-55840381D01*
X75477715Y-55888000D01*
X75525334Y-55935619D01*
X75572953Y-56030857D01*
X75572953Y-56126095D01*
X75525334Y-56268952D01*
X74953905Y-56840381D01*
X75572953Y-56840381D01*
X76001524Y-56840381D02*
X76001524Y-55840381D01*
X76096762Y-56459429D02*
X76382477Y-56840381D01*
X76382477Y-56173714D02*
X76001524Y-56554667D01*
X57237334Y-67254381D02*
X56904000Y-66778190D01*
X56665905Y-67254381D02*
X56665905Y-66254381D01*
X57046858Y-66254381D01*
X57142096Y-66302000D01*
X57189715Y-66349619D01*
X57237334Y-66444857D01*
X57237334Y-66587714D01*
X57189715Y-66682952D01*
X57142096Y-66730571D01*
X57046858Y-66778190D01*
X56665905Y-66778190D01*
X57570667Y-66254381D02*
X58237334Y-66254381D01*
X57808762Y-67254381D01*
X60452096Y-68365714D02*
X60452096Y-69032381D01*
X60214000Y-67984762D02*
X59975905Y-68699048D01*
X60594953Y-68699048D01*
X60880667Y-68032381D02*
X61547334Y-68032381D01*
X61118762Y-69032381D01*
X62118762Y-68032381D02*
X62214001Y-68032381D01*
X62309239Y-68080000D01*
X62356858Y-68127619D01*
X62404477Y-68222857D01*
X62452096Y-68413333D01*
X62452096Y-68651429D01*
X62404477Y-68841905D01*
X62356858Y-68937143D01*
X62309239Y-68984762D01*
X62214001Y-69032381D01*
X62118762Y-69032381D01*
X62023524Y-68984762D01*
X61975905Y-68937143D01*
X61928286Y-68841905D01*
X61880667Y-68651429D01*
X61880667Y-68413333D01*
X61928286Y-68222857D01*
X61975905Y-68127619D01*
X62023524Y-68080000D01*
X62118762Y-68032381D01*
X26868381Y-67730666D02*
X26392190Y-68064000D01*
X26868381Y-68302095D02*
X25868381Y-68302095D01*
X25868381Y-67921142D01*
X25916000Y-67825904D01*
X25963619Y-67778285D01*
X26058857Y-67730666D01*
X26201714Y-67730666D01*
X26296952Y-67778285D01*
X26344571Y-67825904D01*
X26392190Y-67921142D01*
X26392190Y-68302095D01*
X26296952Y-67159238D02*
X26249333Y-67254476D01*
X26201714Y-67302095D01*
X26106476Y-67349714D01*
X26058857Y-67349714D01*
X25963619Y-67302095D01*
X25916000Y-67254476D01*
X25868381Y-67159238D01*
X25868381Y-66968761D01*
X25916000Y-66873523D01*
X25963619Y-66825904D01*
X26058857Y-66778285D01*
X26106476Y-66778285D01*
X26201714Y-66825904D01*
X26249333Y-66873523D01*
X26296952Y-66968761D01*
X26296952Y-67159238D01*
X26344571Y-67254476D01*
X26392190Y-67302095D01*
X26487429Y-67349714D01*
X26677905Y-67349714D01*
X26773143Y-67302095D01*
X26820762Y-67254476D01*
X26868381Y-67159238D01*
X26868381Y-66968761D01*
X26820762Y-66873523D01*
X26773143Y-66825904D01*
X26677905Y-66778285D01*
X26487429Y-66778285D01*
X26392190Y-66825904D01*
X26344571Y-66873523D01*
X26296952Y-66968761D01*
X25868381Y-72334286D02*
X25868381Y-71715238D01*
X26249333Y-72048572D01*
X26249333Y-71905714D01*
X26296952Y-71810476D01*
X26344571Y-71762857D01*
X26439810Y-71715238D01*
X26677905Y-71715238D01*
X26773143Y-71762857D01*
X26820762Y-71810476D01*
X26868381Y-71905714D01*
X26868381Y-72191429D01*
X26820762Y-72286667D01*
X26773143Y-72334286D01*
X25868381Y-71381905D02*
X25868381Y-70762857D01*
X26249333Y-71096191D01*
X26249333Y-70953333D01*
X26296952Y-70858095D01*
X26344571Y-70810476D01*
X26439810Y-70762857D01*
X26677905Y-70762857D01*
X26773143Y-70810476D01*
X26820762Y-70858095D01*
X26868381Y-70953333D01*
X26868381Y-71239048D01*
X26820762Y-71334286D01*
X26773143Y-71381905D01*
X26868381Y-70334286D02*
X25868381Y-70334286D01*
X26487429Y-70239048D02*
X26868381Y-69953333D01*
X26201714Y-69953333D02*
X26582667Y-70334286D01*
X38798667Y-78128762D02*
X38941524Y-78176381D01*
X39179620Y-78176381D01*
X39274858Y-78128762D01*
X39322477Y-78081143D01*
X39370096Y-77985905D01*
X39370096Y-77890667D01*
X39322477Y-77795429D01*
X39274858Y-77747810D01*
X39179620Y-77700190D01*
X38989143Y-77652571D01*
X38893905Y-77604952D01*
X38846286Y-77557333D01*
X38798667Y-77462095D01*
X38798667Y-77366857D01*
X38846286Y-77271619D01*
X38893905Y-77224000D01*
X38989143Y-77176381D01*
X39227239Y-77176381D01*
X39370096Y-77224000D01*
X39703429Y-77176381D02*
X39941524Y-78176381D01*
X40132001Y-77462095D01*
X40322477Y-78176381D01*
X40560572Y-77176381D01*
X41465334Y-78176381D02*
X40893905Y-78176381D01*
X41179619Y-78176381D02*
X41179619Y-77176381D01*
X41084381Y-77319238D01*
X40989143Y-77414476D01*
X40893905Y-77462095D01*
X36870095Y-70000762D02*
X37012952Y-70048381D01*
X37251048Y-70048381D01*
X37346286Y-70000762D01*
X37393905Y-69953143D01*
X37441524Y-69857905D01*
X37441524Y-69762667D01*
X37393905Y-69667429D01*
X37346286Y-69619810D01*
X37251048Y-69572190D01*
X37060571Y-69524571D01*
X36965333Y-69476952D01*
X36917714Y-69429333D01*
X36870095Y-69334095D01*
X36870095Y-69238857D01*
X36917714Y-69143619D01*
X36965333Y-69096000D01*
X37060571Y-69048381D01*
X37298667Y-69048381D01*
X37441524Y-69096000D01*
X37774857Y-69048381D02*
X38012952Y-70048381D01*
X38203429Y-69334095D01*
X38393905Y-70048381D01*
X38632000Y-69048381D01*
X38774857Y-70143619D02*
X39536762Y-70143619D01*
X39774857Y-70048381D02*
X39774857Y-69048381D01*
X40155810Y-69048381D01*
X40251048Y-69096000D01*
X40298667Y-69143619D01*
X40346286Y-69238857D01*
X40346286Y-69381714D01*
X40298667Y-69476952D01*
X40251048Y-69524571D01*
X40155810Y-69572190D01*
X39774857Y-69572190D01*
X40774857Y-69048381D02*
X40774857Y-69857905D01*
X40822476Y-69953143D01*
X40870095Y-70000762D01*
X40965333Y-70048381D01*
X41155810Y-70048381D01*
X41251048Y-70000762D01*
X41298667Y-69953143D01*
X41346286Y-69857905D01*
X41346286Y-69048381D01*
X41774857Y-70000762D02*
X41917714Y-70048381D01*
X42155810Y-70048381D01*
X42251048Y-70000762D01*
X42298667Y-69953143D01*
X42346286Y-69857905D01*
X42346286Y-69762667D01*
X42298667Y-69667429D01*
X42251048Y-69619810D01*
X42155810Y-69572190D01*
X41965333Y-69524571D01*
X41870095Y-69476952D01*
X41822476Y-69429333D01*
X41774857Y-69334095D01*
X41774857Y-69238857D01*
X41822476Y-69143619D01*
X41870095Y-69096000D01*
X41965333Y-69048381D01*
X42203429Y-69048381D01*
X42346286Y-69096000D01*
X42774857Y-70048381D02*
X42774857Y-69048381D01*
X42774857Y-69524571D02*
X43346286Y-69524571D01*
X43346286Y-70048381D02*
X43346286Y-69048381D01*
X48895095Y-72205381D02*
X48895095Y-73014905D01*
X48942714Y-73110143D01*
X48990333Y-73157762D01*
X49085571Y-73205381D01*
X49276048Y-73205381D01*
X49371286Y-73157762D01*
X49418905Y-73110143D01*
X49466524Y-73014905D01*
X49466524Y-72205381D01*
X50466524Y-73205381D02*
X49895095Y-73205381D01*
X50180809Y-73205381D02*
X50180809Y-72205381D01*
X50085571Y-72348238D01*
X49990333Y-72443476D01*
X49895095Y-72491095D01*
X41752238Y-64605381D02*
X41752238Y-63605381D01*
X42085572Y-64319667D01*
X42418905Y-63605381D01*
X42418905Y-64605381D01*
X42847476Y-64557762D02*
X42990333Y-64605381D01*
X43228429Y-64605381D01*
X43323667Y-64557762D01*
X43371286Y-64510143D01*
X43418905Y-64414905D01*
X43418905Y-64319667D01*
X43371286Y-64224429D01*
X43323667Y-64176810D01*
X43228429Y-64129190D01*
X43037952Y-64081571D01*
X42942714Y-64033952D01*
X42895095Y-63986333D01*
X42847476Y-63891095D01*
X42847476Y-63795857D01*
X42895095Y-63700619D01*
X42942714Y-63653000D01*
X43037952Y-63605381D01*
X43276048Y-63605381D01*
X43418905Y-63653000D01*
X43847476Y-64605381D02*
X43847476Y-63605381D01*
X44228429Y-63605381D01*
X44323667Y-63653000D01*
X44371286Y-63700619D01*
X44418905Y-63795857D01*
X44418905Y-63938714D01*
X44371286Y-64033952D01*
X44323667Y-64081571D01*
X44228429Y-64129190D01*
X43847476Y-64129190D01*
X45276048Y-63938714D02*
X45276048Y-64605381D01*
X45037952Y-63557762D02*
X44799857Y-64272048D01*
X45418905Y-64272048D01*
X45704619Y-63605381D02*
X46323667Y-63605381D01*
X45990333Y-63986333D01*
X46133191Y-63986333D01*
X46228429Y-64033952D01*
X46276048Y-64081571D01*
X46323667Y-64176810D01*
X46323667Y-64414905D01*
X46276048Y-64510143D01*
X46228429Y-64557762D01*
X46133191Y-64605381D01*
X45847476Y-64605381D01*
X45752238Y-64557762D01*
X45704619Y-64510143D01*
X46942714Y-63605381D02*
X47037953Y-63605381D01*
X47133191Y-63653000D01*
X47180810Y-63700619D01*
X47228429Y-63795857D01*
X47276048Y-63986333D01*
X47276048Y-64224429D01*
X47228429Y-64414905D01*
X47180810Y-64510143D01*
X47133191Y-64557762D01*
X47037953Y-64605381D01*
X46942714Y-64605381D01*
X46847476Y-64557762D01*
X46799857Y-64510143D01*
X46752238Y-64414905D01*
X46704619Y-64224429D01*
X46704619Y-63986333D01*
X46752238Y-63795857D01*
X46799857Y-63700619D01*
X46847476Y-63653000D01*
X46942714Y-63605381D01*
X48228429Y-63653000D02*
X48133191Y-63605381D01*
X47990334Y-63605381D01*
X47847476Y-63653000D01*
X47752238Y-63748238D01*
X47704619Y-63843476D01*
X47657000Y-64033952D01*
X47657000Y-64176810D01*
X47704619Y-64367286D01*
X47752238Y-64462524D01*
X47847476Y-64557762D01*
X47990334Y-64605381D01*
X48085572Y-64605381D01*
X48228429Y-64557762D01*
X48276048Y-64510143D01*
X48276048Y-64176810D01*
X48085572Y-64176810D01*
X48657000Y-63700619D02*
X48704619Y-63653000D01*
X48799857Y-63605381D01*
X49037953Y-63605381D01*
X49133191Y-63653000D01*
X49180810Y-63700619D01*
X49228429Y-63795857D01*
X49228429Y-63891095D01*
X49180810Y-64033952D01*
X48609381Y-64605381D01*
X49228429Y-64605381D01*
X50133191Y-63605381D02*
X49657000Y-63605381D01*
X49609381Y-64081571D01*
X49657000Y-64033952D01*
X49752238Y-63986333D01*
X49990334Y-63986333D01*
X50085572Y-64033952D01*
X50133191Y-64081571D01*
X50180810Y-64176810D01*
X50180810Y-64414905D01*
X50133191Y-64510143D01*
X50085572Y-64557762D01*
X49990334Y-64605381D01*
X49752238Y-64605381D01*
X49657000Y-64557762D01*
X49609381Y-64510143D01*
X51085572Y-63605381D02*
X50609381Y-63605381D01*
X50561762Y-64081571D01*
X50609381Y-64033952D01*
X50704619Y-63986333D01*
X50942715Y-63986333D01*
X51037953Y-64033952D01*
X51085572Y-64081571D01*
X51133191Y-64176810D01*
X51133191Y-64414905D01*
X51085572Y-64510143D01*
X51037953Y-64557762D01*
X50942715Y-64605381D01*
X50704619Y-64605381D01*
X50609381Y-64557762D01*
X50561762Y-64510143D01*
X51466524Y-63605381D02*
X52085572Y-63605381D01*
X51752238Y-63986333D01*
X51895096Y-63986333D01*
X51990334Y-64033952D01*
X52037953Y-64081571D01*
X52085572Y-64176810D01*
X52085572Y-64414905D01*
X52037953Y-64510143D01*
X51990334Y-64557762D01*
X51895096Y-64605381D01*
X51609381Y-64605381D01*
X51514143Y-64557762D01*
X51466524Y-64510143D01*
X52514143Y-64605381D02*
X52514143Y-63605381D01*
X52990333Y-64605381D02*
X52990333Y-63605381D01*
X53371286Y-63605381D01*
X53466524Y-63653000D01*
X53514143Y-63700619D01*
X53561762Y-63795857D01*
X53561762Y-63938714D01*
X53514143Y-64033952D01*
X53466524Y-64081571D01*
X53371286Y-64129190D01*
X52990333Y-64129190D01*
X53895095Y-63605381D02*
X54133190Y-64605381D01*
X54323667Y-63891095D01*
X54514143Y-64605381D01*
X54752238Y-63605381D01*
X55085571Y-63700619D02*
X55133190Y-63653000D01*
X55228428Y-63605381D01*
X55466524Y-63605381D01*
X55561762Y-63653000D01*
X55609381Y-63700619D01*
X55657000Y-63795857D01*
X55657000Y-63891095D01*
X55609381Y-64033952D01*
X55037952Y-64605381D01*
X55657000Y-64605381D01*
X56276047Y-63605381D02*
X56371286Y-63605381D01*
X56466524Y-63653000D01*
X56514143Y-63700619D01*
X56561762Y-63795857D01*
X56609381Y-63986333D01*
X56609381Y-64224429D01*
X56561762Y-64414905D01*
X56514143Y-64510143D01*
X56466524Y-64557762D01*
X56371286Y-64605381D01*
X56276047Y-64605381D01*
X56180809Y-64557762D01*
X56133190Y-64510143D01*
X56085571Y-64414905D01*
X56037952Y-64224429D01*
X56037952Y-63986333D01*
X56085571Y-63795857D01*
X56133190Y-63700619D01*
X56180809Y-63653000D01*
X56276047Y-63605381D01*
X57609381Y-64605381D02*
X57276047Y-64129190D01*
X57037952Y-64605381D02*
X57037952Y-63605381D01*
X57418905Y-63605381D01*
X57514143Y-63653000D01*
X57561762Y-63700619D01*
X57609381Y-63795857D01*
X57609381Y-63938714D01*
X57561762Y-64033952D01*
X57514143Y-64081571D01*
X57418905Y-64129190D01*
X57037952Y-64129190D01*
X82018286Y-33964571D02*
X82161143Y-34012190D01*
X82208762Y-34059810D01*
X82256381Y-34155048D01*
X82256381Y-34297905D01*
X82208762Y-34393143D01*
X82161143Y-34440762D01*
X82065905Y-34488381D01*
X81684952Y-34488381D01*
X81684952Y-33488381D01*
X82018286Y-33488381D01*
X82113524Y-33536000D01*
X82161143Y-33583619D01*
X82208762Y-33678857D01*
X82208762Y-33774095D01*
X82161143Y-33869333D01*
X82113524Y-33916952D01*
X82018286Y-33964571D01*
X81684952Y-33964571D01*
X82542095Y-33488381D02*
X83113524Y-33488381D01*
X82827809Y-34488381D02*
X82827809Y-33488381D01*
X83399238Y-33583619D02*
X83446857Y-33536000D01*
X83542095Y-33488381D01*
X83780191Y-33488381D01*
X83875429Y-33536000D01*
X83923048Y-33583619D01*
X83970667Y-33678857D01*
X83970667Y-33774095D01*
X83923048Y-33916952D01*
X83351619Y-34488381D01*
X83970667Y-34488381D01*
D13*
X72752856Y-32040286D02*
X72680285Y-32112857D01*
X72462571Y-32185429D01*
X72317428Y-32185429D01*
X72099713Y-32112857D01*
X71954571Y-31967714D01*
X71881999Y-31822571D01*
X71809428Y-31532286D01*
X71809428Y-31314571D01*
X71881999Y-31024286D01*
X71954571Y-30879143D01*
X72099713Y-30734000D01*
X72317428Y-30661429D01*
X72462571Y-30661429D01*
X72680285Y-30734000D01*
X72752856Y-30806571D01*
X74276856Y-32185429D02*
X73768856Y-31459714D01*
X73405999Y-32185429D02*
X73405999Y-30661429D01*
X73986571Y-30661429D01*
X74131713Y-30734000D01*
X74204285Y-30806571D01*
X74276856Y-30951714D01*
X74276856Y-31169429D01*
X74204285Y-31314571D01*
X74131713Y-31387143D01*
X73986571Y-31459714D01*
X73405999Y-31459714D01*
X74857428Y-30806571D02*
X74929999Y-30734000D01*
X75075142Y-30661429D01*
X75437999Y-30661429D01*
X75583142Y-30734000D01*
X75655713Y-30806571D01*
X75728285Y-30951714D01*
X75728285Y-31096857D01*
X75655713Y-31314571D01*
X74784856Y-32185429D01*
X75728285Y-32185429D01*
X76671714Y-30661429D02*
X76816857Y-30661429D01*
X76962000Y-30734000D01*
X77034571Y-30806571D01*
X77107142Y-30951714D01*
X77179714Y-31242000D01*
X77179714Y-31604857D01*
X77107142Y-31895143D01*
X77034571Y-32040286D01*
X76962000Y-32112857D01*
X76816857Y-32185429D01*
X76671714Y-32185429D01*
X76526571Y-32112857D01*
X76454000Y-32040286D01*
X76381428Y-31895143D01*
X76308857Y-31604857D01*
X76308857Y-31242000D01*
X76381428Y-30951714D01*
X76454000Y-30806571D01*
X76526571Y-30734000D01*
X76671714Y-30661429D01*
X77687714Y-30661429D02*
X78631143Y-30661429D01*
X78123143Y-31242000D01*
X78340857Y-31242000D01*
X78486000Y-31314571D01*
X78558571Y-31387143D01*
X78631143Y-31532286D01*
X78631143Y-31895143D01*
X78558571Y-32040286D01*
X78486000Y-32112857D01*
X78340857Y-32185429D01*
X77905429Y-32185429D01*
X77760286Y-32112857D01*
X77687714Y-32040286D01*
X79211715Y-30806571D02*
X79284286Y-30734000D01*
X79429429Y-30661429D01*
X79792286Y-30661429D01*
X79937429Y-30734000D01*
X80010000Y-30806571D01*
X80082572Y-30951714D01*
X80082572Y-31096857D01*
X80010000Y-31314571D01*
X79139143Y-32185429D01*
X80082572Y-32185429D01*
D12*
X47474286Y-33964571D02*
X47617143Y-34012190D01*
X47664762Y-34059810D01*
X47712381Y-34155048D01*
X47712381Y-34297905D01*
X47664762Y-34393143D01*
X47617143Y-34440762D01*
X47521905Y-34488381D01*
X47140952Y-34488381D01*
X47140952Y-33488381D01*
X47474286Y-33488381D01*
X47569524Y-33536000D01*
X47617143Y-33583619D01*
X47664762Y-33678857D01*
X47664762Y-33774095D01*
X47617143Y-33869333D01*
X47569524Y-33916952D01*
X47474286Y-33964571D01*
X47140952Y-33964571D01*
X47998095Y-33488381D02*
X48569524Y-33488381D01*
X48283809Y-34488381D02*
X48283809Y-33488381D01*
X49426667Y-34488381D02*
X48855238Y-34488381D01*
X49140952Y-34488381D02*
X49140952Y-33488381D01*
X49045714Y-33631238D01*
X48950476Y-33726476D01*
X48855238Y-33774095D01*
D13*
X38208856Y-32040286D02*
X38136285Y-32112857D01*
X37918571Y-32185429D01*
X37773428Y-32185429D01*
X37555713Y-32112857D01*
X37410571Y-31967714D01*
X37337999Y-31822571D01*
X37265428Y-31532286D01*
X37265428Y-31314571D01*
X37337999Y-31024286D01*
X37410571Y-30879143D01*
X37555713Y-30734000D01*
X37773428Y-30661429D01*
X37918571Y-30661429D01*
X38136285Y-30734000D01*
X38208856Y-30806571D01*
X39732856Y-32185429D02*
X39224856Y-31459714D01*
X38861999Y-32185429D02*
X38861999Y-30661429D01*
X39442571Y-30661429D01*
X39587713Y-30734000D01*
X39660285Y-30806571D01*
X39732856Y-30951714D01*
X39732856Y-31169429D01*
X39660285Y-31314571D01*
X39587713Y-31387143D01*
X39442571Y-31459714D01*
X38861999Y-31459714D01*
X40313428Y-30806571D02*
X40385999Y-30734000D01*
X40531142Y-30661429D01*
X40893999Y-30661429D01*
X41039142Y-30734000D01*
X41111713Y-30806571D01*
X41184285Y-30951714D01*
X41184285Y-31096857D01*
X41111713Y-31314571D01*
X40240856Y-32185429D01*
X41184285Y-32185429D01*
X42127714Y-30661429D02*
X42272857Y-30661429D01*
X42418000Y-30734000D01*
X42490571Y-30806571D01*
X42563142Y-30951714D01*
X42635714Y-31242000D01*
X42635714Y-31604857D01*
X42563142Y-31895143D01*
X42490571Y-32040286D01*
X42418000Y-32112857D01*
X42272857Y-32185429D01*
X42127714Y-32185429D01*
X41982571Y-32112857D01*
X41910000Y-32040286D01*
X41837428Y-31895143D01*
X41764857Y-31604857D01*
X41764857Y-31242000D01*
X41837428Y-30951714D01*
X41910000Y-30806571D01*
X41982571Y-30734000D01*
X42127714Y-30661429D01*
X43143714Y-30661429D02*
X44087143Y-30661429D01*
X43579143Y-31242000D01*
X43796857Y-31242000D01*
X43942000Y-31314571D01*
X44014571Y-31387143D01*
X44087143Y-31532286D01*
X44087143Y-31895143D01*
X44014571Y-32040286D01*
X43942000Y-32112857D01*
X43796857Y-32185429D01*
X43361429Y-32185429D01*
X43216286Y-32112857D01*
X43143714Y-32040286D01*
X44667715Y-30806571D02*
X44740286Y-30734000D01*
X44885429Y-30661429D01*
X45248286Y-30661429D01*
X45393429Y-30734000D01*
X45466000Y-30806571D01*
X45538572Y-30951714D01*
X45538572Y-31096857D01*
X45466000Y-31314571D01*
X44595143Y-32185429D01*
X45538572Y-32185429D01*
M02*
